G04 #@! TF.GenerationSoftware,KiCad,Pcbnew,5.0.1*
G04 #@! TF.CreationDate,2019-01-03T14:53:17+01:00*
G04 #@! TF.ProjectId,e73-c,6537332D632E6B696361645F70636200,rev?*
G04 #@! TF.SameCoordinates,Original*
G04 #@! TF.FileFunction,Legend,Top*
G04 #@! TF.FilePolarity,Positive*
%FSLAX46Y46*%
G04 Gerber Fmt 4.6, Leading zero omitted, Abs format (unit mm)*
G04 Created by KiCad (PCBNEW 5.0.1) date do 03 jan 2019 14:53:17 CET*
%MOMM*%
%LPD*%
G01*
G04 APERTURE LIST*
%ADD10C,0.300000*%
%ADD11C,0.250000*%
%ADD12C,0.200000*%
%ADD13C,0.187500*%
%ADD14C,0.150000*%
%ADD15C,0.120000*%
G04 APERTURE END LIST*
D10*
X159976428Y-79129285D02*
X159976428Y-78415000D01*
X161476428Y-78415000D01*
X159976428Y-79629285D02*
X161476428Y-79629285D01*
X161476428Y-79986428D01*
X161405000Y-80200714D01*
X161262142Y-80343571D01*
X161119285Y-80415000D01*
X160833571Y-80486428D01*
X160619285Y-80486428D01*
X160333571Y-80415000D01*
X160190714Y-80343571D01*
X160047857Y-80200714D01*
X159976428Y-79986428D01*
X159976428Y-79629285D01*
X161476428Y-81415000D02*
X161476428Y-81700714D01*
X161405000Y-81843571D01*
X161262142Y-81986428D01*
X160976428Y-82057857D01*
X160476428Y-82057857D01*
X160190714Y-81986428D01*
X160047857Y-81843571D01*
X159976428Y-81700714D01*
X159976428Y-81415000D01*
X160047857Y-81272142D01*
X160190714Y-81129285D01*
X160476428Y-81057857D01*
X160976428Y-81057857D01*
X161262142Y-81129285D01*
X161405000Y-81272142D01*
X161476428Y-81415000D01*
X159833571Y-82343571D02*
X159833571Y-83486428D01*
X159976428Y-83843571D02*
X161476428Y-83843571D01*
X159976428Y-84557857D02*
X161476428Y-84557857D01*
X159976428Y-85415000D01*
X161476428Y-85415000D01*
X158936428Y-79089285D02*
X158936428Y-78375000D01*
X158222142Y-78303571D01*
X158293571Y-78375000D01*
X158365000Y-78517857D01*
X158365000Y-78875000D01*
X158293571Y-79017857D01*
X158222142Y-79089285D01*
X158079285Y-79160714D01*
X157722142Y-79160714D01*
X157579285Y-79089285D01*
X157507857Y-79017857D01*
X157436428Y-78875000D01*
X157436428Y-78517857D01*
X157507857Y-78375000D01*
X157579285Y-78303571D01*
X158936428Y-79589285D02*
X157436428Y-80089285D01*
X158936428Y-80589285D01*
X156396428Y-77859285D02*
X154896428Y-78359285D01*
X156396428Y-78859285D01*
X154896428Y-79359285D02*
X156396428Y-79359285D01*
X156396428Y-79716428D01*
X156325000Y-79930714D01*
X156182142Y-80073571D01*
X156039285Y-80145000D01*
X155753571Y-80216428D01*
X155539285Y-80216428D01*
X155253571Y-80145000D01*
X155110714Y-80073571D01*
X154967857Y-79930714D01*
X154896428Y-79716428D01*
X154896428Y-79359285D01*
X154896428Y-80859285D02*
X156396428Y-80859285D01*
X156396428Y-81216428D01*
X156325000Y-81430714D01*
X156182142Y-81573571D01*
X156039285Y-81645000D01*
X155753571Y-81716428D01*
X155539285Y-81716428D01*
X155253571Y-81645000D01*
X155110714Y-81573571D01*
X154967857Y-81430714D01*
X154896428Y-81216428D01*
X154896428Y-80859285D01*
X154896428Y-82359285D02*
X156396428Y-82359285D01*
X155682142Y-82359285D02*
X155682142Y-83216428D01*
X154896428Y-83216428D02*
X156396428Y-83216428D01*
X153856428Y-78010000D02*
X152356428Y-78510000D01*
X153856428Y-79010000D01*
X152356428Y-79510000D02*
X153856428Y-79510000D01*
X153856428Y-79867142D01*
X153785000Y-80081428D01*
X153642142Y-80224285D01*
X153499285Y-80295714D01*
X153213571Y-80367142D01*
X152999285Y-80367142D01*
X152713571Y-80295714D01*
X152570714Y-80224285D01*
X152427857Y-80081428D01*
X152356428Y-79867142D01*
X152356428Y-79510000D01*
X152356428Y-81010000D02*
X153856428Y-81010000D01*
X153856428Y-81367142D01*
X153785000Y-81581428D01*
X153642142Y-81724285D01*
X153499285Y-81795714D01*
X153213571Y-81867142D01*
X152999285Y-81867142D01*
X152713571Y-81795714D01*
X152570714Y-81724285D01*
X152427857Y-81581428D01*
X152356428Y-81367142D01*
X152356428Y-81010000D01*
D11*
X151852380Y-53530476D02*
X151852380Y-54006666D01*
X152328571Y-54054285D01*
X152280952Y-54006666D01*
X152233333Y-53911428D01*
X152233333Y-53673333D01*
X152280952Y-53578095D01*
X152328571Y-53530476D01*
X152423809Y-53482857D01*
X152661904Y-53482857D01*
X152757142Y-53530476D01*
X152804761Y-53578095D01*
X152852380Y-53673333D01*
X152852380Y-53911428D01*
X152804761Y-54006666D01*
X152757142Y-54054285D01*
X151852380Y-53197142D02*
X152852380Y-52863809D01*
X151852380Y-52530476D01*
X163107619Y-65667142D02*
X162107619Y-66000476D01*
X163107619Y-66333809D01*
X162631428Y-67000476D02*
X162583809Y-67143333D01*
X162536190Y-67190952D01*
X162440952Y-67238571D01*
X162298095Y-67238571D01*
X162202857Y-67190952D01*
X162155238Y-67143333D01*
X162107619Y-67048095D01*
X162107619Y-66667142D01*
X163107619Y-66667142D01*
X163107619Y-67000476D01*
X163060000Y-67095714D01*
X163012380Y-67143333D01*
X162917142Y-67190952D01*
X162821904Y-67190952D01*
X162726666Y-67143333D01*
X162679047Y-67095714D01*
X162631428Y-67000476D01*
X162631428Y-66667142D01*
X162393333Y-67619523D02*
X162393333Y-68095714D01*
X162107619Y-67524285D02*
X163107619Y-67857619D01*
X162107619Y-68190952D01*
X163107619Y-68381428D02*
X163107619Y-68952857D01*
X162107619Y-68667142D02*
X163107619Y-68667142D01*
X140247619Y-65849523D02*
X140247619Y-65373333D01*
X139771428Y-65325714D01*
X139819047Y-65373333D01*
X139866666Y-65468571D01*
X139866666Y-65706666D01*
X139819047Y-65801904D01*
X139771428Y-65849523D01*
X139676190Y-65897142D01*
X139438095Y-65897142D01*
X139342857Y-65849523D01*
X139295238Y-65801904D01*
X139247619Y-65706666D01*
X139247619Y-65468571D01*
X139295238Y-65373333D01*
X139342857Y-65325714D01*
X140247619Y-66182857D02*
X139247619Y-66516190D01*
X140247619Y-66849523D01*
X132651666Y-62952380D02*
X132985000Y-63952380D01*
X133318333Y-62952380D01*
X133651666Y-63952380D02*
X133651666Y-62952380D01*
X133889761Y-62952380D01*
X134032619Y-63000000D01*
X134127857Y-63095238D01*
X134175476Y-63190476D01*
X134223095Y-63380952D01*
X134223095Y-63523809D01*
X134175476Y-63714285D01*
X134127857Y-63809523D01*
X134032619Y-63904761D01*
X133889761Y-63952380D01*
X133651666Y-63952380D01*
X134651666Y-63952380D02*
X134651666Y-62952380D01*
X134889761Y-62952380D01*
X135032619Y-63000000D01*
X135127857Y-63095238D01*
X135175476Y-63190476D01*
X135223095Y-63380952D01*
X135223095Y-63523809D01*
X135175476Y-63714285D01*
X135127857Y-63809523D01*
X135032619Y-63904761D01*
X134889761Y-63952380D01*
X134651666Y-63952380D01*
D10*
X132842142Y-88221428D02*
X132913571Y-88150000D01*
X133056428Y-88078571D01*
X133413571Y-88078571D01*
X133556428Y-88150000D01*
X133627857Y-88221428D01*
X133699285Y-88364285D01*
X133699285Y-88507142D01*
X133627857Y-88721428D01*
X132770714Y-89578571D01*
X133699285Y-89578571D01*
X134985000Y-88578571D02*
X134985000Y-89578571D01*
X134627857Y-88007142D02*
X134270714Y-89078571D01*
X135199285Y-89078571D01*
D11*
X167513095Y-57920000D02*
X167417857Y-57872380D01*
X167275000Y-57872380D01*
X167132142Y-57920000D01*
X167036904Y-58015238D01*
X166989285Y-58110476D01*
X166941666Y-58300952D01*
X166941666Y-58443809D01*
X166989285Y-58634285D01*
X167036904Y-58729523D01*
X167132142Y-58824761D01*
X167275000Y-58872380D01*
X167370238Y-58872380D01*
X167513095Y-58824761D01*
X167560714Y-58777142D01*
X167560714Y-58443809D01*
X167370238Y-58443809D01*
X167989285Y-58872380D02*
X167989285Y-57872380D01*
X168560714Y-58872380D01*
X168560714Y-57872380D01*
X169036904Y-58872380D02*
X169036904Y-57872380D01*
X169275000Y-57872380D01*
X169417857Y-57920000D01*
X169513095Y-58015238D01*
X169560714Y-58110476D01*
X169608333Y-58300952D01*
X169608333Y-58443809D01*
X169560714Y-58634285D01*
X169513095Y-58729523D01*
X169417857Y-58824761D01*
X169275000Y-58872380D01*
X169036904Y-58872380D01*
X167513095Y-55380000D02*
X167417857Y-55332380D01*
X167275000Y-55332380D01*
X167132142Y-55380000D01*
X167036904Y-55475238D01*
X166989285Y-55570476D01*
X166941666Y-55760952D01*
X166941666Y-55903809D01*
X166989285Y-56094285D01*
X167036904Y-56189523D01*
X167132142Y-56284761D01*
X167275000Y-56332380D01*
X167370238Y-56332380D01*
X167513095Y-56284761D01*
X167560714Y-56237142D01*
X167560714Y-55903809D01*
X167370238Y-55903809D01*
X167989285Y-56332380D02*
X167989285Y-55332380D01*
X168560714Y-56332380D01*
X168560714Y-55332380D01*
X169036904Y-56332380D02*
X169036904Y-55332380D01*
X169275000Y-55332380D01*
X169417857Y-55380000D01*
X169513095Y-55475238D01*
X169560714Y-55570476D01*
X169608333Y-55760952D01*
X169608333Y-55903809D01*
X169560714Y-56094285D01*
X169513095Y-56189523D01*
X169417857Y-56284761D01*
X169275000Y-56332380D01*
X169036904Y-56332380D01*
X166941666Y-62952380D02*
X167275000Y-63952380D01*
X167608333Y-62952380D01*
X167941666Y-63952380D02*
X167941666Y-62952380D01*
X168179761Y-62952380D01*
X168322619Y-63000000D01*
X168417857Y-63095238D01*
X168465476Y-63190476D01*
X168513095Y-63380952D01*
X168513095Y-63523809D01*
X168465476Y-63714285D01*
X168417857Y-63809523D01*
X168322619Y-63904761D01*
X168179761Y-63952380D01*
X167941666Y-63952380D01*
X168941666Y-63952380D02*
X168941666Y-62952380D01*
X169179761Y-62952380D01*
X169322619Y-63000000D01*
X169417857Y-63095238D01*
X169465476Y-63190476D01*
X169513095Y-63380952D01*
X169513095Y-63523809D01*
X169465476Y-63714285D01*
X169417857Y-63809523D01*
X169322619Y-63904761D01*
X169179761Y-63952380D01*
X168941666Y-63952380D01*
X166941666Y-60412380D02*
X167275000Y-61412380D01*
X167608333Y-60412380D01*
X167941666Y-61412380D02*
X167941666Y-60412380D01*
X168179761Y-60412380D01*
X168322619Y-60460000D01*
X168417857Y-60555238D01*
X168465476Y-60650476D01*
X168513095Y-60840952D01*
X168513095Y-60983809D01*
X168465476Y-61174285D01*
X168417857Y-61269523D01*
X168322619Y-61364761D01*
X168179761Y-61412380D01*
X167941666Y-61412380D01*
X168941666Y-61412380D02*
X168941666Y-60412380D01*
X169179761Y-60412380D01*
X169322619Y-60460000D01*
X169417857Y-60555238D01*
X169465476Y-60650476D01*
X169513095Y-60840952D01*
X169513095Y-60983809D01*
X169465476Y-61174285D01*
X169417857Y-61269523D01*
X169322619Y-61364761D01*
X169179761Y-61412380D01*
X168941666Y-61412380D01*
D10*
X167846428Y-103818571D02*
X167846428Y-104818571D01*
X167489285Y-103247142D02*
X167132142Y-104318571D01*
X168060714Y-104318571D01*
X168560714Y-103461428D02*
X168632142Y-103390000D01*
X168775000Y-103318571D01*
X169132142Y-103318571D01*
X169275000Y-103390000D01*
X169346428Y-103461428D01*
X169417857Y-103604285D01*
X169417857Y-103747142D01*
X169346428Y-103961428D01*
X168489285Y-104818571D01*
X169417857Y-104818571D01*
X167846428Y-101278571D02*
X167846428Y-102278571D01*
X167489285Y-100707142D02*
X167132142Y-101778571D01*
X168060714Y-101778571D01*
X169417857Y-102278571D02*
X168560714Y-102278571D01*
X168989285Y-102278571D02*
X168989285Y-100778571D01*
X168846428Y-100992857D01*
X168703571Y-101135714D01*
X168560714Y-101207142D01*
X167775000Y-98238571D02*
X168703571Y-98238571D01*
X168203571Y-98810000D01*
X168417857Y-98810000D01*
X168560714Y-98881428D01*
X168632142Y-98952857D01*
X168703571Y-99095714D01*
X168703571Y-99452857D01*
X168632142Y-99595714D01*
X168560714Y-99667142D01*
X168417857Y-99738571D01*
X167989285Y-99738571D01*
X167846428Y-99667142D01*
X167775000Y-99595714D01*
X167132142Y-95841428D02*
X167203571Y-95770000D01*
X167346428Y-95698571D01*
X167703571Y-95698571D01*
X167846428Y-95770000D01*
X167917857Y-95841428D01*
X167989285Y-95984285D01*
X167989285Y-96127142D01*
X167917857Y-96341428D01*
X167060714Y-97198571D01*
X167989285Y-97198571D01*
X168846428Y-96341428D02*
X168703571Y-96270000D01*
X168632142Y-96198571D01*
X168560714Y-96055714D01*
X168560714Y-95984285D01*
X168632142Y-95841428D01*
X168703571Y-95770000D01*
X168846428Y-95698571D01*
X169132142Y-95698571D01*
X169275000Y-95770000D01*
X169346428Y-95841428D01*
X169417857Y-95984285D01*
X169417857Y-96055714D01*
X169346428Y-96198571D01*
X169275000Y-96270000D01*
X169132142Y-96341428D01*
X168846428Y-96341428D01*
X168703571Y-96412857D01*
X168632142Y-96484285D01*
X168560714Y-96627142D01*
X168560714Y-96912857D01*
X168632142Y-97055714D01*
X168703571Y-97127142D01*
X168846428Y-97198571D01*
X169132142Y-97198571D01*
X169275000Y-97127142D01*
X169346428Y-97055714D01*
X169417857Y-96912857D01*
X169417857Y-96627142D01*
X169346428Y-96484285D01*
X169275000Y-96412857D01*
X169132142Y-96341428D01*
X167846428Y-93658571D02*
X167846428Y-94658571D01*
X167489285Y-93087142D02*
X167132142Y-94158571D01*
X168060714Y-94158571D01*
X169275000Y-93658571D02*
X169275000Y-94658571D01*
X168917857Y-93087142D02*
X168560714Y-94158571D01*
X169489285Y-94158571D01*
X167846428Y-90761428D02*
X167917857Y-90690000D01*
X168060714Y-90618571D01*
X168417857Y-90618571D01*
X168560714Y-90690000D01*
X168632142Y-90761428D01*
X168703571Y-90904285D01*
X168703571Y-91047142D01*
X168632142Y-91261428D01*
X167775000Y-92118571D01*
X168703571Y-92118571D01*
X167132142Y-88221428D02*
X167203571Y-88150000D01*
X167346428Y-88078571D01*
X167703571Y-88078571D01*
X167846428Y-88150000D01*
X167917857Y-88221428D01*
X167989285Y-88364285D01*
X167989285Y-88507142D01*
X167917857Y-88721428D01*
X167060714Y-89578571D01*
X167989285Y-89578571D01*
X168703571Y-89578571D02*
X168989285Y-89578571D01*
X169132142Y-89507142D01*
X169203571Y-89435714D01*
X169346428Y-89221428D01*
X169417857Y-88935714D01*
X169417857Y-88364285D01*
X169346428Y-88221428D01*
X169275000Y-88150000D01*
X169132142Y-88078571D01*
X168846428Y-88078571D01*
X168703571Y-88150000D01*
X168632142Y-88221428D01*
X168560714Y-88364285D01*
X168560714Y-88721428D01*
X168632142Y-88864285D01*
X168703571Y-88935714D01*
X168846428Y-89007142D01*
X169132142Y-89007142D01*
X169275000Y-88935714D01*
X169346428Y-88864285D01*
X169417857Y-88721428D01*
X167060714Y-85538571D02*
X167989285Y-85538571D01*
X167489285Y-86110000D01*
X167703571Y-86110000D01*
X167846428Y-86181428D01*
X167917857Y-86252857D01*
X167989285Y-86395714D01*
X167989285Y-86752857D01*
X167917857Y-86895714D01*
X167846428Y-86967142D01*
X167703571Y-87038571D01*
X167275000Y-87038571D01*
X167132142Y-86967142D01*
X167060714Y-86895714D01*
X169417857Y-87038571D02*
X168560714Y-87038571D01*
X168989285Y-87038571D02*
X168989285Y-85538571D01*
X168846428Y-85752857D01*
X168703571Y-85895714D01*
X168560714Y-85967142D01*
X167060714Y-82998571D02*
X167989285Y-82998571D01*
X167489285Y-83570000D01*
X167703571Y-83570000D01*
X167846428Y-83641428D01*
X167917857Y-83712857D01*
X167989285Y-83855714D01*
X167989285Y-84212857D01*
X167917857Y-84355714D01*
X167846428Y-84427142D01*
X167703571Y-84498571D01*
X167275000Y-84498571D01*
X167132142Y-84427142D01*
X167060714Y-84355714D01*
X168917857Y-82998571D02*
X169060714Y-82998571D01*
X169203571Y-83070000D01*
X169275000Y-83141428D01*
X169346428Y-83284285D01*
X169417857Y-83570000D01*
X169417857Y-83927142D01*
X169346428Y-84212857D01*
X169275000Y-84355714D01*
X169203571Y-84427142D01*
X169060714Y-84498571D01*
X168917857Y-84498571D01*
X168775000Y-84427142D01*
X168703571Y-84355714D01*
X168632142Y-84212857D01*
X168560714Y-83927142D01*
X168560714Y-83570000D01*
X168632142Y-83284285D01*
X168703571Y-83141428D01*
X168775000Y-83070000D01*
X168917857Y-82998571D01*
X167132142Y-80601428D02*
X167203571Y-80530000D01*
X167346428Y-80458571D01*
X167703571Y-80458571D01*
X167846428Y-80530000D01*
X167917857Y-80601428D01*
X167989285Y-80744285D01*
X167989285Y-80887142D01*
X167917857Y-81101428D01*
X167060714Y-81958571D01*
X167989285Y-81958571D01*
X169275000Y-80458571D02*
X168989285Y-80458571D01*
X168846428Y-80530000D01*
X168775000Y-80601428D01*
X168632142Y-80815714D01*
X168560714Y-81101428D01*
X168560714Y-81672857D01*
X168632142Y-81815714D01*
X168703571Y-81887142D01*
X168846428Y-81958571D01*
X169132142Y-81958571D01*
X169275000Y-81887142D01*
X169346428Y-81815714D01*
X169417857Y-81672857D01*
X169417857Y-81315714D01*
X169346428Y-81172857D01*
X169275000Y-81101428D01*
X169132142Y-81030000D01*
X168846428Y-81030000D01*
X168703571Y-81101428D01*
X168632142Y-81172857D01*
X168560714Y-81315714D01*
X168560714Y-77918571D02*
X168275000Y-77918571D01*
X168132142Y-77990000D01*
X168060714Y-78061428D01*
X167917857Y-78275714D01*
X167846428Y-78561428D01*
X167846428Y-79132857D01*
X167917857Y-79275714D01*
X167989285Y-79347142D01*
X168132142Y-79418571D01*
X168417857Y-79418571D01*
X168560714Y-79347142D01*
X168632142Y-79275714D01*
X168703571Y-79132857D01*
X168703571Y-78775714D01*
X168632142Y-78632857D01*
X168560714Y-78561428D01*
X168417857Y-78490000D01*
X168132142Y-78490000D01*
X167989285Y-78561428D01*
X167917857Y-78632857D01*
X167846428Y-78775714D01*
X168632142Y-75378571D02*
X167917857Y-75378571D01*
X167846428Y-76092857D01*
X167917857Y-76021428D01*
X168060714Y-75950000D01*
X168417857Y-75950000D01*
X168560714Y-76021428D01*
X168632142Y-76092857D01*
X168703571Y-76235714D01*
X168703571Y-76592857D01*
X168632142Y-76735714D01*
X168560714Y-76807142D01*
X168417857Y-76878571D01*
X168060714Y-76878571D01*
X167917857Y-76807142D01*
X167846428Y-76735714D01*
X168132142Y-73481428D02*
X167989285Y-73410000D01*
X167917857Y-73338571D01*
X167846428Y-73195714D01*
X167846428Y-73124285D01*
X167917857Y-72981428D01*
X167989285Y-72910000D01*
X168132142Y-72838571D01*
X168417857Y-72838571D01*
X168560714Y-72910000D01*
X168632142Y-72981428D01*
X168703571Y-73124285D01*
X168703571Y-73195714D01*
X168632142Y-73338571D01*
X168560714Y-73410000D01*
X168417857Y-73481428D01*
X168132142Y-73481428D01*
X167989285Y-73552857D01*
X167917857Y-73624285D01*
X167846428Y-73767142D01*
X167846428Y-74052857D01*
X167917857Y-74195714D01*
X167989285Y-74267142D01*
X168132142Y-74338571D01*
X168417857Y-74338571D01*
X168560714Y-74267142D01*
X168632142Y-74195714D01*
X168703571Y-74052857D01*
X168703571Y-73767142D01*
X168632142Y-73624285D01*
X168560714Y-73552857D01*
X168417857Y-73481428D01*
X167846428Y-70798571D02*
X167846428Y-71798571D01*
X167489285Y-70227142D02*
X167132142Y-71298571D01*
X168060714Y-71298571D01*
X168917857Y-70298571D02*
X169060714Y-70298571D01*
X169203571Y-70370000D01*
X169275000Y-70441428D01*
X169346428Y-70584285D01*
X169417857Y-70870000D01*
X169417857Y-71227142D01*
X169346428Y-71512857D01*
X169275000Y-71655714D01*
X169203571Y-71727142D01*
X169060714Y-71798571D01*
X168917857Y-71798571D01*
X168775000Y-71727142D01*
X168703571Y-71655714D01*
X168632142Y-71512857D01*
X168560714Y-71227142D01*
X168560714Y-70870000D01*
X168632142Y-70584285D01*
X168703571Y-70441428D01*
X168775000Y-70370000D01*
X168917857Y-70298571D01*
X134270714Y-68258571D02*
X134270714Y-69258571D01*
X133913571Y-67687142D02*
X133556428Y-68758571D01*
X134485000Y-68758571D01*
X133699285Y-71798571D02*
X132842142Y-71798571D01*
X133270714Y-71798571D02*
X133270714Y-70298571D01*
X133127857Y-70512857D01*
X132985000Y-70655714D01*
X132842142Y-70727142D01*
X134270714Y-70441428D02*
X134342142Y-70370000D01*
X134485000Y-70298571D01*
X134842142Y-70298571D01*
X134985000Y-70370000D01*
X135056428Y-70441428D01*
X135127857Y-70584285D01*
X135127857Y-70727142D01*
X135056428Y-70941428D01*
X134199285Y-71798571D01*
X135127857Y-71798571D01*
X133485000Y-72838571D02*
X134485000Y-72838571D01*
X133842142Y-74338571D01*
X134270714Y-75878571D02*
X134270714Y-76878571D01*
X133913571Y-75307142D02*
X133556428Y-76378571D01*
X134485000Y-76378571D01*
X133699285Y-79418571D02*
X132842142Y-79418571D01*
X133270714Y-79418571D02*
X133270714Y-77918571D01*
X133127857Y-78132857D01*
X132985000Y-78275714D01*
X132842142Y-78347142D01*
X134199285Y-77918571D02*
X135199285Y-77918571D01*
X134556428Y-79418571D01*
X132842142Y-80601428D02*
X132913571Y-80530000D01*
X133056428Y-80458571D01*
X133413571Y-80458571D01*
X133556428Y-80530000D01*
X133627857Y-80601428D01*
X133699285Y-80744285D01*
X133699285Y-80887142D01*
X133627857Y-81101428D01*
X132770714Y-81958571D01*
X133699285Y-81958571D01*
X134627857Y-80458571D02*
X134770714Y-80458571D01*
X134913571Y-80530000D01*
X134985000Y-80601428D01*
X135056428Y-80744285D01*
X135127857Y-81030000D01*
X135127857Y-81387142D01*
X135056428Y-81672857D01*
X134985000Y-81815714D01*
X134913571Y-81887142D01*
X134770714Y-81958571D01*
X134627857Y-81958571D01*
X134485000Y-81887142D01*
X134413571Y-81815714D01*
X134342142Y-81672857D01*
X134270714Y-81387142D01*
X134270714Y-81030000D01*
X134342142Y-80744285D01*
X134413571Y-80601428D01*
X134485000Y-80530000D01*
X134627857Y-80458571D01*
X133699285Y-84498571D02*
X132842142Y-84498571D01*
X133270714Y-84498571D02*
X133270714Y-82998571D01*
X133127857Y-83212857D01*
X132985000Y-83355714D01*
X132842142Y-83427142D01*
X134199285Y-82998571D02*
X135127857Y-82998571D01*
X134627857Y-83570000D01*
X134842142Y-83570000D01*
X134985000Y-83641428D01*
X135056428Y-83712857D01*
X135127857Y-83855714D01*
X135127857Y-84212857D01*
X135056428Y-84355714D01*
X134985000Y-84427142D01*
X134842142Y-84498571D01*
X134413571Y-84498571D01*
X134270714Y-84427142D01*
X134199285Y-84355714D01*
X132842142Y-85681428D02*
X132913571Y-85610000D01*
X133056428Y-85538571D01*
X133413571Y-85538571D01*
X133556428Y-85610000D01*
X133627857Y-85681428D01*
X133699285Y-85824285D01*
X133699285Y-85967142D01*
X133627857Y-86181428D01*
X132770714Y-87038571D01*
X133699285Y-87038571D01*
X134270714Y-85681428D02*
X134342142Y-85610000D01*
X134485000Y-85538571D01*
X134842142Y-85538571D01*
X134985000Y-85610000D01*
X135056428Y-85681428D01*
X135127857Y-85824285D01*
X135127857Y-85967142D01*
X135056428Y-86181428D01*
X134199285Y-87038571D01*
X135127857Y-87038571D01*
X132770714Y-90618571D02*
X133699285Y-90618571D01*
X133199285Y-91190000D01*
X133413571Y-91190000D01*
X133556428Y-91261428D01*
X133627857Y-91332857D01*
X133699285Y-91475714D01*
X133699285Y-91832857D01*
X133627857Y-91975714D01*
X133556428Y-92047142D01*
X133413571Y-92118571D01*
X132985000Y-92118571D01*
X132842142Y-92047142D01*
X132770714Y-91975714D01*
X134270714Y-90761428D02*
X134342142Y-90690000D01*
X134485000Y-90618571D01*
X134842142Y-90618571D01*
X134985000Y-90690000D01*
X135056428Y-90761428D01*
X135127857Y-90904285D01*
X135127857Y-91047142D01*
X135056428Y-91261428D01*
X134199285Y-92118571D01*
X135127857Y-92118571D01*
X132770714Y-93158571D02*
X133699285Y-93158571D01*
X133199285Y-93730000D01*
X133413571Y-93730000D01*
X133556428Y-93801428D01*
X133627857Y-93872857D01*
X133699285Y-94015714D01*
X133699285Y-94372857D01*
X133627857Y-94515714D01*
X133556428Y-94587142D01*
X133413571Y-94658571D01*
X132985000Y-94658571D01*
X132842142Y-94587142D01*
X132770714Y-94515714D01*
X134985000Y-93658571D02*
X134985000Y-94658571D01*
X134627857Y-93087142D02*
X134270714Y-94158571D01*
X135199285Y-94158571D01*
X132770714Y-95698571D02*
X133699285Y-95698571D01*
X133199285Y-96270000D01*
X133413571Y-96270000D01*
X133556428Y-96341428D01*
X133627857Y-96412857D01*
X133699285Y-96555714D01*
X133699285Y-96912857D01*
X133627857Y-97055714D01*
X133556428Y-97127142D01*
X133413571Y-97198571D01*
X132985000Y-97198571D01*
X132842142Y-97127142D01*
X132770714Y-97055714D01*
X134985000Y-95698571D02*
X134699285Y-95698571D01*
X134556428Y-95770000D01*
X134485000Y-95841428D01*
X134342142Y-96055714D01*
X134270714Y-96341428D01*
X134270714Y-96912857D01*
X134342142Y-97055714D01*
X134413571Y-97127142D01*
X134556428Y-97198571D01*
X134842142Y-97198571D01*
X134985000Y-97127142D01*
X135056428Y-97055714D01*
X135127857Y-96912857D01*
X135127857Y-96555714D01*
X135056428Y-96412857D01*
X134985000Y-96341428D01*
X134842142Y-96270000D01*
X134556428Y-96270000D01*
X134413571Y-96341428D01*
X134342142Y-96412857D01*
X134270714Y-96555714D01*
X133699285Y-99738571D02*
X133985000Y-99738571D01*
X134127857Y-99667142D01*
X134199285Y-99595714D01*
X134342142Y-99381428D01*
X134413571Y-99095714D01*
X134413571Y-98524285D01*
X134342142Y-98381428D01*
X134270714Y-98310000D01*
X134127857Y-98238571D01*
X133842142Y-98238571D01*
X133699285Y-98310000D01*
X133627857Y-98381428D01*
X133556428Y-98524285D01*
X133556428Y-98881428D01*
X133627857Y-99024285D01*
X133699285Y-99095714D01*
X133842142Y-99167142D01*
X134127857Y-99167142D01*
X134270714Y-99095714D01*
X134342142Y-99024285D01*
X134413571Y-98881428D01*
X132770714Y-100778571D02*
X133699285Y-100778571D01*
X133199285Y-101350000D01*
X133413571Y-101350000D01*
X133556428Y-101421428D01*
X133627857Y-101492857D01*
X133699285Y-101635714D01*
X133699285Y-101992857D01*
X133627857Y-102135714D01*
X133556428Y-102207142D01*
X133413571Y-102278571D01*
X132985000Y-102278571D01*
X132842142Y-102207142D01*
X132770714Y-102135714D01*
X134556428Y-101421428D02*
X134413571Y-101350000D01*
X134342142Y-101278571D01*
X134270714Y-101135714D01*
X134270714Y-101064285D01*
X134342142Y-100921428D01*
X134413571Y-100850000D01*
X134556428Y-100778571D01*
X134842142Y-100778571D01*
X134985000Y-100850000D01*
X135056428Y-100921428D01*
X135127857Y-101064285D01*
X135127857Y-101135714D01*
X135056428Y-101278571D01*
X134985000Y-101350000D01*
X134842142Y-101421428D01*
X134556428Y-101421428D01*
X134413571Y-101492857D01*
X134342142Y-101564285D01*
X134270714Y-101707142D01*
X134270714Y-101992857D01*
X134342142Y-102135714D01*
X134413571Y-102207142D01*
X134556428Y-102278571D01*
X134842142Y-102278571D01*
X134985000Y-102207142D01*
X135056428Y-102135714D01*
X135127857Y-101992857D01*
X135127857Y-101707142D01*
X135056428Y-101564285D01*
X134985000Y-101492857D01*
X134842142Y-101421428D01*
X133699285Y-104818571D02*
X132842142Y-104818571D01*
X133270714Y-104818571D02*
X133270714Y-103318571D01*
X133127857Y-103532857D01*
X132985000Y-103675714D01*
X132842142Y-103747142D01*
X134627857Y-103318571D02*
X134770714Y-103318571D01*
X134913571Y-103390000D01*
X134985000Y-103461428D01*
X135056428Y-103604285D01*
X135127857Y-103890000D01*
X135127857Y-104247142D01*
X135056428Y-104532857D01*
X134985000Y-104675714D01*
X134913571Y-104747142D01*
X134770714Y-104818571D01*
X134627857Y-104818571D01*
X134485000Y-104747142D01*
X134413571Y-104675714D01*
X134342142Y-104532857D01*
X134270714Y-104247142D01*
X134270714Y-103890000D01*
X134342142Y-103604285D01*
X134413571Y-103461428D01*
X134485000Y-103390000D01*
X134627857Y-103318571D01*
D11*
X132651666Y-60412380D02*
X132985000Y-61412380D01*
X133318333Y-60412380D01*
X133651666Y-61412380D02*
X133651666Y-60412380D01*
X133889761Y-60412380D01*
X134032619Y-60460000D01*
X134127857Y-60555238D01*
X134175476Y-60650476D01*
X134223095Y-60840952D01*
X134223095Y-60983809D01*
X134175476Y-61174285D01*
X134127857Y-61269523D01*
X134032619Y-61364761D01*
X133889761Y-61412380D01*
X133651666Y-61412380D01*
X134651666Y-61412380D02*
X134651666Y-60412380D01*
X134889761Y-60412380D01*
X135032619Y-60460000D01*
X135127857Y-60555238D01*
X135175476Y-60650476D01*
X135223095Y-60840952D01*
X135223095Y-60983809D01*
X135175476Y-61174285D01*
X135127857Y-61269523D01*
X135032619Y-61364761D01*
X134889761Y-61412380D01*
X134651666Y-61412380D01*
X133223095Y-55380000D02*
X133127857Y-55332380D01*
X132985000Y-55332380D01*
X132842142Y-55380000D01*
X132746904Y-55475238D01*
X132699285Y-55570476D01*
X132651666Y-55760952D01*
X132651666Y-55903809D01*
X132699285Y-56094285D01*
X132746904Y-56189523D01*
X132842142Y-56284761D01*
X132985000Y-56332380D01*
X133080238Y-56332380D01*
X133223095Y-56284761D01*
X133270714Y-56237142D01*
X133270714Y-55903809D01*
X133080238Y-55903809D01*
X133699285Y-56332380D02*
X133699285Y-55332380D01*
X134270714Y-56332380D01*
X134270714Y-55332380D01*
X134746904Y-56332380D02*
X134746904Y-55332380D01*
X134985000Y-55332380D01*
X135127857Y-55380000D01*
X135223095Y-55475238D01*
X135270714Y-55570476D01*
X135318333Y-55760952D01*
X135318333Y-55903809D01*
X135270714Y-56094285D01*
X135223095Y-56189523D01*
X135127857Y-56284761D01*
X134985000Y-56332380D01*
X134746904Y-56332380D01*
X133223095Y-57920000D02*
X133127857Y-57872380D01*
X132985000Y-57872380D01*
X132842142Y-57920000D01*
X132746904Y-58015238D01*
X132699285Y-58110476D01*
X132651666Y-58300952D01*
X132651666Y-58443809D01*
X132699285Y-58634285D01*
X132746904Y-58729523D01*
X132842142Y-58824761D01*
X132985000Y-58872380D01*
X133080238Y-58872380D01*
X133223095Y-58824761D01*
X133270714Y-58777142D01*
X133270714Y-58443809D01*
X133080238Y-58443809D01*
X133699285Y-58872380D02*
X133699285Y-57872380D01*
X134270714Y-58872380D01*
X134270714Y-57872380D01*
X134746904Y-58872380D02*
X134746904Y-57872380D01*
X134985000Y-57872380D01*
X135127857Y-57920000D01*
X135223095Y-58015238D01*
X135270714Y-58110476D01*
X135318333Y-58300952D01*
X135318333Y-58443809D01*
X135270714Y-58634285D01*
X135223095Y-58729523D01*
X135127857Y-58824761D01*
X134985000Y-58872380D01*
X134746904Y-58872380D01*
D12*
X156845000Y-62230000D02*
X156845000Y-62865000D01*
X155575000Y-62865000D02*
X156845000Y-62865000D01*
X155575000Y-62865000D02*
X155575000Y-62230000D01*
D13*
X162207321Y-53722857D02*
X162243035Y-53615714D01*
X162243035Y-53437142D01*
X162207321Y-53365714D01*
X162171607Y-53330000D01*
X162100178Y-53294285D01*
X162028750Y-53294285D01*
X161957321Y-53330000D01*
X161921607Y-53365714D01*
X161885892Y-53437142D01*
X161850178Y-53580000D01*
X161814464Y-53651428D01*
X161778750Y-53687142D01*
X161707321Y-53722857D01*
X161635892Y-53722857D01*
X161564464Y-53687142D01*
X161528750Y-53651428D01*
X161493035Y-53580000D01*
X161493035Y-53401428D01*
X161528750Y-53294285D01*
X161493035Y-53044285D02*
X162243035Y-52865714D01*
X161707321Y-52722857D01*
X162243035Y-52580000D01*
X161493035Y-52401428D01*
X162243035Y-52115714D02*
X161493035Y-52115714D01*
X161493035Y-51937142D01*
X161528750Y-51830000D01*
X161600178Y-51758571D01*
X161671607Y-51722857D01*
X161814464Y-51687142D01*
X161921607Y-51687142D01*
X162064464Y-51722857D01*
X162135892Y-51758571D01*
X162207321Y-51830000D01*
X162243035Y-51937142D01*
X162243035Y-52115714D01*
X163555535Y-53097857D02*
X162805535Y-53097857D01*
X162805535Y-52597857D02*
X162805535Y-52455000D01*
X162841250Y-52383571D01*
X162912678Y-52312142D01*
X163055535Y-52276428D01*
X163305535Y-52276428D01*
X163448392Y-52312142D01*
X163519821Y-52383571D01*
X163555535Y-52455000D01*
X163555535Y-52597857D01*
X163519821Y-52669285D01*
X163448392Y-52740714D01*
X163305535Y-52776428D01*
X163055535Y-52776428D01*
X162912678Y-52740714D01*
X162841250Y-52669285D01*
X162805535Y-52597857D01*
D11*
X159520000Y-53466904D02*
X159472380Y-53562142D01*
X159472380Y-53705000D01*
X159520000Y-53847857D01*
X159615238Y-53943095D01*
X159710476Y-53990714D01*
X159900952Y-54038333D01*
X160043809Y-54038333D01*
X160234285Y-53990714D01*
X160329523Y-53943095D01*
X160424761Y-53847857D01*
X160472380Y-53705000D01*
X160472380Y-53609761D01*
X160424761Y-53466904D01*
X160377142Y-53419285D01*
X160043809Y-53419285D01*
X160043809Y-53609761D01*
X160472380Y-52990714D02*
X159472380Y-52990714D01*
X160472380Y-52419285D01*
X159472380Y-52419285D01*
X160472380Y-51943095D02*
X159472380Y-51943095D01*
X159472380Y-51705000D01*
X159520000Y-51562142D01*
X159615238Y-51466904D01*
X159710476Y-51419285D01*
X159900952Y-51371666D01*
X160043809Y-51371666D01*
X160234285Y-51419285D01*
X160329523Y-51466904D01*
X160424761Y-51562142D01*
X160472380Y-51705000D01*
X160472380Y-51943095D01*
D13*
X157127321Y-53722857D02*
X157163035Y-53615714D01*
X157163035Y-53437142D01*
X157127321Y-53365714D01*
X157091607Y-53330000D01*
X157020178Y-53294285D01*
X156948750Y-53294285D01*
X156877321Y-53330000D01*
X156841607Y-53365714D01*
X156805892Y-53437142D01*
X156770178Y-53580000D01*
X156734464Y-53651428D01*
X156698750Y-53687142D01*
X156627321Y-53722857D01*
X156555892Y-53722857D01*
X156484464Y-53687142D01*
X156448750Y-53651428D01*
X156413035Y-53580000D01*
X156413035Y-53401428D01*
X156448750Y-53294285D01*
X156413035Y-53044285D02*
X157163035Y-52865714D01*
X156627321Y-52722857D01*
X157163035Y-52580000D01*
X156413035Y-52401428D01*
X157163035Y-52115714D02*
X156413035Y-52115714D01*
X156413035Y-51937142D01*
X156448750Y-51830000D01*
X156520178Y-51758571D01*
X156591607Y-51722857D01*
X156734464Y-51687142D01*
X156841607Y-51687142D01*
X156984464Y-51722857D01*
X157055892Y-51758571D01*
X157127321Y-51830000D01*
X157163035Y-51937142D01*
X157163035Y-52115714D01*
X158404107Y-53151428D02*
X158439821Y-53187142D01*
X158475535Y-53294285D01*
X158475535Y-53365714D01*
X158439821Y-53472857D01*
X158368392Y-53544285D01*
X158296964Y-53580000D01*
X158154107Y-53615714D01*
X158046964Y-53615714D01*
X157904107Y-53580000D01*
X157832678Y-53544285D01*
X157761250Y-53472857D01*
X157725535Y-53365714D01*
X157725535Y-53294285D01*
X157761250Y-53187142D01*
X157796964Y-53151428D01*
X158475535Y-52472857D02*
X158475535Y-52830000D01*
X157725535Y-52830000D01*
X158475535Y-52222857D02*
X157725535Y-52222857D01*
X158475535Y-51794285D02*
X158046964Y-52115714D01*
X157725535Y-51794285D02*
X158154107Y-52222857D01*
D11*
X154392380Y-54038333D02*
X155392380Y-53705000D01*
X154392380Y-53371666D01*
X155392380Y-53038333D02*
X154392380Y-53038333D01*
X154392380Y-52800238D01*
X154440000Y-52657380D01*
X154535238Y-52562142D01*
X154630476Y-52514523D01*
X154820952Y-52466904D01*
X154963809Y-52466904D01*
X155154285Y-52514523D01*
X155249523Y-52562142D01*
X155344761Y-52657380D01*
X155392380Y-52800238D01*
X155392380Y-53038333D01*
X155392380Y-52038333D02*
X154392380Y-52038333D01*
X154392380Y-51800238D01*
X154440000Y-51657380D01*
X154535238Y-51562142D01*
X154630476Y-51514523D01*
X154820952Y-51466904D01*
X154963809Y-51466904D01*
X155154285Y-51514523D01*
X155249523Y-51562142D01*
X155344761Y-51657380D01*
X155392380Y-51800238D01*
X155392380Y-52038333D01*
D13*
X154531428Y-58251285D02*
X154531428Y-57501285D01*
X154710000Y-57501285D01*
X154817142Y-57537000D01*
X154888571Y-57608428D01*
X154924285Y-57679857D01*
X154960000Y-57822714D01*
X154960000Y-57929857D01*
X154924285Y-58072714D01*
X154888571Y-58144142D01*
X154817142Y-58215571D01*
X154710000Y-58251285D01*
X154531428Y-58251285D01*
X155281428Y-57858428D02*
X155531428Y-57858428D01*
X155638571Y-58251285D02*
X155281428Y-58251285D01*
X155281428Y-57501285D01*
X155638571Y-57501285D01*
X156210000Y-57858428D02*
X156317142Y-57894142D01*
X156352857Y-57929857D01*
X156388571Y-58001285D01*
X156388571Y-58108428D01*
X156352857Y-58179857D01*
X156317142Y-58215571D01*
X156245714Y-58251285D01*
X155960000Y-58251285D01*
X155960000Y-57501285D01*
X156210000Y-57501285D01*
X156281428Y-57537000D01*
X156317142Y-57572714D01*
X156352857Y-57644142D01*
X156352857Y-57715571D01*
X156317142Y-57787000D01*
X156281428Y-57822714D01*
X156210000Y-57858428D01*
X155960000Y-57858428D01*
X156710000Y-57501285D02*
X156710000Y-58108428D01*
X156745714Y-58179857D01*
X156781428Y-58215571D01*
X156852857Y-58251285D01*
X156995714Y-58251285D01*
X157067142Y-58215571D01*
X157102857Y-58179857D01*
X157138571Y-58108428D01*
X157138571Y-57501285D01*
X157888571Y-57537000D02*
X157817142Y-57501285D01*
X157710000Y-57501285D01*
X157602857Y-57537000D01*
X157531428Y-57608428D01*
X157495714Y-57679857D01*
X157460000Y-57822714D01*
X157460000Y-57929857D01*
X157495714Y-58072714D01*
X157531428Y-58144142D01*
X157602857Y-58215571D01*
X157710000Y-58251285D01*
X157781428Y-58251285D01*
X157888571Y-58215571D01*
X157924285Y-58179857D01*
X157924285Y-57929857D01*
X157781428Y-57929857D01*
D14*
G04 #@! TO.C,SW1*
X158635000Y-65540000D02*
X158635000Y-69540000D01*
X158635000Y-69540000D02*
X154635000Y-69540000D01*
X154635000Y-69540000D02*
X154635000Y-65540000D01*
X154635000Y-65540000D02*
X158635000Y-65540000D01*
X157635000Y-67540000D02*
G75*
G03X157635000Y-67540000I-1000000J0D01*
G01*
G04 #@! TO.C,U1*
X146685000Y-112615000D02*
X146685000Y-94615000D01*
X159685000Y-112615000D02*
X146685000Y-112615000D01*
X159685000Y-94615000D02*
X159685000Y-112615000D01*
X146685000Y-94615000D02*
X159685000Y-94615000D01*
D15*
G04 #@! TO.C,J6*
X151705000Y-74870000D02*
X151705000Y-77530000D01*
X159385000Y-74870000D02*
X151705000Y-74870000D01*
X159385000Y-77530000D02*
X151705000Y-77530000D01*
X159385000Y-74870000D02*
X159385000Y-77530000D01*
X160655000Y-74870000D02*
X161985000Y-74870000D01*
X161985000Y-74870000D02*
X161985000Y-76200000D01*
G04 #@! TO.C,D2*
X144842500Y-60000000D02*
X142157500Y-60000000D01*
X142157500Y-60000000D02*
X142157500Y-61920000D01*
X142157500Y-61920000D02*
X144842500Y-61920000D01*
G04 #@! TO.C,J7*
X161230000Y-59630000D02*
X162560000Y-59630000D01*
X161230000Y-60960000D02*
X161230000Y-59630000D01*
X161230000Y-62230000D02*
X163890000Y-62230000D01*
X163890000Y-62230000D02*
X163890000Y-64830000D01*
X161230000Y-62230000D02*
X161230000Y-64830000D01*
X161230000Y-64830000D02*
X163890000Y-64830000D01*
G04 #@! TO.C,J4*
X138370000Y-64830000D02*
X141030000Y-64830000D01*
X138370000Y-62230000D02*
X138370000Y-64830000D01*
X141030000Y-62230000D02*
X141030000Y-64830000D01*
X138370000Y-62230000D02*
X141030000Y-62230000D01*
X138370000Y-60960000D02*
X138370000Y-59630000D01*
X138370000Y-59630000D02*
X139700000Y-59630000D01*
G04 #@! TO.C,J3*
X151070000Y-54550000D02*
X151070000Y-57210000D01*
X161290000Y-54550000D02*
X151070000Y-54550000D01*
X161290000Y-57210000D02*
X151070000Y-57210000D01*
X161290000Y-54550000D02*
X161290000Y-57210000D01*
X162560000Y-54550000D02*
X163890000Y-54550000D01*
X163890000Y-54550000D02*
X163890000Y-55880000D01*
G04 #@! TO.C,D1*
X144842500Y-62540000D02*
X142157500Y-62540000D01*
X142157500Y-62540000D02*
X142157500Y-64460000D01*
X142157500Y-64460000D02*
X144842500Y-64460000D01*
G04 #@! TO.C,C2*
X144101078Y-69290000D02*
X143583922Y-69290000D01*
X144101078Y-67870000D02*
X143583922Y-67870000D01*
G04 #@! TO.C,C3*
X158190000Y-87713078D02*
X158190000Y-87195922D01*
X156770000Y-87713078D02*
X156770000Y-87195922D01*
G04 #@! TO.C,C4*
X153214000Y-87713078D02*
X153214000Y-87195922D01*
X154634000Y-87713078D02*
X154634000Y-87195922D01*
G04 #@! TO.C,C5*
X143553922Y-71830000D02*
X144071078Y-71830000D01*
X143553922Y-70410000D02*
X144071078Y-70410000D01*
G04 #@! TO.C,C1*
X143583922Y-65330000D02*
X144101078Y-65330000D01*
X143583922Y-66750000D02*
X144101078Y-66750000D01*
G04 #@! TO.C,L2*
X149786078Y-91515000D02*
X149268922Y-91515000D01*
X149786078Y-90095000D02*
X149268922Y-90095000D01*
G04 #@! TO.C,R1*
X143583922Y-72950000D02*
X144101078Y-72950000D01*
X143583922Y-74370000D02*
X144101078Y-74370000D01*
G04 #@! TO.C,U2*
X151252000Y-61200000D02*
X150322000Y-61200000D01*
X148092000Y-61200000D02*
X149022000Y-61200000D01*
X148092000Y-61200000D02*
X148092000Y-63360000D01*
X151252000Y-61200000D02*
X151252000Y-62660000D01*
G04 #@! TO.C,J1*
X163770000Y-105470000D02*
X166430000Y-105470000D01*
X163770000Y-57150000D02*
X163770000Y-105470000D01*
X166430000Y-57150000D02*
X166430000Y-105470000D01*
X163770000Y-57150000D02*
X166430000Y-57150000D01*
X163770000Y-55880000D02*
X163770000Y-54550000D01*
X163770000Y-54550000D02*
X165100000Y-54550000D01*
G04 #@! TO.C,J2*
X135830000Y-54550000D02*
X137160000Y-54550000D01*
X135830000Y-55880000D02*
X135830000Y-54550000D01*
X135830000Y-57150000D02*
X138490000Y-57150000D01*
X138490000Y-57150000D02*
X138490000Y-105470000D01*
X135830000Y-57150000D02*
X135830000Y-105470000D01*
X135830000Y-105470000D02*
X138490000Y-105470000D01*
D14*
G04 #@! TO.C,J5*
X148930000Y-55260000D02*
X148930000Y-53860000D01*
X148930000Y-51460000D02*
X148930000Y-51310000D01*
X148930000Y-51310000D02*
X148630000Y-51310000D01*
X148630000Y-51310000D02*
X148630000Y-50860000D01*
X140930000Y-50860000D02*
X140930000Y-51310000D01*
X140930000Y-51310000D02*
X140630000Y-51310000D01*
X140630000Y-51310000D02*
X140630000Y-51460000D01*
X140630000Y-53860000D02*
X140630000Y-55260000D01*
X145855000Y-57435000D02*
X146580000Y-57435000D01*
X146580000Y-57435000D02*
X146580000Y-57010000D01*
X146580000Y-57010000D02*
X147580000Y-57010000D01*
X142980000Y-57010000D02*
X141980000Y-57010000D01*
D15*
G04 #@! TO.C,J8*
X159445000Y-62090000D02*
X159445000Y-61267530D01*
X159445000Y-59382470D02*
X159445000Y-58560000D01*
X159445000Y-60652470D02*
X159445000Y-59997530D01*
X154430000Y-62090000D02*
X159445000Y-62090000D01*
X152975000Y-58560000D02*
X159445000Y-58560000D01*
X154430000Y-62090000D02*
X154430000Y-61523471D01*
X154430000Y-60396529D02*
X154430000Y-60253471D01*
X154376529Y-60200000D02*
X154233471Y-60200000D01*
X153106529Y-60200000D02*
X152975000Y-60200000D01*
X152975000Y-60200000D02*
X152975000Y-59997530D01*
X152975000Y-59382470D02*
X152975000Y-58560000D01*
X153670000Y-62090000D02*
X152910000Y-62090000D01*
X152910000Y-62090000D02*
X152910000Y-60960000D01*
G04 #@! TO.C,Y1*
X156125000Y-91755000D02*
X155025000Y-91755000D01*
X156125000Y-89855000D02*
X155025000Y-89855000D01*
X158275000Y-91705000D02*
X158275000Y-89905000D01*
G04 #@! TO.C,SW1*
D14*
X155301666Y-64944761D02*
X155444523Y-64992380D01*
X155682619Y-64992380D01*
X155777857Y-64944761D01*
X155825476Y-64897142D01*
X155873095Y-64801904D01*
X155873095Y-64706666D01*
X155825476Y-64611428D01*
X155777857Y-64563809D01*
X155682619Y-64516190D01*
X155492142Y-64468571D01*
X155396904Y-64420952D01*
X155349285Y-64373333D01*
X155301666Y-64278095D01*
X155301666Y-64182857D01*
X155349285Y-64087619D01*
X155396904Y-64040000D01*
X155492142Y-63992380D01*
X155730238Y-63992380D01*
X155873095Y-64040000D01*
X156206428Y-63992380D02*
X156444523Y-64992380D01*
X156635000Y-64278095D01*
X156825476Y-64992380D01*
X157063571Y-63992380D01*
X157968333Y-64992380D02*
X157396904Y-64992380D01*
X157682619Y-64992380D02*
X157682619Y-63992380D01*
X157587380Y-64135238D01*
X157492142Y-64230476D01*
X157396904Y-64278095D01*
G04 #@! TO.C,U1*
X156723095Y-112467380D02*
X156723095Y-113276904D01*
X156770714Y-113372142D01*
X156818333Y-113419761D01*
X156913571Y-113467380D01*
X157104047Y-113467380D01*
X157199285Y-113419761D01*
X157246904Y-113372142D01*
X157294523Y-113276904D01*
X157294523Y-112467380D01*
X158294523Y-113467380D02*
X157723095Y-113467380D01*
X158008809Y-113467380D02*
X158008809Y-112467380D01*
X157913571Y-112610238D01*
X157818333Y-112705476D01*
X157723095Y-112753095D01*
G04 #@! TO.C,J6*
X162437380Y-76533333D02*
X163151666Y-76533333D01*
X163294523Y-76580952D01*
X163389761Y-76676190D01*
X163437380Y-76819047D01*
X163437380Y-76914285D01*
X162437380Y-75628571D02*
X162437380Y-75819047D01*
X162485000Y-75914285D01*
X162532619Y-75961904D01*
X162675476Y-76057142D01*
X162865952Y-76104761D01*
X163246904Y-76104761D01*
X163342142Y-76057142D01*
X163389761Y-76009523D01*
X163437380Y-75914285D01*
X163437380Y-75723809D01*
X163389761Y-75628571D01*
X163342142Y-75580952D01*
X163246904Y-75533333D01*
X163008809Y-75533333D01*
X162913571Y-75580952D01*
X162865952Y-75628571D01*
X162818333Y-75723809D01*
X162818333Y-75914285D01*
X162865952Y-76009523D01*
X162913571Y-76057142D01*
X163008809Y-76104761D01*
G04 #@! TO.C,D2*
X145946904Y-61412380D02*
X145946904Y-60412380D01*
X146185000Y-60412380D01*
X146327857Y-60460000D01*
X146423095Y-60555238D01*
X146470714Y-60650476D01*
X146518333Y-60840952D01*
X146518333Y-60983809D01*
X146470714Y-61174285D01*
X146423095Y-61269523D01*
X146327857Y-61364761D01*
X146185000Y-61412380D01*
X145946904Y-61412380D01*
X146899285Y-60507619D02*
X146946904Y-60460000D01*
X147042142Y-60412380D01*
X147280238Y-60412380D01*
X147375476Y-60460000D01*
X147423095Y-60507619D01*
X147470714Y-60602857D01*
X147470714Y-60698095D01*
X147423095Y-60840952D01*
X146851666Y-61412380D01*
X147470714Y-61412380D01*
G04 #@! TO.C,J7*
X162226666Y-58082380D02*
X162226666Y-58796666D01*
X162179047Y-58939523D01*
X162083809Y-59034761D01*
X161940952Y-59082380D01*
X161845714Y-59082380D01*
X162607619Y-58082380D02*
X163274285Y-58082380D01*
X162845714Y-59082380D01*
G04 #@! TO.C,J4*
X139366666Y-58082380D02*
X139366666Y-58796666D01*
X139319047Y-58939523D01*
X139223809Y-59034761D01*
X139080952Y-59082380D01*
X138985714Y-59082380D01*
X140271428Y-58415714D02*
X140271428Y-59082380D01*
X140033333Y-58034761D02*
X139795238Y-58749047D01*
X140414285Y-58749047D01*
G04 #@! TO.C,J3*
X164342380Y-56213333D02*
X165056666Y-56213333D01*
X165199523Y-56260952D01*
X165294761Y-56356190D01*
X165342380Y-56499047D01*
X165342380Y-56594285D01*
X164342380Y-55832380D02*
X164342380Y-55213333D01*
X164723333Y-55546666D01*
X164723333Y-55403809D01*
X164770952Y-55308571D01*
X164818571Y-55260952D01*
X164913809Y-55213333D01*
X165151904Y-55213333D01*
X165247142Y-55260952D01*
X165294761Y-55308571D01*
X165342380Y-55403809D01*
X165342380Y-55689523D01*
X165294761Y-55784761D01*
X165247142Y-55832380D01*
G04 #@! TO.C,D1*
X145946904Y-63952380D02*
X145946904Y-62952380D01*
X146185000Y-62952380D01*
X146327857Y-63000000D01*
X146423095Y-63095238D01*
X146470714Y-63190476D01*
X146518333Y-63380952D01*
X146518333Y-63523809D01*
X146470714Y-63714285D01*
X146423095Y-63809523D01*
X146327857Y-63904761D01*
X146185000Y-63952380D01*
X145946904Y-63952380D01*
X147470714Y-63952380D02*
X146899285Y-63952380D01*
X147185000Y-63952380D02*
X147185000Y-62952380D01*
X147089761Y-63095238D01*
X146994523Y-63190476D01*
X146899285Y-63238095D01*
G04 #@! TO.C,C2*
X146518333Y-68937142D02*
X146470714Y-68984761D01*
X146327857Y-69032380D01*
X146232619Y-69032380D01*
X146089761Y-68984761D01*
X145994523Y-68889523D01*
X145946904Y-68794285D01*
X145899285Y-68603809D01*
X145899285Y-68460952D01*
X145946904Y-68270476D01*
X145994523Y-68175238D01*
X146089761Y-68080000D01*
X146232619Y-68032380D01*
X146327857Y-68032380D01*
X146470714Y-68080000D01*
X146518333Y-68127619D01*
X146899285Y-68127619D02*
X146946904Y-68080000D01*
X147042142Y-68032380D01*
X147280238Y-68032380D01*
X147375476Y-68080000D01*
X147423095Y-68127619D01*
X147470714Y-68222857D01*
X147470714Y-68318095D01*
X147423095Y-68460952D01*
X146851666Y-69032380D01*
X147470714Y-69032380D01*
G04 #@! TO.C,C3*
X157313333Y-85447142D02*
X157265714Y-85494761D01*
X157122857Y-85542380D01*
X157027619Y-85542380D01*
X156884761Y-85494761D01*
X156789523Y-85399523D01*
X156741904Y-85304285D01*
X156694285Y-85113809D01*
X156694285Y-84970952D01*
X156741904Y-84780476D01*
X156789523Y-84685238D01*
X156884761Y-84590000D01*
X157027619Y-84542380D01*
X157122857Y-84542380D01*
X157265714Y-84590000D01*
X157313333Y-84637619D01*
X157646666Y-84542380D02*
X158265714Y-84542380D01*
X157932380Y-84923333D01*
X158075238Y-84923333D01*
X158170476Y-84970952D01*
X158218095Y-85018571D01*
X158265714Y-85113809D01*
X158265714Y-85351904D01*
X158218095Y-85447142D01*
X158170476Y-85494761D01*
X158075238Y-85542380D01*
X157789523Y-85542380D01*
X157694285Y-85494761D01*
X157646666Y-85447142D01*
G04 #@! TO.C,C4*
X153503333Y-85447142D02*
X153455714Y-85494761D01*
X153312857Y-85542380D01*
X153217619Y-85542380D01*
X153074761Y-85494761D01*
X152979523Y-85399523D01*
X152931904Y-85304285D01*
X152884285Y-85113809D01*
X152884285Y-84970952D01*
X152931904Y-84780476D01*
X152979523Y-84685238D01*
X153074761Y-84590000D01*
X153217619Y-84542380D01*
X153312857Y-84542380D01*
X153455714Y-84590000D01*
X153503333Y-84637619D01*
X154360476Y-84875714D02*
X154360476Y-85542380D01*
X154122380Y-84494761D02*
X153884285Y-85209047D01*
X154503333Y-85209047D01*
G04 #@! TO.C,C5*
X146518333Y-71477142D02*
X146470714Y-71524761D01*
X146327857Y-71572380D01*
X146232619Y-71572380D01*
X146089761Y-71524761D01*
X145994523Y-71429523D01*
X145946904Y-71334285D01*
X145899285Y-71143809D01*
X145899285Y-71000952D01*
X145946904Y-70810476D01*
X145994523Y-70715238D01*
X146089761Y-70620000D01*
X146232619Y-70572380D01*
X146327857Y-70572380D01*
X146470714Y-70620000D01*
X146518333Y-70667619D01*
X147423095Y-70572380D02*
X146946904Y-70572380D01*
X146899285Y-71048571D01*
X146946904Y-71000952D01*
X147042142Y-70953333D01*
X147280238Y-70953333D01*
X147375476Y-71000952D01*
X147423095Y-71048571D01*
X147470714Y-71143809D01*
X147470714Y-71381904D01*
X147423095Y-71477142D01*
X147375476Y-71524761D01*
X147280238Y-71572380D01*
X147042142Y-71572380D01*
X146946904Y-71524761D01*
X146899285Y-71477142D01*
G04 #@! TO.C,C1*
X146518333Y-66397142D02*
X146470714Y-66444761D01*
X146327857Y-66492380D01*
X146232619Y-66492380D01*
X146089761Y-66444761D01*
X145994523Y-66349523D01*
X145946904Y-66254285D01*
X145899285Y-66063809D01*
X145899285Y-65920952D01*
X145946904Y-65730476D01*
X145994523Y-65635238D01*
X146089761Y-65540000D01*
X146232619Y-65492380D01*
X146327857Y-65492380D01*
X146470714Y-65540000D01*
X146518333Y-65587619D01*
X147470714Y-66492380D02*
X146899285Y-66492380D01*
X147185000Y-66492380D02*
X147185000Y-65492380D01*
X147089761Y-65635238D01*
X146994523Y-65730476D01*
X146899285Y-65778095D01*
G04 #@! TO.C,L2*
X149360833Y-92907380D02*
X148884642Y-92907380D01*
X148884642Y-91907380D01*
X149646547Y-92002619D02*
X149694166Y-91955000D01*
X149789404Y-91907380D01*
X150027500Y-91907380D01*
X150122738Y-91955000D01*
X150170357Y-92002619D01*
X150217976Y-92097857D01*
X150217976Y-92193095D01*
X150170357Y-92335952D01*
X149598928Y-92907380D01*
X150217976Y-92907380D01*
G04 #@! TO.C,R1*
X146518333Y-74112380D02*
X146185000Y-73636190D01*
X145946904Y-74112380D02*
X145946904Y-73112380D01*
X146327857Y-73112380D01*
X146423095Y-73160000D01*
X146470714Y-73207619D01*
X146518333Y-73302857D01*
X146518333Y-73445714D01*
X146470714Y-73540952D01*
X146423095Y-73588571D01*
X146327857Y-73636190D01*
X145946904Y-73636190D01*
X147470714Y-74112380D02*
X146899285Y-74112380D01*
X147185000Y-74112380D02*
X147185000Y-73112380D01*
X147089761Y-73255238D01*
X146994523Y-73350476D01*
X146899285Y-73398095D01*
G04 #@! TO.C,U2*
X149098095Y-59142380D02*
X149098095Y-59951904D01*
X149145714Y-60047142D01*
X149193333Y-60094761D01*
X149288571Y-60142380D01*
X149479047Y-60142380D01*
X149574285Y-60094761D01*
X149621904Y-60047142D01*
X149669523Y-59951904D01*
X149669523Y-59142380D01*
X150098095Y-59237619D02*
X150145714Y-59190000D01*
X150240952Y-59142380D01*
X150479047Y-59142380D01*
X150574285Y-59190000D01*
X150621904Y-59237619D01*
X150669523Y-59332857D01*
X150669523Y-59428095D01*
X150621904Y-59570952D01*
X150050476Y-60142380D01*
X150669523Y-60142380D01*
G04 #@! TO.C,J1*
X164766666Y-53002380D02*
X164766666Y-53716666D01*
X164719047Y-53859523D01*
X164623809Y-53954761D01*
X164480952Y-54002380D01*
X164385714Y-54002380D01*
X165766666Y-54002380D02*
X165195238Y-54002380D01*
X165480952Y-54002380D02*
X165480952Y-53002380D01*
X165385714Y-53145238D01*
X165290476Y-53240476D01*
X165195238Y-53288095D01*
G04 #@! TO.C,J2*
X136826666Y-53002380D02*
X136826666Y-53716666D01*
X136779047Y-53859523D01*
X136683809Y-53954761D01*
X136540952Y-54002380D01*
X136445714Y-54002380D01*
X137255238Y-53097619D02*
X137302857Y-53050000D01*
X137398095Y-53002380D01*
X137636190Y-53002380D01*
X137731428Y-53050000D01*
X137779047Y-53097619D01*
X137826666Y-53192857D01*
X137826666Y-53288095D01*
X137779047Y-53430952D01*
X137207619Y-54002380D01*
X137826666Y-54002380D01*
G04 #@! TO.C,J5*
X144446666Y-57562380D02*
X144446666Y-58276666D01*
X144399047Y-58419523D01*
X144303809Y-58514761D01*
X144160952Y-58562380D01*
X144065714Y-58562380D01*
X145399047Y-57562380D02*
X144922857Y-57562380D01*
X144875238Y-58038571D01*
X144922857Y-57990952D01*
X145018095Y-57943333D01*
X145256190Y-57943333D01*
X145351428Y-57990952D01*
X145399047Y-58038571D01*
X145446666Y-58133809D01*
X145446666Y-58371904D01*
X145399047Y-58467142D01*
X145351428Y-58514761D01*
X145256190Y-58562380D01*
X145018095Y-58562380D01*
X144922857Y-58514761D01*
X144875238Y-58467142D01*
G04 #@! TO.C,J8*
X151431666Y-59777380D02*
X151431666Y-60491666D01*
X151384047Y-60634523D01*
X151288809Y-60729761D01*
X151145952Y-60777380D01*
X151050714Y-60777380D01*
X152050714Y-60205952D02*
X151955476Y-60158333D01*
X151907857Y-60110714D01*
X151860238Y-60015476D01*
X151860238Y-59967857D01*
X151907857Y-59872619D01*
X151955476Y-59825000D01*
X152050714Y-59777380D01*
X152241190Y-59777380D01*
X152336428Y-59825000D01*
X152384047Y-59872619D01*
X152431666Y-59967857D01*
X152431666Y-60015476D01*
X152384047Y-60110714D01*
X152336428Y-60158333D01*
X152241190Y-60205952D01*
X152050714Y-60205952D01*
X151955476Y-60253571D01*
X151907857Y-60301190D01*
X151860238Y-60396428D01*
X151860238Y-60586904D01*
X151907857Y-60682142D01*
X151955476Y-60729761D01*
X152050714Y-60777380D01*
X152241190Y-60777380D01*
X152336428Y-60729761D01*
X152384047Y-60682142D01*
X152431666Y-60586904D01*
X152431666Y-60396428D01*
X152384047Y-60301190D01*
X152336428Y-60253571D01*
X152241190Y-60205952D01*
G04 #@! TO.C,Y1*
X155098809Y-92686190D02*
X155098809Y-93162380D01*
X154765476Y-92162380D02*
X155098809Y-92686190D01*
X155432142Y-92162380D01*
X156289285Y-93162380D02*
X155717857Y-93162380D01*
X156003571Y-93162380D02*
X156003571Y-92162380D01*
X155908333Y-92305238D01*
X155813095Y-92400476D01*
X155717857Y-92448095D01*
G04 #@! TD*
M02*
