M48
;DRILL file {KiCad 5.0.1} date do 03 jan 2019 14:51:22 CET
;FORMAT={-:-/ absolute / metric / decimal}
FMAT,2
METRIC,TZ
T1C0.400
T2C0.500
T3C0.550
T4C0.650
T5C0.850
T6C1.000
%
G90
G05
M71
T1
X134.304Y-58.525
X134.562Y-56.928
X140.97Y-67.31
X142.24Y-76.2
X146.685Y-83.16
X147.726Y-95.656
X149.672Y-60.96
X151.13Y-59.69
X151.257Y-70.206
X151.892Y-88.849
X152.908Y-71.628
X153.441Y-66.04
X158.75Y-56.642
X158.775Y-53.137
X160.02Y-66.04
X161.519Y-103.165
X162.56Y-66.04
T2
X148.685Y-98.72
X148.685Y-99.99
X148.685Y-101.26
X148.685Y-102.53
X148.685Y-103.8
X148.685Y-105.07
X148.685Y-106.34
X148.685Y-107.61
X149.12Y-96.515
X150.39Y-96.515
X151.66Y-96.515
X152.93Y-96.515
X154.2Y-96.515
X155.47Y-96.515
X156.74Y-96.515
T4
X153.67Y-59.69
X153.67Y-60.96
X154.94Y-59.69
X154.94Y-60.96
X156.21Y-59.69
X156.21Y-60.96
X157.48Y-59.69
X157.48Y-60.96
X158.75Y-59.69
X158.75Y-60.96
T6
X162.56Y-60.96
X162.56Y-63.5
X139.7Y-60.96
X139.7Y-63.5
X137.16Y-55.88
X137.16Y-58.42
X137.16Y-60.96
X137.16Y-63.5
X137.16Y-66.04
X137.16Y-68.58
X137.16Y-71.12
X137.16Y-73.66
X137.16Y-76.2
X137.16Y-78.74
X137.16Y-81.28
X137.16Y-83.82
X137.16Y-86.36
X137.16Y-88.9
X137.16Y-91.44
X137.16Y-93.98
X137.16Y-96.52
X137.16Y-99.06
X137.16Y-101.6
X137.16Y-104.14
X153.035Y-76.2
X155.575Y-76.2
X158.115Y-76.2
X160.655Y-76.2
X152.4Y-55.88
X154.94Y-55.88
X157.48Y-55.88
X160.02Y-55.88
X162.56Y-55.88
X165.1Y-55.88
X165.1Y-58.42
X165.1Y-60.96
X165.1Y-63.5
X165.1Y-66.04
X165.1Y-68.58
X165.1Y-71.12
X165.1Y-73.66
X165.1Y-76.2
X165.1Y-78.74
X165.1Y-81.28
X165.1Y-83.82
X165.1Y-86.36
X165.1Y-88.9
X165.1Y-91.44
X165.1Y-93.98
X165.1Y-96.52
X165.1Y-99.06
X165.1Y-101.6
X165.1Y-104.14
T3
X140.905Y-52.985G85X140.905Y-52.335
G05
X148.655Y-52.985G85X148.655Y-52.335
G05
T5
X141.055Y-56.735G85X141.055Y-56.185
G05
X148.505Y-56.735G85X148.505Y-56.185
G05
T0
M30
