G04 #@! TF.GenerationSoftware,KiCad,Pcbnew,5.0.1*
G04 #@! TF.CreationDate,2019-01-03T14:53:17+01:00*
G04 #@! TF.ProjectId,e73-c,6537332D632E6B696361645F70636200,rev?*
G04 #@! TF.SameCoordinates,Original*
G04 #@! TF.FileFunction,Paste,Top*
G04 #@! TF.FilePolarity,Positive*
%FSLAX46Y46*%
G04 Gerber Fmt 4.6, Leading zero omitted, Abs format (unit mm)*
G04 Created by KiCad (PCBNEW 5.0.1) date do 03 jan 2019 14:53:17 CET*
%MOMM*%
%LPD*%
G01*
G04 APERTURE LIST*
%ADD10R,1.800000X1.100000*%
%ADD11R,1.500000X0.500000*%
%ADD12R,0.500000X1.500000*%
%ADD13C,0.100000*%
%ADD14C,0.975000*%
%ADD15R,0.800000X0.900000*%
%ADD16R,0.450000X1.300000*%
%ADD17R,1.750000X1.800000*%
G04 APERTURE END LIST*
D10*
G04 #@! TO.C,SW1*
X159785000Y-69390000D03*
X159785000Y-65690000D03*
X153485000Y-69390000D03*
X153485000Y-65690000D03*
G04 #@! TD*
D11*
G04 #@! TO.C,U1*
X160185000Y-108245000D03*
X160185000Y-106975000D03*
X160185000Y-105705000D03*
X160185000Y-104435000D03*
X160185000Y-103165000D03*
X160185000Y-101895000D03*
X160185000Y-100625000D03*
X160185000Y-99355000D03*
X160185000Y-98085000D03*
X160185000Y-96815000D03*
D12*
X157375000Y-94115000D03*
X156105000Y-94115000D03*
X154835000Y-94115000D03*
X153565000Y-94115000D03*
X152295000Y-94115000D03*
X151025000Y-94115000D03*
X149755000Y-94115000D03*
X148485000Y-94115000D03*
D11*
X146185000Y-108245000D03*
X146185000Y-106975000D03*
X146185000Y-105705000D03*
X146185000Y-104435000D03*
X146185000Y-103165000D03*
X146185000Y-101895000D03*
X146185000Y-100625000D03*
X146185000Y-99355000D03*
X146185000Y-98085000D03*
X146185000Y-96815000D03*
G04 #@! TD*
D13*
G04 #@! TO.C,D2*
G36*
X143172642Y-60261174D02*
X143196303Y-60264684D01*
X143219507Y-60270496D01*
X143242029Y-60278554D01*
X143263653Y-60288782D01*
X143284170Y-60301079D01*
X143303383Y-60315329D01*
X143321107Y-60331393D01*
X143337171Y-60349117D01*
X143351421Y-60368330D01*
X143363718Y-60388847D01*
X143373946Y-60410471D01*
X143382004Y-60432993D01*
X143387816Y-60456197D01*
X143391326Y-60479858D01*
X143392500Y-60503750D01*
X143392500Y-61416250D01*
X143391326Y-61440142D01*
X143387816Y-61463803D01*
X143382004Y-61487007D01*
X143373946Y-61509529D01*
X143363718Y-61531153D01*
X143351421Y-61551670D01*
X143337171Y-61570883D01*
X143321107Y-61588607D01*
X143303383Y-61604671D01*
X143284170Y-61618921D01*
X143263653Y-61631218D01*
X143242029Y-61641446D01*
X143219507Y-61649504D01*
X143196303Y-61655316D01*
X143172642Y-61658826D01*
X143148750Y-61660000D01*
X142661250Y-61660000D01*
X142637358Y-61658826D01*
X142613697Y-61655316D01*
X142590493Y-61649504D01*
X142567971Y-61641446D01*
X142546347Y-61631218D01*
X142525830Y-61618921D01*
X142506617Y-61604671D01*
X142488893Y-61588607D01*
X142472829Y-61570883D01*
X142458579Y-61551670D01*
X142446282Y-61531153D01*
X142436054Y-61509529D01*
X142427996Y-61487007D01*
X142422184Y-61463803D01*
X142418674Y-61440142D01*
X142417500Y-61416250D01*
X142417500Y-60503750D01*
X142418674Y-60479858D01*
X142422184Y-60456197D01*
X142427996Y-60432993D01*
X142436054Y-60410471D01*
X142446282Y-60388847D01*
X142458579Y-60368330D01*
X142472829Y-60349117D01*
X142488893Y-60331393D01*
X142506617Y-60315329D01*
X142525830Y-60301079D01*
X142546347Y-60288782D01*
X142567971Y-60278554D01*
X142590493Y-60270496D01*
X142613697Y-60264684D01*
X142637358Y-60261174D01*
X142661250Y-60260000D01*
X143148750Y-60260000D01*
X143172642Y-60261174D01*
X143172642Y-60261174D01*
G37*
D14*
X142905000Y-60960000D03*
D13*
G36*
X145047642Y-60261174D02*
X145071303Y-60264684D01*
X145094507Y-60270496D01*
X145117029Y-60278554D01*
X145138653Y-60288782D01*
X145159170Y-60301079D01*
X145178383Y-60315329D01*
X145196107Y-60331393D01*
X145212171Y-60349117D01*
X145226421Y-60368330D01*
X145238718Y-60388847D01*
X145248946Y-60410471D01*
X145257004Y-60432993D01*
X145262816Y-60456197D01*
X145266326Y-60479858D01*
X145267500Y-60503750D01*
X145267500Y-61416250D01*
X145266326Y-61440142D01*
X145262816Y-61463803D01*
X145257004Y-61487007D01*
X145248946Y-61509529D01*
X145238718Y-61531153D01*
X145226421Y-61551670D01*
X145212171Y-61570883D01*
X145196107Y-61588607D01*
X145178383Y-61604671D01*
X145159170Y-61618921D01*
X145138653Y-61631218D01*
X145117029Y-61641446D01*
X145094507Y-61649504D01*
X145071303Y-61655316D01*
X145047642Y-61658826D01*
X145023750Y-61660000D01*
X144536250Y-61660000D01*
X144512358Y-61658826D01*
X144488697Y-61655316D01*
X144465493Y-61649504D01*
X144442971Y-61641446D01*
X144421347Y-61631218D01*
X144400830Y-61618921D01*
X144381617Y-61604671D01*
X144363893Y-61588607D01*
X144347829Y-61570883D01*
X144333579Y-61551670D01*
X144321282Y-61531153D01*
X144311054Y-61509529D01*
X144302996Y-61487007D01*
X144297184Y-61463803D01*
X144293674Y-61440142D01*
X144292500Y-61416250D01*
X144292500Y-60503750D01*
X144293674Y-60479858D01*
X144297184Y-60456197D01*
X144302996Y-60432993D01*
X144311054Y-60410471D01*
X144321282Y-60388847D01*
X144333579Y-60368330D01*
X144347829Y-60349117D01*
X144363893Y-60331393D01*
X144381617Y-60315329D01*
X144400830Y-60301079D01*
X144421347Y-60288782D01*
X144442971Y-60278554D01*
X144465493Y-60270496D01*
X144488697Y-60264684D01*
X144512358Y-60261174D01*
X144536250Y-60260000D01*
X145023750Y-60260000D01*
X145047642Y-60261174D01*
X145047642Y-60261174D01*
G37*
D14*
X144780000Y-60960000D03*
G04 #@! TD*
D13*
G04 #@! TO.C,D1*
G36*
X143172642Y-62801174D02*
X143196303Y-62804684D01*
X143219507Y-62810496D01*
X143242029Y-62818554D01*
X143263653Y-62828782D01*
X143284170Y-62841079D01*
X143303383Y-62855329D01*
X143321107Y-62871393D01*
X143337171Y-62889117D01*
X143351421Y-62908330D01*
X143363718Y-62928847D01*
X143373946Y-62950471D01*
X143382004Y-62972993D01*
X143387816Y-62996197D01*
X143391326Y-63019858D01*
X143392500Y-63043750D01*
X143392500Y-63956250D01*
X143391326Y-63980142D01*
X143387816Y-64003803D01*
X143382004Y-64027007D01*
X143373946Y-64049529D01*
X143363718Y-64071153D01*
X143351421Y-64091670D01*
X143337171Y-64110883D01*
X143321107Y-64128607D01*
X143303383Y-64144671D01*
X143284170Y-64158921D01*
X143263653Y-64171218D01*
X143242029Y-64181446D01*
X143219507Y-64189504D01*
X143196303Y-64195316D01*
X143172642Y-64198826D01*
X143148750Y-64200000D01*
X142661250Y-64200000D01*
X142637358Y-64198826D01*
X142613697Y-64195316D01*
X142590493Y-64189504D01*
X142567971Y-64181446D01*
X142546347Y-64171218D01*
X142525830Y-64158921D01*
X142506617Y-64144671D01*
X142488893Y-64128607D01*
X142472829Y-64110883D01*
X142458579Y-64091670D01*
X142446282Y-64071153D01*
X142436054Y-64049529D01*
X142427996Y-64027007D01*
X142422184Y-64003803D01*
X142418674Y-63980142D01*
X142417500Y-63956250D01*
X142417500Y-63043750D01*
X142418674Y-63019858D01*
X142422184Y-62996197D01*
X142427996Y-62972993D01*
X142436054Y-62950471D01*
X142446282Y-62928847D01*
X142458579Y-62908330D01*
X142472829Y-62889117D01*
X142488893Y-62871393D01*
X142506617Y-62855329D01*
X142525830Y-62841079D01*
X142546347Y-62828782D01*
X142567971Y-62818554D01*
X142590493Y-62810496D01*
X142613697Y-62804684D01*
X142637358Y-62801174D01*
X142661250Y-62800000D01*
X143148750Y-62800000D01*
X143172642Y-62801174D01*
X143172642Y-62801174D01*
G37*
D14*
X142905000Y-63500000D03*
D13*
G36*
X145047642Y-62801174D02*
X145071303Y-62804684D01*
X145094507Y-62810496D01*
X145117029Y-62818554D01*
X145138653Y-62828782D01*
X145159170Y-62841079D01*
X145178383Y-62855329D01*
X145196107Y-62871393D01*
X145212171Y-62889117D01*
X145226421Y-62908330D01*
X145238718Y-62928847D01*
X145248946Y-62950471D01*
X145257004Y-62972993D01*
X145262816Y-62996197D01*
X145266326Y-63019858D01*
X145267500Y-63043750D01*
X145267500Y-63956250D01*
X145266326Y-63980142D01*
X145262816Y-64003803D01*
X145257004Y-64027007D01*
X145248946Y-64049529D01*
X145238718Y-64071153D01*
X145226421Y-64091670D01*
X145212171Y-64110883D01*
X145196107Y-64128607D01*
X145178383Y-64144671D01*
X145159170Y-64158921D01*
X145138653Y-64171218D01*
X145117029Y-64181446D01*
X145094507Y-64189504D01*
X145071303Y-64195316D01*
X145047642Y-64198826D01*
X145023750Y-64200000D01*
X144536250Y-64200000D01*
X144512358Y-64198826D01*
X144488697Y-64195316D01*
X144465493Y-64189504D01*
X144442971Y-64181446D01*
X144421347Y-64171218D01*
X144400830Y-64158921D01*
X144381617Y-64144671D01*
X144363893Y-64128607D01*
X144347829Y-64110883D01*
X144333579Y-64091670D01*
X144321282Y-64071153D01*
X144311054Y-64049529D01*
X144302996Y-64027007D01*
X144297184Y-64003803D01*
X144293674Y-63980142D01*
X144292500Y-63956250D01*
X144292500Y-63043750D01*
X144293674Y-63019858D01*
X144297184Y-62996197D01*
X144302996Y-62972993D01*
X144311054Y-62950471D01*
X144321282Y-62928847D01*
X144333579Y-62908330D01*
X144347829Y-62889117D01*
X144363893Y-62871393D01*
X144381617Y-62855329D01*
X144400830Y-62841079D01*
X144421347Y-62828782D01*
X144442971Y-62818554D01*
X144465493Y-62810496D01*
X144488697Y-62804684D01*
X144512358Y-62801174D01*
X144536250Y-62800000D01*
X145023750Y-62800000D01*
X145047642Y-62801174D01*
X145047642Y-62801174D01*
G37*
D14*
X144780000Y-63500000D03*
G04 #@! TD*
D13*
G04 #@! TO.C,C2*
G36*
X145047642Y-67881174D02*
X145071303Y-67884684D01*
X145094507Y-67890496D01*
X145117029Y-67898554D01*
X145138653Y-67908782D01*
X145159170Y-67921079D01*
X145178383Y-67935329D01*
X145196107Y-67951393D01*
X145212171Y-67969117D01*
X145226421Y-67988330D01*
X145238718Y-68008847D01*
X145248946Y-68030471D01*
X145257004Y-68052993D01*
X145262816Y-68076197D01*
X145266326Y-68099858D01*
X145267500Y-68123750D01*
X145267500Y-69036250D01*
X145266326Y-69060142D01*
X145262816Y-69083803D01*
X145257004Y-69107007D01*
X145248946Y-69129529D01*
X145238718Y-69151153D01*
X145226421Y-69171670D01*
X145212171Y-69190883D01*
X145196107Y-69208607D01*
X145178383Y-69224671D01*
X145159170Y-69238921D01*
X145138653Y-69251218D01*
X145117029Y-69261446D01*
X145094507Y-69269504D01*
X145071303Y-69275316D01*
X145047642Y-69278826D01*
X145023750Y-69280000D01*
X144536250Y-69280000D01*
X144512358Y-69278826D01*
X144488697Y-69275316D01*
X144465493Y-69269504D01*
X144442971Y-69261446D01*
X144421347Y-69251218D01*
X144400830Y-69238921D01*
X144381617Y-69224671D01*
X144363893Y-69208607D01*
X144347829Y-69190883D01*
X144333579Y-69171670D01*
X144321282Y-69151153D01*
X144311054Y-69129529D01*
X144302996Y-69107007D01*
X144297184Y-69083803D01*
X144293674Y-69060142D01*
X144292500Y-69036250D01*
X144292500Y-68123750D01*
X144293674Y-68099858D01*
X144297184Y-68076197D01*
X144302996Y-68052993D01*
X144311054Y-68030471D01*
X144321282Y-68008847D01*
X144333579Y-67988330D01*
X144347829Y-67969117D01*
X144363893Y-67951393D01*
X144381617Y-67935329D01*
X144400830Y-67921079D01*
X144421347Y-67908782D01*
X144442971Y-67898554D01*
X144465493Y-67890496D01*
X144488697Y-67884684D01*
X144512358Y-67881174D01*
X144536250Y-67880000D01*
X145023750Y-67880000D01*
X145047642Y-67881174D01*
X145047642Y-67881174D01*
G37*
D14*
X144780000Y-68580000D03*
D13*
G36*
X143172642Y-67881174D02*
X143196303Y-67884684D01*
X143219507Y-67890496D01*
X143242029Y-67898554D01*
X143263653Y-67908782D01*
X143284170Y-67921079D01*
X143303383Y-67935329D01*
X143321107Y-67951393D01*
X143337171Y-67969117D01*
X143351421Y-67988330D01*
X143363718Y-68008847D01*
X143373946Y-68030471D01*
X143382004Y-68052993D01*
X143387816Y-68076197D01*
X143391326Y-68099858D01*
X143392500Y-68123750D01*
X143392500Y-69036250D01*
X143391326Y-69060142D01*
X143387816Y-69083803D01*
X143382004Y-69107007D01*
X143373946Y-69129529D01*
X143363718Y-69151153D01*
X143351421Y-69171670D01*
X143337171Y-69190883D01*
X143321107Y-69208607D01*
X143303383Y-69224671D01*
X143284170Y-69238921D01*
X143263653Y-69251218D01*
X143242029Y-69261446D01*
X143219507Y-69269504D01*
X143196303Y-69275316D01*
X143172642Y-69278826D01*
X143148750Y-69280000D01*
X142661250Y-69280000D01*
X142637358Y-69278826D01*
X142613697Y-69275316D01*
X142590493Y-69269504D01*
X142567971Y-69261446D01*
X142546347Y-69251218D01*
X142525830Y-69238921D01*
X142506617Y-69224671D01*
X142488893Y-69208607D01*
X142472829Y-69190883D01*
X142458579Y-69171670D01*
X142446282Y-69151153D01*
X142436054Y-69129529D01*
X142427996Y-69107007D01*
X142422184Y-69083803D01*
X142418674Y-69060142D01*
X142417500Y-69036250D01*
X142417500Y-68123750D01*
X142418674Y-68099858D01*
X142422184Y-68076197D01*
X142427996Y-68052993D01*
X142436054Y-68030471D01*
X142446282Y-68008847D01*
X142458579Y-67988330D01*
X142472829Y-67969117D01*
X142488893Y-67951393D01*
X142506617Y-67935329D01*
X142525830Y-67921079D01*
X142546347Y-67908782D01*
X142567971Y-67898554D01*
X142590493Y-67890496D01*
X142613697Y-67884684D01*
X142637358Y-67881174D01*
X142661250Y-67880000D01*
X143148750Y-67880000D01*
X143172642Y-67881174D01*
X143172642Y-67881174D01*
G37*
D14*
X142905000Y-68580000D03*
G04 #@! TD*
D13*
G04 #@! TO.C,C3*
G36*
X157960142Y-86030674D02*
X157983803Y-86034184D01*
X158007007Y-86039996D01*
X158029529Y-86048054D01*
X158051153Y-86058282D01*
X158071670Y-86070579D01*
X158090883Y-86084829D01*
X158108607Y-86100893D01*
X158124671Y-86118617D01*
X158138921Y-86137830D01*
X158151218Y-86158347D01*
X158161446Y-86179971D01*
X158169504Y-86202493D01*
X158175316Y-86225697D01*
X158178826Y-86249358D01*
X158180000Y-86273250D01*
X158180000Y-86760750D01*
X158178826Y-86784642D01*
X158175316Y-86808303D01*
X158169504Y-86831507D01*
X158161446Y-86854029D01*
X158151218Y-86875653D01*
X158138921Y-86896170D01*
X158124671Y-86915383D01*
X158108607Y-86933107D01*
X158090883Y-86949171D01*
X158071670Y-86963421D01*
X158051153Y-86975718D01*
X158029529Y-86985946D01*
X158007007Y-86994004D01*
X157983803Y-86999816D01*
X157960142Y-87003326D01*
X157936250Y-87004500D01*
X157023750Y-87004500D01*
X156999858Y-87003326D01*
X156976197Y-86999816D01*
X156952993Y-86994004D01*
X156930471Y-86985946D01*
X156908847Y-86975718D01*
X156888330Y-86963421D01*
X156869117Y-86949171D01*
X156851393Y-86933107D01*
X156835329Y-86915383D01*
X156821079Y-86896170D01*
X156808782Y-86875653D01*
X156798554Y-86854029D01*
X156790496Y-86831507D01*
X156784684Y-86808303D01*
X156781174Y-86784642D01*
X156780000Y-86760750D01*
X156780000Y-86273250D01*
X156781174Y-86249358D01*
X156784684Y-86225697D01*
X156790496Y-86202493D01*
X156798554Y-86179971D01*
X156808782Y-86158347D01*
X156821079Y-86137830D01*
X156835329Y-86118617D01*
X156851393Y-86100893D01*
X156869117Y-86084829D01*
X156888330Y-86070579D01*
X156908847Y-86058282D01*
X156930471Y-86048054D01*
X156952993Y-86039996D01*
X156976197Y-86034184D01*
X156999858Y-86030674D01*
X157023750Y-86029500D01*
X157936250Y-86029500D01*
X157960142Y-86030674D01*
X157960142Y-86030674D01*
G37*
D14*
X157480000Y-86517000D03*
D13*
G36*
X157960142Y-87905674D02*
X157983803Y-87909184D01*
X158007007Y-87914996D01*
X158029529Y-87923054D01*
X158051153Y-87933282D01*
X158071670Y-87945579D01*
X158090883Y-87959829D01*
X158108607Y-87975893D01*
X158124671Y-87993617D01*
X158138921Y-88012830D01*
X158151218Y-88033347D01*
X158161446Y-88054971D01*
X158169504Y-88077493D01*
X158175316Y-88100697D01*
X158178826Y-88124358D01*
X158180000Y-88148250D01*
X158180000Y-88635750D01*
X158178826Y-88659642D01*
X158175316Y-88683303D01*
X158169504Y-88706507D01*
X158161446Y-88729029D01*
X158151218Y-88750653D01*
X158138921Y-88771170D01*
X158124671Y-88790383D01*
X158108607Y-88808107D01*
X158090883Y-88824171D01*
X158071670Y-88838421D01*
X158051153Y-88850718D01*
X158029529Y-88860946D01*
X158007007Y-88869004D01*
X157983803Y-88874816D01*
X157960142Y-88878326D01*
X157936250Y-88879500D01*
X157023750Y-88879500D01*
X156999858Y-88878326D01*
X156976197Y-88874816D01*
X156952993Y-88869004D01*
X156930471Y-88860946D01*
X156908847Y-88850718D01*
X156888330Y-88838421D01*
X156869117Y-88824171D01*
X156851393Y-88808107D01*
X156835329Y-88790383D01*
X156821079Y-88771170D01*
X156808782Y-88750653D01*
X156798554Y-88729029D01*
X156790496Y-88706507D01*
X156784684Y-88683303D01*
X156781174Y-88659642D01*
X156780000Y-88635750D01*
X156780000Y-88148250D01*
X156781174Y-88124358D01*
X156784684Y-88100697D01*
X156790496Y-88077493D01*
X156798554Y-88054971D01*
X156808782Y-88033347D01*
X156821079Y-88012830D01*
X156835329Y-87993617D01*
X156851393Y-87975893D01*
X156869117Y-87959829D01*
X156888330Y-87945579D01*
X156908847Y-87933282D01*
X156930471Y-87923054D01*
X156952993Y-87914996D01*
X156976197Y-87909184D01*
X156999858Y-87905674D01*
X157023750Y-87904500D01*
X157936250Y-87904500D01*
X157960142Y-87905674D01*
X157960142Y-87905674D01*
G37*
D14*
X157480000Y-88392000D03*
G04 #@! TD*
D13*
G04 #@! TO.C,C4*
G36*
X154404142Y-87905674D02*
X154427803Y-87909184D01*
X154451007Y-87914996D01*
X154473529Y-87923054D01*
X154495153Y-87933282D01*
X154515670Y-87945579D01*
X154534883Y-87959829D01*
X154552607Y-87975893D01*
X154568671Y-87993617D01*
X154582921Y-88012830D01*
X154595218Y-88033347D01*
X154605446Y-88054971D01*
X154613504Y-88077493D01*
X154619316Y-88100697D01*
X154622826Y-88124358D01*
X154624000Y-88148250D01*
X154624000Y-88635750D01*
X154622826Y-88659642D01*
X154619316Y-88683303D01*
X154613504Y-88706507D01*
X154605446Y-88729029D01*
X154595218Y-88750653D01*
X154582921Y-88771170D01*
X154568671Y-88790383D01*
X154552607Y-88808107D01*
X154534883Y-88824171D01*
X154515670Y-88838421D01*
X154495153Y-88850718D01*
X154473529Y-88860946D01*
X154451007Y-88869004D01*
X154427803Y-88874816D01*
X154404142Y-88878326D01*
X154380250Y-88879500D01*
X153467750Y-88879500D01*
X153443858Y-88878326D01*
X153420197Y-88874816D01*
X153396993Y-88869004D01*
X153374471Y-88860946D01*
X153352847Y-88850718D01*
X153332330Y-88838421D01*
X153313117Y-88824171D01*
X153295393Y-88808107D01*
X153279329Y-88790383D01*
X153265079Y-88771170D01*
X153252782Y-88750653D01*
X153242554Y-88729029D01*
X153234496Y-88706507D01*
X153228684Y-88683303D01*
X153225174Y-88659642D01*
X153224000Y-88635750D01*
X153224000Y-88148250D01*
X153225174Y-88124358D01*
X153228684Y-88100697D01*
X153234496Y-88077493D01*
X153242554Y-88054971D01*
X153252782Y-88033347D01*
X153265079Y-88012830D01*
X153279329Y-87993617D01*
X153295393Y-87975893D01*
X153313117Y-87959829D01*
X153332330Y-87945579D01*
X153352847Y-87933282D01*
X153374471Y-87923054D01*
X153396993Y-87914996D01*
X153420197Y-87909184D01*
X153443858Y-87905674D01*
X153467750Y-87904500D01*
X154380250Y-87904500D01*
X154404142Y-87905674D01*
X154404142Y-87905674D01*
G37*
D14*
X153924000Y-88392000D03*
D13*
G36*
X154404142Y-86030674D02*
X154427803Y-86034184D01*
X154451007Y-86039996D01*
X154473529Y-86048054D01*
X154495153Y-86058282D01*
X154515670Y-86070579D01*
X154534883Y-86084829D01*
X154552607Y-86100893D01*
X154568671Y-86118617D01*
X154582921Y-86137830D01*
X154595218Y-86158347D01*
X154605446Y-86179971D01*
X154613504Y-86202493D01*
X154619316Y-86225697D01*
X154622826Y-86249358D01*
X154624000Y-86273250D01*
X154624000Y-86760750D01*
X154622826Y-86784642D01*
X154619316Y-86808303D01*
X154613504Y-86831507D01*
X154605446Y-86854029D01*
X154595218Y-86875653D01*
X154582921Y-86896170D01*
X154568671Y-86915383D01*
X154552607Y-86933107D01*
X154534883Y-86949171D01*
X154515670Y-86963421D01*
X154495153Y-86975718D01*
X154473529Y-86985946D01*
X154451007Y-86994004D01*
X154427803Y-86999816D01*
X154404142Y-87003326D01*
X154380250Y-87004500D01*
X153467750Y-87004500D01*
X153443858Y-87003326D01*
X153420197Y-86999816D01*
X153396993Y-86994004D01*
X153374471Y-86985946D01*
X153352847Y-86975718D01*
X153332330Y-86963421D01*
X153313117Y-86949171D01*
X153295393Y-86933107D01*
X153279329Y-86915383D01*
X153265079Y-86896170D01*
X153252782Y-86875653D01*
X153242554Y-86854029D01*
X153234496Y-86831507D01*
X153228684Y-86808303D01*
X153225174Y-86784642D01*
X153224000Y-86760750D01*
X153224000Y-86273250D01*
X153225174Y-86249358D01*
X153228684Y-86225697D01*
X153234496Y-86202493D01*
X153242554Y-86179971D01*
X153252782Y-86158347D01*
X153265079Y-86137830D01*
X153279329Y-86118617D01*
X153295393Y-86100893D01*
X153313117Y-86084829D01*
X153332330Y-86070579D01*
X153352847Y-86058282D01*
X153374471Y-86048054D01*
X153396993Y-86039996D01*
X153420197Y-86034184D01*
X153443858Y-86030674D01*
X153467750Y-86029500D01*
X154380250Y-86029500D01*
X154404142Y-86030674D01*
X154404142Y-86030674D01*
G37*
D14*
X153924000Y-86517000D03*
G04 #@! TD*
D13*
G04 #@! TO.C,C5*
G36*
X145017642Y-70421174D02*
X145041303Y-70424684D01*
X145064507Y-70430496D01*
X145087029Y-70438554D01*
X145108653Y-70448782D01*
X145129170Y-70461079D01*
X145148383Y-70475329D01*
X145166107Y-70491393D01*
X145182171Y-70509117D01*
X145196421Y-70528330D01*
X145208718Y-70548847D01*
X145218946Y-70570471D01*
X145227004Y-70592993D01*
X145232816Y-70616197D01*
X145236326Y-70639858D01*
X145237500Y-70663750D01*
X145237500Y-71576250D01*
X145236326Y-71600142D01*
X145232816Y-71623803D01*
X145227004Y-71647007D01*
X145218946Y-71669529D01*
X145208718Y-71691153D01*
X145196421Y-71711670D01*
X145182171Y-71730883D01*
X145166107Y-71748607D01*
X145148383Y-71764671D01*
X145129170Y-71778921D01*
X145108653Y-71791218D01*
X145087029Y-71801446D01*
X145064507Y-71809504D01*
X145041303Y-71815316D01*
X145017642Y-71818826D01*
X144993750Y-71820000D01*
X144506250Y-71820000D01*
X144482358Y-71818826D01*
X144458697Y-71815316D01*
X144435493Y-71809504D01*
X144412971Y-71801446D01*
X144391347Y-71791218D01*
X144370830Y-71778921D01*
X144351617Y-71764671D01*
X144333893Y-71748607D01*
X144317829Y-71730883D01*
X144303579Y-71711670D01*
X144291282Y-71691153D01*
X144281054Y-71669529D01*
X144272996Y-71647007D01*
X144267184Y-71623803D01*
X144263674Y-71600142D01*
X144262500Y-71576250D01*
X144262500Y-70663750D01*
X144263674Y-70639858D01*
X144267184Y-70616197D01*
X144272996Y-70592993D01*
X144281054Y-70570471D01*
X144291282Y-70548847D01*
X144303579Y-70528330D01*
X144317829Y-70509117D01*
X144333893Y-70491393D01*
X144351617Y-70475329D01*
X144370830Y-70461079D01*
X144391347Y-70448782D01*
X144412971Y-70438554D01*
X144435493Y-70430496D01*
X144458697Y-70424684D01*
X144482358Y-70421174D01*
X144506250Y-70420000D01*
X144993750Y-70420000D01*
X145017642Y-70421174D01*
X145017642Y-70421174D01*
G37*
D14*
X144750000Y-71120000D03*
D13*
G36*
X143142642Y-70421174D02*
X143166303Y-70424684D01*
X143189507Y-70430496D01*
X143212029Y-70438554D01*
X143233653Y-70448782D01*
X143254170Y-70461079D01*
X143273383Y-70475329D01*
X143291107Y-70491393D01*
X143307171Y-70509117D01*
X143321421Y-70528330D01*
X143333718Y-70548847D01*
X143343946Y-70570471D01*
X143352004Y-70592993D01*
X143357816Y-70616197D01*
X143361326Y-70639858D01*
X143362500Y-70663750D01*
X143362500Y-71576250D01*
X143361326Y-71600142D01*
X143357816Y-71623803D01*
X143352004Y-71647007D01*
X143343946Y-71669529D01*
X143333718Y-71691153D01*
X143321421Y-71711670D01*
X143307171Y-71730883D01*
X143291107Y-71748607D01*
X143273383Y-71764671D01*
X143254170Y-71778921D01*
X143233653Y-71791218D01*
X143212029Y-71801446D01*
X143189507Y-71809504D01*
X143166303Y-71815316D01*
X143142642Y-71818826D01*
X143118750Y-71820000D01*
X142631250Y-71820000D01*
X142607358Y-71818826D01*
X142583697Y-71815316D01*
X142560493Y-71809504D01*
X142537971Y-71801446D01*
X142516347Y-71791218D01*
X142495830Y-71778921D01*
X142476617Y-71764671D01*
X142458893Y-71748607D01*
X142442829Y-71730883D01*
X142428579Y-71711670D01*
X142416282Y-71691153D01*
X142406054Y-71669529D01*
X142397996Y-71647007D01*
X142392184Y-71623803D01*
X142388674Y-71600142D01*
X142387500Y-71576250D01*
X142387500Y-70663750D01*
X142388674Y-70639858D01*
X142392184Y-70616197D01*
X142397996Y-70592993D01*
X142406054Y-70570471D01*
X142416282Y-70548847D01*
X142428579Y-70528330D01*
X142442829Y-70509117D01*
X142458893Y-70491393D01*
X142476617Y-70475329D01*
X142495830Y-70461079D01*
X142516347Y-70448782D01*
X142537971Y-70438554D01*
X142560493Y-70430496D01*
X142583697Y-70424684D01*
X142607358Y-70421174D01*
X142631250Y-70420000D01*
X143118750Y-70420000D01*
X143142642Y-70421174D01*
X143142642Y-70421174D01*
G37*
D14*
X142875000Y-71120000D03*
G04 #@! TD*
D13*
G04 #@! TO.C,C1*
G36*
X143172642Y-65341174D02*
X143196303Y-65344684D01*
X143219507Y-65350496D01*
X143242029Y-65358554D01*
X143263653Y-65368782D01*
X143284170Y-65381079D01*
X143303383Y-65395329D01*
X143321107Y-65411393D01*
X143337171Y-65429117D01*
X143351421Y-65448330D01*
X143363718Y-65468847D01*
X143373946Y-65490471D01*
X143382004Y-65512993D01*
X143387816Y-65536197D01*
X143391326Y-65559858D01*
X143392500Y-65583750D01*
X143392500Y-66496250D01*
X143391326Y-66520142D01*
X143387816Y-66543803D01*
X143382004Y-66567007D01*
X143373946Y-66589529D01*
X143363718Y-66611153D01*
X143351421Y-66631670D01*
X143337171Y-66650883D01*
X143321107Y-66668607D01*
X143303383Y-66684671D01*
X143284170Y-66698921D01*
X143263653Y-66711218D01*
X143242029Y-66721446D01*
X143219507Y-66729504D01*
X143196303Y-66735316D01*
X143172642Y-66738826D01*
X143148750Y-66740000D01*
X142661250Y-66740000D01*
X142637358Y-66738826D01*
X142613697Y-66735316D01*
X142590493Y-66729504D01*
X142567971Y-66721446D01*
X142546347Y-66711218D01*
X142525830Y-66698921D01*
X142506617Y-66684671D01*
X142488893Y-66668607D01*
X142472829Y-66650883D01*
X142458579Y-66631670D01*
X142446282Y-66611153D01*
X142436054Y-66589529D01*
X142427996Y-66567007D01*
X142422184Y-66543803D01*
X142418674Y-66520142D01*
X142417500Y-66496250D01*
X142417500Y-65583750D01*
X142418674Y-65559858D01*
X142422184Y-65536197D01*
X142427996Y-65512993D01*
X142436054Y-65490471D01*
X142446282Y-65468847D01*
X142458579Y-65448330D01*
X142472829Y-65429117D01*
X142488893Y-65411393D01*
X142506617Y-65395329D01*
X142525830Y-65381079D01*
X142546347Y-65368782D01*
X142567971Y-65358554D01*
X142590493Y-65350496D01*
X142613697Y-65344684D01*
X142637358Y-65341174D01*
X142661250Y-65340000D01*
X143148750Y-65340000D01*
X143172642Y-65341174D01*
X143172642Y-65341174D01*
G37*
D14*
X142905000Y-66040000D03*
D13*
G36*
X145047642Y-65341174D02*
X145071303Y-65344684D01*
X145094507Y-65350496D01*
X145117029Y-65358554D01*
X145138653Y-65368782D01*
X145159170Y-65381079D01*
X145178383Y-65395329D01*
X145196107Y-65411393D01*
X145212171Y-65429117D01*
X145226421Y-65448330D01*
X145238718Y-65468847D01*
X145248946Y-65490471D01*
X145257004Y-65512993D01*
X145262816Y-65536197D01*
X145266326Y-65559858D01*
X145267500Y-65583750D01*
X145267500Y-66496250D01*
X145266326Y-66520142D01*
X145262816Y-66543803D01*
X145257004Y-66567007D01*
X145248946Y-66589529D01*
X145238718Y-66611153D01*
X145226421Y-66631670D01*
X145212171Y-66650883D01*
X145196107Y-66668607D01*
X145178383Y-66684671D01*
X145159170Y-66698921D01*
X145138653Y-66711218D01*
X145117029Y-66721446D01*
X145094507Y-66729504D01*
X145071303Y-66735316D01*
X145047642Y-66738826D01*
X145023750Y-66740000D01*
X144536250Y-66740000D01*
X144512358Y-66738826D01*
X144488697Y-66735316D01*
X144465493Y-66729504D01*
X144442971Y-66721446D01*
X144421347Y-66711218D01*
X144400830Y-66698921D01*
X144381617Y-66684671D01*
X144363893Y-66668607D01*
X144347829Y-66650883D01*
X144333579Y-66631670D01*
X144321282Y-66611153D01*
X144311054Y-66589529D01*
X144302996Y-66567007D01*
X144297184Y-66543803D01*
X144293674Y-66520142D01*
X144292500Y-66496250D01*
X144292500Y-65583750D01*
X144293674Y-65559858D01*
X144297184Y-65536197D01*
X144302996Y-65512993D01*
X144311054Y-65490471D01*
X144321282Y-65468847D01*
X144333579Y-65448330D01*
X144347829Y-65429117D01*
X144363893Y-65411393D01*
X144381617Y-65395329D01*
X144400830Y-65381079D01*
X144421347Y-65368782D01*
X144442971Y-65358554D01*
X144465493Y-65350496D01*
X144488697Y-65344684D01*
X144512358Y-65341174D01*
X144536250Y-65340000D01*
X145023750Y-65340000D01*
X145047642Y-65341174D01*
X145047642Y-65341174D01*
G37*
D14*
X144780000Y-66040000D03*
G04 #@! TD*
D13*
G04 #@! TO.C,L2*
G36*
X150732642Y-90106174D02*
X150756303Y-90109684D01*
X150779507Y-90115496D01*
X150802029Y-90123554D01*
X150823653Y-90133782D01*
X150844170Y-90146079D01*
X150863383Y-90160329D01*
X150881107Y-90176393D01*
X150897171Y-90194117D01*
X150911421Y-90213330D01*
X150923718Y-90233847D01*
X150933946Y-90255471D01*
X150942004Y-90277993D01*
X150947816Y-90301197D01*
X150951326Y-90324858D01*
X150952500Y-90348750D01*
X150952500Y-91261250D01*
X150951326Y-91285142D01*
X150947816Y-91308803D01*
X150942004Y-91332007D01*
X150933946Y-91354529D01*
X150923718Y-91376153D01*
X150911421Y-91396670D01*
X150897171Y-91415883D01*
X150881107Y-91433607D01*
X150863383Y-91449671D01*
X150844170Y-91463921D01*
X150823653Y-91476218D01*
X150802029Y-91486446D01*
X150779507Y-91494504D01*
X150756303Y-91500316D01*
X150732642Y-91503826D01*
X150708750Y-91505000D01*
X150221250Y-91505000D01*
X150197358Y-91503826D01*
X150173697Y-91500316D01*
X150150493Y-91494504D01*
X150127971Y-91486446D01*
X150106347Y-91476218D01*
X150085830Y-91463921D01*
X150066617Y-91449671D01*
X150048893Y-91433607D01*
X150032829Y-91415883D01*
X150018579Y-91396670D01*
X150006282Y-91376153D01*
X149996054Y-91354529D01*
X149987996Y-91332007D01*
X149982184Y-91308803D01*
X149978674Y-91285142D01*
X149977500Y-91261250D01*
X149977500Y-90348750D01*
X149978674Y-90324858D01*
X149982184Y-90301197D01*
X149987996Y-90277993D01*
X149996054Y-90255471D01*
X150006282Y-90233847D01*
X150018579Y-90213330D01*
X150032829Y-90194117D01*
X150048893Y-90176393D01*
X150066617Y-90160329D01*
X150085830Y-90146079D01*
X150106347Y-90133782D01*
X150127971Y-90123554D01*
X150150493Y-90115496D01*
X150173697Y-90109684D01*
X150197358Y-90106174D01*
X150221250Y-90105000D01*
X150708750Y-90105000D01*
X150732642Y-90106174D01*
X150732642Y-90106174D01*
G37*
D14*
X150465000Y-90805000D03*
D13*
G36*
X148857642Y-90106174D02*
X148881303Y-90109684D01*
X148904507Y-90115496D01*
X148927029Y-90123554D01*
X148948653Y-90133782D01*
X148969170Y-90146079D01*
X148988383Y-90160329D01*
X149006107Y-90176393D01*
X149022171Y-90194117D01*
X149036421Y-90213330D01*
X149048718Y-90233847D01*
X149058946Y-90255471D01*
X149067004Y-90277993D01*
X149072816Y-90301197D01*
X149076326Y-90324858D01*
X149077500Y-90348750D01*
X149077500Y-91261250D01*
X149076326Y-91285142D01*
X149072816Y-91308803D01*
X149067004Y-91332007D01*
X149058946Y-91354529D01*
X149048718Y-91376153D01*
X149036421Y-91396670D01*
X149022171Y-91415883D01*
X149006107Y-91433607D01*
X148988383Y-91449671D01*
X148969170Y-91463921D01*
X148948653Y-91476218D01*
X148927029Y-91486446D01*
X148904507Y-91494504D01*
X148881303Y-91500316D01*
X148857642Y-91503826D01*
X148833750Y-91505000D01*
X148346250Y-91505000D01*
X148322358Y-91503826D01*
X148298697Y-91500316D01*
X148275493Y-91494504D01*
X148252971Y-91486446D01*
X148231347Y-91476218D01*
X148210830Y-91463921D01*
X148191617Y-91449671D01*
X148173893Y-91433607D01*
X148157829Y-91415883D01*
X148143579Y-91396670D01*
X148131282Y-91376153D01*
X148121054Y-91354529D01*
X148112996Y-91332007D01*
X148107184Y-91308803D01*
X148103674Y-91285142D01*
X148102500Y-91261250D01*
X148102500Y-90348750D01*
X148103674Y-90324858D01*
X148107184Y-90301197D01*
X148112996Y-90277993D01*
X148121054Y-90255471D01*
X148131282Y-90233847D01*
X148143579Y-90213330D01*
X148157829Y-90194117D01*
X148173893Y-90176393D01*
X148191617Y-90160329D01*
X148210830Y-90146079D01*
X148231347Y-90133782D01*
X148252971Y-90123554D01*
X148275493Y-90115496D01*
X148298697Y-90109684D01*
X148322358Y-90106174D01*
X148346250Y-90105000D01*
X148833750Y-90105000D01*
X148857642Y-90106174D01*
X148857642Y-90106174D01*
G37*
D14*
X148590000Y-90805000D03*
G04 #@! TD*
D13*
G04 #@! TO.C,R1*
G36*
X143172642Y-72961174D02*
X143196303Y-72964684D01*
X143219507Y-72970496D01*
X143242029Y-72978554D01*
X143263653Y-72988782D01*
X143284170Y-73001079D01*
X143303383Y-73015329D01*
X143321107Y-73031393D01*
X143337171Y-73049117D01*
X143351421Y-73068330D01*
X143363718Y-73088847D01*
X143373946Y-73110471D01*
X143382004Y-73132993D01*
X143387816Y-73156197D01*
X143391326Y-73179858D01*
X143392500Y-73203750D01*
X143392500Y-74116250D01*
X143391326Y-74140142D01*
X143387816Y-74163803D01*
X143382004Y-74187007D01*
X143373946Y-74209529D01*
X143363718Y-74231153D01*
X143351421Y-74251670D01*
X143337171Y-74270883D01*
X143321107Y-74288607D01*
X143303383Y-74304671D01*
X143284170Y-74318921D01*
X143263653Y-74331218D01*
X143242029Y-74341446D01*
X143219507Y-74349504D01*
X143196303Y-74355316D01*
X143172642Y-74358826D01*
X143148750Y-74360000D01*
X142661250Y-74360000D01*
X142637358Y-74358826D01*
X142613697Y-74355316D01*
X142590493Y-74349504D01*
X142567971Y-74341446D01*
X142546347Y-74331218D01*
X142525830Y-74318921D01*
X142506617Y-74304671D01*
X142488893Y-74288607D01*
X142472829Y-74270883D01*
X142458579Y-74251670D01*
X142446282Y-74231153D01*
X142436054Y-74209529D01*
X142427996Y-74187007D01*
X142422184Y-74163803D01*
X142418674Y-74140142D01*
X142417500Y-74116250D01*
X142417500Y-73203750D01*
X142418674Y-73179858D01*
X142422184Y-73156197D01*
X142427996Y-73132993D01*
X142436054Y-73110471D01*
X142446282Y-73088847D01*
X142458579Y-73068330D01*
X142472829Y-73049117D01*
X142488893Y-73031393D01*
X142506617Y-73015329D01*
X142525830Y-73001079D01*
X142546347Y-72988782D01*
X142567971Y-72978554D01*
X142590493Y-72970496D01*
X142613697Y-72964684D01*
X142637358Y-72961174D01*
X142661250Y-72960000D01*
X143148750Y-72960000D01*
X143172642Y-72961174D01*
X143172642Y-72961174D01*
G37*
D14*
X142905000Y-73660000D03*
D13*
G36*
X145047642Y-72961174D02*
X145071303Y-72964684D01*
X145094507Y-72970496D01*
X145117029Y-72978554D01*
X145138653Y-72988782D01*
X145159170Y-73001079D01*
X145178383Y-73015329D01*
X145196107Y-73031393D01*
X145212171Y-73049117D01*
X145226421Y-73068330D01*
X145238718Y-73088847D01*
X145248946Y-73110471D01*
X145257004Y-73132993D01*
X145262816Y-73156197D01*
X145266326Y-73179858D01*
X145267500Y-73203750D01*
X145267500Y-74116250D01*
X145266326Y-74140142D01*
X145262816Y-74163803D01*
X145257004Y-74187007D01*
X145248946Y-74209529D01*
X145238718Y-74231153D01*
X145226421Y-74251670D01*
X145212171Y-74270883D01*
X145196107Y-74288607D01*
X145178383Y-74304671D01*
X145159170Y-74318921D01*
X145138653Y-74331218D01*
X145117029Y-74341446D01*
X145094507Y-74349504D01*
X145071303Y-74355316D01*
X145047642Y-74358826D01*
X145023750Y-74360000D01*
X144536250Y-74360000D01*
X144512358Y-74358826D01*
X144488697Y-74355316D01*
X144465493Y-74349504D01*
X144442971Y-74341446D01*
X144421347Y-74331218D01*
X144400830Y-74318921D01*
X144381617Y-74304671D01*
X144363893Y-74288607D01*
X144347829Y-74270883D01*
X144333579Y-74251670D01*
X144321282Y-74231153D01*
X144311054Y-74209529D01*
X144302996Y-74187007D01*
X144297184Y-74163803D01*
X144293674Y-74140142D01*
X144292500Y-74116250D01*
X144292500Y-73203750D01*
X144293674Y-73179858D01*
X144297184Y-73156197D01*
X144302996Y-73132993D01*
X144311054Y-73110471D01*
X144321282Y-73088847D01*
X144333579Y-73068330D01*
X144347829Y-73049117D01*
X144363893Y-73031393D01*
X144381617Y-73015329D01*
X144400830Y-73001079D01*
X144421347Y-72988782D01*
X144442971Y-72978554D01*
X144465493Y-72970496D01*
X144488697Y-72964684D01*
X144512358Y-72961174D01*
X144536250Y-72960000D01*
X145023750Y-72960000D01*
X145047642Y-72961174D01*
X145047642Y-72961174D01*
G37*
D14*
X144780000Y-73660000D03*
G04 #@! TD*
D15*
G04 #@! TO.C,U2*
X148722000Y-62960000D03*
X150622000Y-62960000D03*
X149672000Y-60960000D03*
G04 #@! TD*
D16*
G04 #@! TO.C,J5*
X146080000Y-56510000D03*
X145430000Y-56510000D03*
X144780000Y-56510000D03*
X144130000Y-56510000D03*
X143480000Y-56510000D03*
G04 #@! TD*
D17*
G04 #@! TO.C,Y1*
X157200000Y-90805000D03*
X153950000Y-90805000D03*
G04 #@! TD*
M02*
