G04 #@! TF.GenerationSoftware,KiCad,Pcbnew,5.0.1*
G04 #@! TF.CreationDate,2019-01-03T14:53:17+01:00*
G04 #@! TF.ProjectId,e73-c,6537332D632E6B696361645F70636200,rev?*
G04 #@! TF.SameCoordinates,Original*
G04 #@! TF.FileFunction,Copper,L1,Top,Signal*
G04 #@! TF.FilePolarity,Positive*
%FSLAX46Y46*%
G04 Gerber Fmt 4.6, Leading zero omitted, Abs format (unit mm)*
G04 Created by KiCad (PCBNEW 5.0.1) date do 03 jan 2019 14:53:17 CET*
%MOMM*%
%LPD*%
G01*
G04 APERTURE LIST*
G04 #@! TA.AperFunction,SMDPad,CuDef*
%ADD10R,1.800000X1.100000*%
G04 #@! TD*
G04 #@! TA.AperFunction,SMDPad,CuDef*
%ADD11R,1.500000X0.500000*%
G04 #@! TD*
G04 #@! TA.AperFunction,ComponentPad*
%ADD12R,0.750000X0.750000*%
G04 #@! TD*
G04 #@! TA.AperFunction,SMDPad,CuDef*
%ADD13R,0.500000X1.500000*%
G04 #@! TD*
G04 #@! TA.AperFunction,ComponentPad*
%ADD14R,1.700000X1.700000*%
G04 #@! TD*
G04 #@! TA.AperFunction,ComponentPad*
%ADD15O,1.700000X1.700000*%
G04 #@! TD*
G04 #@! TA.AperFunction,Conductor*
%ADD16C,0.100000*%
G04 #@! TD*
G04 #@! TA.AperFunction,SMDPad,CuDef*
%ADD17C,0.975000*%
G04 #@! TD*
G04 #@! TA.AperFunction,SMDPad,CuDef*
%ADD18R,0.800000X0.900000*%
G04 #@! TD*
G04 #@! TA.AperFunction,SMDPad,CuDef*
%ADD19R,0.450000X1.300000*%
G04 #@! TD*
G04 #@! TA.AperFunction,ComponentPad*
%ADD20O,1.450000X2.000000*%
G04 #@! TD*
G04 #@! TA.AperFunction,ComponentPad*
%ADD21O,1.150000X1.800000*%
G04 #@! TD*
G04 #@! TA.AperFunction,ComponentPad*
%ADD22R,1.000000X1.000000*%
G04 #@! TD*
G04 #@! TA.AperFunction,ComponentPad*
%ADD23O,1.000000X1.000000*%
G04 #@! TD*
G04 #@! TA.AperFunction,SMDPad,CuDef*
%ADD24R,1.750000X1.800000*%
G04 #@! TD*
G04 #@! TA.AperFunction,ViaPad*
%ADD25C,0.800000*%
G04 #@! TD*
G04 #@! TA.AperFunction,Conductor*
%ADD26C,0.200000*%
G04 #@! TD*
G04 #@! TA.AperFunction,Conductor*
%ADD27C,0.254000*%
G04 #@! TD*
G04 APERTURE END LIST*
D10*
G04 #@! TO.P,SW1,1*
G04 #@! TO.N,!RST*
X159785000Y-69390000D03*
G04 #@! TO.P,SW1,2*
G04 #@! TO.N,GND*
X159785000Y-65690000D03*
G04 #@! TO.P,SW1,1*
G04 #@! TO.N,!RST*
X153485000Y-69390000D03*
G04 #@! TO.P,SW1,2*
G04 #@! TO.N,GND*
X153485000Y-65690000D03*
G04 #@! TD*
D11*
G04 #@! TO.P,U1,1*
G04 #@! TO.N,42*
X160185000Y-108245000D03*
G04 #@! TO.P,U1,2*
G04 #@! TO.N,41*
X160185000Y-106975000D03*
G04 #@! TO.P,U1,3*
G04 #@! TO.N,3*
X160185000Y-105705000D03*
G04 #@! TO.P,U1,4*
G04 #@! TO.N,28*
X160185000Y-104435000D03*
G04 #@! TO.P,U1,5*
G04 #@! TO.N,GND*
X160185000Y-103165000D03*
G04 #@! TO.P,U1,6*
G04 #@! TO.N,44*
X160185000Y-101895000D03*
G04 #@! TO.P,U1,7*
G04 #@! TO.N,2*
X160185000Y-100625000D03*
G04 #@! TO.P,U1,8*
G04 #@! TO.N,29*
X160185000Y-99355000D03*
G04 #@! TO.P,U1,9*
G04 #@! TO.N,31*
X160185000Y-98085000D03*
G04 #@! TO.P,U1,10*
G04 #@! TO.N,30*
X160185000Y-96815000D03*
D12*
G04 #@! TO.P,U1,12*
G04 #@! TO.N,26*
X156740000Y-96515000D03*
G04 #@! TO.P,U1,14*
G04 #@! TO.N,6*
X155470000Y-96515000D03*
G04 #@! TO.P,U1,16*
G04 #@! TO.N,8*
X154200000Y-96515000D03*
G04 #@! TO.P,U1,18*
G04 #@! TO.N,4*
X152930000Y-96515000D03*
G04 #@! TO.P,U1,20*
G04 #@! TO.N,12*
X151660000Y-96515000D03*
G04 #@! TO.P,U1,22*
G04 #@! TO.N,7*
X150390000Y-96515000D03*
G04 #@! TO.P,U1,24*
G04 #@! TO.N,GND*
X149120000Y-96515000D03*
D13*
G04 #@! TO.P,U1,11*
G04 #@! TO.N,XL1*
X157375000Y-94115000D03*
G04 #@! TO.P,U1,13*
G04 #@! TO.N,XL2*
X156105000Y-94115000D03*
G04 #@! TO.P,U1,15*
G04 #@! TO.N,5*
X154835000Y-94115000D03*
G04 #@! TO.P,U1,17*
G04 #@! TO.N,40*
X153565000Y-94115000D03*
G04 #@! TO.P,U1,19*
G04 #@! TO.N,VDD*
X152295000Y-94115000D03*
G04 #@! TO.P,U1,21*
G04 #@! TO.N,GND*
X151025000Y-94115000D03*
G04 #@! TO.P,U1,23*
G04 #@! TO.N,VDDH*
X149755000Y-94115000D03*
G04 #@! TO.P,U1,25*
G04 #@! TO.N,Net-(L2-Pad2)*
X148485000Y-94115000D03*
D12*
G04 #@! TO.P,U1,42*
G04 #@! TO.N,38*
X148685000Y-107610000D03*
G04 #@! TO.P,U1,40*
G04 #@! TO.N,36*
X148685000Y-106340000D03*
G04 #@! TO.P,U1,38*
G04 #@! TO.N,34*
X148685000Y-105070000D03*
G04 #@! TO.P,U1,36*
G04 #@! TO.N,32*
X148685000Y-103800000D03*
G04 #@! TO.P,U1,34*
G04 #@! TO.N,22*
X148685000Y-102530000D03*
G04 #@! TO.P,U1,32*
G04 #@! TO.N,20*
X148685000Y-101260000D03*
G04 #@! TO.P,U1,30*
G04 #@! TO.N,17*
X148685000Y-99990000D03*
G04 #@! TO.P,U1,28*
G04 #@! TO.N,15*
X148685000Y-98720000D03*
D11*
G04 #@! TO.P,U1,43*
G04 #@! TO.N,10*
X146185000Y-108245000D03*
G04 #@! TO.P,U1,41*
G04 #@! TO.N,9*
X146185000Y-106975000D03*
G04 #@! TO.P,U1,39*
G04 #@! TO.N,SWDCLK*
X146185000Y-105705000D03*
G04 #@! TO.P,U1,37*
G04 #@! TO.N,SWDIO*
X146185000Y-104435000D03*
G04 #@! TO.P,U1,35*
G04 #@! TO.N,24*
X146185000Y-103165000D03*
G04 #@! TO.P,U1,33*
G04 #@! TO.N,13*
X146185000Y-101895000D03*
G04 #@! TO.P,U1,31*
G04 #@! TO.N,D+*
X146185000Y-100625000D03*
G04 #@! TO.P,U1,29*
G04 #@! TO.N,D-*
X146185000Y-99355000D03*
G04 #@! TO.P,U1,27*
G04 #@! TO.N,VBUS*
X146185000Y-98085000D03*
G04 #@! TO.P,U1,26*
G04 #@! TO.N,18*
X146185000Y-96815000D03*
G04 #@! TD*
D14*
G04 #@! TO.P,J6,1*
G04 #@! TO.N,LDO_IN*
X160655000Y-76200000D03*
D15*
G04 #@! TO.P,J6,2*
G04 #@! TO.N,5V*
X158115000Y-76200000D03*
G04 #@! TO.P,J6,3*
G04 #@! TO.N,VDDH*
X155575000Y-76200000D03*
G04 #@! TO.P,J6,4*
G04 #@! TO.N,VDD*
X153035000Y-76200000D03*
G04 #@! TD*
D16*
G04 #@! TO.N,5V*
G04 #@! TO.C,D2*
G36*
X143172642Y-60261174D02*
X143196303Y-60264684D01*
X143219507Y-60270496D01*
X143242029Y-60278554D01*
X143263653Y-60288782D01*
X143284170Y-60301079D01*
X143303383Y-60315329D01*
X143321107Y-60331393D01*
X143337171Y-60349117D01*
X143351421Y-60368330D01*
X143363718Y-60388847D01*
X143373946Y-60410471D01*
X143382004Y-60432993D01*
X143387816Y-60456197D01*
X143391326Y-60479858D01*
X143392500Y-60503750D01*
X143392500Y-61416250D01*
X143391326Y-61440142D01*
X143387816Y-61463803D01*
X143382004Y-61487007D01*
X143373946Y-61509529D01*
X143363718Y-61531153D01*
X143351421Y-61551670D01*
X143337171Y-61570883D01*
X143321107Y-61588607D01*
X143303383Y-61604671D01*
X143284170Y-61618921D01*
X143263653Y-61631218D01*
X143242029Y-61641446D01*
X143219507Y-61649504D01*
X143196303Y-61655316D01*
X143172642Y-61658826D01*
X143148750Y-61660000D01*
X142661250Y-61660000D01*
X142637358Y-61658826D01*
X142613697Y-61655316D01*
X142590493Y-61649504D01*
X142567971Y-61641446D01*
X142546347Y-61631218D01*
X142525830Y-61618921D01*
X142506617Y-61604671D01*
X142488893Y-61588607D01*
X142472829Y-61570883D01*
X142458579Y-61551670D01*
X142446282Y-61531153D01*
X142436054Y-61509529D01*
X142427996Y-61487007D01*
X142422184Y-61463803D01*
X142418674Y-61440142D01*
X142417500Y-61416250D01*
X142417500Y-60503750D01*
X142418674Y-60479858D01*
X142422184Y-60456197D01*
X142427996Y-60432993D01*
X142436054Y-60410471D01*
X142446282Y-60388847D01*
X142458579Y-60368330D01*
X142472829Y-60349117D01*
X142488893Y-60331393D01*
X142506617Y-60315329D01*
X142525830Y-60301079D01*
X142546347Y-60288782D01*
X142567971Y-60278554D01*
X142590493Y-60270496D01*
X142613697Y-60264684D01*
X142637358Y-60261174D01*
X142661250Y-60260000D01*
X143148750Y-60260000D01*
X143172642Y-60261174D01*
X143172642Y-60261174D01*
G37*
D17*
G04 #@! TD*
G04 #@! TO.P,D2,1*
G04 #@! TO.N,5V*
X142905000Y-60960000D03*
D16*
G04 #@! TO.N,VBUS*
G04 #@! TO.C,D2*
G36*
X145047642Y-60261174D02*
X145071303Y-60264684D01*
X145094507Y-60270496D01*
X145117029Y-60278554D01*
X145138653Y-60288782D01*
X145159170Y-60301079D01*
X145178383Y-60315329D01*
X145196107Y-60331393D01*
X145212171Y-60349117D01*
X145226421Y-60368330D01*
X145238718Y-60388847D01*
X145248946Y-60410471D01*
X145257004Y-60432993D01*
X145262816Y-60456197D01*
X145266326Y-60479858D01*
X145267500Y-60503750D01*
X145267500Y-61416250D01*
X145266326Y-61440142D01*
X145262816Y-61463803D01*
X145257004Y-61487007D01*
X145248946Y-61509529D01*
X145238718Y-61531153D01*
X145226421Y-61551670D01*
X145212171Y-61570883D01*
X145196107Y-61588607D01*
X145178383Y-61604671D01*
X145159170Y-61618921D01*
X145138653Y-61631218D01*
X145117029Y-61641446D01*
X145094507Y-61649504D01*
X145071303Y-61655316D01*
X145047642Y-61658826D01*
X145023750Y-61660000D01*
X144536250Y-61660000D01*
X144512358Y-61658826D01*
X144488697Y-61655316D01*
X144465493Y-61649504D01*
X144442971Y-61641446D01*
X144421347Y-61631218D01*
X144400830Y-61618921D01*
X144381617Y-61604671D01*
X144363893Y-61588607D01*
X144347829Y-61570883D01*
X144333579Y-61551670D01*
X144321282Y-61531153D01*
X144311054Y-61509529D01*
X144302996Y-61487007D01*
X144297184Y-61463803D01*
X144293674Y-61440142D01*
X144292500Y-61416250D01*
X144292500Y-60503750D01*
X144293674Y-60479858D01*
X144297184Y-60456197D01*
X144302996Y-60432993D01*
X144311054Y-60410471D01*
X144321282Y-60388847D01*
X144333579Y-60368330D01*
X144347829Y-60349117D01*
X144363893Y-60331393D01*
X144381617Y-60315329D01*
X144400830Y-60301079D01*
X144421347Y-60288782D01*
X144442971Y-60278554D01*
X144465493Y-60270496D01*
X144488697Y-60264684D01*
X144512358Y-60261174D01*
X144536250Y-60260000D01*
X145023750Y-60260000D01*
X145047642Y-60261174D01*
X145047642Y-60261174D01*
G37*
D17*
G04 #@! TD*
G04 #@! TO.P,D2,2*
G04 #@! TO.N,VBUS*
X144780000Y-60960000D03*
D15*
G04 #@! TO.P,J7,2*
G04 #@! TO.N,VBAT*
X162560000Y-63500000D03*
D14*
G04 #@! TO.P,J7,1*
X162560000Y-60960000D03*
G04 #@! TD*
G04 #@! TO.P,J4,1*
G04 #@! TO.N,5V*
X139700000Y-60960000D03*
D15*
G04 #@! TO.P,J4,2*
X139700000Y-63500000D03*
G04 #@! TD*
D14*
G04 #@! TO.P,J3,1*
G04 #@! TO.N,SWDIO*
X162560000Y-55880000D03*
D15*
G04 #@! TO.P,J3,2*
G04 #@! TO.N,GND*
X160020000Y-55880000D03*
G04 #@! TO.P,J3,3*
G04 #@! TO.N,SWDCLK*
X157480000Y-55880000D03*
G04 #@! TO.P,J3,4*
G04 #@! TO.N,VDD*
X154940000Y-55880000D03*
G04 #@! TO.P,J3,5*
G04 #@! TO.N,5V*
X152400000Y-55880000D03*
G04 #@! TD*
D16*
G04 #@! TO.N,5V*
G04 #@! TO.C,D1*
G36*
X143172642Y-62801174D02*
X143196303Y-62804684D01*
X143219507Y-62810496D01*
X143242029Y-62818554D01*
X143263653Y-62828782D01*
X143284170Y-62841079D01*
X143303383Y-62855329D01*
X143321107Y-62871393D01*
X143337171Y-62889117D01*
X143351421Y-62908330D01*
X143363718Y-62928847D01*
X143373946Y-62950471D01*
X143382004Y-62972993D01*
X143387816Y-62996197D01*
X143391326Y-63019858D01*
X143392500Y-63043750D01*
X143392500Y-63956250D01*
X143391326Y-63980142D01*
X143387816Y-64003803D01*
X143382004Y-64027007D01*
X143373946Y-64049529D01*
X143363718Y-64071153D01*
X143351421Y-64091670D01*
X143337171Y-64110883D01*
X143321107Y-64128607D01*
X143303383Y-64144671D01*
X143284170Y-64158921D01*
X143263653Y-64171218D01*
X143242029Y-64181446D01*
X143219507Y-64189504D01*
X143196303Y-64195316D01*
X143172642Y-64198826D01*
X143148750Y-64200000D01*
X142661250Y-64200000D01*
X142637358Y-64198826D01*
X142613697Y-64195316D01*
X142590493Y-64189504D01*
X142567971Y-64181446D01*
X142546347Y-64171218D01*
X142525830Y-64158921D01*
X142506617Y-64144671D01*
X142488893Y-64128607D01*
X142472829Y-64110883D01*
X142458579Y-64091670D01*
X142446282Y-64071153D01*
X142436054Y-64049529D01*
X142427996Y-64027007D01*
X142422184Y-64003803D01*
X142418674Y-63980142D01*
X142417500Y-63956250D01*
X142417500Y-63043750D01*
X142418674Y-63019858D01*
X142422184Y-62996197D01*
X142427996Y-62972993D01*
X142436054Y-62950471D01*
X142446282Y-62928847D01*
X142458579Y-62908330D01*
X142472829Y-62889117D01*
X142488893Y-62871393D01*
X142506617Y-62855329D01*
X142525830Y-62841079D01*
X142546347Y-62828782D01*
X142567971Y-62818554D01*
X142590493Y-62810496D01*
X142613697Y-62804684D01*
X142637358Y-62801174D01*
X142661250Y-62800000D01*
X143148750Y-62800000D01*
X143172642Y-62801174D01*
X143172642Y-62801174D01*
G37*
D17*
G04 #@! TD*
G04 #@! TO.P,D1,1*
G04 #@! TO.N,5V*
X142905000Y-63500000D03*
D16*
G04 #@! TO.N,VBAT*
G04 #@! TO.C,D1*
G36*
X145047642Y-62801174D02*
X145071303Y-62804684D01*
X145094507Y-62810496D01*
X145117029Y-62818554D01*
X145138653Y-62828782D01*
X145159170Y-62841079D01*
X145178383Y-62855329D01*
X145196107Y-62871393D01*
X145212171Y-62889117D01*
X145226421Y-62908330D01*
X145238718Y-62928847D01*
X145248946Y-62950471D01*
X145257004Y-62972993D01*
X145262816Y-62996197D01*
X145266326Y-63019858D01*
X145267500Y-63043750D01*
X145267500Y-63956250D01*
X145266326Y-63980142D01*
X145262816Y-64003803D01*
X145257004Y-64027007D01*
X145248946Y-64049529D01*
X145238718Y-64071153D01*
X145226421Y-64091670D01*
X145212171Y-64110883D01*
X145196107Y-64128607D01*
X145178383Y-64144671D01*
X145159170Y-64158921D01*
X145138653Y-64171218D01*
X145117029Y-64181446D01*
X145094507Y-64189504D01*
X145071303Y-64195316D01*
X145047642Y-64198826D01*
X145023750Y-64200000D01*
X144536250Y-64200000D01*
X144512358Y-64198826D01*
X144488697Y-64195316D01*
X144465493Y-64189504D01*
X144442971Y-64181446D01*
X144421347Y-64171218D01*
X144400830Y-64158921D01*
X144381617Y-64144671D01*
X144363893Y-64128607D01*
X144347829Y-64110883D01*
X144333579Y-64091670D01*
X144321282Y-64071153D01*
X144311054Y-64049529D01*
X144302996Y-64027007D01*
X144297184Y-64003803D01*
X144293674Y-63980142D01*
X144292500Y-63956250D01*
X144292500Y-63043750D01*
X144293674Y-63019858D01*
X144297184Y-62996197D01*
X144302996Y-62972993D01*
X144311054Y-62950471D01*
X144321282Y-62928847D01*
X144333579Y-62908330D01*
X144347829Y-62889117D01*
X144363893Y-62871393D01*
X144381617Y-62855329D01*
X144400830Y-62841079D01*
X144421347Y-62828782D01*
X144442971Y-62818554D01*
X144465493Y-62810496D01*
X144488697Y-62804684D01*
X144512358Y-62801174D01*
X144536250Y-62800000D01*
X145023750Y-62800000D01*
X145047642Y-62801174D01*
X145047642Y-62801174D01*
G37*
D17*
G04 #@! TD*
G04 #@! TO.P,D1,2*
G04 #@! TO.N,VBAT*
X144780000Y-63500000D03*
D16*
G04 #@! TO.N,VDD*
G04 #@! TO.C,C2*
G36*
X145047642Y-67881174D02*
X145071303Y-67884684D01*
X145094507Y-67890496D01*
X145117029Y-67898554D01*
X145138653Y-67908782D01*
X145159170Y-67921079D01*
X145178383Y-67935329D01*
X145196107Y-67951393D01*
X145212171Y-67969117D01*
X145226421Y-67988330D01*
X145238718Y-68008847D01*
X145248946Y-68030471D01*
X145257004Y-68052993D01*
X145262816Y-68076197D01*
X145266326Y-68099858D01*
X145267500Y-68123750D01*
X145267500Y-69036250D01*
X145266326Y-69060142D01*
X145262816Y-69083803D01*
X145257004Y-69107007D01*
X145248946Y-69129529D01*
X145238718Y-69151153D01*
X145226421Y-69171670D01*
X145212171Y-69190883D01*
X145196107Y-69208607D01*
X145178383Y-69224671D01*
X145159170Y-69238921D01*
X145138653Y-69251218D01*
X145117029Y-69261446D01*
X145094507Y-69269504D01*
X145071303Y-69275316D01*
X145047642Y-69278826D01*
X145023750Y-69280000D01*
X144536250Y-69280000D01*
X144512358Y-69278826D01*
X144488697Y-69275316D01*
X144465493Y-69269504D01*
X144442971Y-69261446D01*
X144421347Y-69251218D01*
X144400830Y-69238921D01*
X144381617Y-69224671D01*
X144363893Y-69208607D01*
X144347829Y-69190883D01*
X144333579Y-69171670D01*
X144321282Y-69151153D01*
X144311054Y-69129529D01*
X144302996Y-69107007D01*
X144297184Y-69083803D01*
X144293674Y-69060142D01*
X144292500Y-69036250D01*
X144292500Y-68123750D01*
X144293674Y-68099858D01*
X144297184Y-68076197D01*
X144302996Y-68052993D01*
X144311054Y-68030471D01*
X144321282Y-68008847D01*
X144333579Y-67988330D01*
X144347829Y-67969117D01*
X144363893Y-67951393D01*
X144381617Y-67935329D01*
X144400830Y-67921079D01*
X144421347Y-67908782D01*
X144442971Y-67898554D01*
X144465493Y-67890496D01*
X144488697Y-67884684D01*
X144512358Y-67881174D01*
X144536250Y-67880000D01*
X145023750Y-67880000D01*
X145047642Y-67881174D01*
X145047642Y-67881174D01*
G37*
D17*
G04 #@! TD*
G04 #@! TO.P,C2,1*
G04 #@! TO.N,VDD*
X144780000Y-68580000D03*
D16*
G04 #@! TO.N,GND*
G04 #@! TO.C,C2*
G36*
X143172642Y-67881174D02*
X143196303Y-67884684D01*
X143219507Y-67890496D01*
X143242029Y-67898554D01*
X143263653Y-67908782D01*
X143284170Y-67921079D01*
X143303383Y-67935329D01*
X143321107Y-67951393D01*
X143337171Y-67969117D01*
X143351421Y-67988330D01*
X143363718Y-68008847D01*
X143373946Y-68030471D01*
X143382004Y-68052993D01*
X143387816Y-68076197D01*
X143391326Y-68099858D01*
X143392500Y-68123750D01*
X143392500Y-69036250D01*
X143391326Y-69060142D01*
X143387816Y-69083803D01*
X143382004Y-69107007D01*
X143373946Y-69129529D01*
X143363718Y-69151153D01*
X143351421Y-69171670D01*
X143337171Y-69190883D01*
X143321107Y-69208607D01*
X143303383Y-69224671D01*
X143284170Y-69238921D01*
X143263653Y-69251218D01*
X143242029Y-69261446D01*
X143219507Y-69269504D01*
X143196303Y-69275316D01*
X143172642Y-69278826D01*
X143148750Y-69280000D01*
X142661250Y-69280000D01*
X142637358Y-69278826D01*
X142613697Y-69275316D01*
X142590493Y-69269504D01*
X142567971Y-69261446D01*
X142546347Y-69251218D01*
X142525830Y-69238921D01*
X142506617Y-69224671D01*
X142488893Y-69208607D01*
X142472829Y-69190883D01*
X142458579Y-69171670D01*
X142446282Y-69151153D01*
X142436054Y-69129529D01*
X142427996Y-69107007D01*
X142422184Y-69083803D01*
X142418674Y-69060142D01*
X142417500Y-69036250D01*
X142417500Y-68123750D01*
X142418674Y-68099858D01*
X142422184Y-68076197D01*
X142427996Y-68052993D01*
X142436054Y-68030471D01*
X142446282Y-68008847D01*
X142458579Y-67988330D01*
X142472829Y-67969117D01*
X142488893Y-67951393D01*
X142506617Y-67935329D01*
X142525830Y-67921079D01*
X142546347Y-67908782D01*
X142567971Y-67898554D01*
X142590493Y-67890496D01*
X142613697Y-67884684D01*
X142637358Y-67881174D01*
X142661250Y-67880000D01*
X143148750Y-67880000D01*
X143172642Y-67881174D01*
X143172642Y-67881174D01*
G37*
D17*
G04 #@! TD*
G04 #@! TO.P,C2,2*
G04 #@! TO.N,GND*
X142905000Y-68580000D03*
D16*
G04 #@! TO.N,GND*
G04 #@! TO.C,C3*
G36*
X157960142Y-86030674D02*
X157983803Y-86034184D01*
X158007007Y-86039996D01*
X158029529Y-86048054D01*
X158051153Y-86058282D01*
X158071670Y-86070579D01*
X158090883Y-86084829D01*
X158108607Y-86100893D01*
X158124671Y-86118617D01*
X158138921Y-86137830D01*
X158151218Y-86158347D01*
X158161446Y-86179971D01*
X158169504Y-86202493D01*
X158175316Y-86225697D01*
X158178826Y-86249358D01*
X158180000Y-86273250D01*
X158180000Y-86760750D01*
X158178826Y-86784642D01*
X158175316Y-86808303D01*
X158169504Y-86831507D01*
X158161446Y-86854029D01*
X158151218Y-86875653D01*
X158138921Y-86896170D01*
X158124671Y-86915383D01*
X158108607Y-86933107D01*
X158090883Y-86949171D01*
X158071670Y-86963421D01*
X158051153Y-86975718D01*
X158029529Y-86985946D01*
X158007007Y-86994004D01*
X157983803Y-86999816D01*
X157960142Y-87003326D01*
X157936250Y-87004500D01*
X157023750Y-87004500D01*
X156999858Y-87003326D01*
X156976197Y-86999816D01*
X156952993Y-86994004D01*
X156930471Y-86985946D01*
X156908847Y-86975718D01*
X156888330Y-86963421D01*
X156869117Y-86949171D01*
X156851393Y-86933107D01*
X156835329Y-86915383D01*
X156821079Y-86896170D01*
X156808782Y-86875653D01*
X156798554Y-86854029D01*
X156790496Y-86831507D01*
X156784684Y-86808303D01*
X156781174Y-86784642D01*
X156780000Y-86760750D01*
X156780000Y-86273250D01*
X156781174Y-86249358D01*
X156784684Y-86225697D01*
X156790496Y-86202493D01*
X156798554Y-86179971D01*
X156808782Y-86158347D01*
X156821079Y-86137830D01*
X156835329Y-86118617D01*
X156851393Y-86100893D01*
X156869117Y-86084829D01*
X156888330Y-86070579D01*
X156908847Y-86058282D01*
X156930471Y-86048054D01*
X156952993Y-86039996D01*
X156976197Y-86034184D01*
X156999858Y-86030674D01*
X157023750Y-86029500D01*
X157936250Y-86029500D01*
X157960142Y-86030674D01*
X157960142Y-86030674D01*
G37*
D17*
G04 #@! TD*
G04 #@! TO.P,C3,2*
G04 #@! TO.N,GND*
X157480000Y-86517000D03*
D16*
G04 #@! TO.N,XL1*
G04 #@! TO.C,C3*
G36*
X157960142Y-87905674D02*
X157983803Y-87909184D01*
X158007007Y-87914996D01*
X158029529Y-87923054D01*
X158051153Y-87933282D01*
X158071670Y-87945579D01*
X158090883Y-87959829D01*
X158108607Y-87975893D01*
X158124671Y-87993617D01*
X158138921Y-88012830D01*
X158151218Y-88033347D01*
X158161446Y-88054971D01*
X158169504Y-88077493D01*
X158175316Y-88100697D01*
X158178826Y-88124358D01*
X158180000Y-88148250D01*
X158180000Y-88635750D01*
X158178826Y-88659642D01*
X158175316Y-88683303D01*
X158169504Y-88706507D01*
X158161446Y-88729029D01*
X158151218Y-88750653D01*
X158138921Y-88771170D01*
X158124671Y-88790383D01*
X158108607Y-88808107D01*
X158090883Y-88824171D01*
X158071670Y-88838421D01*
X158051153Y-88850718D01*
X158029529Y-88860946D01*
X158007007Y-88869004D01*
X157983803Y-88874816D01*
X157960142Y-88878326D01*
X157936250Y-88879500D01*
X157023750Y-88879500D01*
X156999858Y-88878326D01*
X156976197Y-88874816D01*
X156952993Y-88869004D01*
X156930471Y-88860946D01*
X156908847Y-88850718D01*
X156888330Y-88838421D01*
X156869117Y-88824171D01*
X156851393Y-88808107D01*
X156835329Y-88790383D01*
X156821079Y-88771170D01*
X156808782Y-88750653D01*
X156798554Y-88729029D01*
X156790496Y-88706507D01*
X156784684Y-88683303D01*
X156781174Y-88659642D01*
X156780000Y-88635750D01*
X156780000Y-88148250D01*
X156781174Y-88124358D01*
X156784684Y-88100697D01*
X156790496Y-88077493D01*
X156798554Y-88054971D01*
X156808782Y-88033347D01*
X156821079Y-88012830D01*
X156835329Y-87993617D01*
X156851393Y-87975893D01*
X156869117Y-87959829D01*
X156888330Y-87945579D01*
X156908847Y-87933282D01*
X156930471Y-87923054D01*
X156952993Y-87914996D01*
X156976197Y-87909184D01*
X156999858Y-87905674D01*
X157023750Y-87904500D01*
X157936250Y-87904500D01*
X157960142Y-87905674D01*
X157960142Y-87905674D01*
G37*
D17*
G04 #@! TD*
G04 #@! TO.P,C3,1*
G04 #@! TO.N,XL1*
X157480000Y-88392000D03*
D16*
G04 #@! TO.N,XL2*
G04 #@! TO.C,C4*
G36*
X154404142Y-87905674D02*
X154427803Y-87909184D01*
X154451007Y-87914996D01*
X154473529Y-87923054D01*
X154495153Y-87933282D01*
X154515670Y-87945579D01*
X154534883Y-87959829D01*
X154552607Y-87975893D01*
X154568671Y-87993617D01*
X154582921Y-88012830D01*
X154595218Y-88033347D01*
X154605446Y-88054971D01*
X154613504Y-88077493D01*
X154619316Y-88100697D01*
X154622826Y-88124358D01*
X154624000Y-88148250D01*
X154624000Y-88635750D01*
X154622826Y-88659642D01*
X154619316Y-88683303D01*
X154613504Y-88706507D01*
X154605446Y-88729029D01*
X154595218Y-88750653D01*
X154582921Y-88771170D01*
X154568671Y-88790383D01*
X154552607Y-88808107D01*
X154534883Y-88824171D01*
X154515670Y-88838421D01*
X154495153Y-88850718D01*
X154473529Y-88860946D01*
X154451007Y-88869004D01*
X154427803Y-88874816D01*
X154404142Y-88878326D01*
X154380250Y-88879500D01*
X153467750Y-88879500D01*
X153443858Y-88878326D01*
X153420197Y-88874816D01*
X153396993Y-88869004D01*
X153374471Y-88860946D01*
X153352847Y-88850718D01*
X153332330Y-88838421D01*
X153313117Y-88824171D01*
X153295393Y-88808107D01*
X153279329Y-88790383D01*
X153265079Y-88771170D01*
X153252782Y-88750653D01*
X153242554Y-88729029D01*
X153234496Y-88706507D01*
X153228684Y-88683303D01*
X153225174Y-88659642D01*
X153224000Y-88635750D01*
X153224000Y-88148250D01*
X153225174Y-88124358D01*
X153228684Y-88100697D01*
X153234496Y-88077493D01*
X153242554Y-88054971D01*
X153252782Y-88033347D01*
X153265079Y-88012830D01*
X153279329Y-87993617D01*
X153295393Y-87975893D01*
X153313117Y-87959829D01*
X153332330Y-87945579D01*
X153352847Y-87933282D01*
X153374471Y-87923054D01*
X153396993Y-87914996D01*
X153420197Y-87909184D01*
X153443858Y-87905674D01*
X153467750Y-87904500D01*
X154380250Y-87904500D01*
X154404142Y-87905674D01*
X154404142Y-87905674D01*
G37*
D17*
G04 #@! TD*
G04 #@! TO.P,C4,1*
G04 #@! TO.N,XL2*
X153924000Y-88392000D03*
D16*
G04 #@! TO.N,GND*
G04 #@! TO.C,C4*
G36*
X154404142Y-86030674D02*
X154427803Y-86034184D01*
X154451007Y-86039996D01*
X154473529Y-86048054D01*
X154495153Y-86058282D01*
X154515670Y-86070579D01*
X154534883Y-86084829D01*
X154552607Y-86100893D01*
X154568671Y-86118617D01*
X154582921Y-86137830D01*
X154595218Y-86158347D01*
X154605446Y-86179971D01*
X154613504Y-86202493D01*
X154619316Y-86225697D01*
X154622826Y-86249358D01*
X154624000Y-86273250D01*
X154624000Y-86760750D01*
X154622826Y-86784642D01*
X154619316Y-86808303D01*
X154613504Y-86831507D01*
X154605446Y-86854029D01*
X154595218Y-86875653D01*
X154582921Y-86896170D01*
X154568671Y-86915383D01*
X154552607Y-86933107D01*
X154534883Y-86949171D01*
X154515670Y-86963421D01*
X154495153Y-86975718D01*
X154473529Y-86985946D01*
X154451007Y-86994004D01*
X154427803Y-86999816D01*
X154404142Y-87003326D01*
X154380250Y-87004500D01*
X153467750Y-87004500D01*
X153443858Y-87003326D01*
X153420197Y-86999816D01*
X153396993Y-86994004D01*
X153374471Y-86985946D01*
X153352847Y-86975718D01*
X153332330Y-86963421D01*
X153313117Y-86949171D01*
X153295393Y-86933107D01*
X153279329Y-86915383D01*
X153265079Y-86896170D01*
X153252782Y-86875653D01*
X153242554Y-86854029D01*
X153234496Y-86831507D01*
X153228684Y-86808303D01*
X153225174Y-86784642D01*
X153224000Y-86760750D01*
X153224000Y-86273250D01*
X153225174Y-86249358D01*
X153228684Y-86225697D01*
X153234496Y-86202493D01*
X153242554Y-86179971D01*
X153252782Y-86158347D01*
X153265079Y-86137830D01*
X153279329Y-86118617D01*
X153295393Y-86100893D01*
X153313117Y-86084829D01*
X153332330Y-86070579D01*
X153352847Y-86058282D01*
X153374471Y-86048054D01*
X153396993Y-86039996D01*
X153420197Y-86034184D01*
X153443858Y-86030674D01*
X153467750Y-86029500D01*
X154380250Y-86029500D01*
X154404142Y-86030674D01*
X154404142Y-86030674D01*
G37*
D17*
G04 #@! TD*
G04 #@! TO.P,C4,2*
G04 #@! TO.N,GND*
X153924000Y-86517000D03*
D16*
G04 #@! TO.N,!RST*
G04 #@! TO.C,C5*
G36*
X145017642Y-70421174D02*
X145041303Y-70424684D01*
X145064507Y-70430496D01*
X145087029Y-70438554D01*
X145108653Y-70448782D01*
X145129170Y-70461079D01*
X145148383Y-70475329D01*
X145166107Y-70491393D01*
X145182171Y-70509117D01*
X145196421Y-70528330D01*
X145208718Y-70548847D01*
X145218946Y-70570471D01*
X145227004Y-70592993D01*
X145232816Y-70616197D01*
X145236326Y-70639858D01*
X145237500Y-70663750D01*
X145237500Y-71576250D01*
X145236326Y-71600142D01*
X145232816Y-71623803D01*
X145227004Y-71647007D01*
X145218946Y-71669529D01*
X145208718Y-71691153D01*
X145196421Y-71711670D01*
X145182171Y-71730883D01*
X145166107Y-71748607D01*
X145148383Y-71764671D01*
X145129170Y-71778921D01*
X145108653Y-71791218D01*
X145087029Y-71801446D01*
X145064507Y-71809504D01*
X145041303Y-71815316D01*
X145017642Y-71818826D01*
X144993750Y-71820000D01*
X144506250Y-71820000D01*
X144482358Y-71818826D01*
X144458697Y-71815316D01*
X144435493Y-71809504D01*
X144412971Y-71801446D01*
X144391347Y-71791218D01*
X144370830Y-71778921D01*
X144351617Y-71764671D01*
X144333893Y-71748607D01*
X144317829Y-71730883D01*
X144303579Y-71711670D01*
X144291282Y-71691153D01*
X144281054Y-71669529D01*
X144272996Y-71647007D01*
X144267184Y-71623803D01*
X144263674Y-71600142D01*
X144262500Y-71576250D01*
X144262500Y-70663750D01*
X144263674Y-70639858D01*
X144267184Y-70616197D01*
X144272996Y-70592993D01*
X144281054Y-70570471D01*
X144291282Y-70548847D01*
X144303579Y-70528330D01*
X144317829Y-70509117D01*
X144333893Y-70491393D01*
X144351617Y-70475329D01*
X144370830Y-70461079D01*
X144391347Y-70448782D01*
X144412971Y-70438554D01*
X144435493Y-70430496D01*
X144458697Y-70424684D01*
X144482358Y-70421174D01*
X144506250Y-70420000D01*
X144993750Y-70420000D01*
X145017642Y-70421174D01*
X145017642Y-70421174D01*
G37*
D17*
G04 #@! TD*
G04 #@! TO.P,C5,2*
G04 #@! TO.N,!RST*
X144750000Y-71120000D03*
D16*
G04 #@! TO.N,GND*
G04 #@! TO.C,C5*
G36*
X143142642Y-70421174D02*
X143166303Y-70424684D01*
X143189507Y-70430496D01*
X143212029Y-70438554D01*
X143233653Y-70448782D01*
X143254170Y-70461079D01*
X143273383Y-70475329D01*
X143291107Y-70491393D01*
X143307171Y-70509117D01*
X143321421Y-70528330D01*
X143333718Y-70548847D01*
X143343946Y-70570471D01*
X143352004Y-70592993D01*
X143357816Y-70616197D01*
X143361326Y-70639858D01*
X143362500Y-70663750D01*
X143362500Y-71576250D01*
X143361326Y-71600142D01*
X143357816Y-71623803D01*
X143352004Y-71647007D01*
X143343946Y-71669529D01*
X143333718Y-71691153D01*
X143321421Y-71711670D01*
X143307171Y-71730883D01*
X143291107Y-71748607D01*
X143273383Y-71764671D01*
X143254170Y-71778921D01*
X143233653Y-71791218D01*
X143212029Y-71801446D01*
X143189507Y-71809504D01*
X143166303Y-71815316D01*
X143142642Y-71818826D01*
X143118750Y-71820000D01*
X142631250Y-71820000D01*
X142607358Y-71818826D01*
X142583697Y-71815316D01*
X142560493Y-71809504D01*
X142537971Y-71801446D01*
X142516347Y-71791218D01*
X142495830Y-71778921D01*
X142476617Y-71764671D01*
X142458893Y-71748607D01*
X142442829Y-71730883D01*
X142428579Y-71711670D01*
X142416282Y-71691153D01*
X142406054Y-71669529D01*
X142397996Y-71647007D01*
X142392184Y-71623803D01*
X142388674Y-71600142D01*
X142387500Y-71576250D01*
X142387500Y-70663750D01*
X142388674Y-70639858D01*
X142392184Y-70616197D01*
X142397996Y-70592993D01*
X142406054Y-70570471D01*
X142416282Y-70548847D01*
X142428579Y-70528330D01*
X142442829Y-70509117D01*
X142458893Y-70491393D01*
X142476617Y-70475329D01*
X142495830Y-70461079D01*
X142516347Y-70448782D01*
X142537971Y-70438554D01*
X142560493Y-70430496D01*
X142583697Y-70424684D01*
X142607358Y-70421174D01*
X142631250Y-70420000D01*
X143118750Y-70420000D01*
X143142642Y-70421174D01*
X143142642Y-70421174D01*
G37*
D17*
G04 #@! TD*
G04 #@! TO.P,C5,1*
G04 #@! TO.N,GND*
X142875000Y-71120000D03*
D16*
G04 #@! TO.N,LDO_IN*
G04 #@! TO.C,C1*
G36*
X143172642Y-65341174D02*
X143196303Y-65344684D01*
X143219507Y-65350496D01*
X143242029Y-65358554D01*
X143263653Y-65368782D01*
X143284170Y-65381079D01*
X143303383Y-65395329D01*
X143321107Y-65411393D01*
X143337171Y-65429117D01*
X143351421Y-65448330D01*
X143363718Y-65468847D01*
X143373946Y-65490471D01*
X143382004Y-65512993D01*
X143387816Y-65536197D01*
X143391326Y-65559858D01*
X143392500Y-65583750D01*
X143392500Y-66496250D01*
X143391326Y-66520142D01*
X143387816Y-66543803D01*
X143382004Y-66567007D01*
X143373946Y-66589529D01*
X143363718Y-66611153D01*
X143351421Y-66631670D01*
X143337171Y-66650883D01*
X143321107Y-66668607D01*
X143303383Y-66684671D01*
X143284170Y-66698921D01*
X143263653Y-66711218D01*
X143242029Y-66721446D01*
X143219507Y-66729504D01*
X143196303Y-66735316D01*
X143172642Y-66738826D01*
X143148750Y-66740000D01*
X142661250Y-66740000D01*
X142637358Y-66738826D01*
X142613697Y-66735316D01*
X142590493Y-66729504D01*
X142567971Y-66721446D01*
X142546347Y-66711218D01*
X142525830Y-66698921D01*
X142506617Y-66684671D01*
X142488893Y-66668607D01*
X142472829Y-66650883D01*
X142458579Y-66631670D01*
X142446282Y-66611153D01*
X142436054Y-66589529D01*
X142427996Y-66567007D01*
X142422184Y-66543803D01*
X142418674Y-66520142D01*
X142417500Y-66496250D01*
X142417500Y-65583750D01*
X142418674Y-65559858D01*
X142422184Y-65536197D01*
X142427996Y-65512993D01*
X142436054Y-65490471D01*
X142446282Y-65468847D01*
X142458579Y-65448330D01*
X142472829Y-65429117D01*
X142488893Y-65411393D01*
X142506617Y-65395329D01*
X142525830Y-65381079D01*
X142546347Y-65368782D01*
X142567971Y-65358554D01*
X142590493Y-65350496D01*
X142613697Y-65344684D01*
X142637358Y-65341174D01*
X142661250Y-65340000D01*
X143148750Y-65340000D01*
X143172642Y-65341174D01*
X143172642Y-65341174D01*
G37*
D17*
G04 #@! TD*
G04 #@! TO.P,C1,1*
G04 #@! TO.N,LDO_IN*
X142905000Y-66040000D03*
D16*
G04 #@! TO.N,GND*
G04 #@! TO.C,C1*
G36*
X145047642Y-65341174D02*
X145071303Y-65344684D01*
X145094507Y-65350496D01*
X145117029Y-65358554D01*
X145138653Y-65368782D01*
X145159170Y-65381079D01*
X145178383Y-65395329D01*
X145196107Y-65411393D01*
X145212171Y-65429117D01*
X145226421Y-65448330D01*
X145238718Y-65468847D01*
X145248946Y-65490471D01*
X145257004Y-65512993D01*
X145262816Y-65536197D01*
X145266326Y-65559858D01*
X145267500Y-65583750D01*
X145267500Y-66496250D01*
X145266326Y-66520142D01*
X145262816Y-66543803D01*
X145257004Y-66567007D01*
X145248946Y-66589529D01*
X145238718Y-66611153D01*
X145226421Y-66631670D01*
X145212171Y-66650883D01*
X145196107Y-66668607D01*
X145178383Y-66684671D01*
X145159170Y-66698921D01*
X145138653Y-66711218D01*
X145117029Y-66721446D01*
X145094507Y-66729504D01*
X145071303Y-66735316D01*
X145047642Y-66738826D01*
X145023750Y-66740000D01*
X144536250Y-66740000D01*
X144512358Y-66738826D01*
X144488697Y-66735316D01*
X144465493Y-66729504D01*
X144442971Y-66721446D01*
X144421347Y-66711218D01*
X144400830Y-66698921D01*
X144381617Y-66684671D01*
X144363893Y-66668607D01*
X144347829Y-66650883D01*
X144333579Y-66631670D01*
X144321282Y-66611153D01*
X144311054Y-66589529D01*
X144302996Y-66567007D01*
X144297184Y-66543803D01*
X144293674Y-66520142D01*
X144292500Y-66496250D01*
X144292500Y-65583750D01*
X144293674Y-65559858D01*
X144297184Y-65536197D01*
X144302996Y-65512993D01*
X144311054Y-65490471D01*
X144321282Y-65468847D01*
X144333579Y-65448330D01*
X144347829Y-65429117D01*
X144363893Y-65411393D01*
X144381617Y-65395329D01*
X144400830Y-65381079D01*
X144421347Y-65368782D01*
X144442971Y-65358554D01*
X144465493Y-65350496D01*
X144488697Y-65344684D01*
X144512358Y-65341174D01*
X144536250Y-65340000D01*
X145023750Y-65340000D01*
X145047642Y-65341174D01*
X145047642Y-65341174D01*
G37*
D17*
G04 #@! TD*
G04 #@! TO.P,C1,2*
G04 #@! TO.N,GND*
X144780000Y-66040000D03*
D16*
G04 #@! TO.N,VDD*
G04 #@! TO.C,L2*
G36*
X150732642Y-90106174D02*
X150756303Y-90109684D01*
X150779507Y-90115496D01*
X150802029Y-90123554D01*
X150823653Y-90133782D01*
X150844170Y-90146079D01*
X150863383Y-90160329D01*
X150881107Y-90176393D01*
X150897171Y-90194117D01*
X150911421Y-90213330D01*
X150923718Y-90233847D01*
X150933946Y-90255471D01*
X150942004Y-90277993D01*
X150947816Y-90301197D01*
X150951326Y-90324858D01*
X150952500Y-90348750D01*
X150952500Y-91261250D01*
X150951326Y-91285142D01*
X150947816Y-91308803D01*
X150942004Y-91332007D01*
X150933946Y-91354529D01*
X150923718Y-91376153D01*
X150911421Y-91396670D01*
X150897171Y-91415883D01*
X150881107Y-91433607D01*
X150863383Y-91449671D01*
X150844170Y-91463921D01*
X150823653Y-91476218D01*
X150802029Y-91486446D01*
X150779507Y-91494504D01*
X150756303Y-91500316D01*
X150732642Y-91503826D01*
X150708750Y-91505000D01*
X150221250Y-91505000D01*
X150197358Y-91503826D01*
X150173697Y-91500316D01*
X150150493Y-91494504D01*
X150127971Y-91486446D01*
X150106347Y-91476218D01*
X150085830Y-91463921D01*
X150066617Y-91449671D01*
X150048893Y-91433607D01*
X150032829Y-91415883D01*
X150018579Y-91396670D01*
X150006282Y-91376153D01*
X149996054Y-91354529D01*
X149987996Y-91332007D01*
X149982184Y-91308803D01*
X149978674Y-91285142D01*
X149977500Y-91261250D01*
X149977500Y-90348750D01*
X149978674Y-90324858D01*
X149982184Y-90301197D01*
X149987996Y-90277993D01*
X149996054Y-90255471D01*
X150006282Y-90233847D01*
X150018579Y-90213330D01*
X150032829Y-90194117D01*
X150048893Y-90176393D01*
X150066617Y-90160329D01*
X150085830Y-90146079D01*
X150106347Y-90133782D01*
X150127971Y-90123554D01*
X150150493Y-90115496D01*
X150173697Y-90109684D01*
X150197358Y-90106174D01*
X150221250Y-90105000D01*
X150708750Y-90105000D01*
X150732642Y-90106174D01*
X150732642Y-90106174D01*
G37*
D17*
G04 #@! TD*
G04 #@! TO.P,L2,1*
G04 #@! TO.N,VDD*
X150465000Y-90805000D03*
D16*
G04 #@! TO.N,Net-(L2-Pad2)*
G04 #@! TO.C,L2*
G36*
X148857642Y-90106174D02*
X148881303Y-90109684D01*
X148904507Y-90115496D01*
X148927029Y-90123554D01*
X148948653Y-90133782D01*
X148969170Y-90146079D01*
X148988383Y-90160329D01*
X149006107Y-90176393D01*
X149022171Y-90194117D01*
X149036421Y-90213330D01*
X149048718Y-90233847D01*
X149058946Y-90255471D01*
X149067004Y-90277993D01*
X149072816Y-90301197D01*
X149076326Y-90324858D01*
X149077500Y-90348750D01*
X149077500Y-91261250D01*
X149076326Y-91285142D01*
X149072816Y-91308803D01*
X149067004Y-91332007D01*
X149058946Y-91354529D01*
X149048718Y-91376153D01*
X149036421Y-91396670D01*
X149022171Y-91415883D01*
X149006107Y-91433607D01*
X148988383Y-91449671D01*
X148969170Y-91463921D01*
X148948653Y-91476218D01*
X148927029Y-91486446D01*
X148904507Y-91494504D01*
X148881303Y-91500316D01*
X148857642Y-91503826D01*
X148833750Y-91505000D01*
X148346250Y-91505000D01*
X148322358Y-91503826D01*
X148298697Y-91500316D01*
X148275493Y-91494504D01*
X148252971Y-91486446D01*
X148231347Y-91476218D01*
X148210830Y-91463921D01*
X148191617Y-91449671D01*
X148173893Y-91433607D01*
X148157829Y-91415883D01*
X148143579Y-91396670D01*
X148131282Y-91376153D01*
X148121054Y-91354529D01*
X148112996Y-91332007D01*
X148107184Y-91308803D01*
X148103674Y-91285142D01*
X148102500Y-91261250D01*
X148102500Y-90348750D01*
X148103674Y-90324858D01*
X148107184Y-90301197D01*
X148112996Y-90277993D01*
X148121054Y-90255471D01*
X148131282Y-90233847D01*
X148143579Y-90213330D01*
X148157829Y-90194117D01*
X148173893Y-90176393D01*
X148191617Y-90160329D01*
X148210830Y-90146079D01*
X148231347Y-90133782D01*
X148252971Y-90123554D01*
X148275493Y-90115496D01*
X148298697Y-90109684D01*
X148322358Y-90106174D01*
X148346250Y-90105000D01*
X148833750Y-90105000D01*
X148857642Y-90106174D01*
X148857642Y-90106174D01*
G37*
D17*
G04 #@! TD*
G04 #@! TO.P,L2,2*
G04 #@! TO.N,Net-(L2-Pad2)*
X148590000Y-90805000D03*
D16*
G04 #@! TO.N,VDD*
G04 #@! TO.C,R1*
G36*
X143172642Y-72961174D02*
X143196303Y-72964684D01*
X143219507Y-72970496D01*
X143242029Y-72978554D01*
X143263653Y-72988782D01*
X143284170Y-73001079D01*
X143303383Y-73015329D01*
X143321107Y-73031393D01*
X143337171Y-73049117D01*
X143351421Y-73068330D01*
X143363718Y-73088847D01*
X143373946Y-73110471D01*
X143382004Y-73132993D01*
X143387816Y-73156197D01*
X143391326Y-73179858D01*
X143392500Y-73203750D01*
X143392500Y-74116250D01*
X143391326Y-74140142D01*
X143387816Y-74163803D01*
X143382004Y-74187007D01*
X143373946Y-74209529D01*
X143363718Y-74231153D01*
X143351421Y-74251670D01*
X143337171Y-74270883D01*
X143321107Y-74288607D01*
X143303383Y-74304671D01*
X143284170Y-74318921D01*
X143263653Y-74331218D01*
X143242029Y-74341446D01*
X143219507Y-74349504D01*
X143196303Y-74355316D01*
X143172642Y-74358826D01*
X143148750Y-74360000D01*
X142661250Y-74360000D01*
X142637358Y-74358826D01*
X142613697Y-74355316D01*
X142590493Y-74349504D01*
X142567971Y-74341446D01*
X142546347Y-74331218D01*
X142525830Y-74318921D01*
X142506617Y-74304671D01*
X142488893Y-74288607D01*
X142472829Y-74270883D01*
X142458579Y-74251670D01*
X142446282Y-74231153D01*
X142436054Y-74209529D01*
X142427996Y-74187007D01*
X142422184Y-74163803D01*
X142418674Y-74140142D01*
X142417500Y-74116250D01*
X142417500Y-73203750D01*
X142418674Y-73179858D01*
X142422184Y-73156197D01*
X142427996Y-73132993D01*
X142436054Y-73110471D01*
X142446282Y-73088847D01*
X142458579Y-73068330D01*
X142472829Y-73049117D01*
X142488893Y-73031393D01*
X142506617Y-73015329D01*
X142525830Y-73001079D01*
X142546347Y-72988782D01*
X142567971Y-72978554D01*
X142590493Y-72970496D01*
X142613697Y-72964684D01*
X142637358Y-72961174D01*
X142661250Y-72960000D01*
X143148750Y-72960000D01*
X143172642Y-72961174D01*
X143172642Y-72961174D01*
G37*
D17*
G04 #@! TD*
G04 #@! TO.P,R1,1*
G04 #@! TO.N,VDD*
X142905000Y-73660000D03*
D16*
G04 #@! TO.N,!RST*
G04 #@! TO.C,R1*
G36*
X145047642Y-72961174D02*
X145071303Y-72964684D01*
X145094507Y-72970496D01*
X145117029Y-72978554D01*
X145138653Y-72988782D01*
X145159170Y-73001079D01*
X145178383Y-73015329D01*
X145196107Y-73031393D01*
X145212171Y-73049117D01*
X145226421Y-73068330D01*
X145238718Y-73088847D01*
X145248946Y-73110471D01*
X145257004Y-73132993D01*
X145262816Y-73156197D01*
X145266326Y-73179858D01*
X145267500Y-73203750D01*
X145267500Y-74116250D01*
X145266326Y-74140142D01*
X145262816Y-74163803D01*
X145257004Y-74187007D01*
X145248946Y-74209529D01*
X145238718Y-74231153D01*
X145226421Y-74251670D01*
X145212171Y-74270883D01*
X145196107Y-74288607D01*
X145178383Y-74304671D01*
X145159170Y-74318921D01*
X145138653Y-74331218D01*
X145117029Y-74341446D01*
X145094507Y-74349504D01*
X145071303Y-74355316D01*
X145047642Y-74358826D01*
X145023750Y-74360000D01*
X144536250Y-74360000D01*
X144512358Y-74358826D01*
X144488697Y-74355316D01*
X144465493Y-74349504D01*
X144442971Y-74341446D01*
X144421347Y-74331218D01*
X144400830Y-74318921D01*
X144381617Y-74304671D01*
X144363893Y-74288607D01*
X144347829Y-74270883D01*
X144333579Y-74251670D01*
X144321282Y-74231153D01*
X144311054Y-74209529D01*
X144302996Y-74187007D01*
X144297184Y-74163803D01*
X144293674Y-74140142D01*
X144292500Y-74116250D01*
X144292500Y-73203750D01*
X144293674Y-73179858D01*
X144297184Y-73156197D01*
X144302996Y-73132993D01*
X144311054Y-73110471D01*
X144321282Y-73088847D01*
X144333579Y-73068330D01*
X144347829Y-73049117D01*
X144363893Y-73031393D01*
X144381617Y-73015329D01*
X144400830Y-73001079D01*
X144421347Y-72988782D01*
X144442971Y-72978554D01*
X144465493Y-72970496D01*
X144488697Y-72964684D01*
X144512358Y-72961174D01*
X144536250Y-72960000D01*
X145023750Y-72960000D01*
X145047642Y-72961174D01*
X145047642Y-72961174D01*
G37*
D17*
G04 #@! TD*
G04 #@! TO.P,R1,2*
G04 #@! TO.N,!RST*
X144780000Y-73660000D03*
D18*
G04 #@! TO.P,U2,1*
G04 #@! TO.N,GND*
X148722000Y-62960000D03*
G04 #@! TO.P,U2,2*
G04 #@! TO.N,VDD*
X150622000Y-62960000D03*
G04 #@! TO.P,U2,3*
G04 #@! TO.N,LDO_IN*
X149672000Y-60960000D03*
G04 #@! TD*
D14*
G04 #@! TO.P,J1,1*
G04 #@! TO.N,GND*
X165100000Y-55880000D03*
D15*
G04 #@! TO.P,J1,2*
X165100000Y-58420000D03*
G04 #@! TO.P,J1,3*
G04 #@! TO.N,VDD*
X165100000Y-60960000D03*
G04 #@! TO.P,J1,4*
X165100000Y-63500000D03*
G04 #@! TO.P,J1,5*
G04 #@! TO.N,Net-(J1-Pad5)*
X165100000Y-66040000D03*
G04 #@! TO.P,J1,6*
G04 #@! TO.N,Net-(J1-Pad6)*
X165100000Y-68580000D03*
G04 #@! TO.P,J1,7*
G04 #@! TO.N,40*
X165100000Y-71120000D03*
G04 #@! TO.P,J1,8*
G04 #@! TO.N,8*
X165100000Y-73660000D03*
G04 #@! TO.P,J1,9*
G04 #@! TO.N,5*
X165100000Y-76200000D03*
G04 #@! TO.P,J1,10*
G04 #@! TO.N,6*
X165100000Y-78740000D03*
G04 #@! TO.P,J1,11*
G04 #@! TO.N,26*
X165100000Y-81280000D03*
G04 #@! TO.P,J1,12*
G04 #@! TO.N,30*
X165100000Y-83820000D03*
G04 #@! TO.P,J1,13*
G04 #@! TO.N,31*
X165100000Y-86360000D03*
G04 #@! TO.P,J1,14*
G04 #@! TO.N,29*
X165100000Y-88900000D03*
G04 #@! TO.P,J1,15*
G04 #@! TO.N,2*
X165100000Y-91440000D03*
G04 #@! TO.P,J1,16*
G04 #@! TO.N,44*
X165100000Y-93980000D03*
G04 #@! TO.P,J1,17*
G04 #@! TO.N,28*
X165100000Y-96520000D03*
G04 #@! TO.P,J1,18*
G04 #@! TO.N,3*
X165100000Y-99060000D03*
G04 #@! TO.P,J1,19*
G04 #@! TO.N,41*
X165100000Y-101600000D03*
G04 #@! TO.P,J1,20*
G04 #@! TO.N,42*
X165100000Y-104140000D03*
G04 #@! TD*
G04 #@! TO.P,J2,20*
G04 #@! TO.N,10*
X137160000Y-104140000D03*
G04 #@! TO.P,J2,19*
G04 #@! TO.N,38*
X137160000Y-101600000D03*
G04 #@! TO.P,J2,18*
G04 #@! TO.N,9*
X137160000Y-99060000D03*
G04 #@! TO.P,J2,17*
G04 #@! TO.N,36*
X137160000Y-96520000D03*
G04 #@! TO.P,J2,16*
G04 #@! TO.N,34*
X137160000Y-93980000D03*
G04 #@! TO.P,J2,15*
G04 #@! TO.N,32*
X137160000Y-91440000D03*
G04 #@! TO.P,J2,14*
G04 #@! TO.N,24*
X137160000Y-88900000D03*
G04 #@! TO.P,J2,13*
G04 #@! TO.N,22*
X137160000Y-86360000D03*
G04 #@! TO.P,J2,12*
G04 #@! TO.N,13*
X137160000Y-83820000D03*
G04 #@! TO.P,J2,11*
G04 #@! TO.N,20*
X137160000Y-81280000D03*
G04 #@! TO.P,J2,10*
G04 #@! TO.N,17*
X137160000Y-78740000D03*
G04 #@! TO.P,J2,9*
G04 #@! TO.N,15*
X137160000Y-76200000D03*
G04 #@! TO.P,J2,8*
G04 #@! TO.N,18*
X137160000Y-73660000D03*
G04 #@! TO.P,J2,7*
G04 #@! TO.N,7*
X137160000Y-71120000D03*
G04 #@! TO.P,J2,6*
G04 #@! TO.N,12*
X137160000Y-68580000D03*
G04 #@! TO.P,J2,5*
G04 #@! TO.N,4*
X137160000Y-66040000D03*
G04 #@! TO.P,J2,4*
G04 #@! TO.N,VDD*
X137160000Y-63500000D03*
G04 #@! TO.P,J2,3*
X137160000Y-60960000D03*
G04 #@! TO.P,J2,2*
G04 #@! TO.N,GND*
X137160000Y-58420000D03*
D14*
G04 #@! TO.P,J2,1*
X137160000Y-55880000D03*
G04 #@! TD*
D19*
G04 #@! TO.P,J5,1*
G04 #@! TO.N,VBUS*
X146080000Y-56510000D03*
G04 #@! TO.P,J5,2*
G04 #@! TO.N,D-*
X145430000Y-56510000D03*
G04 #@! TO.P,J5,3*
G04 #@! TO.N,D+*
X144780000Y-56510000D03*
G04 #@! TO.P,J5,4*
G04 #@! TO.N,Net-(J5-Pad4)*
X144130000Y-56510000D03*
G04 #@! TO.P,J5,5*
G04 #@! TO.N,GND*
X143480000Y-56510000D03*
D20*
G04 #@! TO.P,J5,6*
X148505000Y-56460000D03*
X141055000Y-56460000D03*
D21*
X148655000Y-52660000D03*
X140905000Y-52660000D03*
G04 #@! TD*
D22*
G04 #@! TO.P,J8,1*
G04 #@! TO.N,VDD*
X153670000Y-60960000D03*
D23*
G04 #@! TO.P,J8,2*
G04 #@! TO.N,SWDIO*
X153670000Y-59690000D03*
G04 #@! TO.P,J8,3*
G04 #@! TO.N,GND*
X154940000Y-60960000D03*
G04 #@! TO.P,J8,4*
G04 #@! TO.N,SWDCLK*
X154940000Y-59690000D03*
G04 #@! TO.P,J8,5*
G04 #@! TO.N,GND*
X156210000Y-60960000D03*
G04 #@! TO.P,J8,6*
G04 #@! TO.N,32*
X156210000Y-59690000D03*
G04 #@! TO.P,J8,7*
G04 #@! TO.N,Net-(J8-Pad7)*
X157480000Y-60960000D03*
G04 #@! TO.P,J8,8*
G04 #@! TO.N,Net-(J8-Pad8)*
X157480000Y-59690000D03*
G04 #@! TO.P,J8,9*
G04 #@! TO.N,GND*
X158750000Y-60960000D03*
G04 #@! TO.P,J8,10*
G04 #@! TO.N,!RST*
X158750000Y-59690000D03*
G04 #@! TD*
D24*
G04 #@! TO.P,Y1,1*
G04 #@! TO.N,XL1*
X157200000Y-90805000D03*
G04 #@! TO.P,Y1,2*
G04 #@! TO.N,XL2*
X153950000Y-90805000D03*
G04 #@! TD*
D25*
G04 #@! TO.N,GND*
X161518600Y-103165000D03*
X142240000Y-76200000D03*
X140970000Y-67310000D03*
X160020000Y-66040000D03*
X162560000Y-66040000D03*
X153441400Y-66040000D03*
X151257000Y-70205600D03*
X147726400Y-95656400D03*
G04 #@! TO.N,SWDIO*
X134562409Y-56927555D03*
G04 #@! TO.N,SWDCLK*
X134304010Y-58525089D03*
X151130000Y-59690000D03*
G04 #@! TO.N,!RST*
X152908000Y-71628000D03*
G04 #@! TO.N,LDO_IN*
X149672000Y-60960000D03*
G04 #@! TO.N,32*
X158775400Y-53136800D03*
X158750000Y-56642000D03*
G04 #@! TO.N,40*
X151892000Y-88849200D03*
G04 #@! TO.N,18*
X146685000Y-83159600D03*
G04 #@! TD*
D26*
G04 #@! TO.N,VDD*
X150400000Y-62960000D02*
X150622000Y-62960000D01*
X144780000Y-68580000D02*
X150400000Y-62960000D01*
X152370000Y-62960000D02*
X153670000Y-61660000D01*
X153670000Y-61660000D02*
X153670000Y-60960000D01*
X150622000Y-62960000D02*
X152370000Y-62960000D01*
X144223763Y-69136237D02*
X144780000Y-68580000D01*
X143962490Y-69397510D02*
X144223763Y-69136237D01*
X143962490Y-72602510D02*
X143962490Y-69397510D01*
X142905000Y-73660000D02*
X143962490Y-72602510D01*
X145445000Y-76200000D02*
X153035000Y-76200000D01*
X142905000Y-73660000D02*
X145445000Y-76200000D01*
X165100000Y-60960000D02*
X165100000Y-63500000D01*
X164250001Y-60110001D02*
X165100000Y-60960000D01*
X164250001Y-59544302D02*
X164250001Y-60110001D01*
X152295000Y-93435000D02*
X152295000Y-94615000D01*
X150465000Y-91605000D02*
X152295000Y-93435000D01*
X150465000Y-90805000D02*
X150465000Y-91605000D01*
X153884999Y-75350001D02*
X153035000Y-76200000D01*
X154185001Y-75049999D02*
X153884999Y-75350001D01*
X156127001Y-75049999D02*
X154185001Y-75049999D01*
X156725001Y-75647999D02*
X156127001Y-75049999D01*
X156725001Y-82247005D02*
X156725001Y-75647999D01*
X150465000Y-88507006D02*
X156725001Y-82247005D01*
X150465000Y-90805000D02*
X150465000Y-88507006D01*
X138009999Y-64349999D02*
X137160000Y-63500000D01*
X138310001Y-64650001D02*
X138009999Y-64349999D01*
X138310001Y-69652501D02*
X138310001Y-64650001D01*
X142317500Y-73660000D02*
X138310001Y-69652501D01*
X142905000Y-73660000D02*
X142317500Y-73660000D01*
X156514800Y-57454800D02*
X162160499Y-57454800D01*
X162160499Y-57454800D02*
X162229800Y-57524101D01*
X154940000Y-55880000D02*
X156514800Y-57454800D01*
X162229800Y-57524101D02*
X164250001Y-59544302D01*
G04 #@! TO.N,GND*
X142875000Y-68610000D02*
X142905000Y-68580000D01*
X142875000Y-71120000D02*
X142875000Y-68610000D01*
X144780000Y-66705000D02*
X144780000Y-66040000D01*
X142905000Y-68580000D02*
X144780000Y-66705000D01*
X147860000Y-62960000D02*
X144780000Y-66040000D01*
X148722000Y-62960000D02*
X147860000Y-62960000D01*
X160235000Y-66040000D02*
X160020000Y-66040000D01*
X154940000Y-60960000D02*
X156210000Y-60960000D01*
X158250001Y-61459999D02*
X158750000Y-60960000D01*
X157226000Y-61976000D02*
X157734000Y-61976000D01*
X157734000Y-61976000D02*
X158250001Y-61459999D01*
X156210000Y-60960000D02*
X157226000Y-61976000D01*
X160235000Y-62445000D02*
X158750000Y-60960000D01*
X160235000Y-66040000D02*
X160235000Y-62445000D01*
X159685000Y-103165000D02*
X161518600Y-103165000D01*
X161518600Y-103165000D02*
X161661200Y-103165000D01*
X149125000Y-96515000D02*
X151025000Y-94615000D01*
X149120000Y-96515000D02*
X149125000Y-96515000D01*
X160020000Y-66040000D02*
X153441400Y-66040000D01*
X153441400Y-66040000D02*
X153035000Y-66040000D01*
G04 #@! TO.N,SWDIO*
X138310001Y-95967999D02*
X137490402Y-95148400D01*
X138310001Y-97702300D02*
X138310001Y-95967999D01*
X146685000Y-104435000D02*
X145042701Y-104435000D01*
X145042701Y-104435000D02*
X138310001Y-97702300D01*
X134493000Y-95148400D02*
X133496010Y-94151410D01*
X137490402Y-95148400D02*
X134493000Y-95148400D01*
X133496010Y-94151410D02*
X133496010Y-93751400D01*
X133762801Y-89312791D02*
X133564849Y-89510743D01*
X133496010Y-93751400D02*
X133562394Y-89662000D01*
X133562394Y-89662000D02*
X133564849Y-89510743D01*
X135004011Y-57369157D02*
X134962408Y-57327554D01*
X134962408Y-57327554D02*
X134562409Y-56927555D01*
X135004011Y-58861090D02*
X135004011Y-57369157D01*
X133562394Y-60302707D02*
X135004011Y-58861090D01*
X133562394Y-89662000D02*
X133562394Y-60302707D01*
G04 #@! TO.N,SWDCLK*
X154139999Y-58889999D02*
X151930001Y-58889999D01*
X154940000Y-59690000D02*
X154139999Y-58889999D01*
X151930001Y-58889999D02*
X151130000Y-59690000D01*
X133534801Y-97670001D02*
X133061480Y-97196680D01*
X133904011Y-58925088D02*
X134304010Y-58525089D01*
X133061480Y-59767619D02*
X133904011Y-58925088D01*
X146685000Y-105705000D02*
X144403000Y-105705000D01*
X137472003Y-97670001D02*
X133534801Y-97670001D01*
X133061480Y-97196680D02*
X133061480Y-59767619D01*
X144403000Y-105705000D02*
X138310001Y-99612001D01*
X138310001Y-98507999D02*
X137472003Y-97670001D01*
X138310001Y-99612001D02*
X138310001Y-98507999D01*
X151130000Y-59690000D02*
X151130000Y-59690000D01*
G04 #@! TO.N,!RST*
X144780000Y-71150000D02*
X144750000Y-71120000D01*
X144780000Y-73660000D02*
X144780000Y-71150000D01*
X153035000Y-69940000D02*
X153035000Y-69040000D01*
X151855000Y-71120000D02*
X153035000Y-69940000D01*
X144750000Y-71120000D02*
X151855000Y-71120000D01*
X153035000Y-69040000D02*
X160235000Y-69040000D01*
X152400000Y-71120000D02*
X151855000Y-71120000D01*
X152908000Y-71628000D02*
X152400000Y-71120000D01*
X161335001Y-62275001D02*
X159249999Y-60189999D01*
X159249999Y-60189999D02*
X158750000Y-59690000D01*
X161335001Y-67039999D02*
X161335001Y-62275001D01*
X160235000Y-68140000D02*
X161335001Y-67039999D01*
X160235000Y-69040000D02*
X160235000Y-68140000D01*
G04 #@! TO.N,LDO_IN*
X149072000Y-60960000D02*
X149672000Y-60960000D01*
X144992010Y-65039990D02*
X149072000Y-60960000D01*
X143905010Y-65039990D02*
X144992010Y-65039990D01*
X142905000Y-66040000D02*
X143905010Y-65039990D01*
X149672000Y-60960000D02*
X149672000Y-60960000D01*
G04 #@! TO.N,VBUS*
X146080000Y-59660000D02*
X144780000Y-60960000D01*
X146080000Y-56510000D02*
X146080000Y-59660000D01*
X135820031Y-63138169D02*
X136608201Y-62349999D01*
X136608201Y-62349999D02*
X137472003Y-62349999D01*
X135820031Y-65970031D02*
X135820031Y-63138169D01*
X143630000Y-59810000D02*
X144780000Y-60960000D01*
X138310001Y-61512001D02*
X138310001Y-60109997D01*
X138609998Y-59810000D02*
X143630000Y-59810000D01*
X137472003Y-62349999D02*
X138310001Y-61512001D01*
X138310001Y-60109997D02*
X138609998Y-59810000D01*
X145914998Y-98085000D02*
X140325011Y-92495013D01*
X146685000Y-98085000D02*
X145914998Y-98085000D01*
X140325011Y-92495013D02*
X140325011Y-83561111D01*
X140325011Y-83561111D02*
X140310051Y-83546151D01*
X135820031Y-74022033D02*
X135820031Y-65893831D01*
X136607999Y-74810001D02*
X135820031Y-74022033D01*
X140310051Y-83546151D02*
X140310051Y-77648049D01*
X140310051Y-77648049D02*
X137472003Y-74810001D01*
X137472003Y-74810001D02*
X136607999Y-74810001D01*
G04 #@! TO.N,D-*
X145430000Y-56510000D02*
X145305001Y-56634999D01*
X146685000Y-99355000D02*
X146275000Y-99765000D01*
X146275000Y-99765000D02*
X145803200Y-99765000D01*
X145803200Y-99765000D02*
X139925000Y-93886800D01*
X139925000Y-83726800D02*
X138310001Y-82111801D01*
X139925000Y-93886800D02*
X139925000Y-83726800D01*
X138310001Y-82111801D02*
X138310001Y-80727999D01*
X138310001Y-80727999D02*
X137712001Y-80129999D01*
X137712001Y-80129999D02*
X136607999Y-80129999D01*
X136607999Y-80129999D02*
X136468099Y-80269899D01*
X136468099Y-80269899D02*
X134845000Y-78646800D01*
X134845000Y-78646800D02*
X134845000Y-60960000D01*
X145330000Y-56610000D02*
X145330000Y-57361385D01*
X136468099Y-59430101D02*
X134845000Y-61053200D01*
X140444035Y-58210001D02*
X139962133Y-57728099D01*
X138310001Y-57867999D02*
X138310001Y-58972001D01*
X145330000Y-57361385D02*
X144781393Y-57909992D01*
X144338210Y-57909992D02*
X144038201Y-58210001D01*
X144781393Y-57909992D02*
X144338210Y-57909992D01*
X139962133Y-57728099D02*
X138170101Y-57728099D01*
X144038201Y-58210001D02*
X140444035Y-58210001D01*
X138170101Y-57728099D02*
X138310001Y-57867999D01*
X145430000Y-56510000D02*
X145330000Y-56610000D01*
X137712001Y-59570001D02*
X136607999Y-59570001D01*
X138310001Y-58972001D02*
X137712001Y-59570001D01*
X136607999Y-59570001D02*
X136468099Y-59430101D01*
G04 #@! TO.N,D+*
X146685000Y-100625000D02*
X146275000Y-100215000D01*
X146275000Y-100215000D02*
X145616800Y-100215000D01*
X145616800Y-100215000D02*
X139475000Y-94073200D01*
X136009999Y-81832001D02*
X136009999Y-80727999D01*
X136607999Y-82430001D02*
X136009999Y-81832001D01*
X139475000Y-83913200D02*
X137991801Y-82430001D01*
X136009999Y-80727999D02*
X136149899Y-80588099D01*
X137991801Y-82430001D02*
X136607999Y-82430001D01*
X139475000Y-94073200D02*
X139475000Y-83913200D01*
X136149899Y-80588099D02*
X134395000Y-78833200D01*
X134395000Y-78833200D02*
X134395000Y-60960000D01*
X134395000Y-60587000D02*
X134395000Y-60866800D01*
X140140416Y-57269999D02*
X136607999Y-57269999D01*
X140630427Y-57760010D02*
X140140416Y-57269999D01*
X143851790Y-57760010D02*
X140630427Y-57760010D01*
X136009999Y-58972001D02*
X134395000Y-60587000D01*
X144151799Y-57460001D02*
X143851790Y-57760010D01*
X136009999Y-57867999D02*
X136009999Y-58972001D01*
X144595001Y-57460001D02*
X144151799Y-57460001D01*
X144880000Y-57175002D02*
X144595001Y-57460001D01*
X144780000Y-56510000D02*
X144880000Y-56610000D01*
X136607999Y-57269999D02*
X136009999Y-57867999D01*
X144880000Y-56610000D02*
X144880000Y-57175002D01*
G04 #@! TO.N,VDDH*
X149377510Y-82397490D02*
X154725001Y-77049999D01*
X149377510Y-94237510D02*
X149377510Y-82397490D01*
X154725001Y-77049999D02*
X155575000Y-76200000D01*
X149755000Y-94615000D02*
X149377510Y-94237510D01*
G04 #@! TO.N,Net-(L2-Pad2)*
X148590000Y-94510000D02*
X148590000Y-90805000D01*
X148485000Y-94615000D02*
X148590000Y-94510000D01*
G04 #@! TO.N,9*
X145075000Y-106975000D02*
X137160000Y-99060000D01*
X146685000Y-106975000D02*
X145075000Y-106975000D01*
G04 #@! TO.N,5*
X157865001Y-95165001D02*
X159004000Y-94026002D01*
X154835000Y-94615000D02*
X155385001Y-95165001D01*
X155385001Y-95165001D02*
X157865001Y-95165001D01*
X159004000Y-82296000D02*
X165100000Y-76200000D01*
X159004000Y-94026002D02*
X159004000Y-82296000D01*
G04 #@! TO.N,3*
X159685000Y-105705000D02*
X161833200Y-105705000D01*
X161833200Y-105705000D02*
X162947390Y-104590810D01*
X162947390Y-104590810D02*
X162890200Y-104533620D01*
X162890200Y-101269800D02*
X165100000Y-99060000D01*
X162890200Y-104533620D02*
X162890200Y-101269800D01*
G04 #@! TO.N,2*
X160455002Y-100625000D02*
X159685000Y-100625000D01*
X162064618Y-94475382D02*
X162064618Y-99015384D01*
X162064618Y-99015384D02*
X160455002Y-100625000D01*
X165100000Y-91440000D02*
X162064618Y-94475382D01*
G04 #@! TO.N,31*
X159685000Y-98085000D02*
X160455002Y-98085000D01*
X161235001Y-97245803D02*
X161264600Y-97275402D01*
X161235001Y-90224999D02*
X161235001Y-97245803D01*
X165100000Y-86360000D02*
X161235001Y-90224999D01*
X160455002Y-98085000D02*
X161264600Y-97275402D01*
G04 #@! TO.N,30*
X159685000Y-89235000D02*
X159685000Y-96815000D01*
X165100000Y-83820000D02*
X159685000Y-89235000D01*
G04 #@! TO.N,29*
X161664608Y-98145394D02*
X161664608Y-95446808D01*
X159685000Y-99355000D02*
X160455002Y-99355000D01*
X161664608Y-95446808D02*
X161635011Y-95417211D01*
X160455002Y-99355000D02*
X161664608Y-98145394D01*
X161635011Y-95417211D02*
X161635011Y-90688589D01*
X163423600Y-88900000D02*
X165100000Y-88900000D01*
X161635011Y-90688589D02*
X163423600Y-88900000D01*
G04 #@! TO.N,28*
X159685000Y-104435000D02*
X161553800Y-104435000D01*
X161553800Y-104435000D02*
X162483800Y-103505000D01*
X164250001Y-97369999D02*
X165100000Y-96520000D01*
X163949999Y-97670001D02*
X164250001Y-97369999D01*
X163949999Y-98965701D02*
X163949999Y-97670001D01*
X162483800Y-100431900D02*
X163949999Y-98965701D01*
X162483800Y-103505000D02*
X162483800Y-100431900D01*
G04 #@! TO.N,13*
X138009999Y-84669999D02*
X137160000Y-83820000D01*
X138710011Y-85370011D02*
X138506200Y-85166200D01*
X138506200Y-85166200D02*
X138009999Y-84669999D01*
X139074989Y-85734989D02*
X138506200Y-85166200D01*
X145914998Y-101895000D02*
X139110021Y-95090023D01*
X139110021Y-95090023D02*
X139110021Y-94273921D01*
X146685000Y-101895000D02*
X145914998Y-101895000D01*
X139074989Y-94238889D02*
X139074989Y-85734989D01*
X139110021Y-94273921D02*
X139074989Y-94238889D01*
G04 #@! TO.N,10*
X141265000Y-108245000D02*
X137160000Y-104140000D01*
X146685000Y-108245000D02*
X141265000Y-108245000D01*
G04 #@! TO.N,32*
X158800800Y-53162200D02*
X158775400Y-53136800D01*
X158800800Y-56515000D02*
X158800800Y-53162200D01*
G04 #@! TO.N,42*
X160995000Y-108245000D02*
X161010600Y-108229400D01*
X159685000Y-108245000D02*
X160995000Y-108245000D01*
X165100000Y-104140000D02*
X165100000Y-106908600D01*
X165100000Y-106908600D02*
X163804600Y-108204000D01*
X159726000Y-108204000D02*
X159685000Y-108245000D01*
X163804600Y-108204000D02*
X159726000Y-108204000D01*
G04 #@! TO.N,41*
X159685000Y-106975000D02*
X162696800Y-106975000D01*
X162696800Y-106975000D02*
X163347400Y-106324400D01*
X163347400Y-103352600D02*
X165100000Y-101600000D01*
X163347400Y-106324400D02*
X163347400Y-103352600D01*
G04 #@! TO.N,44*
X159685000Y-101895000D02*
X160455002Y-101895000D01*
X160455002Y-101895000D02*
X162464628Y-99885374D01*
X162464628Y-96615372D02*
X165100000Y-93980000D01*
X162464628Y-99339400D02*
X162464628Y-96615372D01*
X162464628Y-99339400D02*
X162464628Y-99181073D01*
X162464628Y-99885374D02*
X162464628Y-99339400D01*
G04 #@! TO.N,40*
X153565000Y-92735002D02*
X151892000Y-91062002D01*
X153565000Y-94615000D02*
X153565000Y-92735002D01*
X151892000Y-91062002D02*
X151892000Y-88849200D01*
X151892000Y-88849200D02*
X151892000Y-88849200D01*
G04 #@! TO.N,XL1*
X157200000Y-94440000D02*
X157200000Y-90805000D01*
X157375000Y-94615000D02*
X157200000Y-94440000D01*
X157200000Y-88672000D02*
X157480000Y-88392000D01*
X157200000Y-90805000D02*
X157200000Y-88672000D01*
G04 #@! TO.N,XL2*
X153924000Y-90779000D02*
X153950000Y-90805000D01*
X153924000Y-88392000D02*
X153924000Y-90779000D01*
X156105000Y-92985000D02*
X156105000Y-94615000D01*
X153950000Y-90830000D02*
X156105000Y-92985000D01*
X153950000Y-90805000D02*
X153950000Y-90830000D01*
G04 #@! TO.N,24*
X138310001Y-90050001D02*
X138009999Y-89749999D01*
X138009999Y-89749999D02*
X137160000Y-88900000D01*
X138710011Y-95960013D02*
X138710011Y-94439611D01*
X138674978Y-94404578D02*
X138674978Y-90414978D01*
X138674978Y-90414978D02*
X138009999Y-89749999D01*
X145914998Y-103165000D02*
X138710011Y-95960013D01*
X146685000Y-103165000D02*
X145914998Y-103165000D01*
X138710011Y-94439611D02*
X138674978Y-94404578D01*
G04 #@! TO.N,38*
X143170000Y-107610000D02*
X137160000Y-101600000D01*
X148685000Y-107610000D02*
X143170000Y-107610000D01*
G04 #@! TO.N,18*
X146685000Y-96815000D02*
X146685000Y-93853000D01*
X146685000Y-93853000D02*
X146685000Y-93853000D01*
X146685000Y-83185000D02*
X137160000Y-73660000D01*
X146685000Y-93853000D02*
X146685000Y-83185000D01*
G04 #@! TO.N,5V*
X151550001Y-56729999D02*
X152400000Y-55880000D01*
X146319990Y-61960010D02*
X151550001Y-56729999D01*
X143105010Y-61960010D02*
X146319990Y-61960010D01*
X142905000Y-61760000D02*
X143105010Y-61960010D01*
X142905000Y-61760000D02*
X142905000Y-63500000D01*
X142905000Y-60960000D02*
X142905000Y-61760000D01*
X139700000Y-63500000D02*
X139700000Y-60960000D01*
X139700000Y-60960000D02*
X142905000Y-60960000D01*
X142317500Y-63500000D02*
X139700000Y-63500000D01*
X142905000Y-63500000D02*
X142317500Y-63500000D01*
G04 #@! TO.N,VBAT*
X162560000Y-58420000D02*
X162560000Y-60960000D01*
X144780000Y-63500000D02*
X145336237Y-62943763D01*
X145336237Y-62943763D02*
X146352237Y-62943763D01*
X162560000Y-60960000D02*
X162560000Y-63500000D01*
X160324800Y-58013600D02*
X151282400Y-58013600D01*
X146352237Y-62943763D02*
X151282400Y-58013600D01*
X160731200Y-58420000D02*
X160324800Y-58013600D01*
X162560000Y-58420000D02*
X160731200Y-58420000D01*
G04 #@! TD*
D27*
G04 #@! TO.N,GND*
G36*
X139835707Y-51754620D02*
X139695000Y-52208000D01*
X139695000Y-52533000D01*
X140778000Y-52533000D01*
X140778000Y-52513000D01*
X141032000Y-52513000D01*
X141032000Y-52533000D01*
X142115000Y-52533000D01*
X142115000Y-52208000D01*
X141974293Y-51754620D01*
X141791690Y-51535000D01*
X147768310Y-51535000D01*
X147585707Y-51754620D01*
X147445000Y-52208000D01*
X147445000Y-52533000D01*
X148528000Y-52533000D01*
X148528000Y-52513000D01*
X148782000Y-52513000D01*
X148782000Y-52533000D01*
X149865000Y-52533000D01*
X149865000Y-52208000D01*
X149724293Y-51754620D01*
X149541690Y-51535000D01*
X169445000Y-51535000D01*
X169445001Y-53412388D01*
X169470001Y-53538071D01*
X169470000Y-106749925D01*
X169470001Y-106749930D01*
X169470000Y-109093000D01*
X161183000Y-109093000D01*
X161392809Y-108952809D01*
X161402036Y-108939000D01*
X163732216Y-108939000D01*
X163804600Y-108953398D01*
X163876984Y-108939000D01*
X163876988Y-108939000D01*
X164091383Y-108896354D01*
X164334505Y-108733905D01*
X164375511Y-108672535D01*
X165568537Y-107479510D01*
X165629905Y-107438505D01*
X165792354Y-107195383D01*
X165835000Y-106980988D01*
X165835000Y-106980985D01*
X165849398Y-106908601D01*
X165835000Y-106836217D01*
X165835000Y-106334887D01*
X165905000Y-106334887D01*
X165905000Y-107025113D01*
X166169138Y-107662799D01*
X166657201Y-108150862D01*
X167294887Y-108415000D01*
X167985113Y-108415000D01*
X168622799Y-108150862D01*
X169110862Y-107662799D01*
X169375000Y-107025113D01*
X169375000Y-106334887D01*
X169110862Y-105697201D01*
X168622799Y-105209138D01*
X167985113Y-104945000D01*
X167294887Y-104945000D01*
X166657201Y-105209138D01*
X166169138Y-105697201D01*
X165905000Y-106334887D01*
X165835000Y-106334887D01*
X165835000Y-105434882D01*
X166170625Y-105210625D01*
X166498839Y-104719418D01*
X166614092Y-104140000D01*
X166498839Y-103560582D01*
X166170625Y-103069375D01*
X165872239Y-102870000D01*
X166170625Y-102670625D01*
X166498839Y-102179418D01*
X166614092Y-101600000D01*
X166498839Y-101020582D01*
X166170625Y-100529375D01*
X165872239Y-100330000D01*
X166170625Y-100130625D01*
X166498839Y-99639418D01*
X166614092Y-99060000D01*
X166498839Y-98480582D01*
X166170625Y-97989375D01*
X165872239Y-97790000D01*
X166170625Y-97590625D01*
X166498839Y-97099418D01*
X166614092Y-96520000D01*
X166498839Y-95940582D01*
X166170625Y-95449375D01*
X165872239Y-95250000D01*
X166170625Y-95050625D01*
X166498839Y-94559418D01*
X166614092Y-93980000D01*
X166498839Y-93400582D01*
X166170625Y-92909375D01*
X165872239Y-92710000D01*
X166170625Y-92510625D01*
X166498839Y-92019418D01*
X166614092Y-91440000D01*
X166498839Y-90860582D01*
X166170625Y-90369375D01*
X165872239Y-90170000D01*
X166170625Y-89970625D01*
X166498839Y-89479418D01*
X166614092Y-88900000D01*
X166498839Y-88320582D01*
X166170625Y-87829375D01*
X165872239Y-87630000D01*
X166170625Y-87430625D01*
X166498839Y-86939418D01*
X166614092Y-86360000D01*
X166498839Y-85780582D01*
X166170625Y-85289375D01*
X165872239Y-85090000D01*
X166170625Y-84890625D01*
X166498839Y-84399418D01*
X166614092Y-83820000D01*
X166498839Y-83240582D01*
X166170625Y-82749375D01*
X165872239Y-82550000D01*
X166170625Y-82350625D01*
X166498839Y-81859418D01*
X166614092Y-81280000D01*
X166498839Y-80700582D01*
X166170625Y-80209375D01*
X165872239Y-80010000D01*
X166170625Y-79810625D01*
X166498839Y-79319418D01*
X166614092Y-78740000D01*
X166498839Y-78160582D01*
X166170625Y-77669375D01*
X165872239Y-77470000D01*
X166170625Y-77270625D01*
X166498839Y-76779418D01*
X166614092Y-76200000D01*
X166498839Y-75620582D01*
X166170625Y-75129375D01*
X165872239Y-74930000D01*
X166170625Y-74730625D01*
X166498839Y-74239418D01*
X166614092Y-73660000D01*
X166498839Y-73080582D01*
X166170625Y-72589375D01*
X165872239Y-72390000D01*
X166170625Y-72190625D01*
X166498839Y-71699418D01*
X166614092Y-71120000D01*
X166498839Y-70540582D01*
X166170625Y-70049375D01*
X165872239Y-69850000D01*
X166170625Y-69650625D01*
X166498839Y-69159418D01*
X166614092Y-68580000D01*
X166498839Y-68000582D01*
X166170625Y-67509375D01*
X165872239Y-67310000D01*
X166170625Y-67110625D01*
X166498839Y-66619418D01*
X166614092Y-66040000D01*
X166498839Y-65460582D01*
X166170625Y-64969375D01*
X165872239Y-64770000D01*
X166170625Y-64570625D01*
X166498839Y-64079418D01*
X166614092Y-63500000D01*
X166498839Y-62920582D01*
X166170625Y-62429375D01*
X165872239Y-62230000D01*
X166170625Y-62030625D01*
X166498839Y-61539418D01*
X166614092Y-60960000D01*
X166498839Y-60380582D01*
X166170625Y-59889375D01*
X165851522Y-59676157D01*
X165981358Y-59615183D01*
X166371645Y-59186924D01*
X166541476Y-58776890D01*
X166420155Y-58547000D01*
X165227000Y-58547000D01*
X165227000Y-58567000D01*
X164973000Y-58567000D01*
X164973000Y-58547000D01*
X164953000Y-58547000D01*
X164953000Y-58293000D01*
X164973000Y-58293000D01*
X164973000Y-56007000D01*
X165227000Y-56007000D01*
X165227000Y-58293000D01*
X166420155Y-58293000D01*
X166541476Y-58063110D01*
X166371645Y-57653076D01*
X166100122Y-57355136D01*
X166309698Y-57268327D01*
X166488327Y-57089699D01*
X166585000Y-56856310D01*
X166585000Y-56165750D01*
X166426250Y-56007000D01*
X165227000Y-56007000D01*
X164973000Y-56007000D01*
X164953000Y-56007000D01*
X164953000Y-55753000D01*
X164973000Y-55753000D01*
X164973000Y-54553750D01*
X165227000Y-54553750D01*
X165227000Y-55753000D01*
X166426250Y-55753000D01*
X166585000Y-55594250D01*
X166585000Y-54903690D01*
X166488327Y-54670301D01*
X166309698Y-54491673D01*
X166076309Y-54395000D01*
X165385750Y-54395000D01*
X165227000Y-54553750D01*
X164973000Y-54553750D01*
X164814250Y-54395000D01*
X164123691Y-54395000D01*
X163890302Y-54491673D01*
X163833025Y-54548949D01*
X163657765Y-54431843D01*
X163410000Y-54382560D01*
X161710000Y-54382560D01*
X161462235Y-54431843D01*
X161252191Y-54572191D01*
X161111843Y-54782235D01*
X161091261Y-54885708D01*
X160786924Y-54608355D01*
X160376890Y-54438524D01*
X160147000Y-54559845D01*
X160147000Y-55753000D01*
X160167000Y-55753000D01*
X160167000Y-56007000D01*
X160147000Y-56007000D01*
X160147000Y-56027000D01*
X159893000Y-56027000D01*
X159893000Y-56007000D01*
X159873000Y-56007000D01*
X159873000Y-55753000D01*
X159893000Y-55753000D01*
X159893000Y-54559845D01*
X159663110Y-54438524D01*
X159535800Y-54491254D01*
X159535800Y-53840111D01*
X159652831Y-53723080D01*
X159810400Y-53342674D01*
X159810400Y-52994887D01*
X165905000Y-52994887D01*
X165905000Y-53685113D01*
X166169138Y-54322799D01*
X166657201Y-54810862D01*
X167294887Y-55075000D01*
X167985113Y-55075000D01*
X168622799Y-54810862D01*
X169110862Y-54322799D01*
X169375000Y-53685113D01*
X169375000Y-52994887D01*
X169110862Y-52357201D01*
X168622799Y-51869138D01*
X167985113Y-51605000D01*
X167294887Y-51605000D01*
X166657201Y-51869138D01*
X166169138Y-52357201D01*
X165905000Y-52994887D01*
X159810400Y-52994887D01*
X159810400Y-52930926D01*
X159652831Y-52550520D01*
X159361680Y-52259369D01*
X158981274Y-52101800D01*
X158569526Y-52101800D01*
X158189120Y-52259369D01*
X157897969Y-52550520D01*
X157740400Y-52930926D01*
X157740400Y-53342674D01*
X157897969Y-53723080D01*
X158065801Y-53890912D01*
X158065801Y-54485426D01*
X158059418Y-54481161D01*
X157626256Y-54395000D01*
X157333744Y-54395000D01*
X156900582Y-54481161D01*
X156409375Y-54809375D01*
X156210000Y-55107761D01*
X156010625Y-54809375D01*
X155519418Y-54481161D01*
X155086256Y-54395000D01*
X154793744Y-54395000D01*
X154360582Y-54481161D01*
X153869375Y-54809375D01*
X153670000Y-55107761D01*
X153470625Y-54809375D01*
X152979418Y-54481161D01*
X152546256Y-54395000D01*
X152253744Y-54395000D01*
X151820582Y-54481161D01*
X151329375Y-54809375D01*
X151001161Y-55300582D01*
X150885908Y-55880000D01*
X150964656Y-56275897D01*
X146015544Y-61225010D01*
X145914940Y-61225010D01*
X145914940Y-60864506D01*
X146548537Y-60230910D01*
X146609905Y-60189905D01*
X146772354Y-59946783D01*
X146815000Y-59732388D01*
X146829399Y-59660000D01*
X146815000Y-59587612D01*
X146815000Y-57539700D01*
X146903157Y-57407765D01*
X146952440Y-57160000D01*
X146952440Y-56587000D01*
X147145000Y-56587000D01*
X147145000Y-56862000D01*
X147297125Y-57372782D01*
X147633138Y-57786467D01*
X148101884Y-58040076D01*
X148167742Y-58052519D01*
X148378000Y-57929518D01*
X148378000Y-56587000D01*
X148632000Y-56587000D01*
X148632000Y-57929518D01*
X148842258Y-58052519D01*
X148908116Y-58040076D01*
X149376862Y-57786467D01*
X149712875Y-57372782D01*
X149865000Y-56862000D01*
X149865000Y-56587000D01*
X148632000Y-56587000D01*
X148378000Y-56587000D01*
X147145000Y-56587000D01*
X146952440Y-56587000D01*
X146952440Y-56400120D01*
X147178065Y-56445000D01*
X147381935Y-56445000D01*
X147683837Y-56384948D01*
X147761583Y-56333000D01*
X148378000Y-56333000D01*
X148378000Y-54990482D01*
X148632000Y-54990482D01*
X148632000Y-56333000D01*
X149865000Y-56333000D01*
X149865000Y-56058000D01*
X149712875Y-55547218D01*
X149376862Y-55133533D01*
X148908116Y-54879924D01*
X148842258Y-54867481D01*
X148632000Y-54990482D01*
X148378000Y-54990482D01*
X148167742Y-54867481D01*
X148162895Y-54868397D01*
X148026193Y-54663807D01*
X147683837Y-54435052D01*
X147381935Y-54375000D01*
X147178065Y-54375000D01*
X146876163Y-54435052D01*
X146533807Y-54663807D01*
X146305052Y-55006163D01*
X146263997Y-55212560D01*
X145855000Y-55212560D01*
X145755000Y-55232451D01*
X145655000Y-55212560D01*
X145205000Y-55212560D01*
X145105000Y-55232451D01*
X145005000Y-55212560D01*
X144555000Y-55212560D01*
X144455000Y-55232451D01*
X144355000Y-55212560D01*
X143905000Y-55212560D01*
X143834926Y-55226498D01*
X143831309Y-55225000D01*
X143751250Y-55225000D01*
X143728603Y-55247647D01*
X143657235Y-55261843D01*
X143447191Y-55402191D01*
X143367500Y-55521456D01*
X143367500Y-55383750D01*
X143320757Y-55337007D01*
X143254948Y-55006163D01*
X143026193Y-54663807D01*
X142683837Y-54435052D01*
X142381935Y-54375000D01*
X142178065Y-54375000D01*
X141876163Y-54435052D01*
X141533807Y-54663807D01*
X141397105Y-54868397D01*
X141392258Y-54867481D01*
X141182000Y-54990482D01*
X141182000Y-56333000D01*
X141798417Y-56333000D01*
X141876163Y-56384948D01*
X142178065Y-56445000D01*
X142381935Y-56445000D01*
X142683837Y-56384948D01*
X142741901Y-56346151D01*
X142778750Y-56383000D01*
X143257560Y-56383000D01*
X143257560Y-56637000D01*
X142778750Y-56637000D01*
X142620000Y-56795750D01*
X142620000Y-57025010D01*
X142366451Y-57025010D01*
X142415000Y-56862000D01*
X142415000Y-56587000D01*
X141182000Y-56587000D01*
X141182000Y-56607000D01*
X140928000Y-56607000D01*
X140928000Y-56587000D01*
X140441200Y-56587000D01*
X140427199Y-56577645D01*
X140212804Y-56534999D01*
X140212800Y-56534999D01*
X140140416Y-56520601D01*
X140068032Y-56534999D01*
X138645000Y-56534999D01*
X138645000Y-56165750D01*
X138537250Y-56058000D01*
X139695000Y-56058000D01*
X139695000Y-56333000D01*
X140928000Y-56333000D01*
X140928000Y-54990482D01*
X140717742Y-54867481D01*
X140651884Y-54879924D01*
X140183138Y-55133533D01*
X139847125Y-55547218D01*
X139695000Y-56058000D01*
X138537250Y-56058000D01*
X138486250Y-56007000D01*
X137287000Y-56007000D01*
X137287000Y-56027000D01*
X137033000Y-56027000D01*
X137033000Y-56007000D01*
X135833750Y-56007000D01*
X135675000Y-56165750D01*
X135675000Y-56856310D01*
X135764989Y-57073562D01*
X135706289Y-57132263D01*
X135696365Y-57082374D01*
X135597409Y-56934276D01*
X135597409Y-56721681D01*
X135439840Y-56341275D01*
X135148689Y-56050124D01*
X134768283Y-55892555D01*
X134356535Y-55892555D01*
X133976129Y-56050124D01*
X133684978Y-56341275D01*
X133527409Y-56721681D01*
X133527409Y-57133429D01*
X133684978Y-57513835D01*
X133789198Y-57618055D01*
X133717730Y-57647658D01*
X133426579Y-57938809D01*
X133269010Y-58319215D01*
X133269010Y-58520642D01*
X132790000Y-58999653D01*
X132790000Y-53538071D01*
X132815000Y-53412388D01*
X132815000Y-52994887D01*
X132885000Y-52994887D01*
X132885000Y-53685113D01*
X133149138Y-54322799D01*
X133637201Y-54810862D01*
X134274887Y-55075000D01*
X134965113Y-55075000D01*
X135378692Y-54903690D01*
X135675000Y-54903690D01*
X135675000Y-55594250D01*
X135833750Y-55753000D01*
X137033000Y-55753000D01*
X137033000Y-54553750D01*
X137287000Y-54553750D01*
X137287000Y-55753000D01*
X138486250Y-55753000D01*
X138645000Y-55594250D01*
X138645000Y-54903690D01*
X138548327Y-54670301D01*
X138369698Y-54491673D01*
X138136309Y-54395000D01*
X137445750Y-54395000D01*
X137287000Y-54553750D01*
X137033000Y-54553750D01*
X136874250Y-54395000D01*
X136183691Y-54395000D01*
X135950302Y-54491673D01*
X135771673Y-54670301D01*
X135675000Y-54903690D01*
X135378692Y-54903690D01*
X135602799Y-54810862D01*
X136090862Y-54322799D01*
X136355000Y-53685113D01*
X136355000Y-52994887D01*
X136268891Y-52787000D01*
X139695000Y-52787000D01*
X139695000Y-53112000D01*
X139835707Y-53565380D01*
X140139204Y-53930402D01*
X140559286Y-54151495D01*
X140591323Y-54153635D01*
X140778000Y-54028550D01*
X140778000Y-52787000D01*
X141032000Y-52787000D01*
X141032000Y-54028550D01*
X141218677Y-54153635D01*
X141250714Y-54151495D01*
X141670796Y-53930402D01*
X141974293Y-53565380D01*
X142115000Y-53112000D01*
X142115000Y-52787000D01*
X147445000Y-52787000D01*
X147445000Y-53112000D01*
X147585707Y-53565380D01*
X147889204Y-53930402D01*
X148309286Y-54151495D01*
X148341323Y-54153635D01*
X148528000Y-54028550D01*
X148528000Y-52787000D01*
X148782000Y-52787000D01*
X148782000Y-54028550D01*
X148968677Y-54153635D01*
X149000714Y-54151495D01*
X149420796Y-53930402D01*
X149724293Y-53565380D01*
X149865000Y-53112000D01*
X149865000Y-52787000D01*
X148782000Y-52787000D01*
X148528000Y-52787000D01*
X147445000Y-52787000D01*
X142115000Y-52787000D01*
X141032000Y-52787000D01*
X140778000Y-52787000D01*
X139695000Y-52787000D01*
X136268891Y-52787000D01*
X136090862Y-52357201D01*
X135602799Y-51869138D01*
X134965113Y-51605000D01*
X134274887Y-51605000D01*
X133637201Y-51869138D01*
X133149138Y-52357201D01*
X132885000Y-52994887D01*
X132815000Y-52994887D01*
X132815000Y-51535000D01*
X140018310Y-51535000D01*
X139835707Y-51754620D01*
X139835707Y-51754620D01*
G37*
X139835707Y-51754620D02*
X139695000Y-52208000D01*
X139695000Y-52533000D01*
X140778000Y-52533000D01*
X140778000Y-52513000D01*
X141032000Y-52513000D01*
X141032000Y-52533000D01*
X142115000Y-52533000D01*
X142115000Y-52208000D01*
X141974293Y-51754620D01*
X141791690Y-51535000D01*
X147768310Y-51535000D01*
X147585707Y-51754620D01*
X147445000Y-52208000D01*
X147445000Y-52533000D01*
X148528000Y-52533000D01*
X148528000Y-52513000D01*
X148782000Y-52513000D01*
X148782000Y-52533000D01*
X149865000Y-52533000D01*
X149865000Y-52208000D01*
X149724293Y-51754620D01*
X149541690Y-51535000D01*
X169445000Y-51535000D01*
X169445001Y-53412388D01*
X169470001Y-53538071D01*
X169470000Y-106749925D01*
X169470001Y-106749930D01*
X169470000Y-109093000D01*
X161183000Y-109093000D01*
X161392809Y-108952809D01*
X161402036Y-108939000D01*
X163732216Y-108939000D01*
X163804600Y-108953398D01*
X163876984Y-108939000D01*
X163876988Y-108939000D01*
X164091383Y-108896354D01*
X164334505Y-108733905D01*
X164375511Y-108672535D01*
X165568537Y-107479510D01*
X165629905Y-107438505D01*
X165792354Y-107195383D01*
X165835000Y-106980988D01*
X165835000Y-106980985D01*
X165849398Y-106908601D01*
X165835000Y-106836217D01*
X165835000Y-106334887D01*
X165905000Y-106334887D01*
X165905000Y-107025113D01*
X166169138Y-107662799D01*
X166657201Y-108150862D01*
X167294887Y-108415000D01*
X167985113Y-108415000D01*
X168622799Y-108150862D01*
X169110862Y-107662799D01*
X169375000Y-107025113D01*
X169375000Y-106334887D01*
X169110862Y-105697201D01*
X168622799Y-105209138D01*
X167985113Y-104945000D01*
X167294887Y-104945000D01*
X166657201Y-105209138D01*
X166169138Y-105697201D01*
X165905000Y-106334887D01*
X165835000Y-106334887D01*
X165835000Y-105434882D01*
X166170625Y-105210625D01*
X166498839Y-104719418D01*
X166614092Y-104140000D01*
X166498839Y-103560582D01*
X166170625Y-103069375D01*
X165872239Y-102870000D01*
X166170625Y-102670625D01*
X166498839Y-102179418D01*
X166614092Y-101600000D01*
X166498839Y-101020582D01*
X166170625Y-100529375D01*
X165872239Y-100330000D01*
X166170625Y-100130625D01*
X166498839Y-99639418D01*
X166614092Y-99060000D01*
X166498839Y-98480582D01*
X166170625Y-97989375D01*
X165872239Y-97790000D01*
X166170625Y-97590625D01*
X166498839Y-97099418D01*
X166614092Y-96520000D01*
X166498839Y-95940582D01*
X166170625Y-95449375D01*
X165872239Y-95250000D01*
X166170625Y-95050625D01*
X166498839Y-94559418D01*
X166614092Y-93980000D01*
X166498839Y-93400582D01*
X166170625Y-92909375D01*
X165872239Y-92710000D01*
X166170625Y-92510625D01*
X166498839Y-92019418D01*
X166614092Y-91440000D01*
X166498839Y-90860582D01*
X166170625Y-90369375D01*
X165872239Y-90170000D01*
X166170625Y-89970625D01*
X166498839Y-89479418D01*
X166614092Y-88900000D01*
X166498839Y-88320582D01*
X166170625Y-87829375D01*
X165872239Y-87630000D01*
X166170625Y-87430625D01*
X166498839Y-86939418D01*
X166614092Y-86360000D01*
X166498839Y-85780582D01*
X166170625Y-85289375D01*
X165872239Y-85090000D01*
X166170625Y-84890625D01*
X166498839Y-84399418D01*
X166614092Y-83820000D01*
X166498839Y-83240582D01*
X166170625Y-82749375D01*
X165872239Y-82550000D01*
X166170625Y-82350625D01*
X166498839Y-81859418D01*
X166614092Y-81280000D01*
X166498839Y-80700582D01*
X166170625Y-80209375D01*
X165872239Y-80010000D01*
X166170625Y-79810625D01*
X166498839Y-79319418D01*
X166614092Y-78740000D01*
X166498839Y-78160582D01*
X166170625Y-77669375D01*
X165872239Y-77470000D01*
X166170625Y-77270625D01*
X166498839Y-76779418D01*
X166614092Y-76200000D01*
X166498839Y-75620582D01*
X166170625Y-75129375D01*
X165872239Y-74930000D01*
X166170625Y-74730625D01*
X166498839Y-74239418D01*
X166614092Y-73660000D01*
X166498839Y-73080582D01*
X166170625Y-72589375D01*
X165872239Y-72390000D01*
X166170625Y-72190625D01*
X166498839Y-71699418D01*
X166614092Y-71120000D01*
X166498839Y-70540582D01*
X166170625Y-70049375D01*
X165872239Y-69850000D01*
X166170625Y-69650625D01*
X166498839Y-69159418D01*
X166614092Y-68580000D01*
X166498839Y-68000582D01*
X166170625Y-67509375D01*
X165872239Y-67310000D01*
X166170625Y-67110625D01*
X166498839Y-66619418D01*
X166614092Y-66040000D01*
X166498839Y-65460582D01*
X166170625Y-64969375D01*
X165872239Y-64770000D01*
X166170625Y-64570625D01*
X166498839Y-64079418D01*
X166614092Y-63500000D01*
X166498839Y-62920582D01*
X166170625Y-62429375D01*
X165872239Y-62230000D01*
X166170625Y-62030625D01*
X166498839Y-61539418D01*
X166614092Y-60960000D01*
X166498839Y-60380582D01*
X166170625Y-59889375D01*
X165851522Y-59676157D01*
X165981358Y-59615183D01*
X166371645Y-59186924D01*
X166541476Y-58776890D01*
X166420155Y-58547000D01*
X165227000Y-58547000D01*
X165227000Y-58567000D01*
X164973000Y-58567000D01*
X164973000Y-58547000D01*
X164953000Y-58547000D01*
X164953000Y-58293000D01*
X164973000Y-58293000D01*
X164973000Y-56007000D01*
X165227000Y-56007000D01*
X165227000Y-58293000D01*
X166420155Y-58293000D01*
X166541476Y-58063110D01*
X166371645Y-57653076D01*
X166100122Y-57355136D01*
X166309698Y-57268327D01*
X166488327Y-57089699D01*
X166585000Y-56856310D01*
X166585000Y-56165750D01*
X166426250Y-56007000D01*
X165227000Y-56007000D01*
X164973000Y-56007000D01*
X164953000Y-56007000D01*
X164953000Y-55753000D01*
X164973000Y-55753000D01*
X164973000Y-54553750D01*
X165227000Y-54553750D01*
X165227000Y-55753000D01*
X166426250Y-55753000D01*
X166585000Y-55594250D01*
X166585000Y-54903690D01*
X166488327Y-54670301D01*
X166309698Y-54491673D01*
X166076309Y-54395000D01*
X165385750Y-54395000D01*
X165227000Y-54553750D01*
X164973000Y-54553750D01*
X164814250Y-54395000D01*
X164123691Y-54395000D01*
X163890302Y-54491673D01*
X163833025Y-54548949D01*
X163657765Y-54431843D01*
X163410000Y-54382560D01*
X161710000Y-54382560D01*
X161462235Y-54431843D01*
X161252191Y-54572191D01*
X161111843Y-54782235D01*
X161091261Y-54885708D01*
X160786924Y-54608355D01*
X160376890Y-54438524D01*
X160147000Y-54559845D01*
X160147000Y-55753000D01*
X160167000Y-55753000D01*
X160167000Y-56007000D01*
X160147000Y-56007000D01*
X160147000Y-56027000D01*
X159893000Y-56027000D01*
X159893000Y-56007000D01*
X159873000Y-56007000D01*
X159873000Y-55753000D01*
X159893000Y-55753000D01*
X159893000Y-54559845D01*
X159663110Y-54438524D01*
X159535800Y-54491254D01*
X159535800Y-53840111D01*
X159652831Y-53723080D01*
X159810400Y-53342674D01*
X159810400Y-52994887D01*
X165905000Y-52994887D01*
X165905000Y-53685113D01*
X166169138Y-54322799D01*
X166657201Y-54810862D01*
X167294887Y-55075000D01*
X167985113Y-55075000D01*
X168622799Y-54810862D01*
X169110862Y-54322799D01*
X169375000Y-53685113D01*
X169375000Y-52994887D01*
X169110862Y-52357201D01*
X168622799Y-51869138D01*
X167985113Y-51605000D01*
X167294887Y-51605000D01*
X166657201Y-51869138D01*
X166169138Y-52357201D01*
X165905000Y-52994887D01*
X159810400Y-52994887D01*
X159810400Y-52930926D01*
X159652831Y-52550520D01*
X159361680Y-52259369D01*
X158981274Y-52101800D01*
X158569526Y-52101800D01*
X158189120Y-52259369D01*
X157897969Y-52550520D01*
X157740400Y-52930926D01*
X157740400Y-53342674D01*
X157897969Y-53723080D01*
X158065801Y-53890912D01*
X158065801Y-54485426D01*
X158059418Y-54481161D01*
X157626256Y-54395000D01*
X157333744Y-54395000D01*
X156900582Y-54481161D01*
X156409375Y-54809375D01*
X156210000Y-55107761D01*
X156010625Y-54809375D01*
X155519418Y-54481161D01*
X155086256Y-54395000D01*
X154793744Y-54395000D01*
X154360582Y-54481161D01*
X153869375Y-54809375D01*
X153670000Y-55107761D01*
X153470625Y-54809375D01*
X152979418Y-54481161D01*
X152546256Y-54395000D01*
X152253744Y-54395000D01*
X151820582Y-54481161D01*
X151329375Y-54809375D01*
X151001161Y-55300582D01*
X150885908Y-55880000D01*
X150964656Y-56275897D01*
X146015544Y-61225010D01*
X145914940Y-61225010D01*
X145914940Y-60864506D01*
X146548537Y-60230910D01*
X146609905Y-60189905D01*
X146772354Y-59946783D01*
X146815000Y-59732388D01*
X146829399Y-59660000D01*
X146815000Y-59587612D01*
X146815000Y-57539700D01*
X146903157Y-57407765D01*
X146952440Y-57160000D01*
X146952440Y-56587000D01*
X147145000Y-56587000D01*
X147145000Y-56862000D01*
X147297125Y-57372782D01*
X147633138Y-57786467D01*
X148101884Y-58040076D01*
X148167742Y-58052519D01*
X148378000Y-57929518D01*
X148378000Y-56587000D01*
X148632000Y-56587000D01*
X148632000Y-57929518D01*
X148842258Y-58052519D01*
X148908116Y-58040076D01*
X149376862Y-57786467D01*
X149712875Y-57372782D01*
X149865000Y-56862000D01*
X149865000Y-56587000D01*
X148632000Y-56587000D01*
X148378000Y-56587000D01*
X147145000Y-56587000D01*
X146952440Y-56587000D01*
X146952440Y-56400120D01*
X147178065Y-56445000D01*
X147381935Y-56445000D01*
X147683837Y-56384948D01*
X147761583Y-56333000D01*
X148378000Y-56333000D01*
X148378000Y-54990482D01*
X148632000Y-54990482D01*
X148632000Y-56333000D01*
X149865000Y-56333000D01*
X149865000Y-56058000D01*
X149712875Y-55547218D01*
X149376862Y-55133533D01*
X148908116Y-54879924D01*
X148842258Y-54867481D01*
X148632000Y-54990482D01*
X148378000Y-54990482D01*
X148167742Y-54867481D01*
X148162895Y-54868397D01*
X148026193Y-54663807D01*
X147683837Y-54435052D01*
X147381935Y-54375000D01*
X147178065Y-54375000D01*
X146876163Y-54435052D01*
X146533807Y-54663807D01*
X146305052Y-55006163D01*
X146263997Y-55212560D01*
X145855000Y-55212560D01*
X145755000Y-55232451D01*
X145655000Y-55212560D01*
X145205000Y-55212560D01*
X145105000Y-55232451D01*
X145005000Y-55212560D01*
X144555000Y-55212560D01*
X144455000Y-55232451D01*
X144355000Y-55212560D01*
X143905000Y-55212560D01*
X143834926Y-55226498D01*
X143831309Y-55225000D01*
X143751250Y-55225000D01*
X143728603Y-55247647D01*
X143657235Y-55261843D01*
X143447191Y-55402191D01*
X143367500Y-55521456D01*
X143367500Y-55383750D01*
X143320757Y-55337007D01*
X143254948Y-55006163D01*
X143026193Y-54663807D01*
X142683837Y-54435052D01*
X142381935Y-54375000D01*
X142178065Y-54375000D01*
X141876163Y-54435052D01*
X141533807Y-54663807D01*
X141397105Y-54868397D01*
X141392258Y-54867481D01*
X141182000Y-54990482D01*
X141182000Y-56333000D01*
X141798417Y-56333000D01*
X141876163Y-56384948D01*
X142178065Y-56445000D01*
X142381935Y-56445000D01*
X142683837Y-56384948D01*
X142741901Y-56346151D01*
X142778750Y-56383000D01*
X143257560Y-56383000D01*
X143257560Y-56637000D01*
X142778750Y-56637000D01*
X142620000Y-56795750D01*
X142620000Y-57025010D01*
X142366451Y-57025010D01*
X142415000Y-56862000D01*
X142415000Y-56587000D01*
X141182000Y-56587000D01*
X141182000Y-56607000D01*
X140928000Y-56607000D01*
X140928000Y-56587000D01*
X140441200Y-56587000D01*
X140427199Y-56577645D01*
X140212804Y-56534999D01*
X140212800Y-56534999D01*
X140140416Y-56520601D01*
X140068032Y-56534999D01*
X138645000Y-56534999D01*
X138645000Y-56165750D01*
X138537250Y-56058000D01*
X139695000Y-56058000D01*
X139695000Y-56333000D01*
X140928000Y-56333000D01*
X140928000Y-54990482D01*
X140717742Y-54867481D01*
X140651884Y-54879924D01*
X140183138Y-55133533D01*
X139847125Y-55547218D01*
X139695000Y-56058000D01*
X138537250Y-56058000D01*
X138486250Y-56007000D01*
X137287000Y-56007000D01*
X137287000Y-56027000D01*
X137033000Y-56027000D01*
X137033000Y-56007000D01*
X135833750Y-56007000D01*
X135675000Y-56165750D01*
X135675000Y-56856310D01*
X135764989Y-57073562D01*
X135706289Y-57132263D01*
X135696365Y-57082374D01*
X135597409Y-56934276D01*
X135597409Y-56721681D01*
X135439840Y-56341275D01*
X135148689Y-56050124D01*
X134768283Y-55892555D01*
X134356535Y-55892555D01*
X133976129Y-56050124D01*
X133684978Y-56341275D01*
X133527409Y-56721681D01*
X133527409Y-57133429D01*
X133684978Y-57513835D01*
X133789198Y-57618055D01*
X133717730Y-57647658D01*
X133426579Y-57938809D01*
X133269010Y-58319215D01*
X133269010Y-58520642D01*
X132790000Y-58999653D01*
X132790000Y-53538071D01*
X132815000Y-53412388D01*
X132815000Y-52994887D01*
X132885000Y-52994887D01*
X132885000Y-53685113D01*
X133149138Y-54322799D01*
X133637201Y-54810862D01*
X134274887Y-55075000D01*
X134965113Y-55075000D01*
X135378692Y-54903690D01*
X135675000Y-54903690D01*
X135675000Y-55594250D01*
X135833750Y-55753000D01*
X137033000Y-55753000D01*
X137033000Y-54553750D01*
X137287000Y-54553750D01*
X137287000Y-55753000D01*
X138486250Y-55753000D01*
X138645000Y-55594250D01*
X138645000Y-54903690D01*
X138548327Y-54670301D01*
X138369698Y-54491673D01*
X138136309Y-54395000D01*
X137445750Y-54395000D01*
X137287000Y-54553750D01*
X137033000Y-54553750D01*
X136874250Y-54395000D01*
X136183691Y-54395000D01*
X135950302Y-54491673D01*
X135771673Y-54670301D01*
X135675000Y-54903690D01*
X135378692Y-54903690D01*
X135602799Y-54810862D01*
X136090862Y-54322799D01*
X136355000Y-53685113D01*
X136355000Y-52994887D01*
X136268891Y-52787000D01*
X139695000Y-52787000D01*
X139695000Y-53112000D01*
X139835707Y-53565380D01*
X140139204Y-53930402D01*
X140559286Y-54151495D01*
X140591323Y-54153635D01*
X140778000Y-54028550D01*
X140778000Y-52787000D01*
X141032000Y-52787000D01*
X141032000Y-54028550D01*
X141218677Y-54153635D01*
X141250714Y-54151495D01*
X141670796Y-53930402D01*
X141974293Y-53565380D01*
X142115000Y-53112000D01*
X142115000Y-52787000D01*
X147445000Y-52787000D01*
X147445000Y-53112000D01*
X147585707Y-53565380D01*
X147889204Y-53930402D01*
X148309286Y-54151495D01*
X148341323Y-54153635D01*
X148528000Y-54028550D01*
X148528000Y-52787000D01*
X148782000Y-52787000D01*
X148782000Y-54028550D01*
X148968677Y-54153635D01*
X149000714Y-54151495D01*
X149420796Y-53930402D01*
X149724293Y-53565380D01*
X149865000Y-53112000D01*
X149865000Y-52787000D01*
X148782000Y-52787000D01*
X148528000Y-52787000D01*
X147445000Y-52787000D01*
X142115000Y-52787000D01*
X141032000Y-52787000D01*
X140778000Y-52787000D01*
X139695000Y-52787000D01*
X136268891Y-52787000D01*
X136090862Y-52357201D01*
X135602799Y-51869138D01*
X134965113Y-51605000D01*
X134274887Y-51605000D01*
X133637201Y-51869138D01*
X133149138Y-52357201D01*
X132885000Y-52994887D01*
X132815000Y-52994887D01*
X132815000Y-51535000D01*
X140018310Y-51535000D01*
X139835707Y-51754620D01*
G36*
X158950001Y-96147884D02*
X158836843Y-96317235D01*
X158787560Y-96565000D01*
X158787560Y-97065000D01*
X158836843Y-97312765D01*
X158928541Y-97450000D01*
X158836843Y-97587235D01*
X158787560Y-97835000D01*
X158787560Y-98335000D01*
X158836843Y-98582765D01*
X158928541Y-98720000D01*
X158836843Y-98857235D01*
X158787560Y-99105000D01*
X158787560Y-99605000D01*
X158836843Y-99852765D01*
X158928541Y-99990000D01*
X158836843Y-100127235D01*
X158787560Y-100375000D01*
X158787560Y-100875000D01*
X158836843Y-101122765D01*
X158928541Y-101260000D01*
X158836843Y-101397235D01*
X158787560Y-101645000D01*
X158787560Y-102145000D01*
X158836843Y-102392765D01*
X158925911Y-102526063D01*
X158896673Y-102555301D01*
X158800000Y-102788690D01*
X158800000Y-102881250D01*
X158958750Y-103040000D01*
X160058000Y-103040000D01*
X160058000Y-103018000D01*
X160312000Y-103018000D01*
X160312000Y-103040000D01*
X161411250Y-103040000D01*
X161570000Y-102881250D01*
X161570000Y-102788690D01*
X161473327Y-102555301D01*
X161444089Y-102526063D01*
X161533157Y-102392765D01*
X161582440Y-102145000D01*
X161582440Y-101807008D01*
X161748801Y-101640648D01*
X161748800Y-103200553D01*
X161535302Y-103414052D01*
X161411250Y-103290000D01*
X160312000Y-103290000D01*
X160312000Y-103312000D01*
X160058000Y-103312000D01*
X160058000Y-103290000D01*
X158958750Y-103290000D01*
X158800000Y-103448750D01*
X158800000Y-103541310D01*
X158896673Y-103774699D01*
X158925911Y-103803937D01*
X158836843Y-103937235D01*
X158787560Y-104185000D01*
X158787560Y-104685000D01*
X158836843Y-104932765D01*
X158928541Y-105070000D01*
X158836843Y-105207235D01*
X158787560Y-105455000D01*
X158787560Y-105955000D01*
X158836843Y-106202765D01*
X158928541Y-106340000D01*
X158836843Y-106477235D01*
X158787560Y-106725000D01*
X158787560Y-107225000D01*
X158836843Y-107472765D01*
X158928541Y-107610000D01*
X158836843Y-107747235D01*
X158787560Y-107995000D01*
X158787560Y-108495000D01*
X158820858Y-108662400D01*
X158291600Y-108662400D01*
X158291600Y-96564526D01*
X158305509Y-96494600D01*
X158250405Y-96217572D01*
X158093481Y-95982719D01*
X157962276Y-95895051D01*
X158151784Y-95857355D01*
X158394906Y-95694906D01*
X158435912Y-95633536D01*
X158950001Y-95119448D01*
X158950001Y-96147884D01*
X158950001Y-96147884D01*
G37*
X158950001Y-96147884D02*
X158836843Y-96317235D01*
X158787560Y-96565000D01*
X158787560Y-97065000D01*
X158836843Y-97312765D01*
X158928541Y-97450000D01*
X158836843Y-97587235D01*
X158787560Y-97835000D01*
X158787560Y-98335000D01*
X158836843Y-98582765D01*
X158928541Y-98720000D01*
X158836843Y-98857235D01*
X158787560Y-99105000D01*
X158787560Y-99605000D01*
X158836843Y-99852765D01*
X158928541Y-99990000D01*
X158836843Y-100127235D01*
X158787560Y-100375000D01*
X158787560Y-100875000D01*
X158836843Y-101122765D01*
X158928541Y-101260000D01*
X158836843Y-101397235D01*
X158787560Y-101645000D01*
X158787560Y-102145000D01*
X158836843Y-102392765D01*
X158925911Y-102526063D01*
X158896673Y-102555301D01*
X158800000Y-102788690D01*
X158800000Y-102881250D01*
X158958750Y-103040000D01*
X160058000Y-103040000D01*
X160058000Y-103018000D01*
X160312000Y-103018000D01*
X160312000Y-103040000D01*
X161411250Y-103040000D01*
X161570000Y-102881250D01*
X161570000Y-102788690D01*
X161473327Y-102555301D01*
X161444089Y-102526063D01*
X161533157Y-102392765D01*
X161582440Y-102145000D01*
X161582440Y-101807008D01*
X161748801Y-101640648D01*
X161748800Y-103200553D01*
X161535302Y-103414052D01*
X161411250Y-103290000D01*
X160312000Y-103290000D01*
X160312000Y-103312000D01*
X160058000Y-103312000D01*
X160058000Y-103290000D01*
X158958750Y-103290000D01*
X158800000Y-103448750D01*
X158800000Y-103541310D01*
X158896673Y-103774699D01*
X158925911Y-103803937D01*
X158836843Y-103937235D01*
X158787560Y-104185000D01*
X158787560Y-104685000D01*
X158836843Y-104932765D01*
X158928541Y-105070000D01*
X158836843Y-105207235D01*
X158787560Y-105455000D01*
X158787560Y-105955000D01*
X158836843Y-106202765D01*
X158928541Y-106340000D01*
X158836843Y-106477235D01*
X158787560Y-106725000D01*
X158787560Y-107225000D01*
X158836843Y-107472765D01*
X158928541Y-107610000D01*
X158836843Y-107747235D01*
X158787560Y-107995000D01*
X158787560Y-108495000D01*
X158820858Y-108662400D01*
X158291600Y-108662400D01*
X158291600Y-96564526D01*
X158305509Y-96494600D01*
X158250405Y-96217572D01*
X158093481Y-95982719D01*
X157962276Y-95895051D01*
X158151784Y-95857355D01*
X158394906Y-95694906D01*
X158435912Y-95633536D01*
X158950001Y-95119448D01*
X158950001Y-96147884D01*
G36*
X141746590Y-74128537D02*
X141783488Y-74183759D01*
X141837898Y-74457294D01*
X142031084Y-74746416D01*
X142320206Y-74939602D01*
X142661250Y-75007440D01*
X143148750Y-75007440D01*
X143202335Y-74996781D01*
X144874091Y-76668537D01*
X144915095Y-76729905D01*
X145158217Y-76892354D01*
X145372612Y-76935000D01*
X145372615Y-76935000D01*
X145444999Y-76949398D01*
X145517383Y-76935000D01*
X151740118Y-76935000D01*
X151964375Y-77270625D01*
X152455582Y-77598839D01*
X152888744Y-77685000D01*
X153050553Y-77685000D01*
X148908973Y-81826581D01*
X148847606Y-81867585D01*
X148806602Y-81928952D01*
X148806601Y-81928953D01*
X148685156Y-82110708D01*
X148628112Y-82397490D01*
X148642511Y-82469879D01*
X148642510Y-89457560D01*
X148346250Y-89457560D01*
X148005206Y-89525398D01*
X147716084Y-89718584D01*
X147522898Y-90007706D01*
X147455060Y-90348750D01*
X147455060Y-91261250D01*
X147522898Y-91602294D01*
X147716084Y-91891416D01*
X147855001Y-91984238D01*
X147855000Y-92855200D01*
X147777191Y-92907191D01*
X147636843Y-93117235D01*
X147587560Y-93365000D01*
X147587560Y-94865000D01*
X147636843Y-95112765D01*
X147777191Y-95322809D01*
X147987235Y-95463157D01*
X148235000Y-95512440D01*
X148600729Y-95512440D01*
X148385302Y-95601673D01*
X148206673Y-95780301D01*
X148206241Y-95781345D01*
X148189874Y-95784600D01*
X147982772Y-95825795D01*
X147747919Y-95982719D01*
X147590995Y-96217572D01*
X147552164Y-96412790D01*
X147533157Y-96317235D01*
X147420000Y-96147885D01*
X147420000Y-93925387D01*
X147434399Y-93853000D01*
X147420000Y-93780612D01*
X147420000Y-83888311D01*
X147562431Y-83745880D01*
X147720000Y-83365474D01*
X147720000Y-82953726D01*
X147562431Y-82573320D01*
X147271280Y-82282169D01*
X146890874Y-82124600D01*
X146664047Y-82124600D01*
X138595343Y-74055897D01*
X138674092Y-73660000D01*
X138558839Y-73080582D01*
X138230625Y-72589375D01*
X137932239Y-72390000D01*
X138230625Y-72190625D01*
X138558839Y-71699418D01*
X138674092Y-71120000D01*
X138658210Y-71040156D01*
X141746590Y-74128537D01*
X141746590Y-74128537D01*
G37*
X141746590Y-74128537D02*
X141783488Y-74183759D01*
X141837898Y-74457294D01*
X142031084Y-74746416D01*
X142320206Y-74939602D01*
X142661250Y-75007440D01*
X143148750Y-75007440D01*
X143202335Y-74996781D01*
X144874091Y-76668537D01*
X144915095Y-76729905D01*
X145158217Y-76892354D01*
X145372612Y-76935000D01*
X145372615Y-76935000D01*
X145444999Y-76949398D01*
X145517383Y-76935000D01*
X151740118Y-76935000D01*
X151964375Y-77270625D01*
X152455582Y-77598839D01*
X152888744Y-77685000D01*
X153050553Y-77685000D01*
X148908973Y-81826581D01*
X148847606Y-81867585D01*
X148806602Y-81928952D01*
X148806601Y-81928953D01*
X148685156Y-82110708D01*
X148628112Y-82397490D01*
X148642511Y-82469879D01*
X148642510Y-89457560D01*
X148346250Y-89457560D01*
X148005206Y-89525398D01*
X147716084Y-89718584D01*
X147522898Y-90007706D01*
X147455060Y-90348750D01*
X147455060Y-91261250D01*
X147522898Y-91602294D01*
X147716084Y-91891416D01*
X147855001Y-91984238D01*
X147855000Y-92855200D01*
X147777191Y-92907191D01*
X147636843Y-93117235D01*
X147587560Y-93365000D01*
X147587560Y-94865000D01*
X147636843Y-95112765D01*
X147777191Y-95322809D01*
X147987235Y-95463157D01*
X148235000Y-95512440D01*
X148600729Y-95512440D01*
X148385302Y-95601673D01*
X148206673Y-95780301D01*
X148206241Y-95781345D01*
X148189874Y-95784600D01*
X147982772Y-95825795D01*
X147747919Y-95982719D01*
X147590995Y-96217572D01*
X147552164Y-96412790D01*
X147533157Y-96317235D01*
X147420000Y-96147885D01*
X147420000Y-93925387D01*
X147434399Y-93853000D01*
X147420000Y-93780612D01*
X147420000Y-83888311D01*
X147562431Y-83745880D01*
X147720000Y-83365474D01*
X147720000Y-82953726D01*
X147562431Y-82573320D01*
X147271280Y-82282169D01*
X146890874Y-82124600D01*
X146664047Y-82124600D01*
X138595343Y-74055897D01*
X138674092Y-73660000D01*
X138558839Y-73080582D01*
X138230625Y-72589375D01*
X137932239Y-72390000D01*
X138230625Y-72190625D01*
X138558839Y-71699418D01*
X138674092Y-71120000D01*
X138658210Y-71040156D01*
X141746590Y-74128537D01*
G36*
X151150000Y-93988000D02*
X151172000Y-93988000D01*
X151172000Y-94242000D01*
X151150000Y-94242000D01*
X151150000Y-95341250D01*
X151301310Y-95492560D01*
X151285000Y-95492560D01*
X151037235Y-95541843D01*
X151025000Y-95550018D01*
X151012765Y-95541843D01*
X150765000Y-95492560D01*
X150748690Y-95492560D01*
X150900000Y-95341250D01*
X150900000Y-94242000D01*
X150878000Y-94242000D01*
X150878000Y-93988000D01*
X150900000Y-93988000D01*
X150900000Y-93968000D01*
X151150000Y-93968000D01*
X151150000Y-93988000D01*
X151150000Y-93988000D01*
G37*
X151150000Y-93988000D02*
X151172000Y-93988000D01*
X151172000Y-94242000D01*
X151150000Y-94242000D01*
X151150000Y-95341250D01*
X151301310Y-95492560D01*
X151285000Y-95492560D01*
X151037235Y-95541843D01*
X151025000Y-95550018D01*
X151012765Y-95541843D01*
X150765000Y-95492560D01*
X150748690Y-95492560D01*
X150900000Y-95341250D01*
X150900000Y-94242000D01*
X150878000Y-94242000D01*
X150878000Y-93988000D01*
X150900000Y-93988000D01*
X150900000Y-93968000D01*
X151150000Y-93968000D01*
X151150000Y-93988000D01*
G36*
X164029375Y-64570625D02*
X164327761Y-64770000D01*
X164029375Y-64969375D01*
X163701161Y-65460582D01*
X163585908Y-66040000D01*
X163701161Y-66619418D01*
X164029375Y-67110625D01*
X164327761Y-67310000D01*
X164029375Y-67509375D01*
X163701161Y-68000582D01*
X163585908Y-68580000D01*
X163701161Y-69159418D01*
X164029375Y-69650625D01*
X164327761Y-69850000D01*
X164029375Y-70049375D01*
X163701161Y-70540582D01*
X163585908Y-71120000D01*
X163701161Y-71699418D01*
X164029375Y-72190625D01*
X164327761Y-72390000D01*
X164029375Y-72589375D01*
X163701161Y-73080582D01*
X163585908Y-73660000D01*
X163701161Y-74239418D01*
X164029375Y-74730625D01*
X164327761Y-74930000D01*
X164029375Y-75129375D01*
X163701161Y-75620582D01*
X163585908Y-76200000D01*
X163664656Y-76595897D01*
X158535463Y-81725091D01*
X158474096Y-81766095D01*
X158433092Y-81827462D01*
X158433091Y-81827463D01*
X158311646Y-82009218D01*
X158254602Y-82296000D01*
X158269001Y-82368389D01*
X158269001Y-85394500D01*
X157765750Y-85394500D01*
X157607000Y-85553250D01*
X157607000Y-86390000D01*
X157627000Y-86390000D01*
X157627000Y-86644000D01*
X157607000Y-86644000D01*
X157607000Y-86664000D01*
X157353000Y-86664000D01*
X157353000Y-86644000D01*
X156303750Y-86644000D01*
X156145000Y-86802750D01*
X156145000Y-87130809D01*
X156241673Y-87364198D01*
X156394767Y-87517293D01*
X156393584Y-87518084D01*
X156200398Y-87807206D01*
X156132560Y-88148250D01*
X156132560Y-88635750D01*
X156200398Y-88976794D01*
X156388001Y-89257560D01*
X156325000Y-89257560D01*
X156077235Y-89306843D01*
X155867191Y-89447191D01*
X155726843Y-89657235D01*
X155677560Y-89905000D01*
X155677560Y-91518113D01*
X155472440Y-91312994D01*
X155472440Y-89905000D01*
X155423157Y-89657235D01*
X155282809Y-89447191D01*
X155072765Y-89306843D01*
X154977519Y-89287897D01*
X155010416Y-89265916D01*
X155203602Y-88976794D01*
X155271440Y-88635750D01*
X155271440Y-88148250D01*
X155203602Y-87807206D01*
X155010416Y-87518084D01*
X155009233Y-87517293D01*
X155162327Y-87364198D01*
X155259000Y-87130809D01*
X155259000Y-86802750D01*
X155100250Y-86644000D01*
X154051000Y-86644000D01*
X154051000Y-86664000D01*
X153797000Y-86664000D01*
X153797000Y-86644000D01*
X153777000Y-86644000D01*
X153777000Y-86390000D01*
X153797000Y-86390000D01*
X153797000Y-86370000D01*
X154051000Y-86370000D01*
X154051000Y-86390000D01*
X155100250Y-86390000D01*
X155259000Y-86231250D01*
X155259000Y-85903191D01*
X156145000Y-85903191D01*
X156145000Y-86231250D01*
X156303750Y-86390000D01*
X157353000Y-86390000D01*
X157353000Y-85553250D01*
X157194250Y-85394500D01*
X156653690Y-85394500D01*
X156420301Y-85491173D01*
X156241673Y-85669802D01*
X156145000Y-85903191D01*
X155259000Y-85903191D01*
X155162327Y-85669802D01*
X154983699Y-85491173D01*
X154750310Y-85394500D01*
X154616953Y-85394500D01*
X157193539Y-82817914D01*
X157254906Y-82776910D01*
X157417355Y-82533788D01*
X157460001Y-82319393D01*
X157460001Y-82319390D01*
X157474399Y-82247006D01*
X157460001Y-82174622D01*
X157460001Y-77548337D01*
X157535582Y-77598839D01*
X157968744Y-77685000D01*
X158261256Y-77685000D01*
X158694418Y-77598839D01*
X159185625Y-77270625D01*
X159197816Y-77252381D01*
X159206843Y-77297765D01*
X159347191Y-77507809D01*
X159557235Y-77648157D01*
X159805000Y-77697440D01*
X161505000Y-77697440D01*
X161752765Y-77648157D01*
X161962809Y-77507809D01*
X162103157Y-77297765D01*
X162152440Y-77050000D01*
X162152440Y-75350000D01*
X162103157Y-75102235D01*
X161962809Y-74892191D01*
X161752765Y-74751843D01*
X161505000Y-74702560D01*
X159805000Y-74702560D01*
X159557235Y-74751843D01*
X159347191Y-74892191D01*
X159206843Y-75102235D01*
X159197816Y-75147619D01*
X159185625Y-75129375D01*
X158694418Y-74801161D01*
X158261256Y-74715000D01*
X157968744Y-74715000D01*
X157535582Y-74801161D01*
X157165135Y-75048686D01*
X156697912Y-74581464D01*
X156656906Y-74520094D01*
X156413784Y-74357645D01*
X156199389Y-74314999D01*
X156199385Y-74314999D01*
X156127001Y-74300601D01*
X156054617Y-74314999D01*
X154257385Y-74314999D01*
X154185001Y-74300601D01*
X154112617Y-74314999D01*
X154112613Y-74314999D01*
X153898218Y-74357645D01*
X153655096Y-74520094D01*
X153614090Y-74581464D01*
X153430897Y-74764657D01*
X153181256Y-74715000D01*
X152888744Y-74715000D01*
X152455582Y-74801161D01*
X151964375Y-75129375D01*
X151740118Y-75465000D01*
X145749447Y-75465000D01*
X145247400Y-74962953D01*
X145364794Y-74939602D01*
X145653916Y-74746416D01*
X145847102Y-74457294D01*
X145914940Y-74116250D01*
X145914940Y-73203750D01*
X145847102Y-72862706D01*
X145653916Y-72573584D01*
X145515000Y-72480763D01*
X145515000Y-72279192D01*
X145623916Y-72206416D01*
X145817102Y-71917294D01*
X145829493Y-71855000D01*
X151782616Y-71855000D01*
X151855000Y-71869398D01*
X151885224Y-71863386D01*
X152030569Y-72214280D01*
X152321720Y-72505431D01*
X152702126Y-72663000D01*
X153113874Y-72663000D01*
X153494280Y-72505431D01*
X153785431Y-72214280D01*
X153943000Y-71833874D01*
X153943000Y-71422126D01*
X153785431Y-71041720D01*
X153494280Y-70750569D01*
X153331361Y-70683086D01*
X153427007Y-70587440D01*
X154385000Y-70587440D01*
X154632765Y-70538157D01*
X154842809Y-70397809D01*
X154983157Y-70187765D01*
X155032440Y-69940000D01*
X155032440Y-69775000D01*
X158237560Y-69775000D01*
X158237560Y-69940000D01*
X158286843Y-70187765D01*
X158427191Y-70397809D01*
X158637235Y-70538157D01*
X158885000Y-70587440D01*
X160685000Y-70587440D01*
X160932765Y-70538157D01*
X161142809Y-70397809D01*
X161283157Y-70187765D01*
X161332440Y-69940000D01*
X161332440Y-68840000D01*
X161283157Y-68592235D01*
X161142809Y-68382191D01*
X161076537Y-68337909D01*
X161803539Y-67610908D01*
X161864906Y-67569904D01*
X162027355Y-67326782D01*
X162070001Y-67112387D01*
X162070001Y-67112384D01*
X162084399Y-67040000D01*
X162070001Y-66967616D01*
X162070001Y-64916625D01*
X162413744Y-64985000D01*
X162706256Y-64985000D01*
X163139418Y-64898839D01*
X163630625Y-64570625D01*
X163830000Y-64272239D01*
X164029375Y-64570625D01*
X164029375Y-64570625D01*
G37*
X164029375Y-64570625D02*
X164327761Y-64770000D01*
X164029375Y-64969375D01*
X163701161Y-65460582D01*
X163585908Y-66040000D01*
X163701161Y-66619418D01*
X164029375Y-67110625D01*
X164327761Y-67310000D01*
X164029375Y-67509375D01*
X163701161Y-68000582D01*
X163585908Y-68580000D01*
X163701161Y-69159418D01*
X164029375Y-69650625D01*
X164327761Y-69850000D01*
X164029375Y-70049375D01*
X163701161Y-70540582D01*
X163585908Y-71120000D01*
X163701161Y-71699418D01*
X164029375Y-72190625D01*
X164327761Y-72390000D01*
X164029375Y-72589375D01*
X163701161Y-73080582D01*
X163585908Y-73660000D01*
X163701161Y-74239418D01*
X164029375Y-74730625D01*
X164327761Y-74930000D01*
X164029375Y-75129375D01*
X163701161Y-75620582D01*
X163585908Y-76200000D01*
X163664656Y-76595897D01*
X158535463Y-81725091D01*
X158474096Y-81766095D01*
X158433092Y-81827462D01*
X158433091Y-81827463D01*
X158311646Y-82009218D01*
X158254602Y-82296000D01*
X158269001Y-82368389D01*
X158269001Y-85394500D01*
X157765750Y-85394500D01*
X157607000Y-85553250D01*
X157607000Y-86390000D01*
X157627000Y-86390000D01*
X157627000Y-86644000D01*
X157607000Y-86644000D01*
X157607000Y-86664000D01*
X157353000Y-86664000D01*
X157353000Y-86644000D01*
X156303750Y-86644000D01*
X156145000Y-86802750D01*
X156145000Y-87130809D01*
X156241673Y-87364198D01*
X156394767Y-87517293D01*
X156393584Y-87518084D01*
X156200398Y-87807206D01*
X156132560Y-88148250D01*
X156132560Y-88635750D01*
X156200398Y-88976794D01*
X156388001Y-89257560D01*
X156325000Y-89257560D01*
X156077235Y-89306843D01*
X155867191Y-89447191D01*
X155726843Y-89657235D01*
X155677560Y-89905000D01*
X155677560Y-91518113D01*
X155472440Y-91312994D01*
X155472440Y-89905000D01*
X155423157Y-89657235D01*
X155282809Y-89447191D01*
X155072765Y-89306843D01*
X154977519Y-89287897D01*
X155010416Y-89265916D01*
X155203602Y-88976794D01*
X155271440Y-88635750D01*
X155271440Y-88148250D01*
X155203602Y-87807206D01*
X155010416Y-87518084D01*
X155009233Y-87517293D01*
X155162327Y-87364198D01*
X155259000Y-87130809D01*
X155259000Y-86802750D01*
X155100250Y-86644000D01*
X154051000Y-86644000D01*
X154051000Y-86664000D01*
X153797000Y-86664000D01*
X153797000Y-86644000D01*
X153777000Y-86644000D01*
X153777000Y-86390000D01*
X153797000Y-86390000D01*
X153797000Y-86370000D01*
X154051000Y-86370000D01*
X154051000Y-86390000D01*
X155100250Y-86390000D01*
X155259000Y-86231250D01*
X155259000Y-85903191D01*
X156145000Y-85903191D01*
X156145000Y-86231250D01*
X156303750Y-86390000D01*
X157353000Y-86390000D01*
X157353000Y-85553250D01*
X157194250Y-85394500D01*
X156653690Y-85394500D01*
X156420301Y-85491173D01*
X156241673Y-85669802D01*
X156145000Y-85903191D01*
X155259000Y-85903191D01*
X155162327Y-85669802D01*
X154983699Y-85491173D01*
X154750310Y-85394500D01*
X154616953Y-85394500D01*
X157193539Y-82817914D01*
X157254906Y-82776910D01*
X157417355Y-82533788D01*
X157460001Y-82319393D01*
X157460001Y-82319390D01*
X157474399Y-82247006D01*
X157460001Y-82174622D01*
X157460001Y-77548337D01*
X157535582Y-77598839D01*
X157968744Y-77685000D01*
X158261256Y-77685000D01*
X158694418Y-77598839D01*
X159185625Y-77270625D01*
X159197816Y-77252381D01*
X159206843Y-77297765D01*
X159347191Y-77507809D01*
X159557235Y-77648157D01*
X159805000Y-77697440D01*
X161505000Y-77697440D01*
X161752765Y-77648157D01*
X161962809Y-77507809D01*
X162103157Y-77297765D01*
X162152440Y-77050000D01*
X162152440Y-75350000D01*
X162103157Y-75102235D01*
X161962809Y-74892191D01*
X161752765Y-74751843D01*
X161505000Y-74702560D01*
X159805000Y-74702560D01*
X159557235Y-74751843D01*
X159347191Y-74892191D01*
X159206843Y-75102235D01*
X159197816Y-75147619D01*
X159185625Y-75129375D01*
X158694418Y-74801161D01*
X158261256Y-74715000D01*
X157968744Y-74715000D01*
X157535582Y-74801161D01*
X157165135Y-75048686D01*
X156697912Y-74581464D01*
X156656906Y-74520094D01*
X156413784Y-74357645D01*
X156199389Y-74314999D01*
X156199385Y-74314999D01*
X156127001Y-74300601D01*
X156054617Y-74314999D01*
X154257385Y-74314999D01*
X154185001Y-74300601D01*
X154112617Y-74314999D01*
X154112613Y-74314999D01*
X153898218Y-74357645D01*
X153655096Y-74520094D01*
X153614090Y-74581464D01*
X153430897Y-74764657D01*
X153181256Y-74715000D01*
X152888744Y-74715000D01*
X152455582Y-74801161D01*
X151964375Y-75129375D01*
X151740118Y-75465000D01*
X145749447Y-75465000D01*
X145247400Y-74962953D01*
X145364794Y-74939602D01*
X145653916Y-74746416D01*
X145847102Y-74457294D01*
X145914940Y-74116250D01*
X145914940Y-73203750D01*
X145847102Y-72862706D01*
X145653916Y-72573584D01*
X145515000Y-72480763D01*
X145515000Y-72279192D01*
X145623916Y-72206416D01*
X145817102Y-71917294D01*
X145829493Y-71855000D01*
X151782616Y-71855000D01*
X151855000Y-71869398D01*
X151885224Y-71863386D01*
X152030569Y-72214280D01*
X152321720Y-72505431D01*
X152702126Y-72663000D01*
X153113874Y-72663000D01*
X153494280Y-72505431D01*
X153785431Y-72214280D01*
X153943000Y-71833874D01*
X153943000Y-71422126D01*
X153785431Y-71041720D01*
X153494280Y-70750569D01*
X153331361Y-70683086D01*
X153427007Y-70587440D01*
X154385000Y-70587440D01*
X154632765Y-70538157D01*
X154842809Y-70397809D01*
X154983157Y-70187765D01*
X155032440Y-69940000D01*
X155032440Y-69775000D01*
X158237560Y-69775000D01*
X158237560Y-69940000D01*
X158286843Y-70187765D01*
X158427191Y-70397809D01*
X158637235Y-70538157D01*
X158885000Y-70587440D01*
X160685000Y-70587440D01*
X160932765Y-70538157D01*
X161142809Y-70397809D01*
X161283157Y-70187765D01*
X161332440Y-69940000D01*
X161332440Y-68840000D01*
X161283157Y-68592235D01*
X161142809Y-68382191D01*
X161076537Y-68337909D01*
X161803539Y-67610908D01*
X161864906Y-67569904D01*
X162027355Y-67326782D01*
X162070001Y-67112387D01*
X162070001Y-67112384D01*
X162084399Y-67040000D01*
X162070001Y-66967616D01*
X162070001Y-64916625D01*
X162413744Y-64985000D01*
X162706256Y-64985000D01*
X163139418Y-64898839D01*
X163630625Y-64570625D01*
X163830000Y-64272239D01*
X164029375Y-64570625D01*
G36*
X141837898Y-64297294D02*
X142031084Y-64586416D01*
X142305836Y-64770000D01*
X142031084Y-64953584D01*
X141837898Y-65242706D01*
X141770060Y-65583750D01*
X141770060Y-66496250D01*
X141837898Y-66837294D01*
X142031084Y-67126416D01*
X142240179Y-67266130D01*
X142057802Y-67341673D01*
X141879173Y-67520301D01*
X141782500Y-67753690D01*
X141782500Y-68294250D01*
X141941250Y-68453000D01*
X142778000Y-68453000D01*
X142778000Y-68433000D01*
X143032000Y-68433000D01*
X143032000Y-68453000D01*
X143052000Y-68453000D01*
X143052000Y-68707000D01*
X143032000Y-68707000D01*
X143032000Y-69756250D01*
X143110750Y-69835000D01*
X143002000Y-69943750D01*
X143002000Y-70993000D01*
X143022000Y-70993000D01*
X143022000Y-71247000D01*
X143002000Y-71247000D01*
X143002000Y-71267000D01*
X142748000Y-71267000D01*
X142748000Y-71247000D01*
X141911250Y-71247000D01*
X141752500Y-71405750D01*
X141752500Y-71946310D01*
X141829747Y-72132800D01*
X139990637Y-70293690D01*
X141752500Y-70293690D01*
X141752500Y-70834250D01*
X141911250Y-70993000D01*
X142748000Y-70993000D01*
X142748000Y-69943750D01*
X142669250Y-69865000D01*
X142778000Y-69756250D01*
X142778000Y-68707000D01*
X141941250Y-68707000D01*
X141782500Y-68865750D01*
X141782500Y-69406310D01*
X141879173Y-69639699D01*
X142057802Y-69818327D01*
X142119267Y-69843787D01*
X142027802Y-69881673D01*
X141849173Y-70060301D01*
X141752500Y-70293690D01*
X139990637Y-70293690D01*
X139045001Y-69348055D01*
X139045001Y-64848337D01*
X139120582Y-64898839D01*
X139553744Y-64985000D01*
X139846256Y-64985000D01*
X140279418Y-64898839D01*
X140770625Y-64570625D01*
X140994882Y-64235000D01*
X141825507Y-64235000D01*
X141837898Y-64297294D01*
X141837898Y-64297294D01*
G37*
X141837898Y-64297294D02*
X142031084Y-64586416D01*
X142305836Y-64770000D01*
X142031084Y-64953584D01*
X141837898Y-65242706D01*
X141770060Y-65583750D01*
X141770060Y-66496250D01*
X141837898Y-66837294D01*
X142031084Y-67126416D01*
X142240179Y-67266130D01*
X142057802Y-67341673D01*
X141879173Y-67520301D01*
X141782500Y-67753690D01*
X141782500Y-68294250D01*
X141941250Y-68453000D01*
X142778000Y-68453000D01*
X142778000Y-68433000D01*
X143032000Y-68433000D01*
X143032000Y-68453000D01*
X143052000Y-68453000D01*
X143052000Y-68707000D01*
X143032000Y-68707000D01*
X143032000Y-69756250D01*
X143110750Y-69835000D01*
X143002000Y-69943750D01*
X143002000Y-70993000D01*
X143022000Y-70993000D01*
X143022000Y-71247000D01*
X143002000Y-71247000D01*
X143002000Y-71267000D01*
X142748000Y-71267000D01*
X142748000Y-71247000D01*
X141911250Y-71247000D01*
X141752500Y-71405750D01*
X141752500Y-71946310D01*
X141829747Y-72132800D01*
X139990637Y-70293690D01*
X141752500Y-70293690D01*
X141752500Y-70834250D01*
X141911250Y-70993000D01*
X142748000Y-70993000D01*
X142748000Y-69943750D01*
X142669250Y-69865000D01*
X142778000Y-69756250D01*
X142778000Y-68707000D01*
X141941250Y-68707000D01*
X141782500Y-68865750D01*
X141782500Y-69406310D01*
X141879173Y-69639699D01*
X142057802Y-69818327D01*
X142119267Y-69843787D01*
X142027802Y-69881673D01*
X141849173Y-70060301D01*
X141752500Y-70293690D01*
X139990637Y-70293690D01*
X139045001Y-69348055D01*
X139045001Y-64848337D01*
X139120582Y-64898839D01*
X139553744Y-64985000D01*
X139846256Y-64985000D01*
X140279418Y-64898839D01*
X140770625Y-64570625D01*
X140994882Y-64235000D01*
X141825507Y-64235000D01*
X141837898Y-64297294D01*
G36*
X158638217Y-60825000D02*
X158845554Y-60825000D01*
X158897000Y-60876446D01*
X158897000Y-61087000D01*
X158877000Y-61087000D01*
X158877000Y-61927954D01*
X159051874Y-62054119D01*
X159310209Y-61947127D01*
X159645323Y-61657604D01*
X159656303Y-61635749D01*
X160600002Y-62579449D01*
X160600002Y-64505000D01*
X160070750Y-64505000D01*
X159912000Y-64663750D01*
X159912000Y-65563000D01*
X159932000Y-65563000D01*
X159932000Y-65817000D01*
X159912000Y-65817000D01*
X159912000Y-66716250D01*
X160070750Y-66875000D01*
X160460553Y-66875000D01*
X159766463Y-67569091D01*
X159705096Y-67610095D01*
X159664092Y-67671462D01*
X159664091Y-67671463D01*
X159542646Y-67853218D01*
X159485602Y-68140000D01*
X159496057Y-68192560D01*
X158885000Y-68192560D01*
X158637235Y-68241843D01*
X158542715Y-68305000D01*
X154727285Y-68305000D01*
X154632765Y-68241843D01*
X154385000Y-68192560D01*
X152585000Y-68192560D01*
X152337235Y-68241843D01*
X152127191Y-68382191D01*
X151986843Y-68592235D01*
X151937560Y-68840000D01*
X151937560Y-69940000D01*
X151947182Y-69988372D01*
X151550554Y-70385000D01*
X145829493Y-70385000D01*
X145817102Y-70322706D01*
X145623916Y-70033584D01*
X145363824Y-69859795D01*
X145364794Y-69859602D01*
X145653916Y-69666416D01*
X145847102Y-69377294D01*
X145914940Y-69036250D01*
X145914940Y-68484506D01*
X148423696Y-65975750D01*
X151950000Y-65975750D01*
X151950000Y-66366310D01*
X152046673Y-66599699D01*
X152225302Y-66778327D01*
X152458691Y-66875000D01*
X153199250Y-66875000D01*
X153358000Y-66716250D01*
X153358000Y-65817000D01*
X153612000Y-65817000D01*
X153612000Y-66716250D01*
X153770750Y-66875000D01*
X154511309Y-66875000D01*
X154744698Y-66778327D01*
X154923327Y-66599699D01*
X155020000Y-66366310D01*
X155020000Y-65975750D01*
X158250000Y-65975750D01*
X158250000Y-66366310D01*
X158346673Y-66599699D01*
X158525302Y-66778327D01*
X158758691Y-66875000D01*
X159499250Y-66875000D01*
X159658000Y-66716250D01*
X159658000Y-65817000D01*
X158408750Y-65817000D01*
X158250000Y-65975750D01*
X155020000Y-65975750D01*
X154861250Y-65817000D01*
X153612000Y-65817000D01*
X153358000Y-65817000D01*
X152108750Y-65817000D01*
X151950000Y-65975750D01*
X148423696Y-65975750D01*
X149385756Y-65013690D01*
X151950000Y-65013690D01*
X151950000Y-65404250D01*
X152108750Y-65563000D01*
X153358000Y-65563000D01*
X153358000Y-64663750D01*
X153612000Y-64663750D01*
X153612000Y-65563000D01*
X154861250Y-65563000D01*
X155020000Y-65404250D01*
X155020000Y-65013690D01*
X158250000Y-65013690D01*
X158250000Y-65404250D01*
X158408750Y-65563000D01*
X159658000Y-65563000D01*
X159658000Y-64663750D01*
X159499250Y-64505000D01*
X158758691Y-64505000D01*
X158525302Y-64601673D01*
X158346673Y-64780301D01*
X158250000Y-65013690D01*
X155020000Y-65013690D01*
X154923327Y-64780301D01*
X154744698Y-64601673D01*
X154511309Y-64505000D01*
X153770750Y-64505000D01*
X153612000Y-64663750D01*
X153358000Y-64663750D01*
X153199250Y-64505000D01*
X152458691Y-64505000D01*
X152225302Y-64601673D01*
X152046673Y-64780301D01*
X151950000Y-65013690D01*
X149385756Y-65013690D01*
X150342007Y-64057440D01*
X151022000Y-64057440D01*
X151269765Y-64008157D01*
X151479809Y-63867809D01*
X151595277Y-63695000D01*
X152297616Y-63695000D01*
X152370000Y-63709398D01*
X152442384Y-63695000D01*
X152442388Y-63695000D01*
X152656783Y-63652354D01*
X152899905Y-63489905D01*
X152940911Y-63428535D01*
X154138538Y-62230909D01*
X154199905Y-62189905D01*
X154268036Y-62087940D01*
X154417765Y-62058157D01*
X154505817Y-61999322D01*
X154638126Y-62054119D01*
X154813000Y-61927954D01*
X154813000Y-61482322D01*
X154817440Y-61460000D01*
X154817440Y-61087000D01*
X155067000Y-61087000D01*
X155067000Y-61927954D01*
X155241874Y-62054119D01*
X155500209Y-61947127D01*
X155575000Y-61882511D01*
X155649791Y-61947127D01*
X155908126Y-62054119D01*
X156083000Y-61927954D01*
X156083000Y-61087000D01*
X155067000Y-61087000D01*
X154817440Y-61087000D01*
X154817440Y-60822856D01*
X154828217Y-60825000D01*
X155051783Y-60825000D01*
X155067000Y-60821973D01*
X155067000Y-60833000D01*
X156083000Y-60833000D01*
X156083000Y-60821973D01*
X156098217Y-60825000D01*
X156321783Y-60825000D01*
X156337000Y-60821973D01*
X156337000Y-60833000D01*
X156348027Y-60833000D01*
X156322765Y-60960000D01*
X156348027Y-61087000D01*
X156337000Y-61087000D01*
X156337000Y-61927954D01*
X156511874Y-62054119D01*
X156770209Y-61947127D01*
X156833090Y-61892801D01*
X157037145Y-62029146D01*
X157368217Y-62095000D01*
X157591783Y-62095000D01*
X157922855Y-62029146D01*
X158126910Y-61892801D01*
X158189791Y-61947127D01*
X158448126Y-62054119D01*
X158623000Y-61927954D01*
X158623000Y-61087000D01*
X158611973Y-61087000D01*
X158637235Y-60960000D01*
X158611973Y-60833000D01*
X158623000Y-60833000D01*
X158623000Y-60821973D01*
X158638217Y-60825000D01*
X158638217Y-60825000D01*
G37*
X158638217Y-60825000D02*
X158845554Y-60825000D01*
X158897000Y-60876446D01*
X158897000Y-61087000D01*
X158877000Y-61087000D01*
X158877000Y-61927954D01*
X159051874Y-62054119D01*
X159310209Y-61947127D01*
X159645323Y-61657604D01*
X159656303Y-61635749D01*
X160600002Y-62579449D01*
X160600002Y-64505000D01*
X160070750Y-64505000D01*
X159912000Y-64663750D01*
X159912000Y-65563000D01*
X159932000Y-65563000D01*
X159932000Y-65817000D01*
X159912000Y-65817000D01*
X159912000Y-66716250D01*
X160070750Y-66875000D01*
X160460553Y-66875000D01*
X159766463Y-67569091D01*
X159705096Y-67610095D01*
X159664092Y-67671462D01*
X159664091Y-67671463D01*
X159542646Y-67853218D01*
X159485602Y-68140000D01*
X159496057Y-68192560D01*
X158885000Y-68192560D01*
X158637235Y-68241843D01*
X158542715Y-68305000D01*
X154727285Y-68305000D01*
X154632765Y-68241843D01*
X154385000Y-68192560D01*
X152585000Y-68192560D01*
X152337235Y-68241843D01*
X152127191Y-68382191D01*
X151986843Y-68592235D01*
X151937560Y-68840000D01*
X151937560Y-69940000D01*
X151947182Y-69988372D01*
X151550554Y-70385000D01*
X145829493Y-70385000D01*
X145817102Y-70322706D01*
X145623916Y-70033584D01*
X145363824Y-69859795D01*
X145364794Y-69859602D01*
X145653916Y-69666416D01*
X145847102Y-69377294D01*
X145914940Y-69036250D01*
X145914940Y-68484506D01*
X148423696Y-65975750D01*
X151950000Y-65975750D01*
X151950000Y-66366310D01*
X152046673Y-66599699D01*
X152225302Y-66778327D01*
X152458691Y-66875000D01*
X153199250Y-66875000D01*
X153358000Y-66716250D01*
X153358000Y-65817000D01*
X153612000Y-65817000D01*
X153612000Y-66716250D01*
X153770750Y-66875000D01*
X154511309Y-66875000D01*
X154744698Y-66778327D01*
X154923327Y-66599699D01*
X155020000Y-66366310D01*
X155020000Y-65975750D01*
X158250000Y-65975750D01*
X158250000Y-66366310D01*
X158346673Y-66599699D01*
X158525302Y-66778327D01*
X158758691Y-66875000D01*
X159499250Y-66875000D01*
X159658000Y-66716250D01*
X159658000Y-65817000D01*
X158408750Y-65817000D01*
X158250000Y-65975750D01*
X155020000Y-65975750D01*
X154861250Y-65817000D01*
X153612000Y-65817000D01*
X153358000Y-65817000D01*
X152108750Y-65817000D01*
X151950000Y-65975750D01*
X148423696Y-65975750D01*
X149385756Y-65013690D01*
X151950000Y-65013690D01*
X151950000Y-65404250D01*
X152108750Y-65563000D01*
X153358000Y-65563000D01*
X153358000Y-64663750D01*
X153612000Y-64663750D01*
X153612000Y-65563000D01*
X154861250Y-65563000D01*
X155020000Y-65404250D01*
X155020000Y-65013690D01*
X158250000Y-65013690D01*
X158250000Y-65404250D01*
X158408750Y-65563000D01*
X159658000Y-65563000D01*
X159658000Y-64663750D01*
X159499250Y-64505000D01*
X158758691Y-64505000D01*
X158525302Y-64601673D01*
X158346673Y-64780301D01*
X158250000Y-65013690D01*
X155020000Y-65013690D01*
X154923327Y-64780301D01*
X154744698Y-64601673D01*
X154511309Y-64505000D01*
X153770750Y-64505000D01*
X153612000Y-64663750D01*
X153358000Y-64663750D01*
X153199250Y-64505000D01*
X152458691Y-64505000D01*
X152225302Y-64601673D01*
X152046673Y-64780301D01*
X151950000Y-65013690D01*
X149385756Y-65013690D01*
X150342007Y-64057440D01*
X151022000Y-64057440D01*
X151269765Y-64008157D01*
X151479809Y-63867809D01*
X151595277Y-63695000D01*
X152297616Y-63695000D01*
X152370000Y-63709398D01*
X152442384Y-63695000D01*
X152442388Y-63695000D01*
X152656783Y-63652354D01*
X152899905Y-63489905D01*
X152940911Y-63428535D01*
X154138538Y-62230909D01*
X154199905Y-62189905D01*
X154268036Y-62087940D01*
X154417765Y-62058157D01*
X154505817Y-61999322D01*
X154638126Y-62054119D01*
X154813000Y-61927954D01*
X154813000Y-61482322D01*
X154817440Y-61460000D01*
X154817440Y-61087000D01*
X155067000Y-61087000D01*
X155067000Y-61927954D01*
X155241874Y-62054119D01*
X155500209Y-61947127D01*
X155575000Y-61882511D01*
X155649791Y-61947127D01*
X155908126Y-62054119D01*
X156083000Y-61927954D01*
X156083000Y-61087000D01*
X155067000Y-61087000D01*
X154817440Y-61087000D01*
X154817440Y-60822856D01*
X154828217Y-60825000D01*
X155051783Y-60825000D01*
X155067000Y-60821973D01*
X155067000Y-60833000D01*
X156083000Y-60833000D01*
X156083000Y-60821973D01*
X156098217Y-60825000D01*
X156321783Y-60825000D01*
X156337000Y-60821973D01*
X156337000Y-60833000D01*
X156348027Y-60833000D01*
X156322765Y-60960000D01*
X156348027Y-61087000D01*
X156337000Y-61087000D01*
X156337000Y-61927954D01*
X156511874Y-62054119D01*
X156770209Y-61947127D01*
X156833090Y-61892801D01*
X157037145Y-62029146D01*
X157368217Y-62095000D01*
X157591783Y-62095000D01*
X157922855Y-62029146D01*
X158126910Y-61892801D01*
X158189791Y-61947127D01*
X158448126Y-62054119D01*
X158623000Y-61927954D01*
X158623000Y-61087000D01*
X158611973Y-61087000D01*
X158637235Y-60960000D01*
X158611973Y-60833000D01*
X158623000Y-60833000D01*
X158623000Y-60821973D01*
X158638217Y-60825000D01*
G36*
X147687000Y-63536309D02*
X147783673Y-63769698D01*
X147962301Y-63948327D01*
X148195690Y-64045000D01*
X148275553Y-64045000D01*
X145902500Y-66418054D01*
X145902500Y-66325750D01*
X145743750Y-66167000D01*
X144907000Y-66167000D01*
X144907000Y-66187000D01*
X144653000Y-66187000D01*
X144653000Y-66167000D01*
X144633000Y-66167000D01*
X144633000Y-65913000D01*
X144653000Y-65913000D01*
X144653000Y-65893000D01*
X144907000Y-65893000D01*
X144907000Y-65913000D01*
X145743750Y-65913000D01*
X145902500Y-65754250D01*
X145902500Y-65213690D01*
X145889395Y-65182051D01*
X147687000Y-63384447D01*
X147687000Y-63536309D01*
X147687000Y-63536309D01*
G37*
X147687000Y-63536309D02*
X147783673Y-63769698D01*
X147962301Y-63948327D01*
X148195690Y-64045000D01*
X148275553Y-64045000D01*
X145902500Y-66418054D01*
X145902500Y-66325750D01*
X145743750Y-66167000D01*
X144907000Y-66167000D01*
X144907000Y-66187000D01*
X144653000Y-66187000D01*
X144653000Y-66167000D01*
X144633000Y-66167000D01*
X144633000Y-65913000D01*
X144653000Y-65913000D01*
X144653000Y-65893000D01*
X144907000Y-65893000D01*
X144907000Y-65913000D01*
X145743750Y-65913000D01*
X145902500Y-65754250D01*
X145902500Y-65213690D01*
X145889395Y-65182051D01*
X147687000Y-63384447D01*
X147687000Y-63536309D01*
G36*
X148849000Y-62833000D02*
X148869000Y-62833000D01*
X148869000Y-63087000D01*
X148849000Y-63087000D01*
X148849000Y-63107000D01*
X148595000Y-63107000D01*
X148595000Y-63087000D01*
X148575000Y-63087000D01*
X148575000Y-62833000D01*
X148595000Y-62833000D01*
X148595000Y-62813000D01*
X148849000Y-62813000D01*
X148849000Y-62833000D01*
X148849000Y-62833000D01*
G37*
X148849000Y-62833000D02*
X148869000Y-62833000D01*
X148869000Y-63087000D01*
X148849000Y-63087000D01*
X148849000Y-63107000D01*
X148595000Y-63107000D01*
X148595000Y-63087000D01*
X148575000Y-63087000D01*
X148575000Y-62833000D01*
X148595000Y-62833000D01*
X148595000Y-62813000D01*
X148849000Y-62813000D01*
X148849000Y-62833000D01*
G36*
X137287000Y-58293000D02*
X137307000Y-58293000D01*
X137307000Y-58547000D01*
X137287000Y-58547000D01*
X137287000Y-58567000D01*
X137033000Y-58567000D01*
X137033000Y-58547000D01*
X137013000Y-58547000D01*
X137013000Y-58293000D01*
X137033000Y-58293000D01*
X137033000Y-58273000D01*
X137287000Y-58273000D01*
X137287000Y-58293000D01*
X137287000Y-58293000D01*
G37*
X137287000Y-58293000D02*
X137307000Y-58293000D01*
X137307000Y-58547000D01*
X137287000Y-58547000D01*
X137287000Y-58567000D01*
X137033000Y-58567000D01*
X137033000Y-58547000D01*
X137013000Y-58547000D01*
X137013000Y-58293000D01*
X137033000Y-58293000D01*
X137033000Y-58273000D01*
X137287000Y-58273000D01*
X137287000Y-58293000D01*
G04 #@! TD*
M02*
