G04 #@! TF.GenerationSoftware,KiCad,Pcbnew,5.0.1*
G04 #@! TF.CreationDate,2019-01-03T14:53:17+01:00*
G04 #@! TF.ProjectId,e73-c,6537332D632E6B696361645F70636200,rev?*
G04 #@! TF.SameCoordinates,Original*
G04 #@! TF.FileFunction,Soldermask,Bot*
G04 #@! TF.FilePolarity,Negative*
%FSLAX46Y46*%
G04 Gerber Fmt 4.6, Leading zero omitted, Abs format (unit mm)*
G04 Created by KiCad (PCBNEW 5.0.1) date do 03 jan 2019 14:53:17 CET*
%MOMM*%
%LPD*%
G01*
G04 APERTURE LIST*
%ADD10C,0.100000*%
G04 APERTURE END LIST*
D10*
G36*
X149111000Y-108036000D02*
X148259000Y-108036000D01*
X148259000Y-107184000D01*
X149111000Y-107184000D01*
X149111000Y-108036000D01*
X149111000Y-108036000D01*
G37*
G36*
X167975734Y-105573232D02*
X168185202Y-105659996D01*
X168373723Y-105785962D01*
X168534038Y-105946277D01*
X168660004Y-106134798D01*
X168746768Y-106344266D01*
X168791000Y-106566635D01*
X168791000Y-106793365D01*
X168746768Y-107015734D01*
X168660004Y-107225202D01*
X168534038Y-107413723D01*
X168373723Y-107574038D01*
X168185202Y-107700004D01*
X167975734Y-107786768D01*
X167753365Y-107831000D01*
X167526635Y-107831000D01*
X167304266Y-107786768D01*
X167094798Y-107700004D01*
X166906277Y-107574038D01*
X166745962Y-107413723D01*
X166619996Y-107225202D01*
X166533232Y-107015734D01*
X166489000Y-106793365D01*
X166489000Y-106566635D01*
X166533232Y-106344266D01*
X166619996Y-106134798D01*
X166745962Y-105946277D01*
X166906277Y-105785962D01*
X167094798Y-105659996D01*
X167304266Y-105573232D01*
X167526635Y-105529000D01*
X167753365Y-105529000D01*
X167975734Y-105573232D01*
X167975734Y-105573232D01*
G37*
G36*
X134955734Y-105573232D02*
X135165202Y-105659996D01*
X135353723Y-105785962D01*
X135514038Y-105946277D01*
X135640004Y-106134798D01*
X135726768Y-106344266D01*
X135771000Y-106566635D01*
X135771000Y-106793365D01*
X135726768Y-107015734D01*
X135640004Y-107225202D01*
X135514038Y-107413723D01*
X135353723Y-107574038D01*
X135165202Y-107700004D01*
X134955734Y-107786768D01*
X134733365Y-107831000D01*
X134506635Y-107831000D01*
X134284266Y-107786768D01*
X134074798Y-107700004D01*
X133886277Y-107574038D01*
X133725962Y-107413723D01*
X133599996Y-107225202D01*
X133513232Y-107015734D01*
X133469000Y-106793365D01*
X133469000Y-106566635D01*
X133513232Y-106344266D01*
X133599996Y-106134798D01*
X133725962Y-105946277D01*
X133886277Y-105785962D01*
X134074798Y-105659996D01*
X134284266Y-105573232D01*
X134506635Y-105529000D01*
X134733365Y-105529000D01*
X134955734Y-105573232D01*
X134955734Y-105573232D01*
G37*
G36*
X149111000Y-106766000D02*
X148259000Y-106766000D01*
X148259000Y-105914000D01*
X149111000Y-105914000D01*
X149111000Y-106766000D01*
X149111000Y-106766000D01*
G37*
G36*
X149111000Y-105496000D02*
X148259000Y-105496000D01*
X148259000Y-104644000D01*
X149111000Y-104644000D01*
X149111000Y-105496000D01*
X149111000Y-105496000D01*
G37*
G36*
X137270443Y-103245519D02*
X137336627Y-103252037D01*
X137449853Y-103286384D01*
X137506467Y-103303557D01*
X137638255Y-103374000D01*
X137662991Y-103387222D01*
X137698729Y-103416552D01*
X137800186Y-103499814D01*
X137883448Y-103601271D01*
X137912778Y-103637009D01*
X137912779Y-103637011D01*
X137996443Y-103793533D01*
X137996443Y-103793534D01*
X138047963Y-103963373D01*
X138065359Y-104140000D01*
X138047963Y-104316627D01*
X138013616Y-104429853D01*
X137996443Y-104486467D01*
X137922348Y-104625087D01*
X137912778Y-104642991D01*
X137883448Y-104678729D01*
X137800186Y-104780186D01*
X137698729Y-104863448D01*
X137662991Y-104892778D01*
X137662989Y-104892779D01*
X137506467Y-104976443D01*
X137449853Y-104993616D01*
X137336627Y-105027963D01*
X137270442Y-105034482D01*
X137204260Y-105041000D01*
X137115740Y-105041000D01*
X137049557Y-105034481D01*
X136983373Y-105027963D01*
X136870147Y-104993616D01*
X136813533Y-104976443D01*
X136657011Y-104892779D01*
X136657009Y-104892778D01*
X136621271Y-104863448D01*
X136519814Y-104780186D01*
X136436552Y-104678729D01*
X136407222Y-104642991D01*
X136397652Y-104625087D01*
X136323557Y-104486467D01*
X136306384Y-104429853D01*
X136272037Y-104316627D01*
X136254641Y-104140000D01*
X136272037Y-103963373D01*
X136323557Y-103793534D01*
X136323557Y-103793533D01*
X136407221Y-103637011D01*
X136407222Y-103637009D01*
X136436552Y-103601271D01*
X136519814Y-103499814D01*
X136621271Y-103416552D01*
X136657009Y-103387222D01*
X136681745Y-103374000D01*
X136813533Y-103303557D01*
X136870147Y-103286384D01*
X136983373Y-103252037D01*
X137049558Y-103245518D01*
X137115740Y-103239000D01*
X137204260Y-103239000D01*
X137270443Y-103245519D01*
X137270443Y-103245519D01*
G37*
G36*
X165210443Y-103245519D02*
X165276627Y-103252037D01*
X165389853Y-103286384D01*
X165446467Y-103303557D01*
X165578255Y-103374000D01*
X165602991Y-103387222D01*
X165638729Y-103416552D01*
X165740186Y-103499814D01*
X165823448Y-103601271D01*
X165852778Y-103637009D01*
X165852779Y-103637011D01*
X165936443Y-103793533D01*
X165936443Y-103793534D01*
X165987963Y-103963373D01*
X166005359Y-104140000D01*
X165987963Y-104316627D01*
X165953616Y-104429853D01*
X165936443Y-104486467D01*
X165862348Y-104625087D01*
X165852778Y-104642991D01*
X165823448Y-104678729D01*
X165740186Y-104780186D01*
X165638729Y-104863448D01*
X165602991Y-104892778D01*
X165602989Y-104892779D01*
X165446467Y-104976443D01*
X165389853Y-104993616D01*
X165276627Y-105027963D01*
X165210442Y-105034482D01*
X165144260Y-105041000D01*
X165055740Y-105041000D01*
X164989557Y-105034481D01*
X164923373Y-105027963D01*
X164810147Y-104993616D01*
X164753533Y-104976443D01*
X164597011Y-104892779D01*
X164597009Y-104892778D01*
X164561271Y-104863448D01*
X164459814Y-104780186D01*
X164376552Y-104678729D01*
X164347222Y-104642991D01*
X164337652Y-104625087D01*
X164263557Y-104486467D01*
X164246384Y-104429853D01*
X164212037Y-104316627D01*
X164194641Y-104140000D01*
X164212037Y-103963373D01*
X164263557Y-103793534D01*
X164263557Y-103793533D01*
X164347221Y-103637011D01*
X164347222Y-103637009D01*
X164376552Y-103601271D01*
X164459814Y-103499814D01*
X164561271Y-103416552D01*
X164597009Y-103387222D01*
X164621745Y-103374000D01*
X164753533Y-103303557D01*
X164810147Y-103286384D01*
X164923373Y-103252037D01*
X164989558Y-103245518D01*
X165055740Y-103239000D01*
X165144260Y-103239000D01*
X165210443Y-103245519D01*
X165210443Y-103245519D01*
G37*
G36*
X149111000Y-104226000D02*
X148259000Y-104226000D01*
X148259000Y-103374000D01*
X149111000Y-103374000D01*
X149111000Y-104226000D01*
X149111000Y-104226000D01*
G37*
G36*
X149111000Y-102956000D02*
X148259000Y-102956000D01*
X148259000Y-102104000D01*
X149111000Y-102104000D01*
X149111000Y-102956000D01*
X149111000Y-102956000D01*
G37*
G36*
X137270443Y-100705519D02*
X137336627Y-100712037D01*
X137449853Y-100746384D01*
X137506467Y-100763557D01*
X137638255Y-100834000D01*
X137662991Y-100847222D01*
X137698729Y-100876552D01*
X137800186Y-100959814D01*
X137883448Y-101061271D01*
X137912778Y-101097009D01*
X137912779Y-101097011D01*
X137996443Y-101253533D01*
X137996443Y-101253534D01*
X138047963Y-101423373D01*
X138065359Y-101600000D01*
X138047963Y-101776627D01*
X138013616Y-101889853D01*
X137996443Y-101946467D01*
X137922348Y-102085087D01*
X137912778Y-102102991D01*
X137883448Y-102138729D01*
X137800186Y-102240186D01*
X137698729Y-102323448D01*
X137662991Y-102352778D01*
X137662989Y-102352779D01*
X137506467Y-102436443D01*
X137449853Y-102453616D01*
X137336627Y-102487963D01*
X137270442Y-102494482D01*
X137204260Y-102501000D01*
X137115740Y-102501000D01*
X137049558Y-102494482D01*
X136983373Y-102487963D01*
X136870147Y-102453616D01*
X136813533Y-102436443D01*
X136657011Y-102352779D01*
X136657009Y-102352778D01*
X136621271Y-102323448D01*
X136519814Y-102240186D01*
X136436552Y-102138729D01*
X136407222Y-102102991D01*
X136397652Y-102085087D01*
X136323557Y-101946467D01*
X136306384Y-101889853D01*
X136272037Y-101776627D01*
X136254641Y-101600000D01*
X136272037Y-101423373D01*
X136323557Y-101253534D01*
X136323557Y-101253533D01*
X136407221Y-101097011D01*
X136407222Y-101097009D01*
X136436552Y-101061271D01*
X136519814Y-100959814D01*
X136621271Y-100876552D01*
X136657009Y-100847222D01*
X136681745Y-100834000D01*
X136813533Y-100763557D01*
X136870147Y-100746384D01*
X136983373Y-100712037D01*
X137049557Y-100705519D01*
X137115740Y-100699000D01*
X137204260Y-100699000D01*
X137270443Y-100705519D01*
X137270443Y-100705519D01*
G37*
G36*
X165210443Y-100705519D02*
X165276627Y-100712037D01*
X165389853Y-100746384D01*
X165446467Y-100763557D01*
X165578255Y-100834000D01*
X165602991Y-100847222D01*
X165638729Y-100876552D01*
X165740186Y-100959814D01*
X165823448Y-101061271D01*
X165852778Y-101097009D01*
X165852779Y-101097011D01*
X165936443Y-101253533D01*
X165936443Y-101253534D01*
X165987963Y-101423373D01*
X166005359Y-101600000D01*
X165987963Y-101776627D01*
X165953616Y-101889853D01*
X165936443Y-101946467D01*
X165862348Y-102085087D01*
X165852778Y-102102991D01*
X165823448Y-102138729D01*
X165740186Y-102240186D01*
X165638729Y-102323448D01*
X165602991Y-102352778D01*
X165602989Y-102352779D01*
X165446467Y-102436443D01*
X165389853Y-102453616D01*
X165276627Y-102487963D01*
X165210442Y-102494482D01*
X165144260Y-102501000D01*
X165055740Y-102501000D01*
X164989558Y-102494482D01*
X164923373Y-102487963D01*
X164810147Y-102453616D01*
X164753533Y-102436443D01*
X164597011Y-102352779D01*
X164597009Y-102352778D01*
X164561271Y-102323448D01*
X164459814Y-102240186D01*
X164376552Y-102138729D01*
X164347222Y-102102991D01*
X164337652Y-102085087D01*
X164263557Y-101946467D01*
X164246384Y-101889853D01*
X164212037Y-101776627D01*
X164194641Y-101600000D01*
X164212037Y-101423373D01*
X164263557Y-101253534D01*
X164263557Y-101253533D01*
X164347221Y-101097011D01*
X164347222Y-101097009D01*
X164376552Y-101061271D01*
X164459814Y-100959814D01*
X164561271Y-100876552D01*
X164597009Y-100847222D01*
X164621745Y-100834000D01*
X164753533Y-100763557D01*
X164810147Y-100746384D01*
X164923373Y-100712037D01*
X164989557Y-100705519D01*
X165055740Y-100699000D01*
X165144260Y-100699000D01*
X165210443Y-100705519D01*
X165210443Y-100705519D01*
G37*
G36*
X149111000Y-101686000D02*
X148259000Y-101686000D01*
X148259000Y-100834000D01*
X149111000Y-100834000D01*
X149111000Y-101686000D01*
X149111000Y-101686000D01*
G37*
G36*
X149111000Y-100416000D02*
X148259000Y-100416000D01*
X148259000Y-99564000D01*
X149111000Y-99564000D01*
X149111000Y-100416000D01*
X149111000Y-100416000D01*
G37*
G36*
X165210443Y-98165519D02*
X165276627Y-98172037D01*
X165389853Y-98206384D01*
X165446467Y-98223557D01*
X165578255Y-98294000D01*
X165602991Y-98307222D01*
X165638729Y-98336552D01*
X165740186Y-98419814D01*
X165823448Y-98521271D01*
X165852778Y-98557009D01*
X165852779Y-98557011D01*
X165936443Y-98713533D01*
X165936443Y-98713534D01*
X165987963Y-98883373D01*
X166005359Y-99060000D01*
X165987963Y-99236627D01*
X165953616Y-99349853D01*
X165936443Y-99406467D01*
X165862348Y-99545087D01*
X165852778Y-99562991D01*
X165823448Y-99598729D01*
X165740186Y-99700186D01*
X165638729Y-99783448D01*
X165602991Y-99812778D01*
X165602989Y-99812779D01*
X165446467Y-99896443D01*
X165389853Y-99913616D01*
X165276627Y-99947963D01*
X165210443Y-99954481D01*
X165144260Y-99961000D01*
X165055740Y-99961000D01*
X164989557Y-99954481D01*
X164923373Y-99947963D01*
X164810147Y-99913616D01*
X164753533Y-99896443D01*
X164597011Y-99812779D01*
X164597009Y-99812778D01*
X164561271Y-99783448D01*
X164459814Y-99700186D01*
X164376552Y-99598729D01*
X164347222Y-99562991D01*
X164337652Y-99545087D01*
X164263557Y-99406467D01*
X164246384Y-99349853D01*
X164212037Y-99236627D01*
X164194641Y-99060000D01*
X164212037Y-98883373D01*
X164263557Y-98713534D01*
X164263557Y-98713533D01*
X164347221Y-98557011D01*
X164347222Y-98557009D01*
X164376552Y-98521271D01*
X164459814Y-98419814D01*
X164561271Y-98336552D01*
X164597009Y-98307222D01*
X164621745Y-98294000D01*
X164753533Y-98223557D01*
X164810147Y-98206384D01*
X164923373Y-98172037D01*
X164989557Y-98165519D01*
X165055740Y-98159000D01*
X165144260Y-98159000D01*
X165210443Y-98165519D01*
X165210443Y-98165519D01*
G37*
G36*
X137270443Y-98165519D02*
X137336627Y-98172037D01*
X137449853Y-98206384D01*
X137506467Y-98223557D01*
X137638255Y-98294000D01*
X137662991Y-98307222D01*
X137698729Y-98336552D01*
X137800186Y-98419814D01*
X137883448Y-98521271D01*
X137912778Y-98557009D01*
X137912779Y-98557011D01*
X137996443Y-98713533D01*
X137996443Y-98713534D01*
X138047963Y-98883373D01*
X138065359Y-99060000D01*
X138047963Y-99236627D01*
X138013616Y-99349853D01*
X137996443Y-99406467D01*
X137922348Y-99545087D01*
X137912778Y-99562991D01*
X137883448Y-99598729D01*
X137800186Y-99700186D01*
X137698729Y-99783448D01*
X137662991Y-99812778D01*
X137662989Y-99812779D01*
X137506467Y-99896443D01*
X137449853Y-99913616D01*
X137336627Y-99947963D01*
X137270443Y-99954481D01*
X137204260Y-99961000D01*
X137115740Y-99961000D01*
X137049557Y-99954481D01*
X136983373Y-99947963D01*
X136870147Y-99913616D01*
X136813533Y-99896443D01*
X136657011Y-99812779D01*
X136657009Y-99812778D01*
X136621271Y-99783448D01*
X136519814Y-99700186D01*
X136436552Y-99598729D01*
X136407222Y-99562991D01*
X136397652Y-99545087D01*
X136323557Y-99406467D01*
X136306384Y-99349853D01*
X136272037Y-99236627D01*
X136254641Y-99060000D01*
X136272037Y-98883373D01*
X136323557Y-98713534D01*
X136323557Y-98713533D01*
X136407221Y-98557011D01*
X136407222Y-98557009D01*
X136436552Y-98521271D01*
X136519814Y-98419814D01*
X136621271Y-98336552D01*
X136657009Y-98307222D01*
X136681745Y-98294000D01*
X136813533Y-98223557D01*
X136870147Y-98206384D01*
X136983373Y-98172037D01*
X137049557Y-98165519D01*
X137115740Y-98159000D01*
X137204260Y-98159000D01*
X137270443Y-98165519D01*
X137270443Y-98165519D01*
G37*
G36*
X149111000Y-99146000D02*
X148259000Y-99146000D01*
X148259000Y-98294000D01*
X149111000Y-98294000D01*
X149111000Y-99146000D01*
X149111000Y-99146000D01*
G37*
G36*
X165210442Y-95625518D02*
X165276627Y-95632037D01*
X165389853Y-95666384D01*
X165446467Y-95683557D01*
X165585087Y-95757652D01*
X165602991Y-95767222D01*
X165638729Y-95796552D01*
X165740186Y-95879814D01*
X165823448Y-95981271D01*
X165852778Y-96017009D01*
X165852779Y-96017011D01*
X165936443Y-96173533D01*
X165936443Y-96173534D01*
X165987963Y-96343373D01*
X166005359Y-96520000D01*
X165987963Y-96696627D01*
X165953616Y-96809853D01*
X165936443Y-96866467D01*
X165862348Y-97005087D01*
X165852778Y-97022991D01*
X165823448Y-97058729D01*
X165740186Y-97160186D01*
X165638729Y-97243448D01*
X165602991Y-97272778D01*
X165602989Y-97272779D01*
X165446467Y-97356443D01*
X165389853Y-97373616D01*
X165276627Y-97407963D01*
X165210442Y-97414482D01*
X165144260Y-97421000D01*
X165055740Y-97421000D01*
X164989558Y-97414482D01*
X164923373Y-97407963D01*
X164810147Y-97373616D01*
X164753533Y-97356443D01*
X164597011Y-97272779D01*
X164597009Y-97272778D01*
X164561271Y-97243448D01*
X164459814Y-97160186D01*
X164376552Y-97058729D01*
X164347222Y-97022991D01*
X164337652Y-97005087D01*
X164263557Y-96866467D01*
X164246384Y-96809853D01*
X164212037Y-96696627D01*
X164194641Y-96520000D01*
X164212037Y-96343373D01*
X164263557Y-96173534D01*
X164263557Y-96173533D01*
X164347221Y-96017011D01*
X164347222Y-96017009D01*
X164376552Y-95981271D01*
X164459814Y-95879814D01*
X164561271Y-95796552D01*
X164597009Y-95767222D01*
X164614913Y-95757652D01*
X164753533Y-95683557D01*
X164810147Y-95666384D01*
X164923373Y-95632037D01*
X164989558Y-95625518D01*
X165055740Y-95619000D01*
X165144260Y-95619000D01*
X165210442Y-95625518D01*
X165210442Y-95625518D01*
G37*
G36*
X137270442Y-95625518D02*
X137336627Y-95632037D01*
X137449853Y-95666384D01*
X137506467Y-95683557D01*
X137645087Y-95757652D01*
X137662991Y-95767222D01*
X137698729Y-95796552D01*
X137800186Y-95879814D01*
X137883448Y-95981271D01*
X137912778Y-96017009D01*
X137912779Y-96017011D01*
X137996443Y-96173533D01*
X137996443Y-96173534D01*
X138047963Y-96343373D01*
X138065359Y-96520000D01*
X138047963Y-96696627D01*
X138013616Y-96809853D01*
X137996443Y-96866467D01*
X137922348Y-97005087D01*
X137912778Y-97022991D01*
X137883448Y-97058729D01*
X137800186Y-97160186D01*
X137698729Y-97243448D01*
X137662991Y-97272778D01*
X137662989Y-97272779D01*
X137506467Y-97356443D01*
X137449853Y-97373616D01*
X137336627Y-97407963D01*
X137270442Y-97414482D01*
X137204260Y-97421000D01*
X137115740Y-97421000D01*
X137049558Y-97414482D01*
X136983373Y-97407963D01*
X136870147Y-97373616D01*
X136813533Y-97356443D01*
X136657011Y-97272779D01*
X136657009Y-97272778D01*
X136621271Y-97243448D01*
X136519814Y-97160186D01*
X136436552Y-97058729D01*
X136407222Y-97022991D01*
X136397652Y-97005087D01*
X136323557Y-96866467D01*
X136306384Y-96809853D01*
X136272037Y-96696627D01*
X136254641Y-96520000D01*
X136272037Y-96343373D01*
X136323557Y-96173534D01*
X136323557Y-96173533D01*
X136407221Y-96017011D01*
X136407222Y-96017009D01*
X136436552Y-95981271D01*
X136519814Y-95879814D01*
X136621271Y-95796552D01*
X136657009Y-95767222D01*
X136674913Y-95757652D01*
X136813533Y-95683557D01*
X136870147Y-95666384D01*
X136983373Y-95632037D01*
X137049558Y-95625518D01*
X137115740Y-95619000D01*
X137204260Y-95619000D01*
X137270442Y-95625518D01*
X137270442Y-95625518D01*
G37*
G36*
X149546000Y-96941000D02*
X148694000Y-96941000D01*
X148694000Y-96089000D01*
X149546000Y-96089000D01*
X149546000Y-96941000D01*
X149546000Y-96941000D01*
G37*
G36*
X157166000Y-96941000D02*
X156314000Y-96941000D01*
X156314000Y-96089000D01*
X157166000Y-96089000D01*
X157166000Y-96941000D01*
X157166000Y-96941000D01*
G37*
G36*
X155896000Y-96941000D02*
X155044000Y-96941000D01*
X155044000Y-96089000D01*
X155896000Y-96089000D01*
X155896000Y-96941000D01*
X155896000Y-96941000D01*
G37*
G36*
X154626000Y-96941000D02*
X153774000Y-96941000D01*
X153774000Y-96089000D01*
X154626000Y-96089000D01*
X154626000Y-96941000D01*
X154626000Y-96941000D01*
G37*
G36*
X153356000Y-96941000D02*
X152504000Y-96941000D01*
X152504000Y-96089000D01*
X153356000Y-96089000D01*
X153356000Y-96941000D01*
X153356000Y-96941000D01*
G37*
G36*
X152086000Y-96941000D02*
X151234000Y-96941000D01*
X151234000Y-96089000D01*
X152086000Y-96089000D01*
X152086000Y-96941000D01*
X152086000Y-96941000D01*
G37*
G36*
X150816000Y-96941000D02*
X149964000Y-96941000D01*
X149964000Y-96089000D01*
X150816000Y-96089000D01*
X150816000Y-96941000D01*
X150816000Y-96941000D01*
G37*
G36*
X137270443Y-93085519D02*
X137336627Y-93092037D01*
X137449853Y-93126384D01*
X137506467Y-93143557D01*
X137645087Y-93217652D01*
X137662991Y-93227222D01*
X137698729Y-93256552D01*
X137800186Y-93339814D01*
X137883448Y-93441271D01*
X137912778Y-93477009D01*
X137912779Y-93477011D01*
X137996443Y-93633533D01*
X137996443Y-93633534D01*
X138047963Y-93803373D01*
X138065359Y-93980000D01*
X138047963Y-94156627D01*
X138013616Y-94269853D01*
X137996443Y-94326467D01*
X137922348Y-94465087D01*
X137912778Y-94482991D01*
X137883448Y-94518729D01*
X137800186Y-94620186D01*
X137698729Y-94703448D01*
X137662991Y-94732778D01*
X137662989Y-94732779D01*
X137506467Y-94816443D01*
X137449853Y-94833616D01*
X137336627Y-94867963D01*
X137270443Y-94874481D01*
X137204260Y-94881000D01*
X137115740Y-94881000D01*
X137049557Y-94874481D01*
X136983373Y-94867963D01*
X136870147Y-94833616D01*
X136813533Y-94816443D01*
X136657011Y-94732779D01*
X136657009Y-94732778D01*
X136621271Y-94703448D01*
X136519814Y-94620186D01*
X136436552Y-94518729D01*
X136407222Y-94482991D01*
X136397652Y-94465087D01*
X136323557Y-94326467D01*
X136306384Y-94269853D01*
X136272037Y-94156627D01*
X136254641Y-93980000D01*
X136272037Y-93803373D01*
X136323557Y-93633534D01*
X136323557Y-93633533D01*
X136407221Y-93477011D01*
X136407222Y-93477009D01*
X136436552Y-93441271D01*
X136519814Y-93339814D01*
X136621271Y-93256552D01*
X136657009Y-93227222D01*
X136674913Y-93217652D01*
X136813533Y-93143557D01*
X136870147Y-93126384D01*
X136983373Y-93092037D01*
X137049557Y-93085519D01*
X137115740Y-93079000D01*
X137204260Y-93079000D01*
X137270443Y-93085519D01*
X137270443Y-93085519D01*
G37*
G36*
X165210443Y-93085519D02*
X165276627Y-93092037D01*
X165389853Y-93126384D01*
X165446467Y-93143557D01*
X165585087Y-93217652D01*
X165602991Y-93227222D01*
X165638729Y-93256552D01*
X165740186Y-93339814D01*
X165823448Y-93441271D01*
X165852778Y-93477009D01*
X165852779Y-93477011D01*
X165936443Y-93633533D01*
X165936443Y-93633534D01*
X165987963Y-93803373D01*
X166005359Y-93980000D01*
X165987963Y-94156627D01*
X165953616Y-94269853D01*
X165936443Y-94326467D01*
X165862348Y-94465087D01*
X165852778Y-94482991D01*
X165823448Y-94518729D01*
X165740186Y-94620186D01*
X165638729Y-94703448D01*
X165602991Y-94732778D01*
X165602989Y-94732779D01*
X165446467Y-94816443D01*
X165389853Y-94833616D01*
X165276627Y-94867963D01*
X165210443Y-94874481D01*
X165144260Y-94881000D01*
X165055740Y-94881000D01*
X164989557Y-94874481D01*
X164923373Y-94867963D01*
X164810147Y-94833616D01*
X164753533Y-94816443D01*
X164597011Y-94732779D01*
X164597009Y-94732778D01*
X164561271Y-94703448D01*
X164459814Y-94620186D01*
X164376552Y-94518729D01*
X164347222Y-94482991D01*
X164337652Y-94465087D01*
X164263557Y-94326467D01*
X164246384Y-94269853D01*
X164212037Y-94156627D01*
X164194641Y-93980000D01*
X164212037Y-93803373D01*
X164263557Y-93633534D01*
X164263557Y-93633533D01*
X164347221Y-93477011D01*
X164347222Y-93477009D01*
X164376552Y-93441271D01*
X164459814Y-93339814D01*
X164561271Y-93256552D01*
X164597009Y-93227222D01*
X164614913Y-93217652D01*
X164753533Y-93143557D01*
X164810147Y-93126384D01*
X164923373Y-93092037D01*
X164989557Y-93085519D01*
X165055740Y-93079000D01*
X165144260Y-93079000D01*
X165210443Y-93085519D01*
X165210443Y-93085519D01*
G37*
G36*
X165210443Y-90545519D02*
X165276627Y-90552037D01*
X165389853Y-90586384D01*
X165446467Y-90603557D01*
X165585087Y-90677652D01*
X165602991Y-90687222D01*
X165638729Y-90716552D01*
X165740186Y-90799814D01*
X165823448Y-90901271D01*
X165852778Y-90937009D01*
X165852779Y-90937011D01*
X165936443Y-91093533D01*
X165936443Y-91093534D01*
X165987963Y-91263373D01*
X166005359Y-91440000D01*
X165987963Y-91616627D01*
X165953616Y-91729853D01*
X165936443Y-91786467D01*
X165862348Y-91925087D01*
X165852778Y-91942991D01*
X165823448Y-91978729D01*
X165740186Y-92080186D01*
X165638729Y-92163448D01*
X165602991Y-92192778D01*
X165602989Y-92192779D01*
X165446467Y-92276443D01*
X165389853Y-92293616D01*
X165276627Y-92327963D01*
X165210443Y-92334481D01*
X165144260Y-92341000D01*
X165055740Y-92341000D01*
X164989557Y-92334481D01*
X164923373Y-92327963D01*
X164810147Y-92293616D01*
X164753533Y-92276443D01*
X164597011Y-92192779D01*
X164597009Y-92192778D01*
X164561271Y-92163448D01*
X164459814Y-92080186D01*
X164376552Y-91978729D01*
X164347222Y-91942991D01*
X164337652Y-91925087D01*
X164263557Y-91786467D01*
X164246384Y-91729853D01*
X164212037Y-91616627D01*
X164194641Y-91440000D01*
X164212037Y-91263373D01*
X164263557Y-91093534D01*
X164263557Y-91093533D01*
X164347221Y-90937011D01*
X164347222Y-90937009D01*
X164376552Y-90901271D01*
X164459814Y-90799814D01*
X164561271Y-90716552D01*
X164597009Y-90687222D01*
X164614913Y-90677652D01*
X164753533Y-90603557D01*
X164810147Y-90586384D01*
X164923373Y-90552037D01*
X164989558Y-90545518D01*
X165055740Y-90539000D01*
X165144260Y-90539000D01*
X165210443Y-90545519D01*
X165210443Y-90545519D01*
G37*
G36*
X137270443Y-90545519D02*
X137336627Y-90552037D01*
X137449853Y-90586384D01*
X137506467Y-90603557D01*
X137645087Y-90677652D01*
X137662991Y-90687222D01*
X137698729Y-90716552D01*
X137800186Y-90799814D01*
X137883448Y-90901271D01*
X137912778Y-90937009D01*
X137912779Y-90937011D01*
X137996443Y-91093533D01*
X137996443Y-91093534D01*
X138047963Y-91263373D01*
X138065359Y-91440000D01*
X138047963Y-91616627D01*
X138013616Y-91729853D01*
X137996443Y-91786467D01*
X137922348Y-91925087D01*
X137912778Y-91942991D01*
X137883448Y-91978729D01*
X137800186Y-92080186D01*
X137698729Y-92163448D01*
X137662991Y-92192778D01*
X137662989Y-92192779D01*
X137506467Y-92276443D01*
X137449853Y-92293616D01*
X137336627Y-92327963D01*
X137270443Y-92334481D01*
X137204260Y-92341000D01*
X137115740Y-92341000D01*
X137049557Y-92334481D01*
X136983373Y-92327963D01*
X136870147Y-92293616D01*
X136813533Y-92276443D01*
X136657011Y-92192779D01*
X136657009Y-92192778D01*
X136621271Y-92163448D01*
X136519814Y-92080186D01*
X136436552Y-91978729D01*
X136407222Y-91942991D01*
X136397652Y-91925087D01*
X136323557Y-91786467D01*
X136306384Y-91729853D01*
X136272037Y-91616627D01*
X136254641Y-91440000D01*
X136272037Y-91263373D01*
X136323557Y-91093534D01*
X136323557Y-91093533D01*
X136407221Y-90937011D01*
X136407222Y-90937009D01*
X136436552Y-90901271D01*
X136519814Y-90799814D01*
X136621271Y-90716552D01*
X136657009Y-90687222D01*
X136674913Y-90677652D01*
X136813533Y-90603557D01*
X136870147Y-90586384D01*
X136983373Y-90552037D01*
X137049557Y-90545519D01*
X137115740Y-90539000D01*
X137204260Y-90539000D01*
X137270443Y-90545519D01*
X137270443Y-90545519D01*
G37*
G36*
X137270443Y-88005519D02*
X137336627Y-88012037D01*
X137449853Y-88046384D01*
X137506467Y-88063557D01*
X137645087Y-88137652D01*
X137662991Y-88147222D01*
X137698729Y-88176552D01*
X137800186Y-88259814D01*
X137883448Y-88361271D01*
X137912778Y-88397009D01*
X137912779Y-88397011D01*
X137996443Y-88553533D01*
X137996443Y-88553534D01*
X138047963Y-88723373D01*
X138065359Y-88900000D01*
X138047963Y-89076627D01*
X138013616Y-89189853D01*
X137996443Y-89246467D01*
X137922348Y-89385087D01*
X137912778Y-89402991D01*
X137883448Y-89438729D01*
X137800186Y-89540186D01*
X137698729Y-89623448D01*
X137662991Y-89652778D01*
X137662989Y-89652779D01*
X137506467Y-89736443D01*
X137449853Y-89753616D01*
X137336627Y-89787963D01*
X137270443Y-89794481D01*
X137204260Y-89801000D01*
X137115740Y-89801000D01*
X137049557Y-89794481D01*
X136983373Y-89787963D01*
X136870147Y-89753616D01*
X136813533Y-89736443D01*
X136657011Y-89652779D01*
X136657009Y-89652778D01*
X136621271Y-89623448D01*
X136519814Y-89540186D01*
X136436552Y-89438729D01*
X136407222Y-89402991D01*
X136397652Y-89385087D01*
X136323557Y-89246467D01*
X136306384Y-89189853D01*
X136272037Y-89076627D01*
X136254641Y-88900000D01*
X136272037Y-88723373D01*
X136323557Y-88553534D01*
X136323557Y-88553533D01*
X136407221Y-88397011D01*
X136407222Y-88397009D01*
X136436552Y-88361271D01*
X136519814Y-88259814D01*
X136621271Y-88176552D01*
X136657009Y-88147222D01*
X136674913Y-88137652D01*
X136813533Y-88063557D01*
X136870147Y-88046384D01*
X136983373Y-88012037D01*
X137049557Y-88005519D01*
X137115740Y-87999000D01*
X137204260Y-87999000D01*
X137270443Y-88005519D01*
X137270443Y-88005519D01*
G37*
G36*
X165210443Y-88005519D02*
X165276627Y-88012037D01*
X165389853Y-88046384D01*
X165446467Y-88063557D01*
X165585087Y-88137652D01*
X165602991Y-88147222D01*
X165638729Y-88176552D01*
X165740186Y-88259814D01*
X165823448Y-88361271D01*
X165852778Y-88397009D01*
X165852779Y-88397011D01*
X165936443Y-88553533D01*
X165936443Y-88553534D01*
X165987963Y-88723373D01*
X166005359Y-88900000D01*
X165987963Y-89076627D01*
X165953616Y-89189853D01*
X165936443Y-89246467D01*
X165862348Y-89385087D01*
X165852778Y-89402991D01*
X165823448Y-89438729D01*
X165740186Y-89540186D01*
X165638729Y-89623448D01*
X165602991Y-89652778D01*
X165602989Y-89652779D01*
X165446467Y-89736443D01*
X165389853Y-89753616D01*
X165276627Y-89787963D01*
X165210443Y-89794481D01*
X165144260Y-89801000D01*
X165055740Y-89801000D01*
X164989557Y-89794481D01*
X164923373Y-89787963D01*
X164810147Y-89753616D01*
X164753533Y-89736443D01*
X164597011Y-89652779D01*
X164597009Y-89652778D01*
X164561271Y-89623448D01*
X164459814Y-89540186D01*
X164376552Y-89438729D01*
X164347222Y-89402991D01*
X164337652Y-89385087D01*
X164263557Y-89246467D01*
X164246384Y-89189853D01*
X164212037Y-89076627D01*
X164194641Y-88900000D01*
X164212037Y-88723373D01*
X164263557Y-88553534D01*
X164263557Y-88553533D01*
X164347221Y-88397011D01*
X164347222Y-88397009D01*
X164376552Y-88361271D01*
X164459814Y-88259814D01*
X164561271Y-88176552D01*
X164597009Y-88147222D01*
X164614913Y-88137652D01*
X164753533Y-88063557D01*
X164810147Y-88046384D01*
X164923373Y-88012037D01*
X164989557Y-88005519D01*
X165055740Y-87999000D01*
X165144260Y-87999000D01*
X165210443Y-88005519D01*
X165210443Y-88005519D01*
G37*
G36*
X137270442Y-85465518D02*
X137336627Y-85472037D01*
X137449853Y-85506384D01*
X137506467Y-85523557D01*
X137645087Y-85597652D01*
X137662991Y-85607222D01*
X137698729Y-85636552D01*
X137800186Y-85719814D01*
X137883448Y-85821271D01*
X137912778Y-85857009D01*
X137912779Y-85857011D01*
X137996443Y-86013533D01*
X137996443Y-86013534D01*
X138047963Y-86183373D01*
X138065359Y-86360000D01*
X138047963Y-86536627D01*
X138013616Y-86649853D01*
X137996443Y-86706467D01*
X137922348Y-86845087D01*
X137912778Y-86862991D01*
X137883448Y-86898729D01*
X137800186Y-87000186D01*
X137698729Y-87083448D01*
X137662991Y-87112778D01*
X137662989Y-87112779D01*
X137506467Y-87196443D01*
X137449853Y-87213616D01*
X137336627Y-87247963D01*
X137270442Y-87254482D01*
X137204260Y-87261000D01*
X137115740Y-87261000D01*
X137049558Y-87254482D01*
X136983373Y-87247963D01*
X136870147Y-87213616D01*
X136813533Y-87196443D01*
X136657011Y-87112779D01*
X136657009Y-87112778D01*
X136621271Y-87083448D01*
X136519814Y-87000186D01*
X136436552Y-86898729D01*
X136407222Y-86862991D01*
X136397652Y-86845087D01*
X136323557Y-86706467D01*
X136306384Y-86649853D01*
X136272037Y-86536627D01*
X136254641Y-86360000D01*
X136272037Y-86183373D01*
X136323557Y-86013534D01*
X136323557Y-86013533D01*
X136407221Y-85857011D01*
X136407222Y-85857009D01*
X136436552Y-85821271D01*
X136519814Y-85719814D01*
X136621271Y-85636552D01*
X136657009Y-85607222D01*
X136674913Y-85597652D01*
X136813533Y-85523557D01*
X136870147Y-85506384D01*
X136983373Y-85472037D01*
X137049558Y-85465518D01*
X137115740Y-85459000D01*
X137204260Y-85459000D01*
X137270442Y-85465518D01*
X137270442Y-85465518D01*
G37*
G36*
X165210442Y-85465518D02*
X165276627Y-85472037D01*
X165389853Y-85506384D01*
X165446467Y-85523557D01*
X165585087Y-85597652D01*
X165602991Y-85607222D01*
X165638729Y-85636552D01*
X165740186Y-85719814D01*
X165823448Y-85821271D01*
X165852778Y-85857009D01*
X165852779Y-85857011D01*
X165936443Y-86013533D01*
X165936443Y-86013534D01*
X165987963Y-86183373D01*
X166005359Y-86360000D01*
X165987963Y-86536627D01*
X165953616Y-86649853D01*
X165936443Y-86706467D01*
X165862348Y-86845087D01*
X165852778Y-86862991D01*
X165823448Y-86898729D01*
X165740186Y-87000186D01*
X165638729Y-87083448D01*
X165602991Y-87112778D01*
X165602989Y-87112779D01*
X165446467Y-87196443D01*
X165389853Y-87213616D01*
X165276627Y-87247963D01*
X165210442Y-87254482D01*
X165144260Y-87261000D01*
X165055740Y-87261000D01*
X164989558Y-87254482D01*
X164923373Y-87247963D01*
X164810147Y-87213616D01*
X164753533Y-87196443D01*
X164597011Y-87112779D01*
X164597009Y-87112778D01*
X164561271Y-87083448D01*
X164459814Y-87000186D01*
X164376552Y-86898729D01*
X164347222Y-86862991D01*
X164337652Y-86845087D01*
X164263557Y-86706467D01*
X164246384Y-86649853D01*
X164212037Y-86536627D01*
X164194641Y-86360000D01*
X164212037Y-86183373D01*
X164263557Y-86013534D01*
X164263557Y-86013533D01*
X164347221Y-85857011D01*
X164347222Y-85857009D01*
X164376552Y-85821271D01*
X164459814Y-85719814D01*
X164561271Y-85636552D01*
X164597009Y-85607222D01*
X164614913Y-85597652D01*
X164753533Y-85523557D01*
X164810147Y-85506384D01*
X164923373Y-85472037D01*
X164989558Y-85465518D01*
X165055740Y-85459000D01*
X165144260Y-85459000D01*
X165210442Y-85465518D01*
X165210442Y-85465518D01*
G37*
G36*
X137270443Y-82925519D02*
X137336627Y-82932037D01*
X137449853Y-82966384D01*
X137506467Y-82983557D01*
X137645087Y-83057652D01*
X137662991Y-83067222D01*
X137698729Y-83096552D01*
X137800186Y-83179814D01*
X137883448Y-83281271D01*
X137912778Y-83317009D01*
X137912779Y-83317011D01*
X137996443Y-83473533D01*
X137996443Y-83473534D01*
X138047963Y-83643373D01*
X138065359Y-83820000D01*
X138047963Y-83996627D01*
X138013616Y-84109853D01*
X137996443Y-84166467D01*
X137922348Y-84305087D01*
X137912778Y-84322991D01*
X137883448Y-84358729D01*
X137800186Y-84460186D01*
X137698729Y-84543448D01*
X137662991Y-84572778D01*
X137662989Y-84572779D01*
X137506467Y-84656443D01*
X137449853Y-84673616D01*
X137336627Y-84707963D01*
X137270443Y-84714481D01*
X137204260Y-84721000D01*
X137115740Y-84721000D01*
X137049557Y-84714481D01*
X136983373Y-84707963D01*
X136870147Y-84673616D01*
X136813533Y-84656443D01*
X136657011Y-84572779D01*
X136657009Y-84572778D01*
X136621271Y-84543448D01*
X136519814Y-84460186D01*
X136436552Y-84358729D01*
X136407222Y-84322991D01*
X136397652Y-84305087D01*
X136323557Y-84166467D01*
X136306384Y-84109853D01*
X136272037Y-83996627D01*
X136254641Y-83820000D01*
X136272037Y-83643373D01*
X136323557Y-83473534D01*
X136323557Y-83473533D01*
X136407221Y-83317011D01*
X136407222Y-83317009D01*
X136436552Y-83281271D01*
X136519814Y-83179814D01*
X136621271Y-83096552D01*
X136657009Y-83067222D01*
X136674913Y-83057652D01*
X136813533Y-82983557D01*
X136870147Y-82966384D01*
X136983373Y-82932037D01*
X137049557Y-82925519D01*
X137115740Y-82919000D01*
X137204260Y-82919000D01*
X137270443Y-82925519D01*
X137270443Y-82925519D01*
G37*
G36*
X165210443Y-82925519D02*
X165276627Y-82932037D01*
X165389853Y-82966384D01*
X165446467Y-82983557D01*
X165585087Y-83057652D01*
X165602991Y-83067222D01*
X165638729Y-83096552D01*
X165740186Y-83179814D01*
X165823448Y-83281271D01*
X165852778Y-83317009D01*
X165852779Y-83317011D01*
X165936443Y-83473533D01*
X165936443Y-83473534D01*
X165987963Y-83643373D01*
X166005359Y-83820000D01*
X165987963Y-83996627D01*
X165953616Y-84109853D01*
X165936443Y-84166467D01*
X165862348Y-84305087D01*
X165852778Y-84322991D01*
X165823448Y-84358729D01*
X165740186Y-84460186D01*
X165638729Y-84543448D01*
X165602991Y-84572778D01*
X165602989Y-84572779D01*
X165446467Y-84656443D01*
X165389853Y-84673616D01*
X165276627Y-84707963D01*
X165210443Y-84714481D01*
X165144260Y-84721000D01*
X165055740Y-84721000D01*
X164989557Y-84714481D01*
X164923373Y-84707963D01*
X164810147Y-84673616D01*
X164753533Y-84656443D01*
X164597011Y-84572779D01*
X164597009Y-84572778D01*
X164561271Y-84543448D01*
X164459814Y-84460186D01*
X164376552Y-84358729D01*
X164347222Y-84322991D01*
X164337652Y-84305087D01*
X164263557Y-84166467D01*
X164246384Y-84109853D01*
X164212037Y-83996627D01*
X164194641Y-83820000D01*
X164212037Y-83643373D01*
X164263557Y-83473534D01*
X164263557Y-83473533D01*
X164347221Y-83317011D01*
X164347222Y-83317009D01*
X164376552Y-83281271D01*
X164459814Y-83179814D01*
X164561271Y-83096552D01*
X164597009Y-83067222D01*
X164614913Y-83057652D01*
X164753533Y-82983557D01*
X164810147Y-82966384D01*
X164923373Y-82932037D01*
X164989557Y-82925519D01*
X165055740Y-82919000D01*
X165144260Y-82919000D01*
X165210443Y-82925519D01*
X165210443Y-82925519D01*
G37*
G36*
X165210442Y-80385518D02*
X165276627Y-80392037D01*
X165389853Y-80426384D01*
X165446467Y-80443557D01*
X165585087Y-80517652D01*
X165602991Y-80527222D01*
X165638729Y-80556552D01*
X165740186Y-80639814D01*
X165823448Y-80741271D01*
X165852778Y-80777009D01*
X165852779Y-80777011D01*
X165936443Y-80933533D01*
X165936443Y-80933534D01*
X165987963Y-81103373D01*
X166005359Y-81280000D01*
X165987963Y-81456627D01*
X165953616Y-81569853D01*
X165936443Y-81626467D01*
X165862348Y-81765087D01*
X165852778Y-81782991D01*
X165823448Y-81818729D01*
X165740186Y-81920186D01*
X165638729Y-82003448D01*
X165602991Y-82032778D01*
X165602989Y-82032779D01*
X165446467Y-82116443D01*
X165389853Y-82133616D01*
X165276627Y-82167963D01*
X165210443Y-82174481D01*
X165144260Y-82181000D01*
X165055740Y-82181000D01*
X164989557Y-82174481D01*
X164923373Y-82167963D01*
X164810147Y-82133616D01*
X164753533Y-82116443D01*
X164597011Y-82032779D01*
X164597009Y-82032778D01*
X164561271Y-82003448D01*
X164459814Y-81920186D01*
X164376552Y-81818729D01*
X164347222Y-81782991D01*
X164337652Y-81765087D01*
X164263557Y-81626467D01*
X164246384Y-81569853D01*
X164212037Y-81456627D01*
X164194641Y-81280000D01*
X164212037Y-81103373D01*
X164263557Y-80933534D01*
X164263557Y-80933533D01*
X164347221Y-80777011D01*
X164347222Y-80777009D01*
X164376552Y-80741271D01*
X164459814Y-80639814D01*
X164561271Y-80556552D01*
X164597009Y-80527222D01*
X164614913Y-80517652D01*
X164753533Y-80443557D01*
X164810147Y-80426384D01*
X164923373Y-80392037D01*
X164989558Y-80385518D01*
X165055740Y-80379000D01*
X165144260Y-80379000D01*
X165210442Y-80385518D01*
X165210442Y-80385518D01*
G37*
G36*
X137270442Y-80385518D02*
X137336627Y-80392037D01*
X137449853Y-80426384D01*
X137506467Y-80443557D01*
X137645087Y-80517652D01*
X137662991Y-80527222D01*
X137698729Y-80556552D01*
X137800186Y-80639814D01*
X137883448Y-80741271D01*
X137912778Y-80777009D01*
X137912779Y-80777011D01*
X137996443Y-80933533D01*
X137996443Y-80933534D01*
X138047963Y-81103373D01*
X138065359Y-81280000D01*
X138047963Y-81456627D01*
X138013616Y-81569853D01*
X137996443Y-81626467D01*
X137922348Y-81765087D01*
X137912778Y-81782991D01*
X137883448Y-81818729D01*
X137800186Y-81920186D01*
X137698729Y-82003448D01*
X137662991Y-82032778D01*
X137662989Y-82032779D01*
X137506467Y-82116443D01*
X137449853Y-82133616D01*
X137336627Y-82167963D01*
X137270443Y-82174481D01*
X137204260Y-82181000D01*
X137115740Y-82181000D01*
X137049557Y-82174481D01*
X136983373Y-82167963D01*
X136870147Y-82133616D01*
X136813533Y-82116443D01*
X136657011Y-82032779D01*
X136657009Y-82032778D01*
X136621271Y-82003448D01*
X136519814Y-81920186D01*
X136436552Y-81818729D01*
X136407222Y-81782991D01*
X136397652Y-81765087D01*
X136323557Y-81626467D01*
X136306384Y-81569853D01*
X136272037Y-81456627D01*
X136254641Y-81280000D01*
X136272037Y-81103373D01*
X136323557Y-80933534D01*
X136323557Y-80933533D01*
X136407221Y-80777011D01*
X136407222Y-80777009D01*
X136436552Y-80741271D01*
X136519814Y-80639814D01*
X136621271Y-80556552D01*
X136657009Y-80527222D01*
X136674913Y-80517652D01*
X136813533Y-80443557D01*
X136870147Y-80426384D01*
X136983373Y-80392037D01*
X137049558Y-80385518D01*
X137115740Y-80379000D01*
X137204260Y-80379000D01*
X137270442Y-80385518D01*
X137270442Y-80385518D01*
G37*
G36*
X137270443Y-77845519D02*
X137336627Y-77852037D01*
X137449853Y-77886384D01*
X137506467Y-77903557D01*
X137645087Y-77977652D01*
X137662991Y-77987222D01*
X137698729Y-78016552D01*
X137800186Y-78099814D01*
X137883448Y-78201271D01*
X137912778Y-78237009D01*
X137912779Y-78237011D01*
X137996443Y-78393533D01*
X137996443Y-78393534D01*
X138047963Y-78563373D01*
X138065359Y-78740000D01*
X138047963Y-78916627D01*
X138013616Y-79029853D01*
X137996443Y-79086467D01*
X137922348Y-79225087D01*
X137912778Y-79242991D01*
X137883448Y-79278729D01*
X137800186Y-79380186D01*
X137698729Y-79463448D01*
X137662991Y-79492778D01*
X137662989Y-79492779D01*
X137506467Y-79576443D01*
X137449853Y-79593616D01*
X137336627Y-79627963D01*
X137270442Y-79634482D01*
X137204260Y-79641000D01*
X137115740Y-79641000D01*
X137049558Y-79634482D01*
X136983373Y-79627963D01*
X136870147Y-79593616D01*
X136813533Y-79576443D01*
X136657011Y-79492779D01*
X136657009Y-79492778D01*
X136621271Y-79463448D01*
X136519814Y-79380186D01*
X136436552Y-79278729D01*
X136407222Y-79242991D01*
X136397652Y-79225087D01*
X136323557Y-79086467D01*
X136306384Y-79029853D01*
X136272037Y-78916627D01*
X136254641Y-78740000D01*
X136272037Y-78563373D01*
X136323557Y-78393534D01*
X136323557Y-78393533D01*
X136407221Y-78237011D01*
X136407222Y-78237009D01*
X136436552Y-78201271D01*
X136519814Y-78099814D01*
X136621271Y-78016552D01*
X136657009Y-77987222D01*
X136674913Y-77977652D01*
X136813533Y-77903557D01*
X136870147Y-77886384D01*
X136983373Y-77852037D01*
X137049557Y-77845519D01*
X137115740Y-77839000D01*
X137204260Y-77839000D01*
X137270443Y-77845519D01*
X137270443Y-77845519D01*
G37*
G36*
X165210443Y-77845519D02*
X165276627Y-77852037D01*
X165389853Y-77886384D01*
X165446467Y-77903557D01*
X165585087Y-77977652D01*
X165602991Y-77987222D01*
X165638729Y-78016552D01*
X165740186Y-78099814D01*
X165823448Y-78201271D01*
X165852778Y-78237009D01*
X165852779Y-78237011D01*
X165936443Y-78393533D01*
X165936443Y-78393534D01*
X165987963Y-78563373D01*
X166005359Y-78740000D01*
X165987963Y-78916627D01*
X165953616Y-79029853D01*
X165936443Y-79086467D01*
X165862348Y-79225087D01*
X165852778Y-79242991D01*
X165823448Y-79278729D01*
X165740186Y-79380186D01*
X165638729Y-79463448D01*
X165602991Y-79492778D01*
X165602989Y-79492779D01*
X165446467Y-79576443D01*
X165389853Y-79593616D01*
X165276627Y-79627963D01*
X165210442Y-79634482D01*
X165144260Y-79641000D01*
X165055740Y-79641000D01*
X164989558Y-79634482D01*
X164923373Y-79627963D01*
X164810147Y-79593616D01*
X164753533Y-79576443D01*
X164597011Y-79492779D01*
X164597009Y-79492778D01*
X164561271Y-79463448D01*
X164459814Y-79380186D01*
X164376552Y-79278729D01*
X164347222Y-79242991D01*
X164337652Y-79225087D01*
X164263557Y-79086467D01*
X164246384Y-79029853D01*
X164212037Y-78916627D01*
X164194641Y-78740000D01*
X164212037Y-78563373D01*
X164263557Y-78393534D01*
X164263557Y-78393533D01*
X164347221Y-78237011D01*
X164347222Y-78237009D01*
X164376552Y-78201271D01*
X164459814Y-78099814D01*
X164561271Y-78016552D01*
X164597009Y-77987222D01*
X164614913Y-77977652D01*
X164753533Y-77903557D01*
X164810147Y-77886384D01*
X164923373Y-77852037D01*
X164989557Y-77845519D01*
X165055740Y-77839000D01*
X165144260Y-77839000D01*
X165210443Y-77845519D01*
X165210443Y-77845519D01*
G37*
G36*
X165210442Y-75305518D02*
X165276627Y-75312037D01*
X165389853Y-75346384D01*
X165446467Y-75363557D01*
X165585087Y-75437652D01*
X165602991Y-75447222D01*
X165638729Y-75476552D01*
X165740186Y-75559814D01*
X165823448Y-75661271D01*
X165852778Y-75697009D01*
X165852779Y-75697011D01*
X165936443Y-75853533D01*
X165936443Y-75853534D01*
X165987963Y-76023373D01*
X166005359Y-76200000D01*
X165987963Y-76376627D01*
X165953616Y-76489853D01*
X165936443Y-76546467D01*
X165862348Y-76685087D01*
X165852778Y-76702991D01*
X165823448Y-76738729D01*
X165740186Y-76840186D01*
X165638729Y-76923448D01*
X165602991Y-76952778D01*
X165602989Y-76952779D01*
X165446467Y-77036443D01*
X165389853Y-77053616D01*
X165276627Y-77087963D01*
X165210442Y-77094482D01*
X165144260Y-77101000D01*
X165055740Y-77101000D01*
X164989558Y-77094482D01*
X164923373Y-77087963D01*
X164810147Y-77053616D01*
X164753533Y-77036443D01*
X164597011Y-76952779D01*
X164597009Y-76952778D01*
X164561271Y-76923448D01*
X164459814Y-76840186D01*
X164376552Y-76738729D01*
X164347222Y-76702991D01*
X164337652Y-76685087D01*
X164263557Y-76546467D01*
X164246384Y-76489853D01*
X164212037Y-76376627D01*
X164194641Y-76200000D01*
X164212037Y-76023373D01*
X164263557Y-75853534D01*
X164263557Y-75853533D01*
X164347221Y-75697011D01*
X164347222Y-75697009D01*
X164376552Y-75661271D01*
X164459814Y-75559814D01*
X164561271Y-75476552D01*
X164597009Y-75447222D01*
X164614913Y-75437652D01*
X164753533Y-75363557D01*
X164810147Y-75346384D01*
X164923373Y-75312037D01*
X164989558Y-75305518D01*
X165055740Y-75299000D01*
X165144260Y-75299000D01*
X165210442Y-75305518D01*
X165210442Y-75305518D01*
G37*
G36*
X153145442Y-75305518D02*
X153211627Y-75312037D01*
X153324853Y-75346384D01*
X153381467Y-75363557D01*
X153520087Y-75437652D01*
X153537991Y-75447222D01*
X153573729Y-75476552D01*
X153675186Y-75559814D01*
X153758448Y-75661271D01*
X153787778Y-75697009D01*
X153787779Y-75697011D01*
X153871443Y-75853533D01*
X153871443Y-75853534D01*
X153922963Y-76023373D01*
X153940359Y-76200000D01*
X153922963Y-76376627D01*
X153888616Y-76489853D01*
X153871443Y-76546467D01*
X153797348Y-76685087D01*
X153787778Y-76702991D01*
X153758448Y-76738729D01*
X153675186Y-76840186D01*
X153573729Y-76923448D01*
X153537991Y-76952778D01*
X153537989Y-76952779D01*
X153381467Y-77036443D01*
X153324853Y-77053616D01*
X153211627Y-77087963D01*
X153145442Y-77094482D01*
X153079260Y-77101000D01*
X152990740Y-77101000D01*
X152924558Y-77094482D01*
X152858373Y-77087963D01*
X152745147Y-77053616D01*
X152688533Y-77036443D01*
X152532011Y-76952779D01*
X152532009Y-76952778D01*
X152496271Y-76923448D01*
X152394814Y-76840186D01*
X152311552Y-76738729D01*
X152282222Y-76702991D01*
X152272652Y-76685087D01*
X152198557Y-76546467D01*
X152181384Y-76489853D01*
X152147037Y-76376627D01*
X152129641Y-76200000D01*
X152147037Y-76023373D01*
X152198557Y-75853534D01*
X152198557Y-75853533D01*
X152282221Y-75697011D01*
X152282222Y-75697009D01*
X152311552Y-75661271D01*
X152394814Y-75559814D01*
X152496271Y-75476552D01*
X152532009Y-75447222D01*
X152549913Y-75437652D01*
X152688533Y-75363557D01*
X152745147Y-75346384D01*
X152858373Y-75312037D01*
X152924558Y-75305518D01*
X152990740Y-75299000D01*
X153079260Y-75299000D01*
X153145442Y-75305518D01*
X153145442Y-75305518D01*
G37*
G36*
X137270442Y-75305518D02*
X137336627Y-75312037D01*
X137449853Y-75346384D01*
X137506467Y-75363557D01*
X137645087Y-75437652D01*
X137662991Y-75447222D01*
X137698729Y-75476552D01*
X137800186Y-75559814D01*
X137883448Y-75661271D01*
X137912778Y-75697009D01*
X137912779Y-75697011D01*
X137996443Y-75853533D01*
X137996443Y-75853534D01*
X138047963Y-76023373D01*
X138065359Y-76200000D01*
X138047963Y-76376627D01*
X138013616Y-76489853D01*
X137996443Y-76546467D01*
X137922348Y-76685087D01*
X137912778Y-76702991D01*
X137883448Y-76738729D01*
X137800186Y-76840186D01*
X137698729Y-76923448D01*
X137662991Y-76952778D01*
X137662989Y-76952779D01*
X137506467Y-77036443D01*
X137449853Y-77053616D01*
X137336627Y-77087963D01*
X137270442Y-77094482D01*
X137204260Y-77101000D01*
X137115740Y-77101000D01*
X137049558Y-77094482D01*
X136983373Y-77087963D01*
X136870147Y-77053616D01*
X136813533Y-77036443D01*
X136657011Y-76952779D01*
X136657009Y-76952778D01*
X136621271Y-76923448D01*
X136519814Y-76840186D01*
X136436552Y-76738729D01*
X136407222Y-76702991D01*
X136397652Y-76685087D01*
X136323557Y-76546467D01*
X136306384Y-76489853D01*
X136272037Y-76376627D01*
X136254641Y-76200000D01*
X136272037Y-76023373D01*
X136323557Y-75853534D01*
X136323557Y-75853533D01*
X136407221Y-75697011D01*
X136407222Y-75697009D01*
X136436552Y-75661271D01*
X136519814Y-75559814D01*
X136621271Y-75476552D01*
X136657009Y-75447222D01*
X136674913Y-75437652D01*
X136813533Y-75363557D01*
X136870147Y-75346384D01*
X136983373Y-75312037D01*
X137049558Y-75305518D01*
X137115740Y-75299000D01*
X137204260Y-75299000D01*
X137270442Y-75305518D01*
X137270442Y-75305518D01*
G37*
G36*
X155685442Y-75305518D02*
X155751627Y-75312037D01*
X155864853Y-75346384D01*
X155921467Y-75363557D01*
X156060087Y-75437652D01*
X156077991Y-75447222D01*
X156113729Y-75476552D01*
X156215186Y-75559814D01*
X156298448Y-75661271D01*
X156327778Y-75697009D01*
X156327779Y-75697011D01*
X156411443Y-75853533D01*
X156411443Y-75853534D01*
X156462963Y-76023373D01*
X156480359Y-76200000D01*
X156462963Y-76376627D01*
X156428616Y-76489853D01*
X156411443Y-76546467D01*
X156337348Y-76685087D01*
X156327778Y-76702991D01*
X156298448Y-76738729D01*
X156215186Y-76840186D01*
X156113729Y-76923448D01*
X156077991Y-76952778D01*
X156077989Y-76952779D01*
X155921467Y-77036443D01*
X155864853Y-77053616D01*
X155751627Y-77087963D01*
X155685442Y-77094482D01*
X155619260Y-77101000D01*
X155530740Y-77101000D01*
X155464558Y-77094482D01*
X155398373Y-77087963D01*
X155285147Y-77053616D01*
X155228533Y-77036443D01*
X155072011Y-76952779D01*
X155072009Y-76952778D01*
X155036271Y-76923448D01*
X154934814Y-76840186D01*
X154851552Y-76738729D01*
X154822222Y-76702991D01*
X154812652Y-76685087D01*
X154738557Y-76546467D01*
X154721384Y-76489853D01*
X154687037Y-76376627D01*
X154669641Y-76200000D01*
X154687037Y-76023373D01*
X154738557Y-75853534D01*
X154738557Y-75853533D01*
X154822221Y-75697011D01*
X154822222Y-75697009D01*
X154851552Y-75661271D01*
X154934814Y-75559814D01*
X155036271Y-75476552D01*
X155072009Y-75447222D01*
X155089913Y-75437652D01*
X155228533Y-75363557D01*
X155285147Y-75346384D01*
X155398373Y-75312037D01*
X155464558Y-75305518D01*
X155530740Y-75299000D01*
X155619260Y-75299000D01*
X155685442Y-75305518D01*
X155685442Y-75305518D01*
G37*
G36*
X158225442Y-75305518D02*
X158291627Y-75312037D01*
X158404853Y-75346384D01*
X158461467Y-75363557D01*
X158600087Y-75437652D01*
X158617991Y-75447222D01*
X158653729Y-75476552D01*
X158755186Y-75559814D01*
X158838448Y-75661271D01*
X158867778Y-75697009D01*
X158867779Y-75697011D01*
X158951443Y-75853533D01*
X158951443Y-75853534D01*
X159002963Y-76023373D01*
X159020359Y-76200000D01*
X159002963Y-76376627D01*
X158968616Y-76489853D01*
X158951443Y-76546467D01*
X158877348Y-76685087D01*
X158867778Y-76702991D01*
X158838448Y-76738729D01*
X158755186Y-76840186D01*
X158653729Y-76923448D01*
X158617991Y-76952778D01*
X158617989Y-76952779D01*
X158461467Y-77036443D01*
X158404853Y-77053616D01*
X158291627Y-77087963D01*
X158225442Y-77094482D01*
X158159260Y-77101000D01*
X158070740Y-77101000D01*
X158004558Y-77094482D01*
X157938373Y-77087963D01*
X157825147Y-77053616D01*
X157768533Y-77036443D01*
X157612011Y-76952779D01*
X157612009Y-76952778D01*
X157576271Y-76923448D01*
X157474814Y-76840186D01*
X157391552Y-76738729D01*
X157362222Y-76702991D01*
X157352652Y-76685087D01*
X157278557Y-76546467D01*
X157261384Y-76489853D01*
X157227037Y-76376627D01*
X157209641Y-76200000D01*
X157227037Y-76023373D01*
X157278557Y-75853534D01*
X157278557Y-75853533D01*
X157362221Y-75697011D01*
X157362222Y-75697009D01*
X157391552Y-75661271D01*
X157474814Y-75559814D01*
X157576271Y-75476552D01*
X157612009Y-75447222D01*
X157629913Y-75437652D01*
X157768533Y-75363557D01*
X157825147Y-75346384D01*
X157938373Y-75312037D01*
X158004558Y-75305518D01*
X158070740Y-75299000D01*
X158159260Y-75299000D01*
X158225442Y-75305518D01*
X158225442Y-75305518D01*
G37*
G36*
X161556000Y-77101000D02*
X159754000Y-77101000D01*
X159754000Y-75299000D01*
X161556000Y-75299000D01*
X161556000Y-77101000D01*
X161556000Y-77101000D01*
G37*
G36*
X137270442Y-72765518D02*
X137336627Y-72772037D01*
X137449853Y-72806384D01*
X137506467Y-72823557D01*
X137645087Y-72897652D01*
X137662991Y-72907222D01*
X137698729Y-72936552D01*
X137800186Y-73019814D01*
X137883448Y-73121271D01*
X137912778Y-73157009D01*
X137912779Y-73157011D01*
X137996443Y-73313533D01*
X137996443Y-73313534D01*
X138047963Y-73483373D01*
X138065359Y-73660000D01*
X138047963Y-73836627D01*
X138013616Y-73949853D01*
X137996443Y-74006467D01*
X137922348Y-74145087D01*
X137912778Y-74162991D01*
X137883448Y-74198729D01*
X137800186Y-74300186D01*
X137698729Y-74383448D01*
X137662991Y-74412778D01*
X137662989Y-74412779D01*
X137506467Y-74496443D01*
X137449853Y-74513616D01*
X137336627Y-74547963D01*
X137270442Y-74554482D01*
X137204260Y-74561000D01*
X137115740Y-74561000D01*
X137049558Y-74554482D01*
X136983373Y-74547963D01*
X136870147Y-74513616D01*
X136813533Y-74496443D01*
X136657011Y-74412779D01*
X136657009Y-74412778D01*
X136621271Y-74383448D01*
X136519814Y-74300186D01*
X136436552Y-74198729D01*
X136407222Y-74162991D01*
X136397652Y-74145087D01*
X136323557Y-74006467D01*
X136306384Y-73949853D01*
X136272037Y-73836627D01*
X136254641Y-73660000D01*
X136272037Y-73483373D01*
X136323557Y-73313534D01*
X136323557Y-73313533D01*
X136407221Y-73157011D01*
X136407222Y-73157009D01*
X136436552Y-73121271D01*
X136519814Y-73019814D01*
X136621271Y-72936552D01*
X136657009Y-72907222D01*
X136674913Y-72897652D01*
X136813533Y-72823557D01*
X136870147Y-72806384D01*
X136983373Y-72772037D01*
X137049558Y-72765518D01*
X137115740Y-72759000D01*
X137204260Y-72759000D01*
X137270442Y-72765518D01*
X137270442Y-72765518D01*
G37*
G36*
X165210442Y-72765518D02*
X165276627Y-72772037D01*
X165389853Y-72806384D01*
X165446467Y-72823557D01*
X165585087Y-72897652D01*
X165602991Y-72907222D01*
X165638729Y-72936552D01*
X165740186Y-73019814D01*
X165823448Y-73121271D01*
X165852778Y-73157009D01*
X165852779Y-73157011D01*
X165936443Y-73313533D01*
X165936443Y-73313534D01*
X165987963Y-73483373D01*
X166005359Y-73660000D01*
X165987963Y-73836627D01*
X165953616Y-73949853D01*
X165936443Y-74006467D01*
X165862348Y-74145087D01*
X165852778Y-74162991D01*
X165823448Y-74198729D01*
X165740186Y-74300186D01*
X165638729Y-74383448D01*
X165602991Y-74412778D01*
X165602989Y-74412779D01*
X165446467Y-74496443D01*
X165389853Y-74513616D01*
X165276627Y-74547963D01*
X165210442Y-74554482D01*
X165144260Y-74561000D01*
X165055740Y-74561000D01*
X164989558Y-74554482D01*
X164923373Y-74547963D01*
X164810147Y-74513616D01*
X164753533Y-74496443D01*
X164597011Y-74412779D01*
X164597009Y-74412778D01*
X164561271Y-74383448D01*
X164459814Y-74300186D01*
X164376552Y-74198729D01*
X164347222Y-74162991D01*
X164337652Y-74145087D01*
X164263557Y-74006467D01*
X164246384Y-73949853D01*
X164212037Y-73836627D01*
X164194641Y-73660000D01*
X164212037Y-73483373D01*
X164263557Y-73313534D01*
X164263557Y-73313533D01*
X164347221Y-73157011D01*
X164347222Y-73157009D01*
X164376552Y-73121271D01*
X164459814Y-73019814D01*
X164561271Y-72936552D01*
X164597009Y-72907222D01*
X164614913Y-72897652D01*
X164753533Y-72823557D01*
X164810147Y-72806384D01*
X164923373Y-72772037D01*
X164989558Y-72765518D01*
X165055740Y-72759000D01*
X165144260Y-72759000D01*
X165210442Y-72765518D01*
X165210442Y-72765518D01*
G37*
G36*
X153297198Y-71174954D02*
X153309450Y-71175556D01*
X153327869Y-71175556D01*
X153350149Y-71177750D01*
X153434236Y-71194476D01*
X153455655Y-71200974D01*
X153534871Y-71233785D01*
X153554607Y-71244335D01*
X153625897Y-71291969D01*
X153643208Y-71306176D01*
X153703824Y-71366792D01*
X153718031Y-71384103D01*
X153765665Y-71455393D01*
X153776215Y-71475129D01*
X153809026Y-71554345D01*
X153815524Y-71575764D01*
X153832250Y-71659851D01*
X153834444Y-71682131D01*
X153834444Y-71700550D01*
X153835046Y-71712802D01*
X153836852Y-71731140D01*
X153836852Y-72218860D01*
X153835263Y-72234999D01*
X153832347Y-72244611D01*
X153827612Y-72253469D01*
X153821237Y-72261237D01*
X153808798Y-72271446D01*
X153798432Y-72278372D01*
X153781105Y-72295698D01*
X153767490Y-72316073D01*
X153758112Y-72338711D01*
X153753331Y-72362745D01*
X153753331Y-72387249D01*
X153758111Y-72411283D01*
X153767487Y-72433922D01*
X153781101Y-72454297D01*
X153798427Y-72471624D01*
X153808796Y-72478552D01*
X153821237Y-72488763D01*
X153827612Y-72496531D01*
X153832347Y-72505389D01*
X153835263Y-72515001D01*
X153836852Y-72531140D01*
X153836852Y-73018861D01*
X153835046Y-73037198D01*
X153834444Y-73049450D01*
X153834444Y-73067869D01*
X153832250Y-73090149D01*
X153815524Y-73174236D01*
X153809026Y-73195655D01*
X153776215Y-73274871D01*
X153765665Y-73294607D01*
X153718031Y-73365897D01*
X153703824Y-73383208D01*
X153643208Y-73443824D01*
X153625897Y-73458031D01*
X153554607Y-73505665D01*
X153534871Y-73516215D01*
X153455655Y-73549026D01*
X153434236Y-73555524D01*
X153350149Y-73572250D01*
X153327869Y-73574444D01*
X153309450Y-73574444D01*
X153297198Y-73575046D01*
X153278861Y-73576852D01*
X152791139Y-73576852D01*
X152772802Y-73575046D01*
X152760550Y-73574444D01*
X152742131Y-73574444D01*
X152719851Y-73572250D01*
X152635764Y-73555524D01*
X152614345Y-73549026D01*
X152535129Y-73516215D01*
X152515393Y-73505665D01*
X152444103Y-73458031D01*
X152426792Y-73443824D01*
X152366176Y-73383208D01*
X152351969Y-73365897D01*
X152304335Y-73294607D01*
X152293785Y-73274871D01*
X152260974Y-73195655D01*
X152254476Y-73174236D01*
X152237750Y-73090149D01*
X152235556Y-73067869D01*
X152235556Y-73049450D01*
X152234954Y-73037198D01*
X152233148Y-73018861D01*
X152233148Y-72531140D01*
X152234737Y-72515001D01*
X152237653Y-72505389D01*
X152242388Y-72496531D01*
X152248763Y-72488763D01*
X152261202Y-72478554D01*
X152271568Y-72471628D01*
X152288895Y-72454302D01*
X152302510Y-72433927D01*
X152311888Y-72411289D01*
X152316669Y-72387255D01*
X152316669Y-72362751D01*
X152311889Y-72338717D01*
X152302513Y-72316078D01*
X152288899Y-72295703D01*
X152271573Y-72278376D01*
X152261204Y-72271448D01*
X152248763Y-72261237D01*
X152242388Y-72253469D01*
X152237653Y-72244611D01*
X152234737Y-72234999D01*
X152233148Y-72218860D01*
X152233148Y-71731140D01*
X152234954Y-71712802D01*
X152235556Y-71700550D01*
X152235556Y-71682131D01*
X152237750Y-71659851D01*
X152254476Y-71575764D01*
X152260974Y-71554345D01*
X152293785Y-71475129D01*
X152304335Y-71455393D01*
X152351969Y-71384103D01*
X152366176Y-71366792D01*
X152426792Y-71306176D01*
X152444103Y-71291969D01*
X152515393Y-71244335D01*
X152535129Y-71233785D01*
X152614345Y-71200974D01*
X152635764Y-71194476D01*
X152719851Y-71177750D01*
X152742131Y-71175556D01*
X152760550Y-71175556D01*
X152772802Y-71174954D01*
X152791140Y-71173148D01*
X153278860Y-71173148D01*
X153297198Y-71174954D01*
X153297198Y-71174954D01*
G37*
G36*
X165210442Y-70225518D02*
X165276627Y-70232037D01*
X165389853Y-70266384D01*
X165446467Y-70283557D01*
X165585087Y-70357652D01*
X165602991Y-70367222D01*
X165638729Y-70396552D01*
X165740186Y-70479814D01*
X165823448Y-70581271D01*
X165852778Y-70617009D01*
X165852779Y-70617011D01*
X165936443Y-70773533D01*
X165936443Y-70773534D01*
X165987963Y-70943373D01*
X166005359Y-71120000D01*
X165987963Y-71296627D01*
X165962875Y-71379332D01*
X165936443Y-71466467D01*
X165886316Y-71560247D01*
X165852778Y-71622991D01*
X165823448Y-71658729D01*
X165740186Y-71760186D01*
X165638729Y-71843448D01*
X165602991Y-71872778D01*
X165602989Y-71872779D01*
X165446467Y-71956443D01*
X165389853Y-71973616D01*
X165276627Y-72007963D01*
X165210443Y-72014481D01*
X165144260Y-72021000D01*
X165055740Y-72021000D01*
X164989557Y-72014481D01*
X164923373Y-72007963D01*
X164810147Y-71973616D01*
X164753533Y-71956443D01*
X164597011Y-71872779D01*
X164597009Y-71872778D01*
X164561271Y-71843448D01*
X164459814Y-71760186D01*
X164376552Y-71658729D01*
X164347222Y-71622991D01*
X164313684Y-71560247D01*
X164263557Y-71466467D01*
X164237125Y-71379332D01*
X164212037Y-71296627D01*
X164194641Y-71120000D01*
X164212037Y-70943373D01*
X164263557Y-70773534D01*
X164263557Y-70773533D01*
X164347221Y-70617011D01*
X164347222Y-70617009D01*
X164376552Y-70581271D01*
X164459814Y-70479814D01*
X164561271Y-70396552D01*
X164597009Y-70367222D01*
X164614913Y-70357652D01*
X164753533Y-70283557D01*
X164810147Y-70266384D01*
X164923373Y-70232037D01*
X164989558Y-70225518D01*
X165055740Y-70219000D01*
X165144260Y-70219000D01*
X165210442Y-70225518D01*
X165210442Y-70225518D01*
G37*
G36*
X137270442Y-70225518D02*
X137336627Y-70232037D01*
X137449853Y-70266384D01*
X137506467Y-70283557D01*
X137645087Y-70357652D01*
X137662991Y-70367222D01*
X137698729Y-70396552D01*
X137800186Y-70479814D01*
X137883448Y-70581271D01*
X137912778Y-70617009D01*
X137912779Y-70617011D01*
X137996443Y-70773533D01*
X137996443Y-70773534D01*
X138047963Y-70943373D01*
X138065359Y-71120000D01*
X138047963Y-71296627D01*
X138022875Y-71379332D01*
X137996443Y-71466467D01*
X137946316Y-71560247D01*
X137912778Y-71622991D01*
X137883448Y-71658729D01*
X137800186Y-71760186D01*
X137698729Y-71843448D01*
X137662991Y-71872778D01*
X137662989Y-71872779D01*
X137506467Y-71956443D01*
X137449853Y-71973616D01*
X137336627Y-72007963D01*
X137270443Y-72014481D01*
X137204260Y-72021000D01*
X137115740Y-72021000D01*
X137049557Y-72014481D01*
X136983373Y-72007963D01*
X136870147Y-71973616D01*
X136813533Y-71956443D01*
X136657011Y-71872779D01*
X136657009Y-71872778D01*
X136621271Y-71843448D01*
X136519814Y-71760186D01*
X136436552Y-71658729D01*
X136407222Y-71622991D01*
X136373684Y-71560247D01*
X136323557Y-71466467D01*
X136297125Y-71379332D01*
X136272037Y-71296627D01*
X136254641Y-71120000D01*
X136272037Y-70943373D01*
X136323557Y-70773534D01*
X136323557Y-70773533D01*
X136407221Y-70617011D01*
X136407222Y-70617009D01*
X136436552Y-70581271D01*
X136519814Y-70479814D01*
X136621271Y-70396552D01*
X136657009Y-70367222D01*
X136674913Y-70357652D01*
X136813533Y-70283557D01*
X136870147Y-70266384D01*
X136983373Y-70232037D01*
X137049558Y-70225518D01*
X137115740Y-70219000D01*
X137204260Y-70219000D01*
X137270442Y-70225518D01*
X137270442Y-70225518D01*
G37*
G36*
X165210443Y-67685519D02*
X165276627Y-67692037D01*
X165389853Y-67726384D01*
X165446467Y-67743557D01*
X165585087Y-67817652D01*
X165602991Y-67827222D01*
X165638729Y-67856552D01*
X165740186Y-67939814D01*
X165823448Y-68041271D01*
X165852778Y-68077009D01*
X165852779Y-68077011D01*
X165936443Y-68233533D01*
X165936443Y-68233534D01*
X165987963Y-68403373D01*
X166005359Y-68580000D01*
X165987963Y-68756627D01*
X165953616Y-68869853D01*
X165936443Y-68926467D01*
X165862348Y-69065087D01*
X165852778Y-69082991D01*
X165823448Y-69118729D01*
X165740186Y-69220186D01*
X165638729Y-69303448D01*
X165602991Y-69332778D01*
X165602989Y-69332779D01*
X165446467Y-69416443D01*
X165389853Y-69433616D01*
X165276627Y-69467963D01*
X165210442Y-69474482D01*
X165144260Y-69481000D01*
X165055740Y-69481000D01*
X164989558Y-69474482D01*
X164923373Y-69467963D01*
X164810147Y-69433616D01*
X164753533Y-69416443D01*
X164597011Y-69332779D01*
X164597009Y-69332778D01*
X164561271Y-69303448D01*
X164459814Y-69220186D01*
X164376552Y-69118729D01*
X164347222Y-69082991D01*
X164337652Y-69065087D01*
X164263557Y-68926467D01*
X164246384Y-68869853D01*
X164212037Y-68756627D01*
X164194641Y-68580000D01*
X164212037Y-68403373D01*
X164263557Y-68233534D01*
X164263557Y-68233533D01*
X164347221Y-68077011D01*
X164347222Y-68077009D01*
X164376552Y-68041271D01*
X164459814Y-67939814D01*
X164561271Y-67856552D01*
X164597009Y-67827222D01*
X164614913Y-67817652D01*
X164753533Y-67743557D01*
X164810147Y-67726384D01*
X164923373Y-67692037D01*
X164989557Y-67685519D01*
X165055740Y-67679000D01*
X165144260Y-67679000D01*
X165210443Y-67685519D01*
X165210443Y-67685519D01*
G37*
G36*
X137270443Y-67685519D02*
X137336627Y-67692037D01*
X137449853Y-67726384D01*
X137506467Y-67743557D01*
X137645087Y-67817652D01*
X137662991Y-67827222D01*
X137698729Y-67856552D01*
X137800186Y-67939814D01*
X137883448Y-68041271D01*
X137912778Y-68077009D01*
X137912779Y-68077011D01*
X137996443Y-68233533D01*
X137996443Y-68233534D01*
X138047963Y-68403373D01*
X138065359Y-68580000D01*
X138047963Y-68756627D01*
X138013616Y-68869853D01*
X137996443Y-68926467D01*
X137922348Y-69065087D01*
X137912778Y-69082991D01*
X137883448Y-69118729D01*
X137800186Y-69220186D01*
X137698729Y-69303448D01*
X137662991Y-69332778D01*
X137662989Y-69332779D01*
X137506467Y-69416443D01*
X137449853Y-69433616D01*
X137336627Y-69467963D01*
X137270442Y-69474482D01*
X137204260Y-69481000D01*
X137115740Y-69481000D01*
X137049558Y-69474482D01*
X136983373Y-69467963D01*
X136870147Y-69433616D01*
X136813533Y-69416443D01*
X136657011Y-69332779D01*
X136657009Y-69332778D01*
X136621271Y-69303448D01*
X136519814Y-69220186D01*
X136436552Y-69118729D01*
X136407222Y-69082991D01*
X136397652Y-69065087D01*
X136323557Y-68926467D01*
X136306384Y-68869853D01*
X136272037Y-68756627D01*
X136254641Y-68580000D01*
X136272037Y-68403373D01*
X136323557Y-68233534D01*
X136323557Y-68233533D01*
X136407221Y-68077011D01*
X136407222Y-68077009D01*
X136436552Y-68041271D01*
X136519814Y-67939814D01*
X136621271Y-67856552D01*
X136657009Y-67827222D01*
X136674913Y-67817652D01*
X136813533Y-67743557D01*
X136870147Y-67726384D01*
X136983373Y-67692037D01*
X137049557Y-67685519D01*
X137115740Y-67679000D01*
X137204260Y-67679000D01*
X137270443Y-67685519D01*
X137270443Y-67685519D01*
G37*
G36*
X165210442Y-65145518D02*
X165276627Y-65152037D01*
X165389853Y-65186384D01*
X165446467Y-65203557D01*
X165585087Y-65277652D01*
X165602991Y-65287222D01*
X165638729Y-65316552D01*
X165740186Y-65399814D01*
X165823448Y-65501271D01*
X165852778Y-65537009D01*
X165852779Y-65537011D01*
X165936443Y-65693533D01*
X165936443Y-65693534D01*
X165987963Y-65863373D01*
X166005359Y-66040000D01*
X165987963Y-66216627D01*
X165953616Y-66329853D01*
X165936443Y-66386467D01*
X165862348Y-66525087D01*
X165852778Y-66542991D01*
X165823448Y-66578729D01*
X165740186Y-66680186D01*
X165638729Y-66763448D01*
X165602991Y-66792778D01*
X165602989Y-66792779D01*
X165446467Y-66876443D01*
X165389853Y-66893616D01*
X165276627Y-66927963D01*
X165210442Y-66934482D01*
X165144260Y-66941000D01*
X165055740Y-66941000D01*
X164989558Y-66934482D01*
X164923373Y-66927963D01*
X164810147Y-66893616D01*
X164753533Y-66876443D01*
X164597011Y-66792779D01*
X164597009Y-66792778D01*
X164561271Y-66763448D01*
X164459814Y-66680186D01*
X164376552Y-66578729D01*
X164347222Y-66542991D01*
X164337652Y-66525087D01*
X164263557Y-66386467D01*
X164246384Y-66329853D01*
X164212037Y-66216627D01*
X164194641Y-66040000D01*
X164212037Y-65863373D01*
X164263557Y-65693534D01*
X164263557Y-65693533D01*
X164347221Y-65537011D01*
X164347222Y-65537009D01*
X164376552Y-65501271D01*
X164459814Y-65399814D01*
X164561271Y-65316552D01*
X164597009Y-65287222D01*
X164614913Y-65277652D01*
X164753533Y-65203557D01*
X164810147Y-65186384D01*
X164923373Y-65152037D01*
X164989558Y-65145518D01*
X165055740Y-65139000D01*
X165144260Y-65139000D01*
X165210442Y-65145518D01*
X165210442Y-65145518D01*
G37*
G36*
X137270442Y-65145518D02*
X137336627Y-65152037D01*
X137449853Y-65186384D01*
X137506467Y-65203557D01*
X137645087Y-65277652D01*
X137662991Y-65287222D01*
X137698729Y-65316552D01*
X137800186Y-65399814D01*
X137883448Y-65501271D01*
X137912778Y-65537009D01*
X137912779Y-65537011D01*
X137996443Y-65693533D01*
X137996443Y-65693534D01*
X138047963Y-65863373D01*
X138065359Y-66040000D01*
X138047963Y-66216627D01*
X138013616Y-66329853D01*
X137996443Y-66386467D01*
X137922348Y-66525087D01*
X137912778Y-66542991D01*
X137883448Y-66578729D01*
X137800186Y-66680186D01*
X137698729Y-66763448D01*
X137662991Y-66792778D01*
X137662989Y-66792779D01*
X137506467Y-66876443D01*
X137449853Y-66893616D01*
X137336627Y-66927963D01*
X137270442Y-66934482D01*
X137204260Y-66941000D01*
X137115740Y-66941000D01*
X137049558Y-66934482D01*
X136983373Y-66927963D01*
X136870147Y-66893616D01*
X136813533Y-66876443D01*
X136657011Y-66792779D01*
X136657009Y-66792778D01*
X136621271Y-66763448D01*
X136519814Y-66680186D01*
X136436552Y-66578729D01*
X136407222Y-66542991D01*
X136397652Y-66525087D01*
X136323557Y-66386467D01*
X136306384Y-66329853D01*
X136272037Y-66216627D01*
X136254641Y-66040000D01*
X136272037Y-65863373D01*
X136323557Y-65693534D01*
X136323557Y-65693533D01*
X136407221Y-65537011D01*
X136407222Y-65537009D01*
X136436552Y-65501271D01*
X136519814Y-65399814D01*
X136621271Y-65316552D01*
X136657009Y-65287222D01*
X136674913Y-65277652D01*
X136813533Y-65203557D01*
X136870147Y-65186384D01*
X136983373Y-65152037D01*
X137049558Y-65145518D01*
X137115740Y-65139000D01*
X137204260Y-65139000D01*
X137270442Y-65145518D01*
X137270442Y-65145518D01*
G37*
G36*
X137270442Y-62605518D02*
X137336627Y-62612037D01*
X137449853Y-62646384D01*
X137506467Y-62663557D01*
X137645087Y-62737652D01*
X137662991Y-62747222D01*
X137698729Y-62776552D01*
X137800186Y-62859814D01*
X137883448Y-62961271D01*
X137912778Y-62997009D01*
X137912779Y-62997011D01*
X137996443Y-63153533D01*
X137996443Y-63153534D01*
X138047963Y-63323373D01*
X138065359Y-63500000D01*
X138047963Y-63676627D01*
X138013616Y-63789853D01*
X137996443Y-63846467D01*
X137922348Y-63985087D01*
X137912778Y-64002991D01*
X137883448Y-64038729D01*
X137800186Y-64140186D01*
X137698729Y-64223448D01*
X137662991Y-64252778D01*
X137662989Y-64252779D01*
X137506467Y-64336443D01*
X137449853Y-64353616D01*
X137336627Y-64387963D01*
X137270442Y-64394482D01*
X137204260Y-64401000D01*
X137115740Y-64401000D01*
X137049558Y-64394482D01*
X136983373Y-64387963D01*
X136870147Y-64353616D01*
X136813533Y-64336443D01*
X136657011Y-64252779D01*
X136657009Y-64252778D01*
X136621271Y-64223448D01*
X136519814Y-64140186D01*
X136436552Y-64038729D01*
X136407222Y-64002991D01*
X136397652Y-63985087D01*
X136323557Y-63846467D01*
X136306384Y-63789853D01*
X136272037Y-63676627D01*
X136254641Y-63500000D01*
X136272037Y-63323373D01*
X136323557Y-63153534D01*
X136323557Y-63153533D01*
X136407221Y-62997011D01*
X136407222Y-62997009D01*
X136436552Y-62961271D01*
X136519814Y-62859814D01*
X136621271Y-62776552D01*
X136657009Y-62747222D01*
X136674913Y-62737652D01*
X136813533Y-62663557D01*
X136870147Y-62646384D01*
X136983373Y-62612037D01*
X137049558Y-62605518D01*
X137115740Y-62599000D01*
X137204260Y-62599000D01*
X137270442Y-62605518D01*
X137270442Y-62605518D01*
G37*
G36*
X165210442Y-62605518D02*
X165276627Y-62612037D01*
X165389853Y-62646384D01*
X165446467Y-62663557D01*
X165585087Y-62737652D01*
X165602991Y-62747222D01*
X165638729Y-62776552D01*
X165740186Y-62859814D01*
X165823448Y-62961271D01*
X165852778Y-62997009D01*
X165852779Y-62997011D01*
X165936443Y-63153533D01*
X165936443Y-63153534D01*
X165987963Y-63323373D01*
X166005359Y-63500000D01*
X165987963Y-63676627D01*
X165953616Y-63789853D01*
X165936443Y-63846467D01*
X165862348Y-63985087D01*
X165852778Y-64002991D01*
X165823448Y-64038729D01*
X165740186Y-64140186D01*
X165638729Y-64223448D01*
X165602991Y-64252778D01*
X165602989Y-64252779D01*
X165446467Y-64336443D01*
X165389853Y-64353616D01*
X165276627Y-64387963D01*
X165210442Y-64394482D01*
X165144260Y-64401000D01*
X165055740Y-64401000D01*
X164989558Y-64394482D01*
X164923373Y-64387963D01*
X164810147Y-64353616D01*
X164753533Y-64336443D01*
X164597011Y-64252779D01*
X164597009Y-64252778D01*
X164561271Y-64223448D01*
X164459814Y-64140186D01*
X164376552Y-64038729D01*
X164347222Y-64002991D01*
X164337652Y-63985087D01*
X164263557Y-63846467D01*
X164246384Y-63789853D01*
X164212037Y-63676627D01*
X164194641Y-63500000D01*
X164212037Y-63323373D01*
X164263557Y-63153534D01*
X164263557Y-63153533D01*
X164347221Y-62997011D01*
X164347222Y-62997009D01*
X164376552Y-62961271D01*
X164459814Y-62859814D01*
X164561271Y-62776552D01*
X164597009Y-62747222D01*
X164614913Y-62737652D01*
X164753533Y-62663557D01*
X164810147Y-62646384D01*
X164923373Y-62612037D01*
X164989558Y-62605518D01*
X165055740Y-62599000D01*
X165144260Y-62599000D01*
X165210442Y-62605518D01*
X165210442Y-62605518D01*
G37*
G36*
X139810442Y-62605518D02*
X139876627Y-62612037D01*
X139989853Y-62646384D01*
X140046467Y-62663557D01*
X140185087Y-62737652D01*
X140202991Y-62747222D01*
X140238729Y-62776552D01*
X140340186Y-62859814D01*
X140423448Y-62961271D01*
X140452778Y-62997009D01*
X140452779Y-62997011D01*
X140536443Y-63153533D01*
X140536443Y-63153534D01*
X140587963Y-63323373D01*
X140605359Y-63500000D01*
X140587963Y-63676627D01*
X140553616Y-63789853D01*
X140536443Y-63846467D01*
X140462348Y-63985087D01*
X140452778Y-64002991D01*
X140423448Y-64038729D01*
X140340186Y-64140186D01*
X140238729Y-64223448D01*
X140202991Y-64252778D01*
X140202989Y-64252779D01*
X140046467Y-64336443D01*
X139989853Y-64353616D01*
X139876627Y-64387963D01*
X139810442Y-64394482D01*
X139744260Y-64401000D01*
X139655740Y-64401000D01*
X139589558Y-64394482D01*
X139523373Y-64387963D01*
X139410147Y-64353616D01*
X139353533Y-64336443D01*
X139197011Y-64252779D01*
X139197009Y-64252778D01*
X139161271Y-64223448D01*
X139059814Y-64140186D01*
X138976552Y-64038729D01*
X138947222Y-64002991D01*
X138937652Y-63985087D01*
X138863557Y-63846467D01*
X138846384Y-63789853D01*
X138812037Y-63676627D01*
X138794641Y-63500000D01*
X138812037Y-63323373D01*
X138863557Y-63153534D01*
X138863557Y-63153533D01*
X138947221Y-62997011D01*
X138947222Y-62997009D01*
X138976552Y-62961271D01*
X139059814Y-62859814D01*
X139161271Y-62776552D01*
X139197009Y-62747222D01*
X139214913Y-62737652D01*
X139353533Y-62663557D01*
X139410147Y-62646384D01*
X139523373Y-62612037D01*
X139589558Y-62605518D01*
X139655740Y-62599000D01*
X139744260Y-62599000D01*
X139810442Y-62605518D01*
X139810442Y-62605518D01*
G37*
G36*
X162670442Y-62605518D02*
X162736627Y-62612037D01*
X162849853Y-62646384D01*
X162906467Y-62663557D01*
X163045087Y-62737652D01*
X163062991Y-62747222D01*
X163098729Y-62776552D01*
X163200186Y-62859814D01*
X163283448Y-62961271D01*
X163312778Y-62997009D01*
X163312779Y-62997011D01*
X163396443Y-63153533D01*
X163396443Y-63153534D01*
X163447963Y-63323373D01*
X163465359Y-63500000D01*
X163447963Y-63676627D01*
X163413616Y-63789853D01*
X163396443Y-63846467D01*
X163322348Y-63985087D01*
X163312778Y-64002991D01*
X163283448Y-64038729D01*
X163200186Y-64140186D01*
X163098729Y-64223448D01*
X163062991Y-64252778D01*
X163062989Y-64252779D01*
X162906467Y-64336443D01*
X162849853Y-64353616D01*
X162736627Y-64387963D01*
X162670442Y-64394482D01*
X162604260Y-64401000D01*
X162515740Y-64401000D01*
X162449558Y-64394482D01*
X162383373Y-64387963D01*
X162270147Y-64353616D01*
X162213533Y-64336443D01*
X162057011Y-64252779D01*
X162057009Y-64252778D01*
X162021271Y-64223448D01*
X161919814Y-64140186D01*
X161836552Y-64038729D01*
X161807222Y-64002991D01*
X161797652Y-63985087D01*
X161723557Y-63846467D01*
X161706384Y-63789853D01*
X161672037Y-63676627D01*
X161654641Y-63500000D01*
X161672037Y-63323373D01*
X161723557Y-63153534D01*
X161723557Y-63153533D01*
X161807221Y-62997011D01*
X161807222Y-62997009D01*
X161836552Y-62961271D01*
X161919814Y-62859814D01*
X162021271Y-62776552D01*
X162057009Y-62747222D01*
X162074913Y-62737652D01*
X162213533Y-62663557D01*
X162270147Y-62646384D01*
X162383373Y-62612037D01*
X162449558Y-62605518D01*
X162515740Y-62599000D01*
X162604260Y-62599000D01*
X162670442Y-62605518D01*
X162670442Y-62605518D01*
G37*
G36*
X163461000Y-61861000D02*
X161659000Y-61861000D01*
X161659000Y-60059000D01*
X163461000Y-60059000D01*
X163461000Y-61861000D01*
X163461000Y-61861000D01*
G37*
G36*
X137270442Y-60065518D02*
X137336627Y-60072037D01*
X137449853Y-60106384D01*
X137506467Y-60123557D01*
X137625858Y-60187374D01*
X137662991Y-60207222D01*
X137694434Y-60233027D01*
X137800186Y-60319814D01*
X137873378Y-60409000D01*
X137912778Y-60457009D01*
X137912779Y-60457011D01*
X137996443Y-60613533D01*
X137996443Y-60613534D01*
X138047963Y-60783373D01*
X138065359Y-60960000D01*
X138047963Y-61136627D01*
X138032952Y-61186111D01*
X137996443Y-61306467D01*
X137972372Y-61351500D01*
X137912778Y-61462991D01*
X137883448Y-61498729D01*
X137800186Y-61600186D01*
X137698729Y-61683448D01*
X137662991Y-61712778D01*
X137662989Y-61712779D01*
X137506467Y-61796443D01*
X137449853Y-61813616D01*
X137336627Y-61847963D01*
X137270443Y-61854481D01*
X137204260Y-61861000D01*
X137115740Y-61861000D01*
X137049557Y-61854481D01*
X136983373Y-61847963D01*
X136870147Y-61813616D01*
X136813533Y-61796443D01*
X136657011Y-61712779D01*
X136657009Y-61712778D01*
X136621271Y-61683448D01*
X136519814Y-61600186D01*
X136436552Y-61498729D01*
X136407222Y-61462991D01*
X136347628Y-61351500D01*
X136323557Y-61306467D01*
X136287048Y-61186111D01*
X136272037Y-61136627D01*
X136254641Y-60960000D01*
X136272037Y-60783373D01*
X136323557Y-60613534D01*
X136323557Y-60613533D01*
X136407221Y-60457011D01*
X136407222Y-60457009D01*
X136446622Y-60409000D01*
X136519814Y-60319814D01*
X136625566Y-60233027D01*
X136657009Y-60207222D01*
X136694142Y-60187374D01*
X136813533Y-60123557D01*
X136870147Y-60106384D01*
X136983373Y-60072037D01*
X137049558Y-60065518D01*
X137115740Y-60059000D01*
X137204260Y-60059000D01*
X137270442Y-60065518D01*
X137270442Y-60065518D01*
G37*
G36*
X140601000Y-61861000D02*
X138799000Y-61861000D01*
X138799000Y-60059000D01*
X140601000Y-60059000D01*
X140601000Y-61861000D01*
X140601000Y-61861000D01*
G37*
G36*
X165210442Y-60065518D02*
X165276627Y-60072037D01*
X165389853Y-60106384D01*
X165446467Y-60123557D01*
X165565858Y-60187374D01*
X165602991Y-60207222D01*
X165634434Y-60233027D01*
X165740186Y-60319814D01*
X165813378Y-60409000D01*
X165852778Y-60457009D01*
X165852779Y-60457011D01*
X165936443Y-60613533D01*
X165936443Y-60613534D01*
X165987963Y-60783373D01*
X166005359Y-60960000D01*
X165987963Y-61136627D01*
X165972952Y-61186111D01*
X165936443Y-61306467D01*
X165912372Y-61351500D01*
X165852778Y-61462991D01*
X165823448Y-61498729D01*
X165740186Y-61600186D01*
X165638729Y-61683448D01*
X165602991Y-61712778D01*
X165602989Y-61712779D01*
X165446467Y-61796443D01*
X165389853Y-61813616D01*
X165276627Y-61847963D01*
X165210443Y-61854481D01*
X165144260Y-61861000D01*
X165055740Y-61861000D01*
X164989557Y-61854481D01*
X164923373Y-61847963D01*
X164810147Y-61813616D01*
X164753533Y-61796443D01*
X164597011Y-61712779D01*
X164597009Y-61712778D01*
X164561271Y-61683448D01*
X164459814Y-61600186D01*
X164376552Y-61498729D01*
X164347222Y-61462991D01*
X164287628Y-61351500D01*
X164263557Y-61306467D01*
X164227048Y-61186111D01*
X164212037Y-61136627D01*
X164194641Y-60960000D01*
X164212037Y-60783373D01*
X164263557Y-60613534D01*
X164263557Y-60613533D01*
X164347221Y-60457011D01*
X164347222Y-60457009D01*
X164386622Y-60409000D01*
X164459814Y-60319814D01*
X164565566Y-60233027D01*
X164597009Y-60207222D01*
X164634142Y-60187374D01*
X164753533Y-60123557D01*
X164810147Y-60106384D01*
X164923373Y-60072037D01*
X164989558Y-60065518D01*
X165055740Y-60059000D01*
X165144260Y-60059000D01*
X165210442Y-60065518D01*
X165210442Y-60065518D01*
G37*
G36*
X153778015Y-59146973D02*
X153881879Y-59178479D01*
X153977600Y-59229644D01*
X154061501Y-59298499D01*
X154130356Y-59382400D01*
X154181521Y-59478121D01*
X154185383Y-59490854D01*
X154194760Y-59513493D01*
X154208374Y-59533867D01*
X154225701Y-59551194D01*
X154246076Y-59564808D01*
X154268715Y-59574186D01*
X154292748Y-59578966D01*
X154317252Y-59578966D01*
X154341286Y-59574185D01*
X154363925Y-59564808D01*
X154384299Y-59551194D01*
X154401626Y-59533867D01*
X154415240Y-59513492D01*
X154424617Y-59490854D01*
X154428479Y-59478121D01*
X154479644Y-59382400D01*
X154548499Y-59298499D01*
X154632400Y-59229644D01*
X154728121Y-59178479D01*
X154831985Y-59146973D01*
X154912933Y-59139000D01*
X154967067Y-59139000D01*
X155048015Y-59146973D01*
X155151879Y-59178479D01*
X155247600Y-59229644D01*
X155331501Y-59298499D01*
X155400356Y-59382400D01*
X155451521Y-59478121D01*
X155455383Y-59490854D01*
X155464760Y-59513493D01*
X155478374Y-59533867D01*
X155495701Y-59551194D01*
X155516076Y-59564808D01*
X155538715Y-59574186D01*
X155562748Y-59578966D01*
X155587252Y-59578966D01*
X155611286Y-59574185D01*
X155633925Y-59564808D01*
X155654299Y-59551194D01*
X155671626Y-59533867D01*
X155685240Y-59513492D01*
X155694617Y-59490854D01*
X155698479Y-59478121D01*
X155749644Y-59382400D01*
X155818499Y-59298499D01*
X155902400Y-59229644D01*
X155998121Y-59178479D01*
X156101985Y-59146973D01*
X156182933Y-59139000D01*
X156237067Y-59139000D01*
X156318015Y-59146973D01*
X156421879Y-59178479D01*
X156517600Y-59229644D01*
X156601501Y-59298499D01*
X156670356Y-59382400D01*
X156721521Y-59478121D01*
X156725383Y-59490854D01*
X156734760Y-59513493D01*
X156748374Y-59533867D01*
X156765701Y-59551194D01*
X156786076Y-59564808D01*
X156808715Y-59574186D01*
X156832748Y-59578966D01*
X156857252Y-59578966D01*
X156881286Y-59574185D01*
X156903925Y-59564808D01*
X156924299Y-59551194D01*
X156941626Y-59533867D01*
X156955240Y-59513492D01*
X156964617Y-59490854D01*
X156968479Y-59478121D01*
X157019644Y-59382400D01*
X157088499Y-59298499D01*
X157172400Y-59229644D01*
X157268121Y-59178479D01*
X157371985Y-59146973D01*
X157452933Y-59139000D01*
X157507067Y-59139000D01*
X157588015Y-59146973D01*
X157691879Y-59178479D01*
X157787600Y-59229644D01*
X157871501Y-59298499D01*
X157940356Y-59382400D01*
X157991521Y-59478121D01*
X157995383Y-59490854D01*
X158004760Y-59513493D01*
X158018374Y-59533867D01*
X158035701Y-59551194D01*
X158056076Y-59564808D01*
X158078715Y-59574186D01*
X158102748Y-59578966D01*
X158127252Y-59578966D01*
X158151286Y-59574185D01*
X158173925Y-59564808D01*
X158194299Y-59551194D01*
X158211626Y-59533867D01*
X158225240Y-59513492D01*
X158234617Y-59490854D01*
X158238479Y-59478121D01*
X158289644Y-59382400D01*
X158358499Y-59298499D01*
X158442400Y-59229644D01*
X158538121Y-59178479D01*
X158641985Y-59146973D01*
X158722933Y-59139000D01*
X158777067Y-59139000D01*
X158858015Y-59146973D01*
X158961879Y-59178479D01*
X159057600Y-59229644D01*
X159141501Y-59298499D01*
X159210356Y-59382400D01*
X159261521Y-59478121D01*
X159293027Y-59581985D01*
X159303666Y-59690000D01*
X159293027Y-59798015D01*
X159261521Y-59901879D01*
X159210356Y-59997600D01*
X159141501Y-60081501D01*
X159057600Y-60150356D01*
X158961879Y-60201521D01*
X158949142Y-60205385D01*
X158926507Y-60214760D01*
X158906133Y-60228374D01*
X158888806Y-60245701D01*
X158875192Y-60266076D01*
X158865814Y-60288715D01*
X158861034Y-60312748D01*
X158861034Y-60337252D01*
X158865815Y-60361286D01*
X158875192Y-60383925D01*
X158888806Y-60404299D01*
X158906133Y-60421626D01*
X158926508Y-60435240D01*
X158949142Y-60444615D01*
X158961879Y-60448479D01*
X159057600Y-60499644D01*
X159141501Y-60568499D01*
X159210356Y-60652400D01*
X159261521Y-60748121D01*
X159293027Y-60851985D01*
X159303666Y-60960000D01*
X159293027Y-61068015D01*
X159261521Y-61171879D01*
X159210356Y-61267600D01*
X159141501Y-61351501D01*
X159057600Y-61420356D01*
X158961879Y-61471521D01*
X158858015Y-61503027D01*
X158777067Y-61511000D01*
X158722933Y-61511000D01*
X158641985Y-61503027D01*
X158538121Y-61471521D01*
X158442400Y-61420356D01*
X158358499Y-61351501D01*
X158289644Y-61267600D01*
X158238479Y-61171879D01*
X158234615Y-61159142D01*
X158225240Y-61136507D01*
X158211626Y-61116133D01*
X158194299Y-61098806D01*
X158173924Y-61085192D01*
X158151285Y-61075814D01*
X158127252Y-61071034D01*
X158102748Y-61071034D01*
X158078714Y-61075815D01*
X158056075Y-61085192D01*
X158035701Y-61098806D01*
X158018374Y-61116133D01*
X158004760Y-61136508D01*
X157995385Y-61159142D01*
X157991521Y-61171879D01*
X157940356Y-61267600D01*
X157871501Y-61351501D01*
X157787600Y-61420356D01*
X157691879Y-61471521D01*
X157588015Y-61503027D01*
X157507067Y-61511000D01*
X157452933Y-61511000D01*
X157371985Y-61503027D01*
X157268121Y-61471521D01*
X157172400Y-61420356D01*
X157088499Y-61351501D01*
X157019644Y-61267600D01*
X156968479Y-61171879D01*
X156964615Y-61159142D01*
X156955240Y-61136507D01*
X156941626Y-61116133D01*
X156924299Y-61098806D01*
X156903924Y-61085192D01*
X156881285Y-61075814D01*
X156857252Y-61071034D01*
X156832748Y-61071034D01*
X156808714Y-61075815D01*
X156786075Y-61085192D01*
X156765701Y-61098806D01*
X156748374Y-61116133D01*
X156734760Y-61136508D01*
X156725385Y-61159142D01*
X156721521Y-61171879D01*
X156670356Y-61267600D01*
X156601501Y-61351501D01*
X156517600Y-61420356D01*
X156421879Y-61471521D01*
X156318015Y-61503027D01*
X156237067Y-61511000D01*
X156182933Y-61511000D01*
X156101985Y-61503027D01*
X155998121Y-61471521D01*
X155902400Y-61420356D01*
X155818499Y-61351501D01*
X155749644Y-61267600D01*
X155698479Y-61171879D01*
X155694615Y-61159142D01*
X155685240Y-61136507D01*
X155671626Y-61116133D01*
X155654299Y-61098806D01*
X155633924Y-61085192D01*
X155611285Y-61075814D01*
X155587252Y-61071034D01*
X155562748Y-61071034D01*
X155538714Y-61075815D01*
X155516075Y-61085192D01*
X155495701Y-61098806D01*
X155478374Y-61116133D01*
X155464760Y-61136508D01*
X155455385Y-61159142D01*
X155451521Y-61171879D01*
X155400356Y-61267600D01*
X155331501Y-61351501D01*
X155247600Y-61420356D01*
X155151879Y-61471521D01*
X155048015Y-61503027D01*
X154967067Y-61511000D01*
X154912933Y-61511000D01*
X154831985Y-61503027D01*
X154728121Y-61471521D01*
X154632400Y-61420356D01*
X154548499Y-61351501D01*
X154479644Y-61267600D01*
X154456234Y-61223805D01*
X154442626Y-61203439D01*
X154425299Y-61186111D01*
X154404924Y-61172498D01*
X154382285Y-61163120D01*
X154358252Y-61158340D01*
X154333748Y-61158340D01*
X154309714Y-61163121D01*
X154287075Y-61172498D01*
X154266701Y-61186112D01*
X154249373Y-61203439D01*
X154235760Y-61223814D01*
X154226382Y-61246453D01*
X154221000Y-61282738D01*
X154221000Y-61511000D01*
X153119000Y-61511000D01*
X153119000Y-60409000D01*
X153347262Y-60409000D01*
X153371648Y-60406598D01*
X153395097Y-60399485D01*
X153416708Y-60387934D01*
X153435650Y-60372388D01*
X153451196Y-60353446D01*
X153462747Y-60331835D01*
X153469860Y-60308386D01*
X153472262Y-60284000D01*
X153471056Y-60271748D01*
X153868340Y-60271748D01*
X153868340Y-60296252D01*
X153873121Y-60320286D01*
X153882498Y-60342925D01*
X153896112Y-60363299D01*
X153913439Y-60380627D01*
X153933814Y-60394240D01*
X153956453Y-60403618D01*
X153992738Y-60409000D01*
X154221000Y-60409000D01*
X154221000Y-60637262D01*
X154223402Y-60661648D01*
X154230515Y-60685097D01*
X154242066Y-60706708D01*
X154257612Y-60725650D01*
X154276554Y-60741196D01*
X154298165Y-60752747D01*
X154321614Y-60759860D01*
X154346000Y-60762262D01*
X154370386Y-60759860D01*
X154393835Y-60752747D01*
X154415446Y-60741196D01*
X154434388Y-60725650D01*
X154456236Y-60696192D01*
X154479644Y-60652400D01*
X154548499Y-60568499D01*
X154632400Y-60499644D01*
X154728121Y-60448479D01*
X154740858Y-60444615D01*
X154763493Y-60435240D01*
X154783867Y-60421626D01*
X154801194Y-60404299D01*
X154814808Y-60383924D01*
X154824186Y-60361285D01*
X154828966Y-60337252D01*
X154828966Y-60312748D01*
X155051034Y-60312748D01*
X155051034Y-60337252D01*
X155055815Y-60361286D01*
X155065192Y-60383925D01*
X155078806Y-60404299D01*
X155096133Y-60421626D01*
X155116508Y-60435240D01*
X155139142Y-60444615D01*
X155151879Y-60448479D01*
X155247600Y-60499644D01*
X155331501Y-60568499D01*
X155400356Y-60652400D01*
X155451521Y-60748121D01*
X155455383Y-60760854D01*
X155464760Y-60783493D01*
X155478374Y-60803867D01*
X155495701Y-60821194D01*
X155516076Y-60834808D01*
X155538715Y-60844186D01*
X155562748Y-60848966D01*
X155587252Y-60848966D01*
X155611286Y-60844185D01*
X155633925Y-60834808D01*
X155654299Y-60821194D01*
X155671626Y-60803867D01*
X155685240Y-60783492D01*
X155694617Y-60760854D01*
X155698479Y-60748121D01*
X155749644Y-60652400D01*
X155818499Y-60568499D01*
X155902400Y-60499644D01*
X155998121Y-60448479D01*
X156010858Y-60444615D01*
X156033493Y-60435240D01*
X156053867Y-60421626D01*
X156071194Y-60404299D01*
X156084808Y-60383924D01*
X156094186Y-60361285D01*
X156098966Y-60337252D01*
X156098966Y-60312748D01*
X156321034Y-60312748D01*
X156321034Y-60337252D01*
X156325815Y-60361286D01*
X156335192Y-60383925D01*
X156348806Y-60404299D01*
X156366133Y-60421626D01*
X156386508Y-60435240D01*
X156409142Y-60444615D01*
X156421879Y-60448479D01*
X156517600Y-60499644D01*
X156601501Y-60568499D01*
X156670356Y-60652400D01*
X156721521Y-60748121D01*
X156725383Y-60760854D01*
X156734760Y-60783493D01*
X156748374Y-60803867D01*
X156765701Y-60821194D01*
X156786076Y-60834808D01*
X156808715Y-60844186D01*
X156832748Y-60848966D01*
X156857252Y-60848966D01*
X156881286Y-60844185D01*
X156903925Y-60834808D01*
X156924299Y-60821194D01*
X156941626Y-60803867D01*
X156955240Y-60783492D01*
X156964617Y-60760854D01*
X156968479Y-60748121D01*
X157019644Y-60652400D01*
X157088499Y-60568499D01*
X157172400Y-60499644D01*
X157268121Y-60448479D01*
X157280858Y-60444615D01*
X157303493Y-60435240D01*
X157323867Y-60421626D01*
X157341194Y-60404299D01*
X157354808Y-60383924D01*
X157364186Y-60361285D01*
X157368966Y-60337252D01*
X157368966Y-60312748D01*
X157591034Y-60312748D01*
X157591034Y-60337252D01*
X157595815Y-60361286D01*
X157605192Y-60383925D01*
X157618806Y-60404299D01*
X157636133Y-60421626D01*
X157656508Y-60435240D01*
X157679142Y-60444615D01*
X157691879Y-60448479D01*
X157787600Y-60499644D01*
X157871501Y-60568499D01*
X157940356Y-60652400D01*
X157991521Y-60748121D01*
X157995383Y-60760854D01*
X158004760Y-60783493D01*
X158018374Y-60803867D01*
X158035701Y-60821194D01*
X158056076Y-60834808D01*
X158078715Y-60844186D01*
X158102748Y-60848966D01*
X158127252Y-60848966D01*
X158151286Y-60844185D01*
X158173925Y-60834808D01*
X158194299Y-60821194D01*
X158211626Y-60803867D01*
X158225240Y-60783492D01*
X158234617Y-60760854D01*
X158238479Y-60748121D01*
X158289644Y-60652400D01*
X158358499Y-60568499D01*
X158442400Y-60499644D01*
X158538121Y-60448479D01*
X158550858Y-60444615D01*
X158573493Y-60435240D01*
X158593867Y-60421626D01*
X158611194Y-60404299D01*
X158624808Y-60383924D01*
X158634186Y-60361285D01*
X158638966Y-60337252D01*
X158638966Y-60312748D01*
X158634185Y-60288714D01*
X158624808Y-60266075D01*
X158611194Y-60245701D01*
X158593867Y-60228374D01*
X158573492Y-60214760D01*
X158550858Y-60205385D01*
X158538121Y-60201521D01*
X158442400Y-60150356D01*
X158358499Y-60081501D01*
X158289644Y-59997600D01*
X158238479Y-59901879D01*
X158234615Y-59889142D01*
X158225240Y-59866507D01*
X158211626Y-59846133D01*
X158194299Y-59828806D01*
X158173924Y-59815192D01*
X158151285Y-59805814D01*
X158127252Y-59801034D01*
X158102748Y-59801034D01*
X158078714Y-59805815D01*
X158056075Y-59815192D01*
X158035701Y-59828806D01*
X158018374Y-59846133D01*
X158004760Y-59866508D01*
X157995385Y-59889142D01*
X157991521Y-59901879D01*
X157940356Y-59997600D01*
X157871501Y-60081501D01*
X157787600Y-60150356D01*
X157691879Y-60201521D01*
X157679142Y-60205385D01*
X157656507Y-60214760D01*
X157636133Y-60228374D01*
X157618806Y-60245701D01*
X157605192Y-60266076D01*
X157595814Y-60288715D01*
X157591034Y-60312748D01*
X157368966Y-60312748D01*
X157364185Y-60288714D01*
X157354808Y-60266075D01*
X157341194Y-60245701D01*
X157323867Y-60228374D01*
X157303492Y-60214760D01*
X157280858Y-60205385D01*
X157268121Y-60201521D01*
X157172400Y-60150356D01*
X157088499Y-60081501D01*
X157019644Y-59997600D01*
X156968479Y-59901879D01*
X156964615Y-59889142D01*
X156955240Y-59866507D01*
X156941626Y-59846133D01*
X156924299Y-59828806D01*
X156903924Y-59815192D01*
X156881285Y-59805814D01*
X156857252Y-59801034D01*
X156832748Y-59801034D01*
X156808714Y-59805815D01*
X156786075Y-59815192D01*
X156765701Y-59828806D01*
X156748374Y-59846133D01*
X156734760Y-59866508D01*
X156725385Y-59889142D01*
X156721521Y-59901879D01*
X156670356Y-59997600D01*
X156601501Y-60081501D01*
X156517600Y-60150356D01*
X156421879Y-60201521D01*
X156409142Y-60205385D01*
X156386507Y-60214760D01*
X156366133Y-60228374D01*
X156348806Y-60245701D01*
X156335192Y-60266076D01*
X156325814Y-60288715D01*
X156321034Y-60312748D01*
X156098966Y-60312748D01*
X156094185Y-60288714D01*
X156084808Y-60266075D01*
X156071194Y-60245701D01*
X156053867Y-60228374D01*
X156033492Y-60214760D01*
X156010858Y-60205385D01*
X155998121Y-60201521D01*
X155902400Y-60150356D01*
X155818499Y-60081501D01*
X155749644Y-59997600D01*
X155698479Y-59901879D01*
X155694615Y-59889142D01*
X155685240Y-59866507D01*
X155671626Y-59846133D01*
X155654299Y-59828806D01*
X155633924Y-59815192D01*
X155611285Y-59805814D01*
X155587252Y-59801034D01*
X155562748Y-59801034D01*
X155538714Y-59805815D01*
X155516075Y-59815192D01*
X155495701Y-59828806D01*
X155478374Y-59846133D01*
X155464760Y-59866508D01*
X155455385Y-59889142D01*
X155451521Y-59901879D01*
X155400356Y-59997600D01*
X155331501Y-60081501D01*
X155247600Y-60150356D01*
X155151879Y-60201521D01*
X155139142Y-60205385D01*
X155116507Y-60214760D01*
X155096133Y-60228374D01*
X155078806Y-60245701D01*
X155065192Y-60266076D01*
X155055814Y-60288715D01*
X155051034Y-60312748D01*
X154828966Y-60312748D01*
X154824185Y-60288714D01*
X154814808Y-60266075D01*
X154801194Y-60245701D01*
X154783867Y-60228374D01*
X154763492Y-60214760D01*
X154740858Y-60205385D01*
X154728121Y-60201521D01*
X154632400Y-60150356D01*
X154548499Y-60081501D01*
X154479644Y-59997600D01*
X154428479Y-59901879D01*
X154424615Y-59889142D01*
X154415240Y-59866507D01*
X154401626Y-59846133D01*
X154384299Y-59828806D01*
X154363924Y-59815192D01*
X154341285Y-59805814D01*
X154317252Y-59801034D01*
X154292748Y-59801034D01*
X154268714Y-59805815D01*
X154246075Y-59815192D01*
X154225701Y-59828806D01*
X154208374Y-59846133D01*
X154194760Y-59866508D01*
X154185385Y-59889142D01*
X154181521Y-59901879D01*
X154130356Y-59997600D01*
X154061501Y-60081501D01*
X153977600Y-60150356D01*
X153933805Y-60173766D01*
X153913439Y-60187374D01*
X153896111Y-60204701D01*
X153882498Y-60225076D01*
X153873120Y-60247715D01*
X153868340Y-60271748D01*
X153471056Y-60271748D01*
X153469860Y-60259614D01*
X153462747Y-60236165D01*
X153451196Y-60214554D01*
X153435650Y-60195612D01*
X153406192Y-60173764D01*
X153362400Y-60150356D01*
X153278499Y-60081501D01*
X153209644Y-59997600D01*
X153158479Y-59901879D01*
X153126973Y-59798015D01*
X153116334Y-59690000D01*
X153126973Y-59581985D01*
X153158479Y-59478121D01*
X153209644Y-59382400D01*
X153278499Y-59298499D01*
X153362400Y-59229644D01*
X153458121Y-59178479D01*
X153561985Y-59146973D01*
X153642933Y-59139000D01*
X153697067Y-59139000D01*
X153778015Y-59146973D01*
X153778015Y-59146973D01*
G37*
G36*
X165210443Y-57525519D02*
X165276627Y-57532037D01*
X165389853Y-57566384D01*
X165446467Y-57583557D01*
X165585087Y-57657652D01*
X165602991Y-57667222D01*
X165638729Y-57696552D01*
X165740186Y-57779814D01*
X165823448Y-57881271D01*
X165852778Y-57917009D01*
X165852779Y-57917011D01*
X165936443Y-58073533D01*
X165936443Y-58073534D01*
X165987963Y-58243373D01*
X166005359Y-58420000D01*
X165987963Y-58596627D01*
X165953616Y-58709853D01*
X165936443Y-58766467D01*
X165862348Y-58905087D01*
X165852778Y-58922991D01*
X165823448Y-58958729D01*
X165740186Y-59060186D01*
X165644149Y-59139000D01*
X165602991Y-59172778D01*
X165602989Y-59172779D01*
X165446467Y-59256443D01*
X165389853Y-59273616D01*
X165276627Y-59307963D01*
X165210442Y-59314482D01*
X165144260Y-59321000D01*
X165055740Y-59321000D01*
X164989558Y-59314482D01*
X164923373Y-59307963D01*
X164810147Y-59273616D01*
X164753533Y-59256443D01*
X164597011Y-59172779D01*
X164597009Y-59172778D01*
X164555851Y-59139000D01*
X164459814Y-59060186D01*
X164376552Y-58958729D01*
X164347222Y-58922991D01*
X164337652Y-58905087D01*
X164263557Y-58766467D01*
X164246384Y-58709853D01*
X164212037Y-58596627D01*
X164194641Y-58420000D01*
X164212037Y-58243373D01*
X164263557Y-58073534D01*
X164263557Y-58073533D01*
X164347221Y-57917011D01*
X164347222Y-57917009D01*
X164376552Y-57881271D01*
X164459814Y-57779814D01*
X164561271Y-57696552D01*
X164597009Y-57667222D01*
X164614913Y-57657652D01*
X164753533Y-57583557D01*
X164810147Y-57566384D01*
X164923373Y-57532037D01*
X164989557Y-57525519D01*
X165055740Y-57519000D01*
X165144260Y-57519000D01*
X165210443Y-57525519D01*
X165210443Y-57525519D01*
G37*
G36*
X137270443Y-57525519D02*
X137336627Y-57532037D01*
X137449853Y-57566384D01*
X137506467Y-57583557D01*
X137645087Y-57657652D01*
X137662991Y-57667222D01*
X137698729Y-57696552D01*
X137800186Y-57779814D01*
X137883448Y-57881271D01*
X137912778Y-57917009D01*
X137912779Y-57917011D01*
X137996443Y-58073533D01*
X137996443Y-58073534D01*
X138047963Y-58243373D01*
X138065359Y-58420000D01*
X138047963Y-58596627D01*
X138013616Y-58709853D01*
X137996443Y-58766467D01*
X137922348Y-58905087D01*
X137912778Y-58922991D01*
X137883448Y-58958729D01*
X137800186Y-59060186D01*
X137704149Y-59139000D01*
X137662991Y-59172778D01*
X137662989Y-59172779D01*
X137506467Y-59256443D01*
X137449853Y-59273616D01*
X137336627Y-59307963D01*
X137270442Y-59314482D01*
X137204260Y-59321000D01*
X137115740Y-59321000D01*
X137049558Y-59314482D01*
X136983373Y-59307963D01*
X136870147Y-59273616D01*
X136813533Y-59256443D01*
X136657011Y-59172779D01*
X136657009Y-59172778D01*
X136615851Y-59139000D01*
X136519814Y-59060186D01*
X136436552Y-58958729D01*
X136407222Y-58922991D01*
X136397652Y-58905087D01*
X136323557Y-58766467D01*
X136306384Y-58709853D01*
X136272037Y-58596627D01*
X136254641Y-58420000D01*
X136272037Y-58243373D01*
X136323557Y-58073534D01*
X136323557Y-58073533D01*
X136407221Y-57917011D01*
X136407222Y-57917009D01*
X136436552Y-57881271D01*
X136519814Y-57779814D01*
X136621271Y-57696552D01*
X136657009Y-57667222D01*
X136674913Y-57657652D01*
X136813533Y-57583557D01*
X136870147Y-57566384D01*
X136983373Y-57532037D01*
X137049557Y-57525519D01*
X137115740Y-57519000D01*
X137204260Y-57519000D01*
X137270443Y-57525519D01*
X137270443Y-57525519D01*
G37*
G36*
X142368413Y-54965525D02*
X142443456Y-54988290D01*
X142453425Y-54991314D01*
X142531774Y-55033193D01*
X142600448Y-55089552D01*
X142656807Y-55158226D01*
X142698686Y-55236575D01*
X142699669Y-55239815D01*
X142724475Y-55321587D01*
X142733182Y-55410000D01*
X142724475Y-55498413D01*
X142707455Y-55554518D01*
X142698686Y-55583425D01*
X142656807Y-55661774D01*
X142600448Y-55730448D01*
X142531774Y-55786807D01*
X142453425Y-55828686D01*
X142443456Y-55831710D01*
X142368413Y-55854475D01*
X142302158Y-55861000D01*
X142257842Y-55861000D01*
X142191587Y-55854475D01*
X142116544Y-55831710D01*
X142106575Y-55828686D01*
X142053265Y-55800191D01*
X142028225Y-55786807D01*
X141989687Y-55755179D01*
X141968571Y-55737850D01*
X141948202Y-55724239D01*
X141925563Y-55714862D01*
X141901529Y-55710081D01*
X141877025Y-55710081D01*
X141852992Y-55714861D01*
X141830352Y-55724238D01*
X141809978Y-55737852D01*
X141792650Y-55755179D01*
X141779036Y-55775553D01*
X141769659Y-55798192D01*
X141764878Y-55822226D01*
X141764878Y-55846730D01*
X141769658Y-55870763D01*
X141773157Y-55879212D01*
X141775398Y-55886599D01*
X141775399Y-55886601D01*
X141813727Y-56012953D01*
X141819772Y-56032881D01*
X141831000Y-56146882D01*
X141831000Y-56773118D01*
X141819772Y-56887119D01*
X141775398Y-57033401D01*
X141703341Y-57168210D01*
X141606369Y-57286369D01*
X141488209Y-57383341D01*
X141488207Y-57383342D01*
X141353398Y-57455399D01*
X141234351Y-57491511D01*
X141207118Y-57499772D01*
X141055000Y-57514754D01*
X140902881Y-57499772D01*
X140875648Y-57491511D01*
X140756601Y-57455399D01*
X140621792Y-57383342D01*
X140621790Y-57383341D01*
X140503631Y-57286369D01*
X140406659Y-57168209D01*
X140334602Y-57033400D01*
X140290228Y-56887118D01*
X140279000Y-56773117D01*
X140279000Y-56146882D01*
X140290228Y-56032881D01*
X140334602Y-55886599D01*
X140406660Y-55751790D01*
X140503632Y-55633631D01*
X140621791Y-55536659D01*
X140756600Y-55464602D01*
X140756602Y-55464601D01*
X140902879Y-55420229D01*
X140902882Y-55420228D01*
X141055000Y-55405246D01*
X141207119Y-55420228D01*
X141207122Y-55420229D01*
X141353399Y-55464601D01*
X141353401Y-55464602D01*
X141488210Y-55536659D01*
X141569114Y-55603056D01*
X141606367Y-55633629D01*
X141606370Y-55633632D01*
X141636304Y-55670105D01*
X141653631Y-55687432D01*
X141674006Y-55701046D01*
X141696645Y-55710423D01*
X141720678Y-55715203D01*
X141745183Y-55715203D01*
X141769216Y-55710422D01*
X141791855Y-55701044D01*
X141812229Y-55687430D01*
X141829556Y-55670103D01*
X141843170Y-55649728D01*
X141852547Y-55627089D01*
X141857327Y-55603056D01*
X141857327Y-55578551D01*
X141852547Y-55554524D01*
X141846167Y-55533489D01*
X141835525Y-55498411D01*
X141826818Y-55410000D01*
X141835525Y-55321587D01*
X141860331Y-55239815D01*
X141861314Y-55236575D01*
X141903193Y-55158226D01*
X141959552Y-55089552D01*
X142028226Y-55033193D01*
X142106575Y-54991314D01*
X142116544Y-54988290D01*
X142191587Y-54965525D01*
X142257842Y-54959000D01*
X142302158Y-54959000D01*
X142368413Y-54965525D01*
X142368413Y-54965525D01*
G37*
G36*
X147368413Y-54965525D02*
X147443456Y-54988290D01*
X147453425Y-54991314D01*
X147531774Y-55033193D01*
X147600448Y-55089552D01*
X147656807Y-55158226D01*
X147698686Y-55236575D01*
X147699669Y-55239815D01*
X147724475Y-55321587D01*
X147733182Y-55410000D01*
X147724475Y-55498413D01*
X147707454Y-55554521D01*
X147702673Y-55578554D01*
X147702673Y-55603058D01*
X147707453Y-55627092D01*
X147716830Y-55649731D01*
X147730444Y-55670106D01*
X147747771Y-55687433D01*
X147768146Y-55701047D01*
X147790785Y-55710424D01*
X147814818Y-55715205D01*
X147839322Y-55715205D01*
X147863356Y-55710425D01*
X147885995Y-55701048D01*
X147906370Y-55687434D01*
X147923698Y-55670106D01*
X147953632Y-55633631D01*
X147953634Y-55633629D01*
X148071791Y-55536659D01*
X148206600Y-55464602D01*
X148206602Y-55464601D01*
X148352879Y-55420229D01*
X148352882Y-55420228D01*
X148505000Y-55405246D01*
X148657119Y-55420228D01*
X148657122Y-55420229D01*
X148803399Y-55464601D01*
X148803401Y-55464602D01*
X148938210Y-55536659D01*
X149056369Y-55633631D01*
X149153341Y-55751790D01*
X149225398Y-55886599D01*
X149269772Y-56032881D01*
X149281000Y-56146882D01*
X149281000Y-56773118D01*
X149269772Y-56887119D01*
X149225398Y-57033401D01*
X149153341Y-57168210D01*
X149056369Y-57286369D01*
X148938209Y-57383341D01*
X148938207Y-57383342D01*
X148803398Y-57455399D01*
X148684351Y-57491511D01*
X148657118Y-57499772D01*
X148505000Y-57514754D01*
X148352881Y-57499772D01*
X148325648Y-57491511D01*
X148206601Y-57455399D01*
X148071792Y-57383342D01*
X148071790Y-57383341D01*
X147953631Y-57286369D01*
X147856659Y-57168209D01*
X147784602Y-57033400D01*
X147740228Y-56887118D01*
X147729000Y-56773117D01*
X147729000Y-56146882D01*
X147740228Y-56032881D01*
X147786844Y-55879208D01*
X147790345Y-55870754D01*
X147795123Y-55846721D01*
X147795121Y-55822216D01*
X147790338Y-55798183D01*
X147780959Y-55775545D01*
X147767344Y-55755172D01*
X147750015Y-55737846D01*
X147729639Y-55724234D01*
X147706999Y-55714858D01*
X147682966Y-55710080D01*
X147658461Y-55710082D01*
X147634428Y-55714865D01*
X147611790Y-55724244D01*
X147591429Y-55737850D01*
X147570313Y-55755179D01*
X147531775Y-55786807D01*
X147506735Y-55800191D01*
X147453425Y-55828686D01*
X147443456Y-55831710D01*
X147368413Y-55854475D01*
X147302158Y-55861000D01*
X147257842Y-55861000D01*
X147191587Y-55854475D01*
X147116544Y-55831710D01*
X147106575Y-55828686D01*
X147028226Y-55786807D01*
X146959552Y-55730448D01*
X146903193Y-55661774D01*
X146861314Y-55583425D01*
X146852545Y-55554518D01*
X146835525Y-55498413D01*
X146826818Y-55410000D01*
X146835525Y-55321587D01*
X146860331Y-55239815D01*
X146861314Y-55236575D01*
X146903193Y-55158226D01*
X146959552Y-55089552D01*
X147028226Y-55033193D01*
X147106575Y-54991314D01*
X147116544Y-54988290D01*
X147191587Y-54965525D01*
X147257842Y-54959000D01*
X147302158Y-54959000D01*
X147368413Y-54965525D01*
X147368413Y-54965525D01*
G37*
G36*
X152510443Y-54985519D02*
X152576627Y-54992037D01*
X152689853Y-55026384D01*
X152746467Y-55043557D01*
X152832516Y-55089552D01*
X152902991Y-55127222D01*
X152938729Y-55156552D01*
X153040186Y-55239814D01*
X153107294Y-55321587D01*
X153152778Y-55377009D01*
X153152779Y-55377011D01*
X153236443Y-55533533D01*
X153250099Y-55578551D01*
X153287963Y-55703373D01*
X153305359Y-55880000D01*
X153287963Y-56056627D01*
X153260584Y-56146882D01*
X153236443Y-56226467D01*
X153162348Y-56365087D01*
X153152778Y-56382991D01*
X153123448Y-56418729D01*
X153040186Y-56520186D01*
X152938729Y-56603448D01*
X152902991Y-56632778D01*
X152902989Y-56632779D01*
X152746467Y-56716443D01*
X152689853Y-56733616D01*
X152576627Y-56767963D01*
X152510443Y-56774481D01*
X152444260Y-56781000D01*
X152355740Y-56781000D01*
X152289557Y-56774481D01*
X152223373Y-56767963D01*
X152110147Y-56733616D01*
X152053533Y-56716443D01*
X151897011Y-56632779D01*
X151897009Y-56632778D01*
X151861271Y-56603448D01*
X151759814Y-56520186D01*
X151676552Y-56418729D01*
X151647222Y-56382991D01*
X151637652Y-56365087D01*
X151563557Y-56226467D01*
X151539416Y-56146882D01*
X151512037Y-56056627D01*
X151494641Y-55880000D01*
X151512037Y-55703373D01*
X151549901Y-55578551D01*
X151563557Y-55533533D01*
X151647221Y-55377011D01*
X151647222Y-55377009D01*
X151692706Y-55321587D01*
X151759814Y-55239814D01*
X151861271Y-55156552D01*
X151897009Y-55127222D01*
X151967484Y-55089552D01*
X152053533Y-55043557D01*
X152110147Y-55026384D01*
X152223373Y-54992037D01*
X152289557Y-54985519D01*
X152355740Y-54979000D01*
X152444260Y-54979000D01*
X152510443Y-54985519D01*
X152510443Y-54985519D01*
G37*
G36*
X155050443Y-54985519D02*
X155116627Y-54992037D01*
X155229853Y-55026384D01*
X155286467Y-55043557D01*
X155372516Y-55089552D01*
X155442991Y-55127222D01*
X155478729Y-55156552D01*
X155580186Y-55239814D01*
X155647294Y-55321587D01*
X155692778Y-55377009D01*
X155692779Y-55377011D01*
X155776443Y-55533533D01*
X155790099Y-55578551D01*
X155827963Y-55703373D01*
X155845359Y-55880000D01*
X155827963Y-56056627D01*
X155800584Y-56146882D01*
X155776443Y-56226467D01*
X155702348Y-56365087D01*
X155692778Y-56382991D01*
X155663448Y-56418729D01*
X155580186Y-56520186D01*
X155478729Y-56603448D01*
X155442991Y-56632778D01*
X155442989Y-56632779D01*
X155286467Y-56716443D01*
X155229853Y-56733616D01*
X155116627Y-56767963D01*
X155050443Y-56774481D01*
X154984260Y-56781000D01*
X154895740Y-56781000D01*
X154829557Y-56774481D01*
X154763373Y-56767963D01*
X154650147Y-56733616D01*
X154593533Y-56716443D01*
X154437011Y-56632779D01*
X154437009Y-56632778D01*
X154401271Y-56603448D01*
X154299814Y-56520186D01*
X154216552Y-56418729D01*
X154187222Y-56382991D01*
X154177652Y-56365087D01*
X154103557Y-56226467D01*
X154079416Y-56146882D01*
X154052037Y-56056627D01*
X154034641Y-55880000D01*
X154052037Y-55703373D01*
X154089901Y-55578551D01*
X154103557Y-55533533D01*
X154187221Y-55377011D01*
X154187222Y-55377009D01*
X154232706Y-55321587D01*
X154299814Y-55239814D01*
X154401271Y-55156552D01*
X154437009Y-55127222D01*
X154507484Y-55089552D01*
X154593533Y-55043557D01*
X154650147Y-55026384D01*
X154763373Y-54992037D01*
X154829557Y-54985519D01*
X154895740Y-54979000D01*
X154984260Y-54979000D01*
X155050443Y-54985519D01*
X155050443Y-54985519D01*
G37*
G36*
X160130443Y-54985519D02*
X160196627Y-54992037D01*
X160309853Y-55026384D01*
X160366467Y-55043557D01*
X160452516Y-55089552D01*
X160522991Y-55127222D01*
X160558729Y-55156552D01*
X160660186Y-55239814D01*
X160727294Y-55321587D01*
X160772778Y-55377009D01*
X160772779Y-55377011D01*
X160856443Y-55533533D01*
X160870099Y-55578551D01*
X160907963Y-55703373D01*
X160925359Y-55880000D01*
X160907963Y-56056627D01*
X160880584Y-56146882D01*
X160856443Y-56226467D01*
X160782348Y-56365087D01*
X160772778Y-56382991D01*
X160743448Y-56418729D01*
X160660186Y-56520186D01*
X160558729Y-56603448D01*
X160522991Y-56632778D01*
X160522989Y-56632779D01*
X160366467Y-56716443D01*
X160309853Y-56733616D01*
X160196627Y-56767963D01*
X160130443Y-56774481D01*
X160064260Y-56781000D01*
X159975740Y-56781000D01*
X159909557Y-56774481D01*
X159843373Y-56767963D01*
X159730147Y-56733616D01*
X159673533Y-56716443D01*
X159517011Y-56632779D01*
X159517009Y-56632778D01*
X159481271Y-56603448D01*
X159379814Y-56520186D01*
X159296552Y-56418729D01*
X159267222Y-56382991D01*
X159257652Y-56365087D01*
X159183557Y-56226467D01*
X159159416Y-56146882D01*
X159132037Y-56056627D01*
X159114641Y-55880000D01*
X159132037Y-55703373D01*
X159169901Y-55578551D01*
X159183557Y-55533533D01*
X159267221Y-55377011D01*
X159267222Y-55377009D01*
X159312706Y-55321587D01*
X159379814Y-55239814D01*
X159481271Y-55156552D01*
X159517009Y-55127222D01*
X159587484Y-55089552D01*
X159673533Y-55043557D01*
X159730147Y-55026384D01*
X159843373Y-54992037D01*
X159909557Y-54985519D01*
X159975740Y-54979000D01*
X160064260Y-54979000D01*
X160130443Y-54985519D01*
X160130443Y-54985519D01*
G37*
G36*
X163461000Y-56781000D02*
X161659000Y-56781000D01*
X161659000Y-54979000D01*
X163461000Y-54979000D01*
X163461000Y-56781000D01*
X163461000Y-56781000D01*
G37*
G36*
X166001000Y-56781000D02*
X164199000Y-56781000D01*
X164199000Y-54979000D01*
X166001000Y-54979000D01*
X166001000Y-56781000D01*
X166001000Y-56781000D01*
G37*
G36*
X138061000Y-56781000D02*
X136259000Y-56781000D01*
X136259000Y-54979000D01*
X138061000Y-54979000D01*
X138061000Y-56781000D01*
X138061000Y-56781000D01*
G37*
G36*
X157590443Y-54985519D02*
X157656627Y-54992037D01*
X157769853Y-55026384D01*
X157826467Y-55043557D01*
X157912516Y-55089552D01*
X157982991Y-55127222D01*
X158018729Y-55156552D01*
X158120186Y-55239814D01*
X158187294Y-55321587D01*
X158232778Y-55377009D01*
X158232779Y-55377011D01*
X158316443Y-55533533D01*
X158330099Y-55578551D01*
X158367963Y-55703373D01*
X158385359Y-55880000D01*
X158367963Y-56056627D01*
X158340584Y-56146882D01*
X158316443Y-56226467D01*
X158242348Y-56365087D01*
X158232778Y-56382991D01*
X158203448Y-56418729D01*
X158120186Y-56520186D01*
X158018729Y-56603448D01*
X157982991Y-56632778D01*
X157982989Y-56632779D01*
X157826467Y-56716443D01*
X157769853Y-56733616D01*
X157656627Y-56767963D01*
X157590443Y-56774481D01*
X157524260Y-56781000D01*
X157435740Y-56781000D01*
X157369557Y-56774481D01*
X157303373Y-56767963D01*
X157190147Y-56733616D01*
X157133533Y-56716443D01*
X156977011Y-56632779D01*
X156977009Y-56632778D01*
X156941271Y-56603448D01*
X156839814Y-56520186D01*
X156756552Y-56418729D01*
X156727222Y-56382991D01*
X156717652Y-56365087D01*
X156643557Y-56226467D01*
X156619416Y-56146882D01*
X156592037Y-56056627D01*
X156574641Y-55880000D01*
X156592037Y-55703373D01*
X156629901Y-55578551D01*
X156643557Y-55533533D01*
X156727221Y-55377011D01*
X156727222Y-55377009D01*
X156772706Y-55321587D01*
X156839814Y-55239814D01*
X156941271Y-55156552D01*
X156977009Y-55127222D01*
X157047484Y-55089552D01*
X157133533Y-55043557D01*
X157190147Y-55026384D01*
X157303373Y-54992037D01*
X157369557Y-54985519D01*
X157435740Y-54979000D01*
X157524260Y-54979000D01*
X157590443Y-54985519D01*
X157590443Y-54985519D01*
G37*
G36*
X167975734Y-52233232D02*
X168185202Y-52319996D01*
X168373723Y-52445962D01*
X168534038Y-52606277D01*
X168660004Y-52794798D01*
X168746768Y-53004266D01*
X168791000Y-53226635D01*
X168791000Y-53453365D01*
X168746768Y-53675734D01*
X168660004Y-53885202D01*
X168534038Y-54073723D01*
X168373723Y-54234038D01*
X168185202Y-54360004D01*
X167975734Y-54446768D01*
X167753365Y-54491000D01*
X167526635Y-54491000D01*
X167304266Y-54446768D01*
X167094798Y-54360004D01*
X166906277Y-54234038D01*
X166745962Y-54073723D01*
X166619996Y-53885202D01*
X166533232Y-53675734D01*
X166489000Y-53453365D01*
X166489000Y-53226635D01*
X166533232Y-53004266D01*
X166619996Y-52794798D01*
X166745962Y-52606277D01*
X166906277Y-52445962D01*
X167094798Y-52319996D01*
X167304266Y-52233232D01*
X167526635Y-52189000D01*
X167753365Y-52189000D01*
X167975734Y-52233232D01*
X167975734Y-52233232D01*
G37*
G36*
X134955734Y-52233232D02*
X135165202Y-52319996D01*
X135353723Y-52445962D01*
X135514038Y-52606277D01*
X135640004Y-52794798D01*
X135726768Y-53004266D01*
X135771000Y-53226635D01*
X135771000Y-53453365D01*
X135726768Y-53675734D01*
X135640004Y-53885202D01*
X135514038Y-54073723D01*
X135353723Y-54234038D01*
X135165202Y-54360004D01*
X134955734Y-54446768D01*
X134733365Y-54491000D01*
X134506635Y-54491000D01*
X134284266Y-54446768D01*
X134074798Y-54360004D01*
X133886277Y-54234038D01*
X133725962Y-54073723D01*
X133599996Y-53885202D01*
X133513232Y-53675734D01*
X133469000Y-53453365D01*
X133469000Y-53226635D01*
X133513232Y-53004266D01*
X133599996Y-52794798D01*
X133725962Y-52606277D01*
X133886277Y-52445962D01*
X134074798Y-52319996D01*
X134284266Y-52233232D01*
X134506635Y-52189000D01*
X134733365Y-52189000D01*
X134955734Y-52233232D01*
X134955734Y-52233232D01*
G37*
G36*
X141027714Y-51718058D02*
X141027717Y-51718059D01*
X141145719Y-51753854D01*
X141145721Y-51753855D01*
X141254471Y-51811983D01*
X141349790Y-51890210D01*
X141428017Y-51985529D01*
X141486145Y-52094279D01*
X141521942Y-52212286D01*
X141531000Y-52304253D01*
X141531000Y-53015747D01*
X141521942Y-53107714D01*
X141486145Y-53225721D01*
X141428017Y-53334471D01*
X141349793Y-53429787D01*
X141349791Y-53429788D01*
X141349790Y-53429790D01*
X141254468Y-53508018D01*
X141145718Y-53566146D01*
X141049682Y-53595278D01*
X141027713Y-53601942D01*
X140905000Y-53614028D01*
X140782286Y-53601942D01*
X140760317Y-53595278D01*
X140664281Y-53566146D01*
X140555531Y-53508018D01*
X140555529Y-53508017D01*
X140460213Y-53429793D01*
X140460212Y-53429791D01*
X140460210Y-53429790D01*
X140381982Y-53334468D01*
X140323854Y-53225718D01*
X140288059Y-53107716D01*
X140288058Y-53107713D01*
X140279000Y-53015746D01*
X140279000Y-52304253D01*
X140288058Y-52212286D01*
X140323854Y-52094281D01*
X140323855Y-52094279D01*
X140381983Y-51985531D01*
X140460211Y-51890210D01*
X140555530Y-51811983D01*
X140664280Y-51753855D01*
X140664282Y-51753854D01*
X140782284Y-51718059D01*
X140782287Y-51718058D01*
X140905000Y-51705972D01*
X141027714Y-51718058D01*
X141027714Y-51718058D01*
G37*
G36*
X148777714Y-51718058D02*
X148777717Y-51718059D01*
X148895719Y-51753854D01*
X148895721Y-51753855D01*
X149004471Y-51811983D01*
X149099790Y-51890210D01*
X149178017Y-51985529D01*
X149236145Y-52094279D01*
X149271942Y-52212286D01*
X149281000Y-52304253D01*
X149281000Y-53015747D01*
X149271942Y-53107714D01*
X149236145Y-53225721D01*
X149178017Y-53334471D01*
X149099793Y-53429787D01*
X149099791Y-53429788D01*
X149099790Y-53429790D01*
X149004468Y-53508018D01*
X148895718Y-53566146D01*
X148799682Y-53595278D01*
X148777713Y-53601942D01*
X148655000Y-53614028D01*
X148532286Y-53601942D01*
X148510317Y-53595278D01*
X148414281Y-53566146D01*
X148305531Y-53508018D01*
X148305529Y-53508017D01*
X148210213Y-53429793D01*
X148210212Y-53429791D01*
X148210210Y-53429790D01*
X148131982Y-53334468D01*
X148073854Y-53225718D01*
X148038059Y-53107716D01*
X148038058Y-53107713D01*
X148029000Y-53015746D01*
X148029000Y-52304253D01*
X148038058Y-52212286D01*
X148073854Y-52094281D01*
X148073855Y-52094279D01*
X148131983Y-51985531D01*
X148210211Y-51890210D01*
X148305530Y-51811983D01*
X148414280Y-51753855D01*
X148414282Y-51753854D01*
X148532284Y-51718059D01*
X148532287Y-51718058D01*
X148655000Y-51705972D01*
X148777714Y-51718058D01*
X148777714Y-51718058D01*
G37*
M02*
